<svg xmlns="http://www.w3.org/2000/svg" width="220" height="64" fill="none"><path fill="#000" d="M218.778 56.226c0 3.387-2.801 6.13-6.265 6.13H7.495c-3.462 0-6.273-2.743-6.273-6.13V7.337c0-3.385 2.81-6.138 6.273-6.138h205.016c3.466 0 6.265 2.753 6.265 6.138z"/><path fill="#A6A6A6" d="M211.852 1.273c3.772 0 6.842 2.993 6.842 6.671v47.667c0 3.678-3.07 6.671-6.842 6.671H8.148c-3.772 0-6.842-2.993-6.842-6.67V7.943c0-3.678 3.07-6.67 6.842-6.67zm0-1.273H8.148C3.668 0 0 3.577 0 7.944v47.667c0 4.368 3.669 7.945 8.148 7.945h203.704c4.479 0 8.148-3.578 8.148-7.945V7.944C220 3.577 216.331 0 211.852 0"/><path fill="#fff" d="M49.098 31.435c-.048-5.121 4.3-7.613 4.499-7.729-2.462-3.5-6.28-3.978-7.62-4.017-3.206-.328-6.315 1.87-7.948 1.87-1.665 0-4.18-1.838-6.89-1.784-3.487.053-6.75 2.021-8.54 5.078-3.692 6.234-.938 15.393 2.6 20.432 1.77 2.467 3.838 5.223 6.545 5.126 2.648-.107 3.637-1.647 6.833-1.647 3.166 0 4.095 1.647 6.855 1.585 2.843-.045 4.632-2.479 6.34-4.969 2.045-2.828 2.866-5.613 2.899-5.756-.067-.023-5.52-2.052-5.574-8.19M43.883 16.375c1.424-1.737 2.398-4.1 2.128-6.497-2.062.09-4.64 1.39-6.124 3.089-1.314 1.497-2.487 3.95-2.184 6.257 2.316.168 4.694-1.14 6.18-2.849M87.421 50.057h-3.7l-2.028-6.211h-7.046l-1.931 6.21h-3.603l6.98-21.144h4.313zm-6.339-8.817-1.833-5.522q-.29-.846-1.094-3.983h-.065q-.32 1.35-1.03 3.983l-1.8 5.522zM105.375 42.246q0 3.89-2.156 6.148-1.931 2.008-4.794 2.008-3.09 0-4.441-2.164h-.065v8.032h-3.475V39.83q-.001-2.446-.128-5.02h3.055l.194 2.417h.065q1.738-2.73 5.277-2.73 2.768 0 4.617 2.133 1.852 2.135 1.851 5.616m-3.539.124q0-2.226-1.03-3.67-1.128-1.506-3.025-1.507c-.857 0-1.636.28-2.332.832q-1.047.833-1.367 2.181-.162.629-.162 1.033v2.542q0 1.664 1.047 2.81t2.718 1.145q1.963-.001 3.055-1.475 1.095-1.475 1.096-3.89M123.361 42.246q0 3.89-2.157 6.148-1.93 2.008-4.793 2.008-3.09 0-4.439-2.164h-.065v8.032h-3.475V39.83q0-2.446-.129-5.02h3.056l.194 2.417h.065q1.736-2.73 5.277-2.73 2.765 0 4.618 2.133 1.847 2.135 1.848 5.616m-3.539.124q0-2.226-1.032-3.67-1.125-1.506-3.023-1.507c-.859 0-1.636.28-2.333.832q-1.047.833-1.366 2.181-.16.629-.161 1.033v2.542q0 1.664 1.043 2.81 1.045 1.144 2.721 1.145 1.963-.001 3.056-1.475 1.095-1.475 1.095-3.89M143.471 44.127q.002 2.697-1.926 4.392-2.118 1.85-5.908 1.85-3.498 0-5.62-1.316l.805-2.824q2.288 1.35 5.022 1.35 1.962 0 3.059-.864 1.093-.864 1.092-2.31 0-1.288-.901-2.167-.898-.88-2.992-1.635-5.695-2.073-5.694-6.064 0-2.608 1.996-4.272 1.99-1.665 5.309-1.665 2.96 0 4.922 1.004l-.869 2.761q-1.832-.972-4.15-.972-1.835 0-2.862.879-.868.784-.869 1.914 0 1.255.996 2.07.868.753 3.155 1.633 2.798 1.098 4.118 2.57 1.318 1.471 1.317 3.666M154.958 37.352h-3.83v7.403q0 2.823 2.028 2.823.932 0 1.543-.157l.096 2.572q-1.026.375-2.702.375-2.058 0-3.218-1.223-1.158-1.225-1.159-4.11v-7.686h-2.281v-2.542h2.281v-2.792l3.412-1.004v3.796h3.83zM172.237 42.307q-.001 3.516-2.06 5.773-2.159 2.322-5.729 2.321-3.442 0-5.484-2.226-2.044-2.227-2.044-5.615-.001-3.545 2.107-5.803 2.106-2.259 5.678-2.259 3.443 0 5.534 2.228 1.999 2.16 1.998 5.581m-3.605.11c0-1.406-.308-2.612-.932-3.618q-1.093-1.825-3.119-1.824-2.093 0-3.186 1.824c-.624 1.008-.932 2.233-.932 3.682 0 1.406.308 2.612.932 3.616.752 1.217 1.801 1.824 3.155 1.824q1.992-.001 3.119-1.856.962-1.539.963-3.648M183.531 37.79a6 6 0 0 0-1.096-.094q-1.834 0-2.832 1.35-.868 1.193-.868 3.011v8h-3.473l.032-10.445q0-2.637-.13-4.8h3.026l.127 2.917h.097q.549-1.506 1.737-2.415 1.16-.817 2.511-.817.482.001.869.062zM199.069 41.712q.001.91-.127 1.536h-10.423q.06 2.26 1.512 3.453 1.317 1.066 3.409 1.066 2.317 0 4.218-.721l.544 2.351q-2.22.944-5.242.942-3.637 0-5.714-2.086-2.074-2.085-2.074-5.6 0-3.448 1.932-5.74 2.025-2.445 5.468-2.445 3.381 0 5.118 2.445 1.378 1.944 1.379 4.799m-3.313-.879q.033-1.506-.675-2.604-.903-1.413-2.768-1.413-1.706 0-2.766 1.381-.868 1.1-1.028 2.634h7.237zM79.933 15.903q0 2.805-1.724 4.223-1.596 1.31-4.535 1.31-1.456 0-2.498-.124V11.094a19 19 0 0 1 2.941-.216q2.799 0 4.22 1.186 1.595 1.342 1.596 3.84m-1.8.046q0-1.818-.988-2.79-.987-.97-2.886-.97-.806-.001-1.376.107v7.768q.315.047 1.154.046 1.96 0 3.026-1.062 1.068-1.064 1.07-3.099M89.481 17.537q0 1.726-1.012 2.836-1.06 1.14-2.814 1.14-1.692.001-2.695-1.094t-1.003-2.759q0-1.74 1.035-2.85 1.036-1.109 2.79-1.109 1.692 0 2.72 1.093.979 1.064.98 2.743m-1.771.054q0-1.037-.458-1.778-.538-.897-1.532-.897-1.028 0-1.566.897-.459.74-.458 1.808 0 1.036.458 1.778.554.896 1.55.896.978 0 1.532-.912.474-.756.474-1.792M102.284 13.854l-2.404 7.49h-1.564l-.996-3.253a24 24 0 0 1-.618-2.42h-.03a17 17 0 0 1-.618 2.42l-1.058 3.253h-1.582l-2.26-7.49h1.754l.869 3.56q.314 1.264.522 2.404h.03q.191-.94.634-2.388l1.09-3.575h1.392l1.045 3.499q.38 1.28.616 2.466h.047q.174-1.155.522-2.466l.932-3.499h1.677zM111.137 21.344h-1.707v-4.29q.001-1.983-1.549-1.983-.758-.001-1.233.545a1.9 1.9 0 0 0-.474 1.284v4.442h-1.708v-5.348q0-.986-.062-2.144h1.501l.08 1.171h.047a2.43 2.43 0 0 1 .885-.904q.696-.42 1.548-.42 1.076 0 1.788.678.884.832.884 2.482zM115.847 21.343h-1.706V10.417h1.706zM125.902 17.537q0 1.726-1.012 2.836-1.061 1.14-2.814 1.14-1.695.001-2.696-1.094t-1.002-2.759q0-1.74 1.035-2.85 1.036-1.109 2.788-1.109 1.692 0 2.722 1.093.978 1.064.979 2.743m-1.773.054q0-1.037-.458-1.778-.537-.897-1.53-.897-1.031 0-1.566.897-.46.74-.458 1.808 0 1.036.458 1.778.554.896 1.549.896.978 0 1.531-.912.475-.756.474-1.792M134.167 21.344h-1.533l-.127-.863h-.047q-.787 1.032-2.244 1.033-1.09-.001-1.754-.679-.601-.616-.601-1.525-.001-1.372 1.178-2.096 1.178-.725 3.313-.709v-.14q0-1.479-1.595-1.479-1.137 0-2.003.555l-.347-1.093c.713-.43 1.595-.647 2.635-.647 2.007 0 3.015 1.033 3.015 3.098v2.759q0 1.123.11 1.785m-1.773-2.575v-1.155q-2.825-.047-2.825 1.51-.001.585.327.879.332.292.834.292c.375 0 .726-.116 1.045-.347a1.42 1.42 0 0 0 .619-1.178M143.872 21.343h-1.516l-.08-1.203h-.047q-.727 1.374-2.467 1.373-1.39 0-2.308-1.063-.916-1.062-.916-2.758 0-1.819.996-2.944.965-1.05 2.371-1.049 1.549 0 2.164 1.017h.033v-4.3h1.709v8.91q0 1.092.061 2.017m-1.77-3.158v-1.25q0-.323-.047-.524a1.9 1.9 0 0 0-.618-1.009 1.7 1.7 0 0 0-1.142-.408q-.954 0-1.503.74-.546.741-.547 1.896 0 1.11.524 1.803.556.74 1.493.74.84 0 1.349-.617.493-.57.491-1.372M158.478 17.537q0 1.726-1.012 2.836c-.707.76-1.642 1.14-2.814 1.14q-1.688.001-2.696-1.094-1.002-1.095-1.002-2.759 0-1.74 1.035-2.85 1.035-1.109 2.792-1.109 1.69 0 2.718 1.093.978 1.064.979 2.743m-1.77.054q0-1.037-.457-1.778c-.361-.598-.869-.897-1.534-.897q-1.026 0-1.566.897-.459.74-.458 1.808 0 1.036.458 1.778.554.896 1.55.896.98 0 1.533-.912.473-.756.474-1.792M167.661 21.344h-1.706v-4.29q.001-1.983-1.55-1.983-.76-.001-1.232.545a1.9 1.9 0 0 0-.474 1.284v4.442h-1.71v-5.348q0-.986-.06-2.144h1.499l.08 1.171h.048q.302-.545.884-.904a2.95 2.95 0 0 1 1.55-.42q1.075 0 1.786.678.887.832.885 2.482zM179.155 15.1h-1.881v3.64q.002 1.386.996 1.387.46 0 .761-.078l.044 1.263q-.506.186-1.326.186-1.011 0-1.58-.6-.57-.602-.57-2.02V15.1h-1.123v-1.247h1.123V12.48l1.674-.493v1.864h1.88v1.249zM188.196 21.343h-1.709v-4.258q0-2.015-1.547-2.015-1.186 0-1.63 1.168-.077.246-.079.6v4.504h-1.707V10.417h1.707v4.514h.032q.808-1.232 2.308-1.232 1.06 0 1.757.679.868.846.868 2.512zM197.522 17.244q0 .448-.063.755h-5.122c.023.74.267 1.304.741 1.695q.651.524 1.677.524 1.137 0 2.072-.354l.267 1.157q-1.092.462-2.578.462-1.787 0-2.805-1.025-1.02-1.025-1.018-2.75-.001-1.695.948-2.82.992-1.202 2.686-1.202 1.659 0 2.511 1.202.686.954.684 2.356m-1.629-.43c.013-.495-.1-.92-.331-1.28q-.444-.694-1.359-.694-.837 0-1.359.678-.425.541-.507 1.295z"/></svg>