<svg width="221" height="177" viewBox="0 0 221 177" fill="none" xmlns="http://www.w3.org/2000/svg">
<g filter="url(#filter0_d_169_3862)">
<rect x="27" y="41.1421" width="156.106" height="106.732" rx="25" transform="rotate(-5.19768 27 41.1421)" fill="white"/>
</g>
<path d="M74.6445 72.2287C74.0948 72.2787 73.5809 72.1929 73.1029 71.9713C72.6238 71.7378 72.2261 71.4064 71.9099 70.9773C71.6046 70.5351 71.427 70.0392 71.377 69.4895L70.5763 60.6878L72.0462 60.5541L72.8387 69.2661C72.8779 69.6963 73.0544 70.0478 73.3684 70.3205C73.6944 70.5921 74.0665 70.7088 74.4848 70.6708L75.2914 70.5974C75.4109 70.5865 75.4761 70.6409 75.487 70.7604L75.5962 71.9614C75.6071 72.0809 75.5528 72.1461 75.4333 72.157L74.6445 72.2287ZM84.5096 64.4089C85.143 64.3512 85.7362 64.4479 86.2892 64.6988C86.8542 64.9487 87.3159 65.3224 87.6745 65.82C88.0439 66.3045 88.2568 66.8575 88.3134 67.4789C88.371 68.1123 88.2629 68.7125 87.9892 69.2797C87.7263 69.8338 87.3401 70.2906 86.8306 70.6503C86.3211 71.0099 85.7556 71.218 85.1341 71.2745L75.6692 72.1355C75.5497 72.1464 75.4845 72.0921 75.4737 71.9726L75.3644 70.7715C75.3535 70.652 75.4079 70.5868 75.5274 70.5759L77.8757 70.3623C77.3824 69.8409 77.1048 69.2395 77.0428 68.5584C76.9765 67.8294 77.1563 67.1563 77.5821 66.5392L76.2377 66.6615L76.1023 65.1736L84.5096 64.4089ZM78.5616 68.366C78.6095 68.8918 78.836 69.3291 79.2413 69.6778C79.6574 70.0135 80.1284 70.1574 80.6542 70.1096C81.18 70.0617 81.6113 69.8357 81.9481 69.4316C82.2838 69.0154 82.4277 68.5445 82.3799 68.0186C82.332 67.4928 82.106 67.0615 81.7019 66.7247C81.2977 66.388 80.8327 66.2435 80.3069 66.2913C79.781 66.3392 79.3438 66.5657 78.995 66.971C78.6583 67.3751 78.5138 67.8401 78.5616 68.366ZM84.9923 69.715C85.5301 69.666 85.9673 69.4395 86.3041 69.0353C86.6528 68.6301 86.8027 68.1585 86.7538 67.6208C86.706 67.0949 86.474 66.6642 86.0579 66.3285C85.6418 65.9928 85.1708 65.8489 84.645 65.8967L82.8882 66.0565C83.3587 66.5921 83.627 67.2244 83.6934 67.9534C83.7564 68.6465 83.6158 69.2859 83.2714 69.8715L84.9923 69.715ZM94.8412 68.819C95.2594 68.781 95.593 68.6061 95.8417 68.2942C96.1025 67.9813 96.2143 67.6217 96.1774 67.2154C96.1285 66.6776 95.8134 66.2604 95.2321 65.9639L91.6696 63.9564L92.3833 62.6624L96.1935 64.81C97.0844 65.3315 97.5739 66.0762 97.662 67.0442C97.7142 67.6178 97.618 68.1507 97.3736 68.6429C97.1412 69.134 96.7984 69.5387 96.3454 69.857C95.9032 70.1623 95.4073 70.34 94.8576 70.39L90.878 70.752L90.7361 69.1925L94.8412 68.819ZM107.941 67.6274C108.061 67.6165 108.126 67.6708 108.137 67.7903L108.246 68.9914C108.257 69.1109 108.203 69.176 108.083 69.1869L107.061 69.2799C107.062 70.0751 106.894 70.7531 106.56 71.3137C106.225 71.8743 105.752 72.3692 105.14 72.7984C104.53 73.2395 103.628 73.7855 102.434 74.4363L101.866 73.1685C102.969 72.5742 103.77 72.1037 104.268 71.7571C104.779 71.4094 105.139 71.0574 105.347 70.701C105.557 70.3566 105.638 69.9275 105.592 69.4136L103.673 69.5881C103.04 69.6457 102.441 69.5496 101.876 69.2997C101.323 69.0488 100.862 68.6811 100.492 68.1965C100.135 67.7109 99.9273 67.1514 99.8697 66.518C99.8121 65.8846 99.9147 65.2909 100.178 64.7368C100.451 64.1697 100.837 63.7068 101.335 63.3483C101.843 62.9767 102.414 62.7621 103.047 62.7045C103.669 62.648 104.257 62.7571 104.812 63.0319C105.366 63.2948 105.817 63.6816 106.165 64.1922C106.511 64.6908 106.714 65.2568 106.771 65.8902L106.938 67.7187L107.941 67.6274ZM105.282 66.0076C105.233 65.4699 105.006 65.0326 104.602 64.6958C104.197 64.3471 103.725 64.1972 103.188 64.2461C102.65 64.295 102.213 64.5276 101.877 64.9437C101.541 65.3479 101.397 65.8188 101.446 66.3566C101.494 66.8944 101.721 67.3317 102.125 67.6684C102.529 68.0052 103 68.1491 103.538 68.1002L105.456 67.9257L105.282 66.0076ZM108.313 69.166C108.194 69.1769 108.128 69.1226 108.117 69.0031L108.008 67.802C107.997 67.6825 108.052 67.6173 108.171 67.6065L108.996 67.5314C109.414 67.4934 109.754 67.3179 110.014 67.005C110.286 66.6791 110.403 66.3129 110.366 65.9066L109.569 57.1408L111.057 57.0055L111.854 65.7713C111.892 66.1895 112.068 66.529 112.38 66.7898C112.705 67.0494 113.077 67.1602 113.495 67.1222L114.32 67.0471C114.439 67.0363 114.504 67.0906 114.515 67.2101L114.625 68.4111C114.635 68.5306 114.581 68.5958 114.462 68.6067L113.637 68.6817C113.135 68.7274 112.676 68.6486 112.26 68.4455C111.843 68.2304 111.508 67.9295 111.256 67.5427C111.079 67.9806 110.804 68.3369 110.432 68.6118C110.071 68.8856 109.64 69.0453 109.138 69.091L108.313 69.166ZM115.945 58.7477L117.541 58.6026L117.684 60.1801L116.089 60.3252L115.945 58.7477ZM114.689 68.586C114.57 68.5968 114.505 68.5425 114.494 68.423L114.385 67.222C114.374 67.1025 114.428 67.0373 114.548 67.0264L115.39 66.9498C115.808 66.9117 116.147 66.7303 116.407 66.4054C116.679 66.0795 116.795 65.7014 116.756 65.2712L116.459 62.0086L117.929 61.8749L118.234 65.2271C118.284 65.7768 118.193 66.2972 117.96 66.7883C117.738 67.2663 117.413 67.6634 116.984 67.9796C116.554 68.2838 116.064 68.461 115.514 68.511L114.689 68.586ZM119.811 56.2091L121.281 56.0754L122.356 67.8886L120.886 68.0223L119.811 56.2091ZM128.701 65.7389C129.12 65.7008 129.453 65.5259 129.702 65.2141C129.963 64.9012 130.075 64.5416 130.038 64.1352C129.989 63.5975 129.674 63.1803 129.092 62.8837L125.53 60.8762L126.244 59.5822L130.054 61.7299C130.945 62.2513 131.434 62.996 131.522 63.964C131.574 64.5377 131.478 65.0706 131.234 65.5627C131.001 66.0538 130.659 66.4585 130.206 66.7769C129.764 67.0822 129.268 67.2599 128.718 67.3099L124.738 67.6719L124.596 66.1123L128.701 65.7389Z" fill="#494953"/>
<path d="M151.028 56.0366C152.012 55.0036 153.746 54.8458 154.901 55.6843C156.056 56.5227 156.194 58.0399 155.209 59.073C155.038 59.2532 154.843 59.4063 154.634 59.5321C153.984 59.9235 153.393 60.5645 153.462 61.3204L153.524 62.005M161.552 59.2037C161.651 60.2827 161.535 61.3704 161.213 62.4048C160.891 63.4392 160.368 64.3999 159.675 65.2323C158.981 66.0646 158.13 66.7522 157.171 67.2558C156.212 67.7593 155.163 68.069 154.084 68.1672C153.005 68.2653 151.917 68.15 150.883 67.8278C149.848 67.5056 148.888 66.9828 148.055 66.2892C147.223 65.5957 146.535 64.745 146.032 63.7858C145.528 62.8265 145.218 61.7774 145.12 60.6985C144.922 58.5195 145.598 56.3509 146.998 54.67C148.399 52.989 150.41 51.9333 152.589 51.735C154.768 51.5368 156.937 52.2123 158.618 53.613C160.299 55.0136 161.354 57.0247 161.552 59.2037ZM153.772 64.7438L153.78 64.7432L153.78 64.7505L153.773 64.7511L153.772 64.7438Z" stroke="#494953" stroke-width="1.5" stroke-linecap="round" stroke-linejoin="round"/>
<path d="M72.8443 108.039L68.3153 108.475L67.9838 105.033L72.5129 104.597L72.0768 100.068L75.7259 99.7166L76.162 104.246L80.7169 103.807L81.0484 107.249L76.4934 107.688L76.9295 112.217L73.2804 112.568L72.8443 108.039ZM84.2264 104.174C84.0702 102.553 83.8772 101.091 83.6474 99.7897C83.4332 98.4694 83.123 97.2368 82.7167 96.0918L86.0522 95.196C86.5199 96.0739 86.926 97.4888 87.2707 99.4408C87.6137 101.375 87.8957 103.49 88.1166 105.785L88.8368 113.264L85.1359 113.621L84.3584 105.546L84.2264 104.174ZM96.1628 112.559C95.2139 112.65 94.3201 112.501 93.4816 112.112C92.6604 111.721 91.9794 111.159 91.4388 110.428C90.8965 109.679 90.5797 108.83 90.4884 107.881C90.397 106.932 90.5468 106.047 90.9379 105.226C91.3274 104.387 91.8878 103.698 92.6194 103.157C93.3682 102.615 94.2171 102.298 95.166 102.207C96.115 102.115 97.0087 102.264 97.8472 102.654C98.6857 103.043 99.3761 103.612 99.9184 104.361C100.459 105.093 100.775 105.933 100.866 106.882C100.958 107.831 100.809 108.725 100.419 109.563C100.028 110.384 99.4582 111.066 98.7094 111.608C97.9606 112.151 97.1118 112.468 96.1628 112.559ZM95.8065 108.858C96.2378 108.816 96.5782 108.644 96.8277 108.342C97.0772 108.039 97.1811 107.672 97.1396 107.241C97.0981 106.809 96.926 106.469 96.6233 106.22C96.3207 105.97 95.9537 105.866 95.5224 105.908C95.091 105.949 94.7506 106.121 94.5012 106.424C94.2689 106.725 94.1736 107.091 94.2151 107.522C94.2567 107.954 94.4201 108.295 94.7055 108.546C95.0081 108.796 95.3751 108.9 95.8065 108.858ZM108.374 111.383C107.425 111.474 106.532 111.325 105.693 110.936C104.872 110.545 104.191 109.984 103.65 109.252C103.108 108.503 102.791 107.654 102.7 106.705C102.608 105.756 102.758 104.871 103.149 104.05C103.539 103.212 104.099 102.522 104.831 101.981C105.58 101.439 106.429 101.122 107.378 101.031C108.326 100.94 109.22 101.089 110.059 101.478C110.897 101.867 111.588 102.437 112.13 103.185C112.671 103.917 112.986 104.757 113.078 105.706C113.169 106.655 113.02 107.549 112.631 108.387C112.24 109.209 111.67 109.89 110.921 110.433C110.172 110.975 109.323 111.292 108.374 111.383ZM108.018 107.682C108.449 107.641 108.79 107.469 109.039 107.166C109.289 106.863 109.393 106.496 109.351 106.065C109.31 105.634 109.137 105.293 108.835 105.044C108.532 104.794 108.165 104.69 107.734 104.732C107.303 104.773 106.962 104.945 106.713 105.248C106.48 105.549 106.385 105.915 106.427 106.347C106.468 106.778 106.632 107.119 106.917 107.37C107.22 107.62 107.587 107.724 108.018 107.682Z" fill="#494953"/>
<defs>
<filter id="filter0_d_169_3862" x="0.1604" y="0.1604" width="220.812" height="176.115" filterUnits="userSpaceOnUse" color-interpolation-filters="sRGB">
<feFlood flood-opacity="0" result="BackgroundImageFix"/>
<feColorMatrix in="SourceAlpha" type="matrix" values="0 0 0 0 0 0 0 0 0 0 0 0 0 0 0 0 0 0 127 0" result="hardAlpha"/>
<feOffset dx="1" dy="1"/>
<feGaussianBlur stdDeviation="15"/>
<feComposite in2="hardAlpha" operator="out"/>
<feColorMatrix type="matrix" values="0 0 0 0 0 0 0 0 0 0 0 0 0 0 0 0 0 0 0.15 0"/>
<feBlend mode="normal" in2="BackgroundImageFix" result="effect1_dropShadow_169_3862"/>
<feBlend mode="normal" in="SourceGraphic" in2="effect1_dropShadow_169_3862" result="shape"/>
</filter>
</defs>
</svg>
