<svg xmlns="http://www.w3.org/2000/svg" width="215" height="113" fill="none"><g filter="url(#a)"><rect width="155" height="53" x="29" y="29" fill="#fff" rx="26.5"/></g><circle cx="55.5" cy="55.5" r="17.5" fill="#EDF2F6"/><path stroke="#FF5656" stroke-linecap="round" stroke-linejoin="round" stroke-width="2" d="M55 53.75v6.75m0 0-3-3m3 3 3-3m-8.25 6a4.5 4.5 0 0 1-1.41-8.775 5.25 5.25 0 0 1 10.233-2.33 3 3 0 0 1 3.758 3.848A3.752 3.752 0 0 1 61 63.5z"/><path fill="#494953" d="M95.018 51.086q0 .87-.352 1.512-.352.641-.967 1.054a4.1 4.1 0 0 1-1.406.58v.062q1.538.193 2.32.967.792.773.791 2.048 0 1.116-.536 1.995-.536.87-1.643 1.37-1.108.502-2.848.502-1.046 0-1.942-.167a7.2 7.2 0 0 1-1.688-.536v-1.837q.818.404 1.74.624.924.22 1.75.22 1.608 0 2.293-.598.686-.606.686-1.67 0-.685-.36-1.125-.352-.44-1.1-.66-.737-.219-1.906-.219h-1.134v-1.661h1.142q1.117 0 1.793-.264.678-.272.976-.747.308-.474.308-1.107 0-.827-.537-1.284-.535-.465-1.59-.465-.651 0-1.187.15a5.4 5.4 0 0 0-.975.377 9 9 0 0 0-.853.492l-.993-1.432a7 7 0 0 1 1.74-.923q1.011-.378 2.355-.378 1.979 0 3.05.852 1.073.845 1.073 2.268m11.491 7.093h-1.74V61h-2.039v-2.821h-5.845v-1.565l5.871-8.499h2.013v8.35h1.74zm-3.779-1.714v-3.19q0-.395.009-.8.017-.414.035-.791.017-.378.035-.695.018-.324.026-.536h-.07a10.57 10.57 0 0 1-.8 1.424l-3.164 4.588zM109.344 61l5.045-11.04h-6.671v-1.81h8.894v1.415L111.567 61zm9.435-1.09q0-.72.369-1.01.377-.3.914-.3.536 0 .914.3.387.29.387 1.01 0 .703-.387 1.02a1.4 1.4 0 0 1-.914.307 1.4 1.4 0 0 1-.914-.307q-.369-.316-.369-1.02M132.283 61h-8.701v-1.556l3.331-3.375a42 42 0 0 0 1.591-1.696q.624-.72.922-1.362.308-.642.308-1.398 0-.931-.536-1.406-.536-.483-1.415-.483-.835 0-1.547.334a7.2 7.2 0 0 0-1.459.931l-1.134-1.362a9.6 9.6 0 0 1 1.143-.835q.615-.378 1.371-.598.756-.228 1.723-.228 1.221 0 2.109.44.888.43 1.362 1.203.484.774.484 1.802 0 1.037-.413 1.916a7.4 7.4 0 0 1-1.178 1.74 33 33 0 0 1-1.819 1.855l-2.224 2.17v.098h6.082zm6.165-13.025q1.117 0 2.013.351.897.343 1.424 1.029t.527 1.696q0 .782-.325 1.362a3.4 3.4 0 0 1-.861 1.02 7 7 0 0 1-1.222.764q.756.369 1.389.853.64.474 1.028 1.116.396.642.396 1.503 0 1.08-.554 1.872-.544.783-1.521 1.213-.975.422-2.276.422-1.398 0-2.382-.413t-1.494-1.178q-.51-.773-.51-1.846 0-.887.352-1.538.352-.65.94-1.125a6.3 6.3 0 0 1 1.31-.8 7 7 0 0 1-1.108-.808 3.6 3.6 0 0 1-.799-1.046q-.291-.598-.291-1.38 0-1.001.537-1.679.536-.686 1.432-1.037a5.5 5.5 0 0 1 1.995-.351m-2.399 9.685q0 .844.598 1.389.597.545 1.784.545 1.178 0 1.793-.536.615-.537.615-1.415 0-.562-.316-.994a2.95 2.95 0 0 0-.835-.764 8.5 8.5 0 0 0-1.152-.633l-.281-.114a5.6 5.6 0 0 0-1.178.659 2.8 2.8 0 0 0-.764.817 2.05 2.05 0 0 0-.264 1.046m2.382-8.095q-.853 0-1.406.422-.546.413-.545 1.196 0 .553.263.949.273.396.73.685a8.4 8.4 0 0 0 1.011.528q.535-.237.966-.519.44-.29.695-.685.263-.405.263-.967 0-.773-.553-1.187-.546-.421-1.424-.422m8.96-1.6q1.415 0 2.145 1.055.729 1.047.729 2.962 0 1.908-.703 2.98-.694 1.072-2.171 1.072-1.38 0-2.1-1.072t-.721-2.98q0-1.915.677-2.962.686-1.054 2.144-1.054m.009 1.442q-.571 0-.844.642-.263.642-.263 1.942 0 1.292.263 1.951.273.65.844.65.58 0 .861-.65.29-.65.29-1.95 0-1.293-.281-1.934-.28-.65-.87-.65m8.622-1.257L148.894 61h-1.696l7.128-12.85zm-.237 4.957q1.415 0 2.144 1.055.738 1.046.739 2.962 0 1.899-.704 2.97-.693 1.074-2.179 1.073-1.38 0-2.101-1.072-.72-1.072-.721-2.971 0-1.916.677-2.962.685-1.055 2.145-1.055m.009 1.442q-.572 0-.844.641-.264.642-.264 1.943 0 1.291.264 1.951.272.65.844.65.588 0 .87-.641.28-.65.281-1.96 0-1.292-.281-1.934-.282-.65-.87-.65"/><defs><filter id="a" width="215" height="113" x="0" y="0" color-interpolation-filters="sRGB" filterUnits="userSpaceOnUse"><feFlood flood-opacity="0" result="BackgroundImageFix"/><feColorMatrix in="SourceAlpha" result="hardAlpha" values="0 0 0 0 0 0 0 0 0 0 0 0 0 0 0 0 0 0 127 0"/><feOffset dx="1" dy="1"/><feGaussianBlur stdDeviation="15"/><feComposite in2="hardAlpha" operator="out"/><feColorMatrix values="0 0 0 0 0 0 0 0 0 0 0 0 0 0 0 0 0 0 0.15 0"/><feBlend in2="BackgroundImageFix" result="effect1_dropShadow_27_397"/><feBlend in="SourceGraphic" in2="effect1_dropShadow_27_397" result="shape"/></filter></defs></svg>