<svg xmlns="http://www.w3.org/2000/svg" width="220" height="64" fill="none"><path fill="#000" d="M211.852 63.643H8.148C3.668 63.643 0 60.061 0 55.688V7.955C0 3.582 3.669 0 8.148 0h203.704C216.331 0 220 3.582 220 7.955v47.733c0 4.373-3.669 7.955-8.148 7.955"/><path fill="#A6A6A6" d="M211.852 1.275c3.772 0 6.842 2.997 6.842 6.68v47.733c0 3.683-3.07 6.68-6.842 6.68H8.148c-3.772 0-6.842-2.997-6.842-6.68V7.955c0-3.683 3.07-6.68 6.842-6.68zm0-1.275H8.148C3.668 0 0 3.582 0 7.955v47.733c0 4.373 3.669 7.955 8.148 7.955h203.704c4.479 0 8.148-3.582 8.148-7.955V7.955C220 3.582 216.331 0 211.852 0"/><path fill="#fff" stroke="#fff" stroke-miterlimit="10" stroke-width=".16" d="M77.273 16.298c0 1.329-.407 2.393-1.21 3.186-.923.941-2.125 1.414-3.597 1.414-1.408 0-2.61-.48-3.596-1.43-.988-.962-1.48-2.143-1.48-3.558q-.001-2.12 1.48-3.55c.986-.956 2.188-1.438 3.596-1.438.7 0 1.368.142 2.006.404.636.265 1.153.623 1.528 1.064l-.852.84c-.654-.754-1.544-1.126-2.682-1.126q-1.54-.002-2.673 1.056-1.123 1.062-1.123 2.75c0 1.126.375 2.05 1.123 2.759.756.698 1.646 1.056 2.673 1.056 1.09 0 2.006-.358 2.73-1.064q.713-.7.818-1.935h-3.548v-1.15H77.2c.057.249.073.49.073.722ZM84.784 12.313h-4.447v3.023h4.008v1.15h-4.008v3.022h4.447v1.172h-5.706V11.14h5.706zM90.084 20.68h-1.259v-8.367h-2.728V11.14h6.717v1.172h-2.73zM97.674 20.68V11.14h1.257v9.539zM104.502 20.68h-1.249v-8.367h-2.737V11.14h6.724v1.172h-2.738zM119.955 19.453q-1.445 1.445-3.581 1.445-2.146.001-3.589-1.445-1.442-1.445-1.441-3.543-.001-2.098 1.441-3.542 1.443-1.446 3.589-1.446c1.416 0 2.609.482 3.573 1.454.969.97 1.448 2.144 1.448 3.534q0 2.098-1.44 3.543Zm-6.239-.8c.725.714 1.607 1.072 2.658 1.072 1.043 0 1.933-.358 2.65-1.072.723-.714 1.09-1.63 1.09-2.743 0-1.111-.367-2.028-1.09-2.742-.717-.714-1.607-1.072-2.65-1.072-1.051 0-1.933.358-2.658 1.072q-1.088 1.073-1.09 2.742c0 1.112.366 2.029 1.09 2.743ZM123.161 20.68V11.14h1.528l4.75 7.419h.055l-.055-1.834V11.14h1.257v9.539h-1.312l-4.974-7.785h-.055l.055 1.842v5.943z"/><path fill="#fff" d="M111.035 34.61c-3.828 0-6.955 2.844-6.955 6.768 0 3.892 3.127 6.766 6.955 6.766 3.836 0 6.962-2.874 6.962-6.766 0-3.924-3.126-6.768-6.962-6.768m0 10.87c-2.1 0-3.907-1.693-3.907-4.102 0-2.44 1.807-4.103 3.907-4.103s3.915 1.663 3.915 4.103c0 2.409-1.815 4.101-3.915 4.101M95.861 34.61c-3.836 0-6.955 2.844-6.955 6.768 0 3.892 3.12 6.766 6.955 6.766s6.954-2.874 6.954-6.766c0-3.924-3.12-6.768-6.954-6.768m0 10.87c-2.102 0-3.915-1.693-3.915-4.102 0-2.44 1.813-4.103 3.915-4.103 2.1 0 3.907 1.663 3.907 4.103 0 2.409-1.807 4.101-3.907 4.101m-18.056-8.795v2.875h7.033c-.205 1.607-.755 2.789-1.599 3.612-1.026.995-2.625 2.098-5.434 2.098-4.33 0-7.719-3.41-7.719-7.637s3.39-7.637 7.719-7.637c2.34 0 4.043.893 5.3 2.05l2.076-2.026c-1.758-1.639-4.097-2.898-7.376-2.898-5.936 0-10.925 4.716-10.925 10.511 0 5.796 4.989 10.511 10.925 10.511 3.208 0 5.618-1.026 7.512-2.951 1.942-1.895 2.547-4.56 2.547-6.712 0-.669-.058-1.283-.16-1.796zm73.834 2.23c-.572-1.514-2.338-4.305-5.936-4.305-3.565 0-6.533 2.743-6.533 6.768 0 3.791 2.938 6.766 6.875 6.766 3.184 0 5.022-1.895 5.777-2.999l-2.363-1.537c-.788 1.125-1.861 1.871-3.414 1.871-1.542 0-2.648-.69-3.357-2.05l9.271-3.745zm-9.452 2.252a3.754 3.754 0 0 1 3.62-3.945c1.21 0 2.237.59 2.579 1.435zm-7.535 6.566h3.048V27.844h-3.048zm-4.991-11.615h-.101c-.685-.792-1.991-1.508-3.645-1.508-3.471 0-6.644 2.976-6.644 6.79 0 3.793 3.173 6.744 6.644 6.744 1.654 0 2.96-.722 3.645-1.537h.101v.97c0 2.588-1.415 3.978-3.699 3.978-1.862 0-3.017-1.312-3.493-2.416l-2.651 1.08c.764 1.794 2.787 4.001 6.144 4.001 3.573 0 6.588-2.052 6.588-7.046V35.022h-2.889zm-3.485 9.361c-2.1 0-3.858-1.716-3.858-4.079 0-2.384 1.758-4.125 3.858-4.125 2.07 0 3.701 1.74 3.701 4.125 0 2.363-1.631 4.08-3.701 4.08m39.73-17.635h-7.288v19.889h3.039v-7.536h4.249c3.376 0 6.686-2.385 6.686-6.178 0-3.79-3.318-6.175-6.686-6.175m.08 9.586h-4.329v-6.82h4.329c2.269 0 3.565 1.84 3.565 3.41 0 1.539-1.296 3.41-3.565 3.41m18.787-2.858c-2.195 0-4.479.947-5.418 3.045l2.697 1.104c.581-1.104 1.648-1.462 2.776-1.462 1.577 0 3.176.925 3.201 2.558v.209c-.55-.31-1.728-.77-3.176-.77-2.905 0-5.865 1.561-5.865 4.475 0 2.665 2.38 4.381 5.054 4.381 2.045 0 3.174-.9 3.883-1.949h.104v1.538h2.935v-7.63c0-3.526-2.697-5.499-6.191-5.499m-.366 10.9c-.994 0-2.379-.482-2.379-1.685 0-1.54 1.727-2.13 3.222-2.13 1.338 0 1.966.288 2.779.668-.239 1.842-1.862 3.146-3.622 3.146m17.251-10.464-3.493 8.622h-.104l-3.612-8.622h-3.277l5.426 12.048-3.096 6.705h3.176l8.362-18.753zm-27.396 12.725h3.048V27.844h-3.048z"/><path fill="url(#a)" d="M17.005 11.995c-.479.489-.755 1.25-.755 2.237V49.42c0 .986.276 1.748.755 2.237l.118.108 20.196-19.71v-.465l-20.196-19.71z"/><path fill="url(#b)" d="m44.043 38.627-6.724-6.573v-.466l6.732-6.573.15.086 7.974 4.429c2.275 1.257 2.275 3.325 0 4.59l-7.973 4.421z"/><path fill="url(#c)" d="m44.202 38.542-6.883-6.72-20.314 19.834c.756.776 1.988.87 3.39.093z"/><path fill="url(#d)" d="M44.202 25.101 20.395 11.893c-1.402-.768-2.634-.674-3.39.101L37.32 31.822z"/><defs><linearGradient id="a" x1="35.525" x2="8.831" y1="49.785" y2="22.444" gradientUnits="userSpaceOnUse"><stop stop-color="#00A0FF"/><stop offset=".007" stop-color="#00A1FF"/><stop offset=".26" stop-color="#00BEFF"/><stop offset=".512" stop-color="#00D2FF"/><stop offset=".76" stop-color="#00DFFF"/><stop offset="1" stop-color="#00E3FF"/></linearGradient><linearGradient id="b" x1="55.138" x2="15.706" y1="31.819" y2="31.819" gradientUnits="userSpaceOnUse"><stop stop-color="#FFE000"/><stop offset=".409" stop-color="#FFBD00"/><stop offset=".775" stop-color="orange"/><stop offset="1" stop-color="#FF9C00"/></linearGradient><linearGradient id="c" x1="40.459" x2="4.259" y1="28.168" y2="-8.909" gradientUnits="userSpaceOnUse"><stop stop-color="#FF3A44"/><stop offset="1" stop-color="#C31162"/></linearGradient><linearGradient id="d" x1="11.892" x2="28.057" y1="63.362" y2="46.806" gradientUnits="userSpaceOnUse"><stop stop-color="#32A071"/><stop offset=".069" stop-color="#2DA771"/><stop offset=".476" stop-color="#15CF74"/><stop offset=".801" stop-color="#06E775"/><stop offset="1" stop-color="#00F076"/></linearGradient></defs></svg>