<svg xmlns="http://www.w3.org/2000/svg" width="100" height="100" fill="none"><rect width="100" height="100" fill="#fff" rx="10"/><path fill="#494953" d="M11 79.586v-9.414h18.828V89H11zm16.138 0v-6.724H13.69V86.31h13.448zm-10.759 0v-4.034h8.07v8.069h-8.07zm18.828 8.07V86.31h-2.69v-5.379h2.69v-8.069h2.69v-2.69h-5.38v-2.69H21.76v-2.689h2.69v-2.69h-5.38v5.38h-2.69v-2.69H11v-2.69h5.38v-5.379h-2.69v2.69H11v-5.38h5.38v2.69h2.689v2.69h2.69v-2.69h2.69v2.69h5.379v-2.69h-2.69v-2.69h-8.069v-2.69h8.069v-2.689h-8.069v-2.69h-2.69v2.69H11v-8.069h2.69v2.69h16.138v-2.69h-2.69v-2.69h-5.38v2.69H19.07v-2.69h-5.38v-5.379h5.38v5.38h2.69v-2.69h5.379v-2.69h2.69v2.69h-2.69v2.69h2.69v2.69h2.69v-5.38h2.689v-2.69h-2.69v-8.069h5.38v2.69h2.69v2.69h-2.69v2.69h2.69v16.137h-5.38v-2.69h-2.69v2.69h-2.69v2.69h-2.69v2.69h2.69v2.69h2.69v2.689h5.38v-2.69h-2.69v-2.69h-2.69v-2.69h5.38v5.38h2.69v-5.38h2.689v5.38h2.69v-8.069h2.69v-2.69h2.689v2.69h-2.69v2.69h2.69v2.69h8.069v-2.69h-2.69v-2.69h-2.69v-5.38h-2.69v-2.689h2.69v-2.69h2.69v-2.69h-2.69v-2.689h-2.69v5.38h-2.689v-2.69h-2.69v2.69h-2.69v-2.69h2.69v-2.69h-2.69v-8.069h-2.689v-2.69h2.69v2.69h2.69V13.69h2.69v5.379h5.379v-2.69h-2.69V11h5.38v2.69h-2.69v2.69h5.379v-2.69h2.69V11h5.379v8.069h-5.38v-2.69h-2.69v5.38h2.69v8.069h2.69v-2.69h2.69v13.448h5.38v-2.69h-2.69v-5.379h5.379v8.07h5.379v-2.69h-2.69v-5.38h2.69v5.38h2.69v-2.69H89v5.38h-2.69v-2.69h-2.69v2.69h-2.689v8.068h2.69v2.69h-2.69v2.69h-5.38v2.69h-2.689v2.689h-5.38v-2.69h-2.689v-2.69h-2.69v5.38h2.69v2.69h8.07v2.69h5.378v-2.69h-2.69v-2.69h2.69v-2.69h2.69v2.69h2.69v2.69h2.69v-5.38h-2.69v-2.69H89v8.07h-2.69v5.379H89v5.38h-2.69v8.068H89v2.69h-8.069V89h-8.069v-2.69h5.38v-2.69h-5.38v-5.379h-2.69v5.38h-2.69v2.69h2.69V89h-5.379v-8.069h-2.69v5.38h-2.69v-2.69h-2.689V72.862h2.69v8.069h2.69v-8.069h2.69v-5.38h-2.69v-2.689h-2.69v-2.69h2.69v-2.69h-2.69v-2.689h-2.69v10.759h2.69v2.69h-5.38v5.379h-2.69v5.379h2.69v2.69h-2.69v2.69h5.38V89h-5.38v-2.69h-2.689v-2.69h-2.69V89H35.207zm8.069-4.035v-2.69h2.69v-8.069h-5.38v2.69h2.69v2.69h-5.38v2.689h-2.69v2.69h2.69v2.69h5.38zm37.655-2.69v-2.69h2.69v-5.379h2.69v-2.69h-2.69v-8.069h-2.69v8.07h2.69v2.69h-2.69v2.689h-2.69v8.069h2.69zm-13.448-1.345v-1.345h-2.69v2.69h2.69zm-16.138-5.38v-1.344h-2.69v2.69h2.69zm24.207-2.689v-4.034h-8.07v8.069h8.07zm-5.38 0v-1.345h2.69v2.69h-2.69zm-21.517-2.69v-1.344h5.38v-2.69h-5.38v-2.69h-2.69v2.69h2.69v2.69h-5.38v-2.69h-2.689v2.69h-2.69v-2.69h-2.69v-2.69h-2.689v-2.69h-2.69v2.69h-2.69v2.69h2.69v-2.69h2.69v2.69h2.69v2.69h2.69v2.69h10.758zm-8.069-8.068v-1.345h-2.69v2.69h2.69zm13.449-1.345v-2.69h-5.38v2.69h2.69v2.69h2.69zm16.137-4.035v-1.344h-2.69v2.69h2.69zm5.38-2.69v-1.344h2.69v-8.07h-2.69v2.69h-2.69v2.69h-2.69v-2.69h-5.379v-2.69h-2.69v-2.689h2.69v-8.069h-2.69v-2.69h-2.69v-2.69h-2.689v2.69h-2.69V21.76h2.69v2.69h2.69v-2.69h-2.69v-2.69h-2.69v2.69h-2.69v8.069h2.69v2.69h2.69v-2.69h2.69v8.069h-2.69v2.69h-2.69v2.689h2.69v5.38h2.69v-2.69h5.38v2.69h2.689v2.689h5.38v2.69h2.689zM72.862 50v-1.345h2.69v2.69h-2.69zm-43.034-2.69v-1.345h2.69v-2.69h-2.69v2.69h-2.69v2.69h2.69zm8.069-5.379v-1.345h-2.69v2.69h2.69zm0-13.448v-1.345h-2.69v2.69h2.69zm10.758-1.345v-2.69h-2.69v5.38h2.69zm16.138-12.104V13.69h-2.69v2.69h2.69zM86.31 87.655V86.31H89V89h-2.69zm0-39v-2.69h-2.69v-2.69h2.69v2.69H89v5.38h-2.69zM11 20.414V11h18.828v18.828H11zm16.138 0V13.69H13.69v13.448h13.448zm-10.759 0v-4.035h8.07v8.07h-8.07zm53.793 0V11H89v18.828H70.172zm16.138 0V13.69H72.862v13.448H86.31zm-10.758 0v-4.035h8.069v8.07h-8.07zm-43.035 0v-1.345h2.69v2.69h-2.69zm5.38-2.69V16.38h-2.69V11h2.69v2.69h2.69V11h2.689v2.69h-2.69v5.379h-2.69z"/></svg>