<svg width="215" height="113" viewBox="0 0 215 113" fill="none" xmlns="http://www.w3.org/2000/svg">
<g filter="url(#filter0_d_169_3856)">
<rect x="29" y="29" width="155" height="53" rx="26.5" fill="white"/>
</g>
<circle cx="157.5" cy="55.5" r="17.5" fill="#EDF2F6"/>
<path d="M157 53.7499V60.4999M157 60.4999L154 57.4999M157 60.4999L160 57.4999M151.75 63.4999C150.679 63.5011 149.644 63.1205 148.828 62.4266C148.013 61.7327 147.472 60.7709 147.302 59.7138C147.132 58.6568 147.345 57.5739 147.902 56.6595C148.458 55.7451 149.323 55.0592 150.34 54.7249C150.079 53.3861 150.349 51.9981 151.093 50.8549C151.837 49.7118 152.997 48.9031 154.327 48.6003C155.657 48.2974 157.053 48.5242 158.219 49.2324C159.385 49.9407 160.229 51.0749 160.573 52.3949C161.105 52.2219 161.675 52.2011 162.218 52.3348C162.761 52.4686 163.256 52.7515 163.647 53.1518C164.038 53.552 164.309 54.0536 164.43 54.5998C164.551 55.146 164.517 55.7152 164.331 56.2429C165.15 56.5556 165.833 57.145 166.263 57.9089C166.692 58.6727 166.841 59.5628 166.683 60.4248C166.525 61.2868 166.07 62.0662 165.397 62.6279C164.724 63.1896 163.876 63.4981 163 63.4999H151.75Z" stroke="#FF5656" stroke-width="2" stroke-linecap="round" stroke-linejoin="round"/>
<path d="M54.418 53.504H56.488V55.574H54.418V53.504ZM57.424 53.504H59.494V55.574H57.424V53.504ZM54.346 62C53.554 62 52.822 61.808 52.15 61.424C51.478 61.028 50.944 60.494 50.548 59.822C50.164 59.15 49.972 58.418 49.972 57.626V55.574H52.186V57.5C52.186 58.088 52.396 58.598 52.816 59.03C53.248 59.45 53.758 59.66 54.346 59.66H60.232C60.64 59.66 60.982 59.522 61.258 59.246C61.534 58.97 61.672 58.622 61.672 58.202V55.574H63.886V58.202C63.886 58.886 63.724 59.522 63.4 60.11C63.088 60.686 62.65 61.148 62.086 61.496C61.534 61.832 60.916 62 60.232 62H54.346ZM63.0675 65.114C63.9315 64.622 64.5435 64.232 64.9035 63.944C65.2755 63.656 65.5335 63.326 65.6775 62.954C65.8335 62.582 65.9115 62.06 65.9115 61.388V55.574H68.1255V61.388C68.1255 62.36 67.9935 63.158 67.7295 63.782C67.4775 64.406 67.0515 64.958 66.4515 65.438C65.8635 65.918 65.0115 66.428 63.8955 66.968L63.0675 65.114ZM73.3129 62C72.7129 62 72.1609 61.856 71.6569 61.568C71.1649 61.268 70.7749 60.872 70.4869 60.38C70.1989 59.876 70.0549 59.324 70.0549 58.724V49.958H72.2689V58.58C72.2689 58.88 72.3709 59.138 72.5749 59.354C72.7789 59.558 73.0309 59.66 73.3309 59.66H74.2489C74.3689 59.66 74.4289 59.72 74.4289 59.84V61.82C74.4289 61.94 74.3689 62 74.2489 62H73.3129ZM84.4557 59.66C84.5757 59.66 84.6357 59.72 84.6357 59.84V61.82C84.6357 61.94 84.5757 62 84.4557 62H83.5197C83.1117 62 82.7757 62.138 82.5117 62.414C82.2477 62.69 82.1157 63.038 82.1157 63.458V64.178H83.3757V66.356H78.9297C78.2937 66.356 77.6997 66.194 77.1477 65.87C76.6077 65.558 76.1757 65.126 75.8517 64.574C75.5277 64.034 75.3657 63.446 75.3657 62.81V62H74.4837C74.3637 62 74.3037 61.94 74.3037 61.82V59.84C74.3037 59.72 74.3637 59.66 74.4837 59.66H75.3657V58.256C75.3657 57.572 75.5217 56.942 75.8337 56.366C76.1577 55.778 76.5957 55.316 77.1477 54.98C77.6997 54.632 78.3177 54.458 79.0017 54.458C79.6857 54.458 80.3157 54.632 80.8917 54.98C81.4797 55.316 81.9417 55.778 82.2777 56.366C82.6257 56.942 82.7997 57.572 82.7997 58.256C82.7997 58.808 82.6737 59.354 82.4217 59.894C82.8057 59.738 83.2317 59.66 83.6997 59.66H84.4557ZM77.5617 59.66H79.0017C79.4217 59.66 79.7697 59.528 80.0457 59.264C80.3217 59 80.4597 58.664 80.4597 58.256C80.4597 57.836 80.3217 57.488 80.0457 57.212C79.7697 56.936 79.4217 56.798 79.0017 56.798C78.5937 56.798 78.2517 56.942 77.9757 57.23C77.6997 57.506 77.5617 57.848 77.5617 58.256V59.66ZM80.0997 64.178V63.458C80.0997 62.858 80.2257 62.276 80.4777 61.712C79.9977 61.904 79.5057 62 79.0017 62H77.5797V62.81C77.5797 63.182 77.7117 63.5 77.9757 63.764C78.2517 64.04 78.5757 64.178 78.9477 64.178H80.0997ZM90.4973 54.602C91.1813 54.602 91.8113 54.764 92.3873 55.088C92.9753 55.4 93.4373 55.838 93.7733 56.402C94.1213 56.954 94.2953 57.566 94.2953 58.238C94.2953 58.922 94.1213 59.558 93.7733 60.146C93.4373 60.722 92.9753 61.184 92.3873 61.532C91.8113 61.868 91.1813 62.036 90.4973 62.036C89.9933 62.036 89.5253 61.946 89.0933 61.766C88.6613 61.586 88.2833 61.328 87.9593 60.992C87.7073 61.304 87.3953 61.55 87.0233 61.73C86.6633 61.91 86.2553 62 85.7993 62H84.6833C84.5633 62 84.5033 61.94 84.5033 61.82V59.84C84.5033 59.72 84.5633 59.66 84.6833 59.66H85.7993C86.0993 59.66 86.3513 59.558 86.5553 59.354C86.7593 59.15 86.8613 58.898 86.8613 58.598V56.816H85.7633V54.602H90.4973ZM90.4973 59.696C90.9173 59.696 91.2653 59.558 91.5413 59.282C91.8173 58.994 91.9553 58.646 91.9553 58.238C91.9553 57.83 91.8173 57.494 91.5413 57.23C91.2653 56.954 90.9173 56.816 90.4973 56.816H89.0573V58.238C89.0573 58.658 89.1953 59.006 89.4713 59.282C89.7473 59.558 90.0893 59.696 90.4973 59.696ZM99.8533 55.268C99.8533 54.2 99.8233 53.24 99.7633 52.388C99.7033 51.524 99.5773 50.714 99.3853 49.958L101.401 49.616C101.641 50.216 101.809 51.158 101.905 52.442C102.013 53.714 102.067 55.088 102.067 56.564V62H99.8533V56.258V55.268ZM107.31 62C106.674 62 106.092 61.844 105.564 61.532C105.036 61.22 104.616 60.8 104.304 60.272C104.004 59.744 103.854 59.168 103.854 58.544C103.854 57.92 104.004 57.344 104.304 56.816C104.616 56.288 105.036 55.868 105.564 55.556C106.092 55.244 106.674 55.088 107.31 55.088C107.934 55.088 108.51 55.244 109.038 55.556C109.566 55.868 109.986 56.288 110.298 56.816C110.61 57.344 110.766 57.92 110.766 58.544C110.766 59.168 110.61 59.744 110.298 60.272C109.986 60.8 109.566 61.22 109.038 61.532C108.51 61.844 107.934 62 107.31 62ZM107.31 59.786C107.658 59.786 107.952 59.666 108.192 59.426C108.432 59.186 108.552 58.892 108.552 58.544C108.552 58.196 108.432 57.902 108.192 57.662C107.952 57.422 107.658 57.302 107.31 57.302C106.95 57.302 106.65 57.422 106.41 57.662C106.182 57.902 106.068 58.196 106.068 58.544C106.068 58.892 106.182 59.186 106.41 59.426C106.65 59.666 106.95 59.786 107.31 59.786ZM115.787 62C115.151 62 114.569 61.844 114.041 61.532C113.513 61.22 113.093 60.8 112.781 60.272C112.481 59.744 112.331 59.168 112.331 58.544C112.331 57.92 112.481 57.344 112.781 56.816C113.093 56.288 113.513 55.868 114.041 55.556C114.569 55.244 115.151 55.088 115.787 55.088C116.411 55.088 116.987 55.244 117.515 55.556C118.043 55.868 118.463 56.288 118.775 56.816C119.087 57.344 119.243 57.92 119.243 58.544C119.243 59.168 119.087 59.744 118.775 60.272C118.463 60.8 118.043 61.22 117.515 61.532C116.987 61.844 116.411 62 115.787 62ZM115.787 59.786C116.135 59.786 116.429 59.666 116.669 59.426C116.909 59.186 117.029 58.892 117.029 58.544C117.029 58.196 116.909 57.902 116.669 57.662C116.429 57.422 116.135 57.302 115.787 57.302C115.427 57.302 115.127 57.422 114.887 57.662C114.659 57.902 114.545 58.196 114.545 58.544C114.545 58.892 114.659 59.186 114.887 59.426C115.127 59.666 115.427 59.786 115.787 59.786ZM124.678 57.392H121.42V55.322H124.678V52.064H126.856V55.322H130.114V57.392H126.856V60.686H124.678V57.392Z" fill="#494953"/>
<defs>
<filter id="filter0_d_169_3856" x="0" y="0" width="215" height="113" filterUnits="userSpaceOnUse" color-interpolation-filters="sRGB">
<feFlood flood-opacity="0" result="BackgroundImageFix"/>
<feColorMatrix in="SourceAlpha" type="matrix" values="0 0 0 0 0 0 0 0 0 0 0 0 0 0 0 0 0 0 127 0" result="hardAlpha"/>
<feOffset dx="1" dy="1"/>
<feGaussianBlur stdDeviation="15"/>
<feComposite in2="hardAlpha" operator="out"/>
<feColorMatrix type="matrix" values="0 0 0 0 0 0 0 0 0 0 0 0 0 0 0 0 0 0 0.15 0"/>
<feBlend mode="normal" in2="BackgroundImageFix" result="effect1_dropShadow_169_3856"/>
<feBlend mode="normal" in="SourceGraphic" in2="effect1_dropShadow_169_3856" result="shape"/>
</filter>
</defs>
</svg>
