<svg xmlns="http://www.w3.org/2000/svg" width="257" height="165" fill="none"><g filter="url(#a)"><rect width="197" height="105" x="29" y="29" fill="#fff" rx="25"/></g><path fill="#494953" d="M61.009 65.581q0 1.143-.572 1.951-.562.8-1.581 1.222-1.02.422-2.4.422-.729 0-1.38-.07a9 9 0 0 1-1.195-.203 5 5 0 0 1-.958-.325v-1.433q.66.273 1.608.51a8.5 8.5 0 0 0 1.987.229q.966 0 1.634-.255.669-.264 1.011-.747.352-.492.352-1.178 0-.66-.29-1.098-.29-.45-.967-.81-.669-.368-1.828-.781a10 10 0 0 1-1.442-.633 4.5 4.5 0 0 1-1.046-.791 3 3 0 0 1-.641-1.02 3.9 3.9 0 0 1-.211-1.327q0-1.027.518-1.758.528-.738 1.45-1.125.933-.395 2.136-.395 1.029 0 1.899.193a8.4 8.4 0 0 1 1.608.519l-.466 1.283a10 10 0 0 0-1.476-.483 6.6 6.6 0 0 0-1.6-.194q-.825 0-1.397.246-.562.237-.862.677-.298.44-.298 1.046 0 .676.28 1.125.291.448.915.8.633.343 1.67.72 1.133.414 1.925.88.79.456 1.204 1.124.413.66.413 1.68m10.48 3.401-1.713-5.607-.22-.703-.184-.668a44 44 0 0 0-.15-.598l-.105-.483h-.062a12 12 0 0 1-.246 1.08q-.079.326-.176.687-.096.351-.22.711l-1.792 5.581h-1.644l-2.654-9.632h1.511l1.39 5.317q.139.528.263 1.046.131.51.22.967.095.448.14.782h.07q.054-.22.115-.527.07-.309.15-.65a24 24 0 0 1 .377-1.354l1.775-5.581h1.574l1.713 5.572q.132.421.255.879.132.457.238.888.105.421.15.755h.07q.035-.298.131-.738.097-.44.22-.967.132-.527.272-1.072l1.407-5.317h1.485l-2.663 9.632zm9.954-9.773q1.723 0 2.558.773.834.774.835 2.47V69h-1.064l-.28-1.424h-.071q-.405.528-.844.888a3.1 3.1 0 0 1-1.02.536q-.571.176-1.406.176-.879 0-1.564-.308a2.44 2.44 0 0 1-1.073-.931q-.386-.625-.386-1.582 0-1.442 1.142-2.215 1.143-.774 3.48-.844l1.662-.07v-.59q0-1.247-.536-1.748-.537-.501-1.512-.501-.756 0-1.441.22t-1.301.518l-.448-1.107a8 8 0 0 1 1.494-.572 6.5 6.5 0 0 1 1.775-.237m1.951 5.045-1.467.061q-1.803.07-2.54.59-.74.518-.739 1.467 0 .825.501 1.222.502.395 1.327.395 1.284 0 2.101-.712.817-.711.817-2.135zm9.207-5.063q1.802 0 2.874 1.24t1.072 3.726q0 1.644-.492 2.76t-1.389 1.688q-.887.57-2.1.57-.765 0-1.345-.201a3.2 3.2 0 0 1-.993-.545 3.6 3.6 0 0 1-.686-.747h-.105l.061.826q.044.483.044.844v3.955h-1.468v-13.94h1.205l.193 1.424h.07q.281-.44.686-.8.405-.37.984-.58.59-.22 1.389-.22m-.255 1.23q-1.002 0-1.617.388-.606.386-.888 1.16-.28.764-.299 1.925v.28q0 1.223.264 2.066.273.844.888 1.283.623.44 1.67.44.895 0 1.494-.483.597-.484.887-1.345.3-.87.3-1.995 0-1.706-.669-2.707-.66-1.011-2.03-1.011m11.509-1.23q1.802 0 2.874 1.24t1.072 3.726q0 1.644-.492 2.76t-1.388 1.688q-.888.57-2.101.57-.765 0-1.345-.201a3.2 3.2 0 0 1-.993-.545 3.5 3.5 0 0 1-.685-.747h-.106l.062.826q.044.483.044.844v3.955h-1.468v-13.94h1.204l.193 1.424h.071q.281-.44.685-.8.405-.37.984-.58.59-.22 1.389-.22m-.255 1.23q-1.002 0-1.617.388-.606.386-.888 1.16-.281.764-.298 1.925v.28q0 1.223.263 2.066.273.844.888 1.283.624.44 1.67.44.897 0 1.494-.483.597-.484.888-1.345.299-.87.299-1.995 0-1.706-.668-2.707-.66-1.011-2.031-1.011m10.692-1.23q1.23 0 2.109.545a3.53 3.53 0 0 1 1.345 1.53q.466.975.466 2.285v.905h-6.653q.026 1.696.843 2.584.818.888 2.303.888.915 0 1.617-.167a9 9 0 0 0 1.459-.492v1.283a7 7 0 0 1-1.45.474 8.3 8.3 0 0 1-1.687.15q-1.39 0-2.426-.563-1.029-.57-1.6-1.67-.571-1.098-.571-2.69 0-1.555.519-2.688.526-1.143 1.476-1.758.959-.615 2.25-.616m-.017 1.196q-1.17 0-1.864.764-.694.765-.826 2.136h5.098q-.009-.861-.273-1.512-.255-.66-.782-1.02-.528-.368-1.353-.368m10.076 8.789q-1.828 0-2.9-1.248-1.064-1.248-1.064-3.71 0-2.487 1.09-3.752 1.09-1.275 2.9-1.275.766 0 1.336.203a3.296 3.296 0 0 1 1.679 1.31h.106q-.035-.273-.071-.748a11 11 0 0 1-.035-.773v-3.859h1.459V69h-1.178l-.219-1.371h-.062a3.4 3.4 0 0 1-.694.782 3.2 3.2 0 0 1-.993.563q-.571.202-1.354.202m.229-1.213q1.546 0 2.188-.879t.642-2.61v-.264q0-1.837-.616-2.821-.606-.985-2.214-.985-1.346 0-2.013 1.037-.668 1.03-.668 2.813 0 1.775.659 2.742.668.967 2.022.967m19.977-2.382q0 1.143-.571 1.951-.563.8-1.582 1.222t-2.4.422q-.729 0-1.38-.07a9 9 0 0 1-1.195-.203 5 5 0 0 1-.958-.325v-1.433q.66.273 1.608.51a8.5 8.5 0 0 0 1.987.229q.966 0 1.635-.255.668-.264 1.01-.747.352-.492.352-1.178 0-.66-.29-1.098-.29-.45-.967-.81-.668-.368-1.828-.781a10 10 0 0 1-1.441-.633 4.5 4.5 0 0 1-1.046-.791 3 3 0 0 1-.642-1.02 3.9 3.9 0 0 1-.211-1.327q0-1.027.519-1.758.527-.738 1.45-1.125.931-.395 2.136-.395a8.8 8.8 0 0 1 1.898.193 8.3 8.3 0 0 1 1.608.519l-.465 1.283a10 10 0 0 0-1.477-.483 6.6 6.6 0 0 0-1.6-.194q-.825 0-1.397.246-.562.237-.861.677-.3.44-.299 1.046 0 .676.281 1.125.29.448.914.8.633.343 1.67.72 1.133.414 1.925.88.791.456 1.204 1.124.413.66.413 1.68m4.091-10.257v7.102q0 .351-.026.861-.026.501-.044.888h.061q.185-.229.537-.677.36-.449.606-.72l3.199-3.41h1.714l-3.876 4.112 4.157 5.52h-1.757l-3.402-4.561-1.169 1.072V69h-1.45V55.324zm9.699 4.043V69h-1.459v-9.633zm-.712-3.603q.36 0 .615.237.264.229.264.72 0 .484-.264.721a.87.87 0 0 1-.615.238.9.9 0 0 1-.633-.238q-.246-.237-.246-.72 0-.492.246-.721a.9.9 0 0 1 .633-.237M163.141 69h-1.467V55.324h1.467zm4.786 0h-1.468V55.324h1.468zm9.549-2.637q0 .923-.466 1.556-.457.624-1.318.94-.852.317-2.039.317-1.011 0-1.749-.158a5 5 0 0 1-1.292-.449v-1.344q.588.29 1.406.527a6 6 0 0 0 1.67.237q1.248 0 1.811-.404.562-.405.562-1.099 0-.395-.228-.694-.22-.307-.748-.589-.526-.29-1.459-.633a17 17 0 0 1-1.599-.694q-.668-.352-1.037-.853-.36-.5-.361-1.3 0-1.222.985-1.872.993-.66 2.601-.66.87 0 1.626.176.765.167 1.424.457l-.492 1.17a9 9 0 0 0-1.274-.431 5.5 5.5 0 0 0-1.38-.176q-1.011 0-1.556.334-.536.333-.536.914 0 .449.246.738.254.29.809.545.553.255 1.459.598.905.334 1.564.694.659.351 1.011.861.36.501.36 1.292"/><path stroke="#494953" stroke-linecap="round" stroke-linejoin="round" stroke-width="1.5" d="M192.056 59.892c1.073-.94 2.815-.94 3.888 0 1.075.94 1.075 2.463 0 3.403a2.7 2.7 0 0 1-.614.405c-.683.331-1.329.916-1.329 1.675v.688M202.25 64a8.24 8.24 0 0 1-2.416 5.834A8.25 8.25 0 1 1 202.25 64M194 68.813h.007v.007H194z"/><path fill="#494953" d="M61.81 96.45h4.914v2.78H61.81v4.888h-2.78v-4.887h-4.913v-2.78h4.913v-4.952h2.78zM78.852 107h-3.923V96.26q0-.445.013-1.092.012-.66.038-1.346.026-.698.05-1.257-.139.164-.57.572-.42.394-.788.71l-2.132 1.715-1.892-2.362 5.98-4.76h3.224zm10.008-3.021.19.292a23 23 0 0 1-.596 1.967q-.356 1.054-.787 2.108-.42 1.053-.85 2.006h-2.794q.255-1.029.495-2.159.242-1.13.445-2.221.216-1.093.343-1.993zM104.886 107H91.911v-2.729l4.66-4.71a69 69 0 0 0 2.26-2.413q.863-.977 1.243-1.777a3.8 3.8 0 0 0 .394-1.714q0-1.104-.622-1.65-.609-.56-1.638-.559-1.08 0-2.094.495-1.016.495-2.12 1.41l-2.133-2.527a20 20 0 0 1 1.688-1.295 7.9 7.9 0 0 1 2.082-.977q1.194-.381 2.857-.381 1.828 0 3.135.66 1.321.66 2.032 1.803.711 1.13.711 2.564 0 1.537-.61 2.806t-1.777 2.513q-1.155 1.245-2.793 2.755l-2.387 2.247v.178h8.087zm15.01-9.28q0 2.247-.355 4.011-.343 1.766-1.117 2.997a5.1 5.1 0 0 1-2.006 1.878q-1.245.648-3.022.648-2.234 0-3.669-1.13-1.434-1.142-2.12-3.275-.685-2.146-.685-5.13 0-3.008.622-5.14.634-2.146 2.056-3.289t3.796-1.143q2.222 0 3.656 1.143 1.447 1.13 2.146 3.275.698 2.133.698 5.155m-9.077 0q0 2.12.229 3.542.24 1.409.799 2.12.56.711 1.549.711.978 0 1.536-.698.572-.711.813-2.121.241-1.422.241-3.554 0-2.12-.241-3.542-.242-1.423-.813-2.133-.558-.724-1.536-.724-.99 0-1.549.724-.558.711-.799 2.133-.23 1.421-.229 3.542m24.189 0q0 2.247-.356 4.011-.342 1.766-1.117 2.997a5.1 5.1 0 0 1-2.006 1.878q-1.244.648-3.021.648-2.235 0-3.669-1.13-1.434-1.142-2.12-3.275-.686-2.146-.686-5.13 0-3.008.622-5.14.636-2.146 2.057-3.289 1.422-1.143 3.796-1.143 2.222 0 3.656 1.143 1.447 1.13 2.146 3.275.698 2.133.698 5.155m-9.077 0q0 2.12.228 3.542.242 1.409.8 2.12.56.711 1.549.711.978 0 1.536-.698.571-.711.813-2.121.24-1.422.241-3.554 0-2.12-.241-3.542-.242-1.423-.813-2.133-.558-.724-1.536-.724-.99 0-1.549.724-.558.711-.8 2.133-.228 1.421-.228 3.542"/><defs><filter id="a" width="257" height="165" x="0" y="0" color-interpolation-filters="sRGB" filterUnits="userSpaceOnUse"><feFlood flood-opacity="0" result="BackgroundImageFix"/><feColorMatrix in="SourceAlpha" result="hardAlpha" values="0 0 0 0 0 0 0 0 0 0 0 0 0 0 0 0 0 0 127 0"/><feOffset dx="1" dy="1"/><feGaussianBlur stdDeviation="15"/><feComposite in2="hardAlpha" operator="out"/><feColorMatrix values="0 0 0 0 0 0 0 0 0 0 0 0 0 0 0 0 0 0 0.15 0"/><feBlend in2="BackgroundImageFix" result="effect1_dropShadow_27_394"/><feBlend in="SourceGraphic" in2="effect1_dropShadow_27_394" result="shape"/></filter></defs></svg>