<svg width="252" height="165" viewBox="0 0 252 165" fill="none" xmlns="http://www.w3.org/2000/svg">
<g filter="url(#filter0_d_169_3850)">
<rect x="29" y="29" width="192" height="105" rx="25" fill="white"/>
</g>
<path d="M76.25 71.01C75.926 70.686 75.68 70.32 75.512 69.912C75.344 69.504 75.26 69.084 75.26 68.652C75.26 68.184 75.35 67.734 75.53 67.302C75.722 66.858 75.992 66.462 76.34 66.114L77.708 64.764L76.952 64.026L77.996 62.964L81.164 66.114C81.5 66.462 81.758 66.858 81.938 67.302C82.13 67.734 82.226 68.178 82.226 68.634C82.226 69.066 82.136 69.492 81.956 69.912C81.788 70.32 81.542 70.686 81.218 71.01C80.882 71.346 80.498 71.604 80.066 71.784C79.634 71.952 79.19 72.036 78.734 72.036C78.29 72.036 77.852 71.952 77.42 71.784C76.988 71.604 76.598 71.346 76.25 71.01ZM77.366 69.894C77.762 70.29 78.224 70.488 78.752 70.488C79.004 70.488 79.25 70.44 79.49 70.344C79.73 70.236 79.94 70.086 80.12 69.894C80.492 69.534 80.678 69.09 80.678 68.562C80.678 68.022 80.486 67.56 80.102 67.176L78.734 65.808L77.384 67.158C77 67.566 76.808 68.028 76.808 68.544C76.808 69.072 76.994 69.522 77.366 69.894ZM88.5231 70.434C88.9191 70.434 89.2491 70.308 89.5131 70.056C89.7891 69.804 89.9271 69.486 89.9271 69.102C89.9271 68.994 89.8911 68.82 89.8191 68.58L88.2351 64.224L89.6391 63.72L91.6911 69.372C91.7991 69.684 91.9911 69.942 92.2671 70.146C92.5431 70.338 92.8491 70.434 93.1851 70.434H93.4371C93.5571 70.434 93.6171 70.494 93.6171 70.614V71.82C93.6171 71.94 93.5571 72 93.4371 72H93.1311C92.6151 72 92.1531 71.88 91.7451 71.64C91.3371 71.388 91.0371 71.07 90.8451 70.686C90.3291 71.562 89.5551 72 88.5231 72H84.4551V70.434H88.5231ZM102.067 60.516V62.1H100.483V60.516H102.067ZM100.807 63.054V64.638H99.2226V63.054H100.807ZM101.743 64.638V63.054H103.327V64.638H101.743ZM106.135 65.61V72H103.525C103.033 72 102.595 71.892 102.211 71.676C101.827 71.448 101.515 71.142 101.275 70.758C101.035 71.154 100.723 71.466 100.339 71.694C99.9546 71.922 99.5166 72.036 99.0246 72.036C98.5206 72.036 98.0706 71.922 97.6746 71.694C97.2906 71.466 96.9786 71.154 96.7386 70.758C96.5106 71.142 96.1986 71.448 95.8026 71.676C95.4186 71.892 94.9866 72 94.5066 72H93.6786C93.5586 72 93.4986 71.94 93.4986 71.82V70.614C93.4986 70.494 93.5586 70.434 93.6786 70.434H94.5066C94.9266 70.434 95.2806 70.29 95.5686 70.002C95.8686 69.702 96.0186 69.348 96.0186 68.94V66.168H97.5126V68.976C97.5126 69.396 97.6566 69.75 97.9446 70.038C98.2446 70.326 98.6046 70.47 99.0246 70.47C99.4326 70.47 99.7806 70.326 100.069 70.038C100.369 69.738 100.519 69.384 100.519 68.976V66.168H101.995V68.94C101.995 69.348 102.145 69.702 102.445 70.002C102.745 70.29 103.105 70.434 103.525 70.434H104.659V65.61H106.135ZM117.639 75.456C116.703 75.456 115.839 75.222 115.047 74.754C114.255 74.286 113.625 73.65 113.157 72.846C112.689 72.054 112.455 71.19 112.455 70.254V66.888H113.931V70.164C113.931 70.836 114.099 71.454 114.435 72.018C114.771 72.594 115.221 73.05 115.785 73.386C116.349 73.722 116.967 73.89 117.639 73.89C118.311 73.89 118.935 73.722 119.511 73.386C120.087 73.05 120.543 72.594 120.879 72.018C121.215 71.454 121.383 70.836 121.383 70.164V60.102H122.859V70.254C122.859 71.19 122.625 72.054 122.157 72.846C121.689 73.65 121.053 74.286 120.249 74.754C119.457 75.222 118.587 75.456 117.639 75.456ZM129.376 70.434C129.796 70.434 130.144 70.29 130.42 70.002C130.708 69.714 130.852 69.366 130.852 68.958C130.852 68.418 130.576 67.974 130.024 67.626L126.658 65.304L127.486 64.08L131.086 66.564C131.926 67.164 132.346 67.95 132.346 68.922C132.346 69.498 132.202 70.02 131.914 70.488C131.638 70.956 131.26 71.328 130.78 71.604C130.312 71.868 129.802 72 129.25 72H125.254V70.434H129.376ZM137.724 72C137.172 72 136.668 71.868 136.212 71.604C135.756 71.328 135.39 70.962 135.114 70.506C134.85 70.038 134.718 69.528 134.718 68.976V60.138H136.194V68.886C136.194 69.318 136.338 69.684 136.626 69.984C136.926 70.284 137.286 70.434 137.706 70.434H138.516C138.636 70.434 138.696 70.494 138.696 70.614V71.82C138.696 71.94 138.636 72 138.516 72H137.724ZM138.753 72C138.633 72 138.573 71.94 138.573 71.82V70.614C138.573 70.494 138.633 70.434 138.753 70.434H139.581C140.001 70.434 140.355 70.29 140.643 70.002C140.943 69.702 141.093 69.348 141.093 68.94V66.168H142.587V68.94C142.587 69.36 142.731 69.714 143.019 70.002C143.319 70.29 143.679 70.434 144.099 70.434H144.927C145.047 70.434 145.107 70.494 145.107 70.614V71.82C145.107 71.94 145.047 72 144.927 72H144.099C143.595 72 143.145 71.886 142.749 71.658C142.365 71.43 142.059 71.118 141.831 70.722C141.615 71.118 141.309 71.43 140.913 71.658C140.517 71.886 140.073 72 139.581 72H138.753ZM141.021 73.656H142.605V75.24H141.021V73.656ZM145.318 62.316H146.902V63.9H145.318V62.316ZM147.838 62.316H149.44V63.9H147.838V62.316ZM145.156 72C145.036 72 144.976 71.94 144.976 71.82V70.614C144.976 70.494 145.036 70.434 145.156 70.434H146.488C146.908 70.434 147.262 70.284 147.55 69.984C147.85 69.684 148 69.318 148 68.886V65.61H149.476V68.976C149.476 69.528 149.338 70.038 149.062 70.506C148.798 70.962 148.438 71.328 147.982 71.604C147.526 71.868 147.022 72 146.47 72H145.156ZM160.564 64.584H162.148V66.168H160.564V64.584ZM163.084 64.584H164.668V66.168H163.084V64.584ZM159.772 72C159.052 72 158.386 71.82 157.774 71.46C157.162 71.1 156.676 70.62 156.316 70.02C155.968 69.408 155.794 68.736 155.794 68.004V66.168H157.27V67.914C157.27 68.37 157.378 68.796 157.594 69.192C157.822 69.576 158.128 69.882 158.512 70.11C158.896 70.326 159.316 70.434 159.772 70.434H165.982C166.522 70.434 166.978 70.248 167.35 69.876C167.722 69.492 167.908 69.03 167.908 68.49V66.168H169.384V68.49C169.384 69.126 169.234 69.714 168.934 70.254C168.634 70.794 168.226 71.22 167.71 71.532C167.194 71.844 166.618 72 165.982 72H159.772ZM168.745 75.474C169.633 74.982 170.269 74.598 170.653 74.322C171.037 74.046 171.325 73.704 171.517 73.296C171.721 72.9 171.823 72.354 171.823 71.658V66.168H173.299V71.658C173.299 72.546 173.167 73.278 172.903 73.854C172.639 74.43 172.231 74.922 171.679 75.33C171.127 75.75 170.335 76.212 169.303 76.716L168.745 75.474ZM178.725 72C178.173 72 177.669 71.868 177.213 71.604C176.757 71.328 176.391 70.962 176.115 70.506C175.851 70.038 175.719 69.528 175.719 68.976V60.138H177.195V68.886C177.195 69.318 177.339 69.684 177.627 69.984C177.927 70.284 178.287 70.434 178.707 70.434H179.517C179.637 70.434 179.697 70.494 179.697 70.614V71.82C179.697 71.94 179.637 72 179.517 72H178.725ZM189.743 70.434C189.863 70.434 189.923 70.494 189.923 70.614V71.82C189.923 71.94 189.863 72 189.743 72H188.915C188.375 72 187.925 72.186 187.565 72.558C187.205 72.942 187.025 73.404 187.025 73.944V74.718H188.375V76.194H184.073C183.497 76.194 182.963 76.05 182.471 75.762C181.991 75.486 181.607 75.102 181.319 74.61C181.043 74.13 180.905 73.608 180.905 73.044V72H179.753C179.633 72 179.573 71.94 179.573 71.82V70.614C179.573 70.494 179.633 70.434 179.753 70.434H180.905V68.544C180.905 67.908 181.055 67.32 181.355 66.78C181.655 66.24 182.063 65.814 182.579 65.502C183.095 65.19 183.671 65.034 184.307 65.034C184.943 65.034 185.525 65.19 186.053 65.502C186.593 65.814 187.019 66.24 187.331 66.78C187.655 67.32 187.817 67.908 187.817 68.544C187.817 69.168 187.655 69.744 187.331 70.272C187.019 70.8 186.593 71.22 186.053 71.532C185.525 71.844 184.943 72 184.307 72H182.381V73.044C182.381 73.5 182.543 73.89 182.867 74.214C183.203 74.55 183.599 74.718 184.055 74.718H185.657V73.944C185.657 73.308 185.801 72.72 186.089 72.18C186.377 71.64 186.779 71.214 187.295 70.902C187.811 70.59 188.381 70.434 189.005 70.434H189.743ZM182.363 70.434H184.307C184.847 70.434 185.303 70.254 185.675 69.894C186.059 69.522 186.251 69.072 186.251 68.544C186.251 68.004 186.059 67.548 185.675 67.176C185.303 66.792 184.847 66.6 184.307 66.6C183.767 66.6 183.305 66.786 182.921 67.158C182.549 67.53 182.363 67.992 182.363 68.544V70.434ZM195.875 65.124C196.511 65.124 197.099 65.274 197.639 65.574C198.179 65.874 198.605 66.282 198.917 66.798C199.229 67.314 199.385 67.89 199.385 68.526C199.385 69.162 199.229 69.75 198.917 70.29C198.605 70.83 198.179 71.256 197.639 71.568C197.099 71.88 196.511 72.036 195.875 72.036C195.335 72.036 194.837 71.922 194.381 71.694C193.925 71.466 193.541 71.148 193.229 70.74C192.989 71.124 192.671 71.43 192.275 71.658C191.891 71.886 191.459 72 190.979 72H189.971C189.851 72 189.791 71.94 189.791 71.82V70.614C189.791 70.494 189.851 70.434 189.971 70.434H190.979C191.399 70.434 191.753 70.29 192.041 70.002C192.341 69.702 192.491 69.348 192.491 68.94V66.618H191.429V65.124H195.875ZM195.875 70.47C196.415 70.47 196.871 70.284 197.243 69.912C197.627 69.528 197.819 69.066 197.819 68.526C197.819 67.998 197.627 67.548 197.243 67.176C196.871 66.804 196.415 66.618 195.875 66.618H193.949V68.526C193.949 69.066 194.135 69.528 194.507 69.912C194.879 70.284 195.335 70.47 195.875 70.47Z" fill="#494953"/>
<path d="M56.0557 61.8924C57.1292 60.9528 58.8708 60.9528 59.9443 61.8924C61.0186 62.832 61.0186 64.3555 59.9443 65.2951C59.7582 65.4592 59.5501 65.5939 59.3301 65.7003C58.6472 66.0312 58.0009 66.616 58.0009 67.375V68.0625M66.25 66C66.25 67.0834 66.0366 68.1562 65.622 69.1571C65.2074 70.1581 64.5997 71.0675 63.8336 71.8336C63.0675 72.5997 62.1581 73.2074 61.1571 73.622C60.1562 74.0366 59.0834 74.25 58 74.25C56.9166 74.25 55.8438 74.0366 54.8429 73.622C53.8419 73.2074 52.9325 72.5997 52.1664 71.8336C51.4003 71.0675 50.7926 70.1581 50.378 69.1571C49.9634 68.1562 49.75 67.0834 49.75 66C49.75 63.812 50.6192 61.7135 52.1664 60.1664C53.7135 58.6192 55.812 57.75 58 57.75C60.188 57.75 62.2865 58.6192 63.8336 60.1664C65.3808 61.7135 66.25 63.812 66.25 66ZM58 70.8125H58.0073V70.8198H58V70.8125Z" stroke="#494953" stroke-width="1.5" stroke-linecap="round" stroke-linejoin="round"/>
<path d="M108.266 103.266H103.716V99.808H108.266V95.258H111.932V99.808H116.508V103.266H111.932V107.816H108.266V103.266ZM130.678 91.904V96.532C130.678 97.572 130.444 98.5253 129.976 99.392C129.508 100.259 128.858 100.952 128.026 101.472C127.211 101.975 126.293 102.226 125.27 102.226C124.663 102.226 124.135 102.139 123.684 101.966V102.486V110H119.966V101.888V100.51C119.966 98.8807 119.914 97.4073 119.81 96.09C119.723 94.7553 119.533 93.4987 119.238 92.32L122.644 91.748C123.06 92.7013 123.337 94.296 123.476 96.532H123.502C123.502 97.0347 123.667 97.4593 123.996 97.806C124.343 98.1353 124.767 98.3 125.27 98.3C125.755 98.3 126.163 98.1353 126.492 97.806C126.821 97.4593 126.986 97.0347 126.986 96.532V91.904H130.678ZM137.62 110C136.667 110 135.791 109.766 134.994 109.298C134.214 108.83 133.59 108.206 133.122 107.426C132.654 106.629 132.42 105.753 132.42 104.8C132.42 103.847 132.654 102.98 133.122 102.2C133.59 101.403 134.214 100.77 134.994 100.302C135.791 99.834 136.667 99.6 137.62 99.6C138.573 99.6 139.449 99.834 140.246 100.302C141.043 100.77 141.676 101.403 142.144 102.2C142.612 102.98 142.846 103.847 142.846 104.8C142.846 105.753 142.612 106.629 142.144 107.426C141.676 108.206 141.043 108.83 140.246 109.298C139.449 109.766 138.573 110 137.62 110ZM137.62 106.282C138.053 106.282 138.409 106.143 138.686 105.866C138.963 105.589 139.102 105.233 139.102 104.8C139.102 104.367 138.963 104.011 138.686 103.734C138.409 103.457 138.053 103.318 137.62 103.318C137.187 103.318 136.831 103.457 136.554 103.734C136.294 104.011 136.164 104.367 136.164 104.8C136.164 105.233 136.294 105.589 136.554 105.866C136.831 106.143 137.187 106.282 137.62 106.282Z" fill="#494953"/>
<defs>
<filter id="filter0_d_169_3850" x="0" y="0" width="252" height="165" filterUnits="userSpaceOnUse" color-interpolation-filters="sRGB">
<feFlood flood-opacity="0" result="BackgroundImageFix"/>
<feColorMatrix in="SourceAlpha" type="matrix" values="0 0 0 0 0 0 0 0 0 0 0 0 0 0 0 0 0 0 127 0" result="hardAlpha"/>
<feOffset dx="1" dy="1"/>
<feGaussianBlur stdDeviation="15"/>
<feComposite in2="hardAlpha" operator="out"/>
<feColorMatrix type="matrix" values="0 0 0 0 0 0 0 0 0 0 0 0 0 0 0 0 0 0 0.15 0"/>
<feBlend mode="normal" in2="BackgroundImageFix" result="effect1_dropShadow_169_3850"/>
<feBlend mode="normal" in="SourceGraphic" in2="effect1_dropShadow_169_3850" result="shape"/>
</filter>
</defs>
</svg>
