<svg width="50" height="50" viewBox="0 0 50 50" fill="none" xmlns="http://www.w3.org/2000/svg">
<path fill-rule="evenodd" clip-rule="evenodd" d="M33.2708 5.14592C33.5638 4.85332 33.9609 4.68896 34.375 4.68896C34.7891 4.68896 35.1862 4.85332 35.4792 5.14592L44.8542 14.5209C45.1468 14.8139 45.3111 15.211 45.3111 15.6251C45.3111 16.0392 45.1468 16.4363 44.8542 16.7293L35.4792 26.1043C35.3361 26.2578 35.1636 26.3809 34.972 26.4663C34.7803 26.5517 34.5734 26.5976 34.3636 26.6013C34.1538 26.605 33.9454 26.5664 33.7508 26.4878C33.5563 26.4093 33.3795 26.2923 33.2312 26.1439C33.0828 25.9955 32.9658 25.8188 32.8872 25.6243C32.8087 25.4297 32.7701 25.2213 32.7738 25.0115C32.7775 24.8017 32.8234 24.5948 32.9088 24.4031C32.9942 24.2115 33.1173 24.039 33.2708 23.8959L39.9792 17.1876H15.625C15.2106 17.1876 14.8132 17.023 14.5201 16.7299C14.2271 16.4369 14.0625 16.0395 14.0625 15.6251C14.0625 15.2107 14.2271 14.8133 14.5201 14.5202C14.8132 14.2272 15.2106 14.0626 15.625 14.0626H39.9792L33.2708 7.35426C32.9782 7.06129 32.8139 6.66415 32.8139 6.25009C32.8139 5.83603 32.9782 5.43889 33.2708 5.14592ZM16.7292 23.8959C17.0218 24.1889 17.1861 24.586 17.1861 25.0001C17.1861 25.4142 17.0218 25.8113 16.7292 26.1043L10.0208 32.8126H34.375C34.7894 32.8126 35.1868 32.9772 35.4799 33.2702C35.7729 33.5633 35.9375 33.9607 35.9375 34.3751C35.9375 34.7895 35.7729 35.1869 35.4799 35.4799C35.1868 35.773 34.7894 35.9376 34.375 35.9376H10.0208L16.7292 42.6459C16.8827 42.789 17.0058 42.9615 17.0912 43.1531C17.1766 43.3448 17.2225 43.5517 17.2262 43.7615C17.2299 43.9713 17.1913 44.1797 17.1128 44.3742C17.0342 44.5688 16.9172 44.7455 16.7688 44.8939C16.6205 45.0423 16.4437 45.1593 16.2492 45.2378C16.0546 45.3164 15.8462 45.355 15.6364 45.3513C15.4266 45.3476 15.2197 45.3017 15.028 45.2163C14.8364 45.1309 14.6639 45.0078 14.5208 44.8543L5.14583 35.4793C4.85323 35.1863 4.68887 34.7892 4.68887 34.3751C4.68887 33.961 4.85323 33.5639 5.14583 33.2709L14.5208 23.8959C14.8138 23.6033 15.2109 23.439 15.625 23.439C16.0391 23.439 16.4362 23.6033 16.7292 23.8959Z" fill="#EDF2F6"/>
</svg>
