<svg xmlns="http://www.w3.org/2000/svg" width="294" height="235" fill="none"><g filter="url(#a)"><rect width="224" height="159" x="27" y="47.293" fill="#fff" rx="25" transform="rotate(-5.198 27 47.293)"/></g><path fill="#494953" d="m59.21 84.528-1.497.136-1.045-11.484-4.026.366-.12-1.313 9.532-.867.12 1.313-4.009.365zM73 78.419q.107 1.181-.115 2.138-.222.955-.741 1.647-.52.691-1.312 1.108-.784.406-1.816.5a4.6 4.6 0 0 1-1.799-.171 4 4 0 0 1-1.472-.855q-.636-.586-1.044-1.485-.399-.9-.507-2.08-.143-1.575.29-2.728.434-1.16 1.37-1.827.944-.678 2.319-.803 1.312-.12 2.346.378 1.043.496 1.686 1.559.653 1.053.795 2.62m-7.3.665q.105 1.155.488 1.976.384.82 1.065 1.227.681.405 1.688.314.998-.09 1.594-.613.606-.522.835-1.4.23-.876.124-2.032-.104-1.146-.486-1.95-.383-.812-1.063-1.21-.681-.397-1.696-.304-1.497.135-2.107 1.189-.601 1.052-.442 2.802m13.488 2.603q.358-.033.73-.128.37-.096.598-.205l.103 1.13a3 3 0 0 1-.691.256 5 5 0 0 1-.868.159q-.762.069-1.407-.137-.646-.214-1.08-.82-.426-.605-.53-1.734l-.517-5.69-1.365.124-.065-.709 1.323-.693.388-2.136.875-.08.202 2.223 2.81-.255.104 1.138-2.81.255.513 5.646q.083.902.534 1.31.462.41 1.153.346m6.317-9.383q1.716-.156 2.617.539.902.695 1.055 2.384l.593 6.52-1.059.097-.409-1.392-.07.006q-.355.563-.76.96-.406.39-.966.627-.554.227-1.385.302-.876.08-1.586-.164a2.44 2.44 0 0 1-1.152-.831q-.442-.586-.529-1.54-.13-1.435.938-2.31 1.067-.874 3.39-1.155l1.647-.22-.053-.587q-.113-1.243-.692-1.694-.58-.45-1.551-.362a4.7 4.7 0 0 0-1.416.35 10 10 0 0 0-1.248.634l-.547-1.062q.618-.392 1.436-.704a6.5 6.5 0 0 1 1.747-.398m2.4 4.848-1.456.194q-1.788.234-2.477.817t-.602 1.528q.075.824.61 1.171.534.35 1.357.274 1.278-.115 2.028-.9.75-.782.62-2.2zm6.552 4.17-1.461.132-1.24-13.62 1.463-.132zm8.773-10.471.873 9.593-1.453.132-.873-9.593zm-1.035-3.524a.87.87 0 0 1 .634.18q.283.204.328.694.043.481-.197.742a.87.87 0 0 1-.591.292.9.9 0 0 1-.652-.18q-.266-.213-.311-.695-.043-.49.18-.74a.9.9 0 0 1 .609-.293m8.875 2.634q1.707-.154 2.659.606.951.75 1.119 2.598l.568 6.25-1.435.13-.56-6.153q-.11-1.199-.715-1.744-.597-.546-1.726-.443-1.593.145-2.158 1.105-.566.96-.41 2.676l.457 5.024-1.453.133-.873-9.594 1.173-.106.345 1.363.079-.007q.26-.536.701-.92.44-.394 1.012-.622.57-.237 1.217-.296m11.43 8.986q-1.296.118-2.333-.326t-1.689-1.488q-.65-1.044-.802-2.707-.158-1.742.319-2.897.485-1.165 1.461-1.792.975-.627 2.28-.746a6.3 6.3 0 0 1 1.396.023q.686.08 1.136.258l-.327 1.257a8 8 0 0 0-1.044-.223 4.5 4.5 0 0 0-1.081-.043q-.998.09-1.624.58-.618.489-.875 1.35-.248.862-.137 2.079.106 1.163.496 1.958.399.793 1.069 1.173.678.371 1.632.284.761-.069 1.359-.282.599-.222 1.077-.486l.118 1.295q-.46.289-1.043.474-.574.185-1.388.259m12.802-6.195q.108 1.182-.114 2.137t-.742 1.648q-.519.69-1.311 1.107-.783.407-1.817.5a4.6 4.6 0 0 1-1.798-.17 4 4 0 0 1-1.472-.855q-.636-.587-1.044-1.485-.399-.9-.507-2.081-.144-1.576.29-2.727.433-1.16 1.37-1.828.944-.677 2.318-.802 1.314-.12 2.347.378 1.043.495 1.686 1.558.652 1.053.794 2.62m-7.3.664q.105 1.156.489 1.977.384.82 1.065 1.227.681.405 1.688.314.997-.09 1.594-.613.606-.523.835-1.4.23-.877.124-2.032-.105-1.147-.486-1.95-.383-.813-1.064-1.21-.68-.397-1.695-.304-1.497.136-2.107 1.189-.602 1.05-.443 2.802m20.01-6.815q1.584-.145 2.465.614.88.75 1.046 2.579l.572 6.284-1.435.131-.566-6.215q-.105-1.163-.666-1.695-.552-.541-1.541-.451-1.392.126-1.949.989-.556.862-.414 2.43l.488 5.365-1.444.131-.566-6.214q-.07-.78-.345-1.275a1.56 1.56 0 0 0-.736-.71q-.461-.222-1.135-.161-.954.086-1.496.533-.542.446-.734 1.25-.183.792-.081 1.922l.462 5.076-1.453.133-.872-9.594 1.172-.106.343 1.336.078-.007q.244-.525.651-.906.406-.381.933-.606t1.139-.28q1.095-.1 1.867.245.781.335 1.189 1.136l.079-.007a2.98 2.98 0 0 1 1.183-1.352 4 4 0 0 1 1.766-.575m10.105-.92q1.225-.111 2.15.352a3.53 3.53 0 0 1 1.478 1.401q.552.93.671 2.234l.082.901-6.626.603q.18 1.687 1.074 2.497t2.374.675a7 7 0 0 0 1.595-.312q.685-.23 1.408-.623l.117 1.278q-.697.39-1.402.604a8.3 8.3 0 0 1-1.667.302q-1.383.126-2.466-.34-1.076-.477-1.745-1.519-.668-1.041-.812-2.626-.141-1.55.273-2.726.422-1.185 1.311-1.884.898-.7 2.185-.817m.091 1.193q-1.165.105-1.787.93-.622.824-.629 2.202l5.077-.462q-.087-.858-.409-1.481-.313-.633-.871-.945-.558-.32-1.381-.244"/><path stroke="#494953" stroke-linecap="round" stroke-linejoin="round" stroke-width="1.5" d="M174.258 64.917c.984-1.033 2.718-1.19 3.872-.352 1.155.838 1.293 2.356.309 3.389-.171.18-.366.333-.575.459-.65.391-1.241 1.032-1.172 1.788l.062.685m8.028-2.802a8.24 8.24 0 0 1-1.878 6.029 8.24 8.24 0 0 1-8.791 2.595 8.24 8.24 0 0 1-4.851-4.042 8.25 8.25 0 1 1 15.52-4.582m-7.78 5.54h.008v.007h-.007z"/><path fill="#494953" d="m64.653 123.706-.23-2.541q-1.686.115-3.038-.042a12.7 12.7 0 0 1-2.473-.553l-.303-3.338q1.121.421 2.652.715 1.53.282 2.891.247l-.357-3.919q-2.068-.603-3.336-1.226-1.256-.638-1.87-1.488-.6-.863-.715-2.127-.118-1.29.48-2.287.609-1.013 1.784-1.692 1.174-.681 2.767-.966l-.176-1.934 1.733-.158.17 1.884q1.472-.083 2.763.093a13 13 0 0 1 2.578.594l-.92 3.066a13 13 0 0 0-2.147-.48 14 14 0 0 0-1.988-.138l.34 3.73q1.45.391 2.77.883t2.2 1.355q.882.862 1.02 2.38.17 1.884-1.09 3.286-1.25 1.401-4.008 1.907l.236 2.592zm1.223-5.758q.871-.232 1.255-.637a1.26 1.26 0 0 0 .329-1.011 1.1 1.1 0 0 0-.247-.615q-.215-.26-.629-.466a6.5 6.5 0 0 0-.994-.419zm-2.415-7.352-.27-2.972a3 3 0 0 0-.862.334 1.34 1.34 0 0 0-.518.48q-.165.283-.132.65.034.366.223.63.203.261.578.47.39.207.98.408m16.245-1.682q1.695-.154 3.067.371a4.9 4.9 0 0 1 2.26 1.707q.87 1.182 1.038 3.016.182 1.997-.52 3.527-.69 1.516-2.264 2.437-1.56.92-4.001 1.141-1.455.133-2.767-.003-1.299-.124-2.305-.542l-.308-3.376q1.008.419 2.38.65 1.383.219 2.572.111 1.163-.106 1.932-.482.768-.389 1.114-1.07.358-.696.265-1.707-.123-1.353-1.099-1.991-.975-.637-2.86-.466-.72.065-1.491.276-.759.209-1.264.395l-1.632-.693-.161-9.482 10.026-.912.301 3.312-6.6.601-.01 3.659q.42-.127.919-.262.497-.134 1.408-.217m8.557 3.212a22 22 0 0 1-.059-3.169q.098-1.59.554-3.021a7.7 7.7 0 0 1 1.408-2.601q.951-1.17 2.514-1.924 1.563-.767 3.863-.976.544-.05 1.27-.065.736-.028 1.226.029l.284 3.123a10 10 0 0 0-1.104-.078 9 9 0 0 0-1.144.027q-2.3.21-3.499 1.058-1.185.847-1.585 2.197-.389 1.335-.32 3.063l.164-.015q.297-.652.785-1.181a4 4 0 0 1 1.246-.878q.744-.361 1.781-.455 1.62-.147 2.87.44 1.25.575 2.014 1.818t.934 3.115q.181 1.998-.459 3.509a5.34 5.34 0 0 1-1.986 2.411q-1.334.886-3.269 1.063a7.3 7.3 0 0 1-2.686-.24 5.9 5.9 0 0 1-2.285-1.297q-1.013-.915-1.67-2.385-.657-1.483-.847-3.568m7.128 4.374q1.15-.105 1.8-.954.65-.85.498-2.519-.123-1.353-.825-2.066-.692-.727-1.956-.613-.86.078-1.481.53-.61.438-.91 1.065-.302.614-.245 1.233.059.645.293 1.261t.636 1.102q.4.486.948.755.56.267 1.242.206m10.595 1.93 5.559-15.829-9.116.829-.299-3.287 13.263-1.206.223 2.453-5.533 16.667zm13.495-3.051q-.108-1.188.493-1.727.614-.541 1.536-.625.898-.082 1.587.341.7.42.809 1.609.103 1.137-.508 1.703-.599.564-1.497.646-.922.084-1.626-.362-.691-.447-.794-1.585m18.232-14.304q.117 1.277-.329 2.261a4.4 4.4 0 0 1-1.303 1.661q-.843.675-1.943 1.056l.007.076q2.25.075 3.5 1.058 1.262.983 1.427 2.802.148 1.618-.533 2.968-.668 1.349-2.244 2.231-1.578.884-4.169 1.119-1.53.14-2.88.007a11.3 11.3 0 0 1-2.546-.521l-.303-3.325a11.4 11.4 0 0 0 2.575.697q1.33.184 2.455.082 2.098-.19 2.868-.987.78-.811.66-2.126-.07-.771-.51-1.266t-1.439-.685q-.987-.19-2.718-.033l-1.404.127-.272-2.996 1.428-.13q1.708-.155 2.563-.552.868-.41 1.134-.995.276-.6.211-1.32-.09-.986-.747-1.487t-2.074-.372a5.4 5.4 0 0 0-1.597.374 6.8 6.8 0 0 0-1.254.65q-.554.356-.97.687l-2.053-2.528q1.016-.883 2.423-1.534 1.419-.651 3.442-.835 2.858-.26 4.631.738 1.773 1 1.964 3.098m17.145 9.046-2.225.203.348 3.831-3.818.347-.349-3.831-7.889.718-.247-2.718 7.018-12.673 3.604-.328 1.057 11.619 2.225-.202zm-6.32-2.484-.285-3.136a55 55 0 0 1-.083-1.05l-.06-1.219q-.03-.609-.047-1.079l-.01-.675-.101.01q-.193.54-.414 1.057a14 14 0 0 1-.528 1.068l-2.922 5.429zm24.537 4.69-4.45.405-5.551-7.348-1.548 1.339.6 6.6-3.919.356-1.682-18.484 3.92-.356.769 8.458q.343-.579.673-1.158.33-.578.672-1.157l4.435-6.74 4.349-.395-5.704 8.767z"/><circle cx="81.213" cy="163.517" r="17.5" fill="#EDF2F6" transform="rotate(-5.198 81.213 163.517)"/><path stroke="#FF5656" stroke-linecap="round" stroke-linejoin="round" stroke-width="2" d="m80.943 160.642.612 6.723m0 0-3.26-2.716m3.26 2.716 2.716-3.26m-7.673 6.723a4.502 4.502 0 0 1-4.452-6.464 4.5 4.5 0 0 1 2.253-2.147 5.249 5.249 0 0 1 7.349-6.184 5.25 5.25 0 0 1 2.63 2.936 3 3 0 0 1 3.131.476 3 3 0 0 1 .961 3.016 3.75 3.75 0 0 1 2.72 3.952 3.75 3.75 0 0 1-3.388 3.396z"/><path fill="#494953" d="M119.576 154.817q.078.867-.214 1.537a2.96 2.96 0 0 1-.867 1.138q-.567.458-1.348.705l.006.062q1.55.053 2.398.752.859.699.973 1.968.102 1.112-.353 2.035-.454.916-1.512 1.515-1.057.599-2.791.757-1.041.095-1.949.009a7.2 7.2 0 0 1-1.73-.381l-.166-1.829a8.2 8.2 0 0 0 1.79.464q.939.135 1.761.06 1.602-.146 2.231-.803.627-.666.531-1.725-.062-.683-.461-1.088-.39-.405-1.153-.557-.756-.151-1.92-.046l-1.129.103-.15-1.654 1.138-.104q1.112-.1 1.761-.425.65-.333.904-.832a2 2 0 0 0 .206-1.131q-.074-.822-.65-1.229-.576-.416-1.626-.32a4.4 4.4 0 0 0-1.169.256 5.4 5.4 0 0 0-.937.465 9 9 0 0 0-.804.567l-1.119-1.336a7 7 0 0 1 1.649-1.077q.973-.468 2.312-.59 1.97-.179 3.114.573 1.145.743 1.274 2.161m12.087 6.023-1.734.157.256 2.81-2.031.185-.255-2.81-5.821.529-.142-1.558 5.077-8.996 2.005-.182.756 8.315 1.733-.157zm-3.919-1.365-.29-3.177a39 39 0 0 1-.063-.798l-.037-.79-.028-.695-.022-.536-.07.006q-.134.365-.302.751-.17.378-.366.739l-2.735 4.856zm6.997 3.917 4.024-11.45-6.643.604-.164-1.803 8.857-.806.129 1.409-3.989 11.845zm9.297-1.94q-.065-.717.276-1.04a1.43 1.43 0 0 1 .884-.38q.534-.049.937.215.411.254.477.971.064.7-.293 1.051a1.4 1.4 0 0 1-.883.389 1.4 1.4 0 0 1-.938-.224q-.396-.282-.46-.982m13.548-.138-8.666.789-.14-1.55 3.011-3.663a43 43 0 0 0 1.431-1.833q.556-.774.795-1.44a3.2 3.2 0 0 0 .18-1.42q-.084-.927-.661-1.352-.578-.432-1.453-.353a3.6 3.6 0 0 0-1.51.473 7 7 0 0 0-1.369 1.06l-1.253-1.254a9.5 9.5 0 0 1 1.063-.935 5.6 5.6 0 0 1 1.311-.72q.732-.296 1.695-.383 1.216-.111 2.14.246.924.349 1.466 1.076.552.727.645 1.75a4.5 4.5 0 0 1-.238 1.946q-.332.913-1.015 1.84a33 33 0 0 1-1.644 2.012l-2.018 2.363.009.096 6.057-.551zm4.96-13.53q1.112-.101 2.036.168.924.26 1.511.895.588.635.679 1.641.071.78-.2 1.387-.262.606-.766 1.093a7 7 0 0 1-1.147.872q.786.3 1.46.723.683.415 1.125 1.019.453.603.53 1.461.098 1.076-.381 1.914-.472.828-1.405 1.346-.933.509-2.229.626-1.391.127-2.409-.195-1.018-.323-1.595-1.038-.577-.724-.675-1.792-.08-.884.211-1.563.29-.68.835-1.206a6.3 6.3 0 0 1 1.232-.915 7 7 0 0 1-1.177-.705 3.6 3.6 0 0 1-.891-.969q-.343-.57-.414-1.348-.09-.998.382-1.721.472-.731 1.333-1.162a5.5 5.5 0 0 1 1.955-.531m-1.512 9.863q.076.84.721 1.329.644.489 1.826.381 1.173-.107 1.737-.696.564-.59.485-1.465a1.63 1.63 0 0 0-.405-.961 3 3 0 0 0-.901-.686 9 9 0 0 0-1.204-.526l-.291-.088a5.6 5.6 0 0 0-1.113.763 2.8 2.8 0 0 0-.687.884 2.04 2.04 0 0 0-.168 1.065m1.639-8.277q-.85.077-1.363.547-.505.462-.434 1.24.05.552.348.922.308.369.789.616.481.239 1.054.434.513-.285.916-.604a2.35 2.35 0 0 0 .63-.746q.226-.426.175-.987-.07-.77-.659-1.131-.582-.37-1.456-.291m8.778-2.405q1.41-.128 2.231.856.822.975.995 2.884.173 1.899-.43 3.031-.594 1.13-2.065 1.264-1.374.125-2.189-.877-.814-1.003-.988-2.902-.173-1.908.406-3.011.587-1.113 2.04-1.245m.14 1.435q-.57.052-.783.715-.204.663-.086 1.958.117 1.287.439 1.92.33.622.899.571.578-.052.799-.726.23-.674.112-1.969-.117-1.287-.455-1.9-.34-.623-.925-.569m8.472-2.033-5.934 13.442-1.69.154 5.935-13.442zm.213 4.958q1.409-.128 2.231.856.83.975 1.004 2.883.172 1.89-.431 3.022-.594 1.131-2.074 1.266-1.374.124-2.189-.878t-.987-2.893q-.173-1.908.406-3.011.587-1.113 2.04-1.245m.139 1.435q-.569.051-.782.715-.204.663-.086 1.958.117 1.287.439 1.92.33.623.899.571.587-.054.809-.718.22-.674.102-1.977-.117-1.287-.455-1.9-.34-.623-.926-.569"/><defs><filter id="a" width="293.162" height="234.318" x=".16" y=".16" color-interpolation-filters="sRGB" filterUnits="userSpaceOnUse"><feFlood flood-opacity="0" result="BackgroundImageFix"/><feColorMatrix in="SourceAlpha" result="hardAlpha" values="0 0 0 0 0 0 0 0 0 0 0 0 0 0 0 0 0 0 127 0"/><feOffset dx="1" dy="1"/><feGaussianBlur stdDeviation="15"/><feComposite in2="hardAlpha" operator="out"/><feColorMatrix values="0 0 0 0 0 0 0 0 0 0 0 0 0 0 0 0 0 0 0.15 0"/><feBlend in2="BackgroundImageFix" result="effect1_dropShadow_27_396"/><feBlend in="SourceGraphic" in2="effect1_dropShadow_27_396" result="shape"/></filter></defs></svg>