<svg xmlns="http://www.w3.org/2000/svg" width="338" height="413" fill="none"><mask id="a" width="338" height="413" x="0" y="0" maskUnits="userSpaceOnUse" style="mask-type:alpha"><path fill="#D9D9D9" d="M0 0h338v413H0z"/></mask><g clip-path="url(#b)" mask="url(#a)"><mask id="c" width="4" height="61" x="290" y="164" maskUnits="userSpaceOnUse" style="mask-type:luminance"><path fill="#fff" d="M294 223.229c0 .666-.539 1.205-1.205 1.205h-1.807v-60.241h1.807c.666 0 1.205.539 1.205 1.205z"/></mask><g mask="url(#c)"><path fill="#F0ECE3" d="M294 222.627c0 .665-.539 1.204-1.205 1.204h-1.807v-59.638h1.807c.666 0 1.205.539 1.205 1.205z"/><path fill="url(#d)" d="M294 222.627c0 .665-.539 1.204-1.205 1.204h-1.807v-59.638h1.807c.666 0 1.205.539 1.205 1.205z" opacity=".76"/><path fill="url(#e)" d="M294 222.627c0 .665-.539 1.204-1.205 1.204h-1.807v-59.638h1.807c.666 0 1.205.539 1.205 1.205z"/><path fill="url(#f)" d="M294 222.627c0 .665-.539 1.204-1.205 1.204h-1.807v-59.638h1.807c.666 0 1.205.539 1.205 1.205z" opacity=".48"/><g filter="url(#g)"><path fill="#fff" d="M293.398 176.542a.3.3 0 1 1-.603 0v-11.144h.603z"/></g><g filter="url(#h)"><path fill="#fff" fill-opacity=".8" d="M293.398 220.217h-.603v-54.518a.301.301 0 0 1 .603 0z"/></g><g filter="url(#i)"><path fill="#61605D" d="M294 221.422h-.602v-56.928a.301.301 0 0 1 .602 0z"/></g></g><mask id="j" width="4" height="20" x="44" y="105" maskUnits="userSpaceOnUse" style="mask-type:luminance"><path fill="#fff" d="M44 106.964c0-.666.54-1.205 1.205-1.205h1.807v18.675h-1.807A1.205 1.205 0 0 1 44 123.229z"/></mask><g mask="url(#j)"><path fill="#F0ECE3" d="M44 106.964c0-.666.54-1.205 1.205-1.205h1.807v18.675h-1.807A1.205 1.205 0 0 1 44 123.229z"/><path fill="url(#k)" d="M44 106.964c0-.666.54-1.205 1.205-1.205h1.807v18.675h-1.807A1.205 1.205 0 0 1 44 123.229z" opacity=".76"/><path fill="url(#l)" d="M44 106.964c0-.666.54-1.205 1.205-1.205h1.807v18.675h-1.807A1.205 1.205 0 0 1 44 123.229z"/><path fill="url(#m)" d="M44 106.964c0-.666.54-1.205 1.205-1.205h1.807v18.675h-1.807A1.205 1.205 0 0 1 44 123.229z" opacity=".48"/><g filter="url(#n)"><path fill="#fff" d="M44.602 106.663a.301.301 0 0 1 .603 0v3.313h-.603z"/></g><g filter="url(#o)"><path fill="#fff" fill-opacity=".8" d="M44.602 107.566h.603v15.362a.301.301 0 0 1-.603 0z"/></g><g filter="url(#p)"><path fill="#61605D" d="M44 105.157h.602v20.18a.301.301 0 1 1-.602 0z"/></g></g><mask id="q" width="4" height="35" x="44" y="141" maskUnits="userSpaceOnUse" style="mask-type:luminance"><path fill="#fff" d="M44 143.108c0-.665.54-1.204 1.205-1.204h1.807v33.735h-1.807c-.666 0-1.205-.54-1.205-1.205z"/></mask><g mask="url(#q)"><path fill="#F0ECE3" d="M44 143.108c0-.665.54-1.204 1.205-1.204h1.807v33.735h-1.807c-.666 0-1.205-.54-1.205-1.205z"/><path fill="url(#r)" d="M44 143.108c0-.665.54-1.204 1.205-1.204h1.807v33.735h-1.807c-.666 0-1.205-.54-1.205-1.205z" opacity=".76"/><path fill="url(#s)" d="M44 143.108c0-.665.54-1.204 1.205-1.204h1.807v33.735h-1.807c-.666 0-1.205-.54-1.205-1.205z"/><path fill="url(#t)" d="M44 143.108c0-.665.54-1.204 1.205-1.204h1.807v33.735h-1.807c-.666 0-1.205-.54-1.205-1.205z" opacity=".48"/><g filter="url(#u)"><path fill="#fff" d="M44.602 143.41a.301.301 0 1 1 .603 0v6.325h-.603z"/></g><g filter="url(#v)"><path fill="#fff" fill-opacity=".8" d="M44.602 143.711h.603v31.024a.301.301 0 0 1-.603 0z"/></g><g filter="url(#w)"><path fill="#61605D" d="M44 141.904h.602v34.638a.301.301 0 0 1-.602 0z"/></g></g><mask id="x" width="4" height="35" x="44" y="185" maskUnits="userSpaceOnUse" style="mask-type:luminance"><path fill="#fff" d="M44 187.084c0-.665.54-1.205 1.205-1.205h1.807v33.735h-1.807A1.204 1.204 0 0 1 44 218.41z"/></mask><g mask="url(#x)"><path fill="#F0ECE3" d="M44 187.084c0-.665.54-1.205 1.205-1.205h1.807v33.735h-1.807A1.204 1.204 0 0 1 44 218.41z"/><path fill="url(#y)" d="M44 187.084c0-.665.54-1.205 1.205-1.205h1.807v33.735h-1.807A1.204 1.204 0 0 1 44 218.41z" opacity=".76"/><path fill="url(#z)" d="M44 187.084c0-.665.54-1.205 1.205-1.205h1.807v33.735h-1.807A1.204 1.204 0 0 1 44 218.41z"/><path fill="url(#A)" d="M44 187.084c0-.665.54-1.205 1.205-1.205h1.807v33.735h-1.807A1.204 1.204 0 0 1 44 218.41z" opacity=".48"/><g filter="url(#B)"><path fill="#fff" d="M44.602 187.385a.301.301 0 0 1 .603 0v6.326h-.603z"/></g><g filter="url(#C)"><path fill="#fff" fill-opacity=".8" d="M44.602 187.687h.603v31.024a.301.301 0 0 1-.603 0z"/></g><g filter="url(#D)"><path fill="#61605D" d="M44 185.879h.602v34.639a.301.301 0 0 1-.602 0z"/></g></g><mask id="E" width="248" height="508" x="45" y="16" maskUnits="userSpaceOnUse" style="mask-type:luminance"><path fill="#fff" d="M254.843 16H83.157c-20.628 0-37.35 16.722-37.35 37.35v433.132c0 20.627 16.722 37.349 37.35 37.349h171.686c20.628 0 37.35-16.722 37.35-37.349V53.349c0-20.627-16.722-37.349-37.35-37.349"/></mask><g mask="url(#E)"><path fill="#E7E3BF" d="M254.843 16H83.157c-20.628 0-37.35 16.722-37.35 37.35v433.132c0 20.627 16.722 37.349 37.35 37.349h171.686c20.628 0 37.35-16.722 37.35-37.349V53.349c0-20.627-16.722-37.349-37.35-37.349"/><g filter="url(#F)"><path stroke="#C3C3C3" stroke-width="3" d="M254.843 16.904H83.157c-20.129 0-36.446 16.317-36.446 36.445v433.133c0 20.128 16.317 36.446 36.446 36.446h171.686c20.129 0 36.446-16.318 36.446-36.446V53.349c0-20.128-16.317-36.445-36.446-36.445Z"/></g><g filter="url(#G)"><path stroke="#524B40" d="M254.843 16.301H83.157c-20.461 0-37.049 16.587-37.049 37.049v433.132c0 20.461 16.588 37.048 37.049 37.048h171.686c20.462 0 37.049-16.587 37.049-37.048V53.349c0-20.46-16.587-37.048-37.049-37.048Z"/></g><g filter="url(#H)"><path stroke="#fff" d="M251.831 19.313H86.169c-20.461 0-37.048 16.587-37.048 37.048v426.506c0 20.462 16.586 37.049 37.048 37.049H251.83c20.461 0 37.049-16.587 37.049-37.049V56.361c0-20.46-16.588-37.048-37.049-37.048Z"/></g><path stroke="#fff" stroke-width=".4" d="M251.229 19.494H86.771c-20.694 0-37.47 16.776-37.47 37.47v425.301c0 20.694 16.776 37.47 37.47 37.47H251.23c20.694 0 37.47-16.776 37.47-37.47V56.964c0-20.694-16.776-37.47-37.47-37.47Z"/><path fill="url(#I)" d="M240.988 16h-3.614v2.41h3.614z"/><path fill="url(#J)" d="M45.807 64.795v3.615h2.41v-3.615z"/></g><mask id="K" width="242" height="504" x="48" y="18" maskUnits="userSpaceOnUse" style="mask-type:luminance"><path fill="#fff" d="M254.843 18.41H83.157c-19.297 0-34.94 15.643-34.94 34.94v433.132c0 19.297 15.643 34.94 34.94 34.94h171.686c19.297 0 34.94-15.643 34.94-34.94V53.349c0-19.296-15.643-34.94-34.94-34.94"/></mask><g mask="url(#K)"><path fill="#000100" d="M254.843 18.41H83.157c-19.297 0-34.94 15.643-34.94 34.94v433.132c0 19.297 15.643 34.94 34.94 34.94h171.686c19.297 0 34.94-15.643 34.94-34.94V53.349c0-19.296-15.643-34.94-34.94-34.94"/><g filter="url(#L)"><path stroke="url(#M)" stroke-width="4" d="M254.843 19.615H83.157c-18.632 0-33.735 15.103-33.735 33.734v433.133c0 18.631 15.103 33.735 33.735 33.735h171.686c18.632 0 33.735-15.104 33.735-33.735V53.349c0-18.63-15.103-33.734-33.735-33.734Z"/></g></g><mask id="N" width="232" height="494" x="53" y="23" maskUnits="userSpaceOnUse" style="mask-type:luminance"><path fill="#fff" d="M253.639 23.229H84.361c-17.3 0-31.325 14.025-31.325 31.325v430.723c0 17.301 14.025 31.326 31.325 31.326H253.64c17.3 0 31.325-14.025 31.325-31.326V54.554c0-17.3-14.025-31.325-31.325-31.325"/></mask><g mask="url(#N)"><path fill="#DAE2D3" d="M245.807 23.229H83.157c-16.635 0-30.12 13.485-30.12 30.12v424.699c0 16.635 13.485 30.121 30.12 30.121h162.65c16.635 0 30.121-13.486 30.121-30.121V53.35c0-16.636-13.486-30.121-30.121-30.121"/><mask id="O" width="233" height="505" x="52" y="18" maskUnits="userSpaceOnUse" style="mask-type:luminance"><path fill="#fff" d="M284.964 18.41H52.434v503.614h232.53z"/></mask><g mask="url(#O)"><mask id="P" width="233" height="505" x="52" y="18" maskUnits="userSpaceOnUse" style="mask-type:luminance"><path fill="#fff" d="M284.964 18.41H52.434v503.614h232.53z"/></mask><g mask="url(#P)"><path fill="#EDF2F6" d="M284.964 18.41H52.434v503.614h232.53z"/><path fill="#494953" d="M95.955 67.582v-6.808h.973v6.04h3.115v.768zm7.18.117q-.701 0-1.246-.321a2.3 2.3 0 0 1-.857-.895q-.301-.574-.301-1.332 0-.78.301-1.352.312-.584.857-.905.545-.33 1.265-.33.721 0 1.236.32.517.322.799.856a2.43 2.43 0 0 1 .272 1.381q0 .108-.009.244h-4.011v-.691h3.057q-.03-.613-.409-.953a1.34 1.34 0 0 0-.944-.35q-.4 0-.73.184a1.34 1.34 0 0 0-.536.526q-.195.34-.194.865v.273q0 .544.194.924.204.369.536.564.33.185.72.185.467 0 .769-.205.301-.203.448-.554h.973a2.2 2.2 0 0 1-.428.807 2.15 2.15 0 0 1-.75.555 2.4 2.4 0 0 1-1.012.204m5.043 0q-.603 0-1.002-.204a1.4 1.4 0 0 1-.594-.545 1.5 1.5 0 0 1-.195-.749q0-.486.253-.827.253-.35.721-.535.466-.184 1.119-.184h1.275q0-.429-.127-.71a.86.86 0 0 0-.379-.419q-.243-.146-.623-.146-.438 0-.749.214a.9.9 0 0 0-.39.613h-.973q.057-.515.35-.875.302-.37.769-.564.467-.205.993-.205.691 0 1.158.243.468.244.701.691.244.438.243 1.05v3.035h-.846l-.078-.826q-.107.194-.253.37a1.565 1.565 0 0 1-.808.496 2 2 0 0 1-.565.077m.185-.788a1.25 1.25 0 0 0 .993-.467q.185-.223.272-.496.098-.282.108-.574v-.029h-1.159q-.419 0-.681.107a.75.75 0 0 0-.37.272.7.7 0 0 0-.117.409.8.8 0 0 0 .107.418.8.8 0 0 0 .332.263q.213.097.515.097m3.607.671V62.68h.877l.087.924a1.86 1.86 0 0 1 1.042-.914 2.5 2.5 0 0 1 .817-.127v1.031h-.35q-.301 0-.574.078a1.2 1.2 0 0 0-.487.243 1.2 1.2 0 0 0-.321.477q-.117.3-.117.749v2.441zm3.717 0V62.68h.876l.059.837q.234-.438.662-.691a1.84 1.84 0 0 1 .983-.263q.583 0 1.002.234.419.233.653.71.233.466.233 1.177v2.898h-.973v-2.801q0-.681-.302-1.031-.301-.35-.876-.35-.38 0-.681.185a1.3 1.3 0 0 0-.487.525q-.175.35-.175.856v2.616zm5.782 0V62.68h.973v4.902zm.496-5.826a.65.65 0 0 1-.467-.175.6.6 0 0 1-.175-.447q0-.263.175-.428a.65.65 0 0 1 .467-.175q.273 0 .458.175.185.164.185.428a.6.6 0 0 1-.185.447.64.64 0 0 1-.458.175m1.869 5.826V62.68h.876l.059.837q.233-.438.661-.691.428-.263.983-.263.585 0 1.003.234.419.233.652.71.234.466.234 1.177v2.898h-.974v-2.801q0-.681-.301-1.031-.302-.35-.876-.35a1.28 1.28 0 0 0-1.168.71q-.176.35-.176.856v2.616zm7.708 2.257q-.67 0-1.187-.175-.516-.165-.798-.516a1.32 1.32 0 0 1-.283-.856q0-.262.117-.535a1.6 1.6 0 0 1 .379-.506 2.5 2.5 0 0 1 .711-.437l.546.438q-.497.185-.672.437a.96.96 0 0 0-.166.506q0 .292.175.486.175.195.478.292.311.097.7.097.38 0 .662-.107a1 1 0 0 0 .438-.301.7.7 0 0 0 .156-.457.68.68 0 0 0-.234-.525q-.234-.205-.895-.244a9 9 0 0 1-.944-.107 4 4 0 0 1-.653-.165 2.4 2.4 0 0 1-.447-.214 2 2 0 0 1-.302-.243v-.224l.973-1.002.788.273-1.061.982.205-.438q.106.069.205.136.097.06.262.108.166.048.448.087t.74.078q.662.048 1.061.233.408.186.593.496.186.311.185.74 0 .417-.233.797-.224.379-.711.623-.477.243-1.236.243m0-3.764q-.623 0-1.061-.234a1.7 1.7 0 0 1-.662-.632 1.8 1.8 0 0 1-.224-.885q0-.496.224-.885.234-.399.672-.633.438-.243 1.051-.243t1.042.243q.438.234.662.633.233.39.233.885 0 .487-.233.885-.225.4-.662.632-.429.234-1.042.234m0-.779q.477 0 .759-.243.283-.252.283-.73 0-.476-.283-.719-.282-.253-.759-.253t-.769.253q-.292.243-.292.72 0 .476.292.73.292.243.769.242m.798-1.848-.233-.768h2.015v.671zm4.656 4.25q-.623 0-1.09-.203a1.8 1.8 0 0 1-.74-.574 1.8 1.8 0 0 1-.33-.866h.992q.049.233.185.428.146.195.389.311.253.117.594.117.321 0 .526-.088a.7.7 0 0 0 .311-.252.7.7 0 0 0 .098-.35q0-.273-.136-.409a.8.8 0 0 0-.39-.224 4.4 4.4 0 0 0-.613-.155 6 6 0 0 1-.662-.156 2.8 2.8 0 0 1-.564-.263 1.24 1.24 0 0 1-.39-.389 1.14 1.14 0 0 1-.146-.593q0-.418.224-.749.223-.34.633-.525a2.3 2.3 0 0 1 .983-.195q.817 0 1.314.39.497.388.584 1.099h-.945a.68.68 0 0 0-.291-.506q-.254-.185-.672-.185t-.643.165a.52.52 0 0 0-.223.438q0 .175.126.311.127.136.37.234.253.087.614.165.515.097.924.243t.652.428.244.807q.009.457-.234.808a1.53 1.53 0 0 1-.672.544q-.428.195-1.022.195M198.717 67.582v-6.808h1.148l2.307 4.6 2.297-4.6h1.159v6.808h-.974v-5.106l-2.112 4.153h-.749l-2.103-4.144v5.097zm10.497.117q-.7 0-1.245-.321a2.27 2.27 0 0 1-.857-.895q-.302-.574-.302-1.332 0-.78.302-1.352.311-.584.857-.905.545-.33 1.265-.33t1.236.32.799.856a2.43 2.43 0 0 1 .272 1.381q0 .108-.01.244h-4.01v-.691h3.057q-.03-.613-.409-.953a1.34 1.34 0 0 0-.944-.35q-.4 0-.73.184a1.34 1.34 0 0 0-.536.526q-.194.34-.195.865v.273q0 .544.195.924.204.369.536.564.33.185.719.185.468 0 .77-.205.301-.203.447-.554h.974a2.2 2.2 0 0 1-.428.807 2.2 2.2 0 0 1-.75.555 2.4 2.4 0 0 1-1.013.204m3.419-.117V62.68h.875l.059.837a1.73 1.73 0 0 1 .662-.691 1.84 1.84 0 0 1 .983-.263q.584 0 1.002.234.419.233.652.71.234.466.234 1.177v2.898h-.973v-2.801q0-.681-.302-1.031-.301-.35-.876-.35a1.28 1.28 0 0 0-1.168.71q-.176.35-.176.856v2.616zm7.737 0a2.05 2.05 0 0 1-.809-.146 1.06 1.06 0 0 1-.525-.486q-.185-.34-.185-.924v-2.52h-.847v-.826h.847l.117-1.225h.857v1.225h1.391v.827h-1.391v2.529q0 .418.175.574.174.145.603.145h.565v.827zm4.026.117q-.691 0-1.246-.321a2.35 2.35 0 0 1-.867-.895q-.31-.583-.311-1.342 0-.779.321-1.352.321-.584.876-.905.555-.32 1.246-.32.702 0 1.246.32.546.322.856.895.322.574.322 1.352t-.322 1.352q-.31.574-.866.895-.555.32-1.255.32m0-.837a1.36 1.36 0 0 0 1.246-.768q.204-.39.204-.963t-.195-.953a1.36 1.36 0 0 0-1.236-.778q-.39 0-.72.194-.331.195-.535.584-.195.379-.195.953 0 .575.195.963.204.38.525.574.332.195.711.194m3.588.72V62.68h.876l.088.924q.166-.33.427-.554.263-.234.614-.36.36-.127.818-.127v1.031h-.351q-.302 0-.574.078a1.2 1.2 0 0 0-.487.243 1.2 1.2 0 0 0-.321.477q-.117.3-.117.749v2.441zm3.785 0V62.68h.973v4.902zm.496-5.826a.65.65 0 0 1-.467-.175.6.6 0 0 1-.176-.447q0-.263.176-.428a.65.65 0 0 1 .467-.175.64.64 0 0 1 .457.175q.185.164.185.428 0 .272-.185.447a.64.64 0 0 1-.457.175m1.869 5.826V62.68h.876l.058.837q.234-.438.662-.691.429-.263.983-.263.584 0 1.003.234.418.233.652.71.234.466.234 1.177v2.898h-.974v-2.801q0-.681-.301-1.031-.303-.35-.876-.35a1.28 1.28 0 0 0-1.168.71q-.176.35-.176.856v2.616zm7.708 2.257q-.67 0-1.187-.175-.516-.165-.798-.516a1.32 1.32 0 0 1-.282-.856q0-.262.117-.535.116-.262.379-.506.263-.243.71-.437l.546.438q-.496.185-.672.437a.96.96 0 0 0-.166.506q0 .292.175.486.175.195.478.292.311.097.7.097.38 0 .662-.107a1 1 0 0 0 .438-.301.7.7 0 0 0 .156-.457.68.68 0 0 0-.234-.525q-.233-.205-.895-.244a9 9 0 0 1-.944-.107 4 4 0 0 1-.652-.165 2.4 2.4 0 0 1-.448-.214 2 2 0 0 1-.302-.243v-.224l.973-1.002.789.273-1.061.982.204-.438q.108.069.205.136.098.06.263.108t.447.087q.282.039.74.078.662.048 1.061.233.409.186.594.496.185.311.185.74 0 .417-.234.797-.224.379-.71.623-.477.243-1.237.243m0-3.764q-.622 0-1.061-.234a1.7 1.7 0 0 1-.662-.632 1.8 1.8 0 0 1-.223-.885q0-.496.223-.885.234-.399.672-.633.439-.243 1.051-.243.613 0 1.042.243.438.234.662.633.234.39.234.885 0 .487-.234.885-.224.4-.662.632-.429.234-1.042.234m0-.779q.477 0 .76-.243.282-.252.282-.73 0-.476-.282-.719-.283-.253-.76-.253-.476 0-.768.253-.293.243-.293.72 0 .476.293.73.292.243.768.242m.798-1.848-.233-.768h2.015v.671zm4.656 4.25q-.623 0-1.09-.203a1.8 1.8 0 0 1-.74-.574 1.8 1.8 0 0 1-.331-.866h.993q.048.233.185.428.146.195.389.311.254.117.594.117.322 0 .526-.088a.7.7 0 0 0 .311-.252.7.7 0 0 0 .098-.35q0-.273-.137-.409a.8.8 0 0 0-.389-.224 4.4 4.4 0 0 0-.613-.155 5 5 0 0 1-.662-.156 2.8 2.8 0 0 1-.565-.263 1.25 1.25 0 0 1-.389-.389 1.13 1.13 0 0 1-.146-.593 1.3 1.3 0 0 1 .224-.749 1.45 1.45 0 0 1 .632-.525q.42-.195.983-.195.817 0 1.315.39.495.388.583 1.099h-.943a.68.68 0 0 0-.293-.506q-.252-.185-.671-.185-.418 0-.643.165a.52.52 0 0 0-.224.438q0 .175.127.311t.37.234q.252.087.613.165.516.097.925.243t.652.428.243.807q.01.457-.233.808a1.53 1.53 0 0 1-.672.544q-.428.195-1.022.195"/><path stroke="#FF5656" stroke-linecap="round" d="M65.953 74.607h205.492"/><path stroke="#FF5656" stroke-linecap="round" stroke-width="2" d="m65.953 74.067 102.746.54"/><path fill="#494953" d="m68.925 100.544-2.22-7.859h1.532l1.418 5.775h.073l1.513-5.775h1.394l1.517 5.78h.07l1.416-5.78h1.533l-2.22 7.859h-1.406L71.97 95.03h-.061l-1.579 5.514zm11.182.115q-.887 0-1.532-.368a2.5 2.5 0 0 1-.987-1.052q-.346-.683-.346-1.608 0-.909.346-1.596.35-.69.975-1.075.626-.387 1.471-.387.546 0 1.03.177.487.172.86.537.376.364.591.929.216.56.215 1.335v.426h-4.835v-.937h3.502a1.5 1.5 0 0 0-.172-.71 1.25 1.25 0 0 0-.473-.494q-.3-.18-.699-.181-.426 0-.749.207a1.43 1.43 0 0 0-.503.538q-.177.33-.18.725v.817q0 .515.188.883.187.365.526.56.338.192.791.192.304 0 .55-.084a1.2 1.2 0 0 0 .426-.257q.18-.17.272-.418l1.299.145a2 2 0 0 1-.469.899q-.342.38-.876.591a3.4 3.4 0 0 1-1.221.206m6.411 0q-.887 0-1.532-.368a2.5 2.5 0 0 1-.987-1.052q-.346-.683-.346-1.608 0-.909.346-1.596.35-.69.975-1.075.626-.387 1.471-.387.546 0 1.03.177.487.172.86.537.376.364.591.929.216.56.215 1.335v.426h-4.835v-.937h3.502a1.5 1.5 0 0 0-.172-.71 1.25 1.25 0 0 0-.473-.494q-.3-.18-.699-.181-.426 0-.749.207a1.43 1.43 0 0 0-.503.538q-.177.33-.18.725v.817q0 .515.188.883.187.365.526.56.338.192.791.192.304 0 .55-.084a1.2 1.2 0 0 0 .426-.257q.18-.17.272-.418l1.299.145a2 2 0 0 1-.469.899q-.342.38-.876.591a3.4 3.4 0 0 1-1.22.206m5.067-1.964-.004-1.677h.223l2.12-2.368h1.624l-2.607 2.9h-.288zm-1.267 1.849v-7.859h1.39v7.859zm3.702 0-1.92-2.682.937-.98 2.646 3.662zm3.845-7.859v7.859h-1.39v-7.859zm2.294 10.07a2.8 2.8 0 0 1-.906-.146l.322-1.082q.304.088.542.084a.66.66 0 0 0 .419-.149q.183-.142.311-.476l.119-.319-2.14-6.017h1.475l1.36 4.451h.061l1.364-4.451h1.478l-2.362 6.608q-.165.468-.437.802a1.8 1.8 0 0 1-.669.514q-.391.181-.937.181m8.111-2.211v-7.859h2.95q.907 0 1.521.314.618.315.934.882.318.566.318 1.317 0 .756-.322 1.313a2.13 2.13 0 0 1-.941.855q-.623.3-1.529.3H109.1v-1.182h1.909q.53 0 .868-.146.338-.15.5-.434a1.4 1.4 0 0 0 .165-.706q0-.419-.165-.713-.166-.3-.504-.454-.338-.157-.871-.157h-1.306v6.67zm4.064-3.561 1.947 3.561h-1.589l-1.913-3.561zm5.436 3.676q-.886 0-1.531-.368a2.5 2.5 0 0 1-.988-1.052q-.346-.683-.346-1.608 0-.909.346-1.596.35-.69.976-1.075.625-.387 1.471-.387.545 0 1.029.177.488.172.86.537.377.364.592.929.214.56.214 1.335v.426h-4.835v-.937h3.503a1.5 1.5 0 0 0-.173-.71 1.25 1.25 0 0 0-.472-.494q-.3-.18-.699-.181-.426 0-.749.207a1.4 1.4 0 0 0-.503.538q-.177.33-.181.725v.817q0 .515.188.883.188.365.527.56.337.192.791.192.303 0 .549-.084.246-.09.427-.257.18-.17.272-.418l1.298.145a2 2 0 0 1-.469.899q-.34.38-.875.591a3.4 3.4 0 0 1-1.222.206m3.8 2.096V94.65h1.367v.974h.081q.107-.215.303-.456.196-.246.53-.419.334-.176.853-.176.684 0 1.233.349.553.345.876 1.025.326.675.326 1.658 0 .97-.319 1.65t-.868 1.036a2.23 2.23 0 0 1-1.244.357q-.507 0-.841-.169a1.7 1.7 0 0 1-.538-.407 2.6 2.6 0 0 1-.311-.457h-.058v3.14zm1.364-5.158q0 .572.161 1.001.166.43.472.672.311.238.753.238.461 0 .772-.245a1.53 1.53 0 0 0 .469-.68q.16-.434.161-.986 0-.548-.158-.975a1.46 1.46 0 0 0-.468-.668q-.31-.242-.776-.242-.446 0-.757.234a1.44 1.44 0 0 0-.472.657 2.8 2.8 0 0 0-.157.994m7.969 3.062q-.864 0-1.498-.379a2.6 2.6 0 0 1-.983-1.064q-.345-.682-.345-1.596 0-.913.345-1.6a2.6 2.6 0 0 1 .983-1.067q.633-.38 1.498-.38.864 0 1.498.38t.979 1.066q.35.688.35 1.601t-.35 1.596a2.56 2.56 0 0 1-.979 1.064q-.634.38-1.498.379m.007-1.113q.47 0 .784-.256.315-.261.469-.699.157-.438.157-.975 0-.541-.157-.978a1.55 1.55 0 0 0-.469-.703q-.315-.26-.784-.26-.48 0-.798.26-.315.26-.473.703a3 3 0 0 0-.153.978q0 .537.153.975.158.438.473.699.318.256.798.256m4 .998V94.65h1.348v.982h.061a1.47 1.47 0 0 1 1.456-1.067q.115 0 .257.012.146.007.242.027v1.277a1.5 1.5 0 0 0-.281-.054 3 3 0 0 0-.364-.026q-.38 0-.684.165-.3.161-.472.45a1.27 1.27 0 0 0-.173.663v3.465zm7.55-5.894v1.074h-3.391V94.65zm-2.554-1.413h1.39v5.534q0 .28.085.43a.46.46 0 0 0 .231.2.9.9 0 0 0 .315.053q.13 0 .238-.019.11-.02.169-.034l.234 1.085a3 3 0 0 1-.319.085 2.6 2.6 0 0 1-.5.054q-.52.015-.941-.157-.418-.177-.663-.546-.243-.368-.239-.92zM67.27 293.158h1.743l2.335 5.694h.093l2.335-5.694h1.743v7.859h-1.367v-5.4h-.073l-2.174 5.377h-1.021l-2.174-5.388h-.073v5.411h-1.368zm12.313 7.975q-.864 0-1.498-.381a2.6 2.6 0 0 1-.983-1.062q-.346-.684-.346-1.597t.346-1.601q.349-.686.983-1.066.633-.38 1.498-.38.864 0 1.498.38.633.38.979 1.066.35.688.35 1.601t-.35 1.597q-.345.683-.98 1.062-.633.381-1.497.381m.007-1.114q.47 0 .784-.256.315-.262.469-.699.157-.437.157-.975 0-.541-.157-.979a1.55 1.55 0 0 0-.47-.702q-.313-.261-.783-.261-.48 0-.798.261-.315.261-.473.702a3 3 0 0 0-.154.979q0 .538.154.975.158.437.473.699.318.256.798.256m5.39-2.456v3.454h-1.39v-5.895h1.328v1.002h.07q.203-.495.649-.787.45-.291 1.11-.291.61 0 1.063.261.457.261.707.756.254.495.25 1.201v3.753h-1.39v-3.538q0-.592-.308-.925-.304-.334-.84-.334-.365 0-.65.161a1.1 1.1 0 0 0-.442.457 1.54 1.54 0 0 0-.157.725m8.146-2.441v1.076h-3.391v-1.076zm-2.554-1.412h1.39v5.535q0 .28.085.429a.46.46 0 0 0 .23.2q.142.053.315.053.13 0 .238-.019a2 2 0 0 0 .17-.034l.234 1.086q-.112.038-.32.085-.202.045-.499.053a2.3 2.3 0 0 1-.94-.158q-.42-.176-.665-.545-.241-.368-.238-.92zm5.234 3.853v3.454h-1.39v-7.859h1.359v2.966h.07q.207-.498.64-.787.44-.291 1.114-.291.615 0 1.072.257t.707.752q.253.496.253 1.209v3.753h-1.39v-3.538q0-.594-.308-.925-.303-.334-.852-.334-.369 0-.66.161a1.13 1.13 0 0 0-.454.457 1.5 1.5 0 0 0-.161.725m8.996 3.454h-1.52l2.769-7.859h1.759l2.773 7.859h-1.521l-2.101-6.247h-.062zm.05-3.081H109v1.143h-4.148zm9.099 3.197q-.883 0-1.517-.388a2.6 2.6 0 0 1-.972-1.071q-.338-.687-.338-1.581 0-.898.346-1.585.346-.69.975-1.075.634-.387 1.498-.387.719 0 1.271.265.557.26.888.74.33.476.376 1.113h-1.329a1.26 1.26 0 0 0-.384-.71q-.299-.288-.802-.288a1.25 1.25 0 0 0-.749.231 1.5 1.5 0 0 0-.504.652q-.176.426-.176 1.021 0 .603.176 1.036.177.43.496.664.323.23.757.231.307 0 .548-.115.246-.12.412-.342.165-.224.226-.542h1.329a2.3 2.3 0 0 1-.368 1.109q-.32.48-.868.753-.55.269-1.291.269m5.059-3.57v3.454h-1.39v-7.859h1.36v2.966h.069q.207-.498.641-.787.438-.291 1.114-.291.614 0 1.071.257.458.257.707.752.254.496.254 1.209v3.753h-1.391v-3.538q0-.594-.307-.925-.303-.334-.852-.334-.37 0-.661.161a1.13 1.13 0 0 0-.453.457 1.5 1.5 0 0 0-.162.725m5.242 3.454v-5.895h1.391v5.895zm.7-6.731a.81.81 0 0 1-.569-.219.7.7 0 0 1-.238-.533.7.7 0 0 1 .238-.534.8.8 0 0 1 .569-.223q.334 0 .568.223a.7.7 0 0 1 .238.534.7.7 0 0 1-.238.533.8.8 0 0 1-.568.219m4.732 6.847q-.887 0-1.532-.369a2.5 2.5 0 0 1-.987-1.051q-.346-.684-.346-1.609 0-.909.346-1.596.35-.69.976-1.075.626-.387 1.47-.387.546 0 1.029.176.489.172.861.538.376.365.592.929.215.56.215 1.334v.427h-4.836v-.936h3.503a1.5 1.5 0 0 0-.173-.71 1.25 1.25 0 0 0-.472-.496q-.3-.18-.699-.18-.427 0-.75.207a1.4 1.4 0 0 0-.502.538q-.177.33-.181.725v.818q0 .513.188.882.188.365.527.56.337.192.791.192.303 0 .549-.084.246-.088.426-.258a1.1 1.1 0 0 0 .273-.418l1.298.146a2 2 0 0 1-.468.898q-.343.38-.877.591a3.4 3.4 0 0 1-1.221.208m8.9-6.011-2.101 5.895h-1.535l-2.102-5.895h1.483l1.355 4.38h.062l1.359-4.38zm.962 5.895v-5.895h1.329v1.002h.07q.183-.506.61-.79.426-.288 1.018-.288.598 0 1.01.291.414.29.584.787h.061q.196-.49.661-.782.468-.297 1.109-.296.815 0 1.33.514.514.514.514 1.501v3.956h-1.394v-3.742q0-.548-.291-.802a1.05 1.05 0 0 0-.715-.257q-.504 0-.787.315-.281.31-.281.81v3.676h-1.363v-3.799q0-.458-.277-.729-.273-.273-.715-.273-.299 0-.545.154-.245.15-.391.426a1.33 1.33 0 0 0-.146.637v3.584zm12.318.116q-.887 0-1.532-.369a2.5 2.5 0 0 1-.987-1.051q-.346-.684-.346-1.609 0-.909.346-1.596a2.6 2.6 0 0 1 .975-1.075q.627-.387 1.471-.387.546 0 1.029.176.489.172.861.538.376.365.591.929.216.56.215 1.334v.427h-4.835v-.936h3.503a1.5 1.5 0 0 0-.173-.71 1.25 1.25 0 0 0-.473-.496 1.33 1.33 0 0 0-.698-.18q-.427 0-.75.207a1.4 1.4 0 0 0-.502.538q-.177.33-.181.725v.818q0 .513.188.882.189.365.527.56.336.192.791.192.303 0 .549-.084a1.2 1.2 0 0 0 .426-.258 1.06 1.06 0 0 0 .273-.418l1.298.146a2 2 0 0 1-.469.898 2.3 2.3 0 0 1-.875.591 3.4 3.4 0 0 1-1.222.208m5.19-3.57v3.454h-1.39v-5.895h1.329v1.002h.068q.204-.495.65-.787.449-.291 1.109-.291.612 0 1.065.261.457.261.706.756.253.495.25 1.201v3.753h-1.39v-3.538q0-.592-.308-.925-.304-.334-.841-.334-.364 0-.649.161a1.1 1.1 0 0 0-.442.457 1.55 1.55 0 0 0-.157.725m8.146-2.441v1.076h-3.391v-1.076zm-2.554-1.412h1.39v5.535q0 .28.084.429.09.146.232.2a.9.9 0 0 0 .314.053q.132 0 .238-.019a2 2 0 0 0 .169-.034l.235 1.086a2.658 2.658 0 0 1-.818.138 2.3 2.3 0 0 1-.941-.158 1.45 1.45 0 0 1-.665-.545q-.242-.368-.238-.92zm8.295 2.97-1.267.139a1 1 0 0 0-.188-.361.9.9 0 0 0-.354-.272 1.3 1.3 0 0 0-.545-.104q-.434 0-.73.188-.292.188-.288.487a.51.51 0 0 0 .188.419q.197.161.645.265l1.006.214q.838.18 1.245.573.41.391.415 1.024a1.6 1.6 0 0 1-.326.982q-.32.423-.888.661a3.4 3.4 0 0 1-1.306.238q-1.083 0-1.744-.454a1.82 1.82 0 0 1-.787-1.27l1.356-.13a.95.95 0 0 0 .392.602q.3.204.779.204.496 0 .796-.204.303-.203.303-.503a.52.52 0 0 0-.196-.418q-.192-.164-.599-.253l-1.006-.211q-.85-.177-1.256-.595-.408-.422-.403-1.067a1.5 1.5 0 0 1 .295-.944q.304-.404.841-.621a3.3 3.3 0 0 1 1.248-.223q1.038 0 1.633.441.598.441.741 1.193"/><path fill="#EDF2F6" stroke="#8D8BA7" stroke-width=".5" d="M262.375 114.19H74.482c-4.405 0-7.977 3.569-7.977 7.971v143.193c0 4.401 3.572 7.97 7.977 7.97h187.893c4.405 0 7.976-3.569 7.976-7.97V122.161a7.974 7.974 0 0 0-7.976-7.971Z"/><path fill="#F3F3F5" d="M259.181 141.668H96.517v.628H259.18zM259.181 162.378H96.517v.628H259.18zM259.181 183.089H96.517v.627H259.18zM259.181 203.798H96.517v.628H259.18zM259.181 224.509H96.517v.627H259.18zM259.181 245.218H96.517v.628H259.18z"/><path fill="#8D8BA7" d="M82.565 141.314q-.405 0-.73-.162a1.35 1.35 0 0 1-.521-.441 1.2 1.2 0 0 1-.215-.64h.553a.76.76 0 0 0 .29.529.97.97 0 0 0 .623.207 1 1 0 0 0 .516-.136.95.95 0 0 0 .357-.373q.132-.238.132-.541 0-.308-.136-.55a1 1 0 0 0-.906-.527 1.5 1.5 0 0 0-.445.066 1.3 1.3 0 0 0-.375.173l-.535-.064.286-2.321h2.452v.506h-1.973l-.166 1.391h.028q.145-.116.364-.191.219-.076.456-.076a1.45 1.45 0 0 1 1.307.769q.195.356.196.815 0 .452-.203.806-.2.352-.553.557a1.6 1.6 0 0 1-.802.203m4.013 0q-.521 0-.888-.283-.365-.286-.56-.827-.193-.543-.193-1.312 0-.765.193-1.306.196-.543.563-.829.368-.288.885-.288.516 0 .882.288.369.286.562.829.196.541.196 1.306 0 .768-.193 1.312-.195.541-.56.827-.367.282-.887.283m0-.507q.516 0 .801-.497.286-.498.286-1.418 0-.613-.131-1.044-.128-.43-.374-.656a.83.83 0 0 0-.582-.226q-.512 0-.8.505-.288.502-.288 1.421 0 .612.129 1.04.13.429.37.652a.84.84 0 0 0 .589.223m4.055.507q-.52 0-.887-.283-.366-.286-.56-.827-.193-.543-.193-1.312 0-.765.193-1.306.196-.543.562-.829.369-.288.885-.288t.883.288q.369.286.562.829.196.541.196 1.306 0 .768-.194 1.312-.193.541-.56.827-.366.282-.887.283m0-.507q.516 0 .802-.497.285-.498.286-1.418 0-.613-.131-1.044-.128-.43-.374-.656a.83.83 0 0 0-.583-.226q-.51 0-.8.505-.287.502-.287 1.421 0 .612.129 1.04.13.429.37.652a.84.84 0 0 0 .588.223M80.851 160.992v-.47l2.074-3.279h.341v.728h-.23l-1.567 2.478v.037h2.793v.506zm2.222.967v-4.716h.544v4.716zm3.592.065a1.4 1.4 0 0 1-.887-.284q-.367-.285-.56-.826-.194-.543-.194-1.313 0-.763.194-1.305.195-.543.562-.829.368-.288.885-.288.516 0 .882.288.37.286.563.829.196.541.196 1.305 0 .77-.194 1.313-.194.541-.56.826a1.4 1.4 0 0 1-.887.284m0-.506q.516 0 .802-.499.285-.495.285-1.418 0-.612-.13-1.043t-.374-.656a.82.82 0 0 0-.583-.225q-.512 0-.8.504-.288.502-.288 1.42 0 .613.13 1.041.128.429.37.652a.84.84 0 0 0 .588.224m4.056.506a1.4 1.4 0 0 1-.888-.284q-.365-.285-.56-.826-.193-.543-.193-1.313 0-.763.193-1.305.197-.543.563-.829.368-.288.885-.288.516 0 .882.288.37.286.563.829.195.541.195 1.305 0 .77-.193 1.313-.195.541-.56.826a1.4 1.4 0 0 1-.887.284m0-.506q.516 0 .801-.499.286-.495.286-1.418 0-.612-.131-1.043-.129-.43-.373-.656a.82.82 0 0 0-.583-.225q-.512 0-.8.504-.288.502-.288 1.42 0 .613.129 1.041.13.429.371.652a.84.84 0 0 0 .588.224M82.588 182.734q-.456 0-.813-.157a1.4 1.4 0 0 1-.565-.435 1.17 1.17 0 0 1-.226-.652h.581a.7.7 0 0 0 .157.394.9.9 0 0 0 .362.253q.224.09.495.09.305 0 .54-.106a.9.9 0 0 0 .368-.294.74.74 0 0 0 .134-.438.8.8 0 0 0-.13-.458.85.85 0 0 0-.377-.313 1.5 1.5 0 0 0-.609-.113h-.378v-.507h.378q.282 0 .493-.101a.763.763 0 0 0 .456-.719.8.8 0 0 0-.105-.417.7.7 0 0 0-.3-.275.96.96 0 0 0-.452-.1q-.244 0-.46.091a.84.84 0 0 0-.35.255.66.66 0 0 0-.148.401h-.553q.014-.37.223-.65.21-.28.549-.437t.749-.157q.438 0 .75.177.314.175.483.464.168.287.168.621a1.1 1.1 0 0 1-.21.679 1.06 1.06 0 0 1-.564.389v.037q.446.074.698.38.25.305.25.753 0 .385-.209.691a1.4 1.4 0 0 1-.567.479q-.36.175-.818.175m4.077 0q-.521 0-.888-.283-.365-.287-.56-.827-.193-.544-.193-1.313 0-.764.194-1.305.196-.544.562-.829.368-.288.885-.288.516 0 .882.288.37.285.563.829.195.54.195 1.305 0 .769-.193 1.313-.194.54-.56.827-.366.282-.887.283m0-.507q.516 0 .802-.497.285-.498.285-1.419 0-.612-.131-1.043-.129-.43-.373-.656a.83.83 0 0 0-.583-.226q-.512 0-.8.505-.288.501-.288 1.42 0 .613.13 1.041.128.428.37.652a.84.84 0 0 0 .588.223m4.055.507q-.52 0-.887-.283-.366-.287-.56-.827-.193-.544-.193-1.313 0-.764.193-1.305.195-.544.563-.829.368-.288.885-.288.516 0 .882.288.369.285.562.829.195.54.196 1.305 0 .769-.193 1.313-.194.54-.56.827-.367.282-.888.283m0-.507q.517 0 .802-.497.286-.498.286-1.419 0-.612-.131-1.043-.129-.43-.374-.656a.83.83 0 0 0-.582-.226q-.513 0-.8.505-.288.501-.288 1.42 0 .613.129 1.041.13.428.37.652a.84.84 0 0 0 .588.223M80.568 203.38v-.415l1.558-1.704q.275-.299.452-.521t.263-.418a1 1 0 0 0 .087-.415.76.76 0 0 0-.442-.712 1.1 1.1 0 0 0-.461-.099.96.96 0 0 0-.475.113.8.8 0 0 0-.311.311 1 1 0 0 0-.108.47h-.544q0-.415.191-.728.191-.314.52-.488.333-.175.745-.175.415 0 .735.175t.503.472q.182.298.182.661 0 .26-.095.509a2.3 2.3 0 0 1-.322.55 10 10 0 0 1-.634.737l-1.06 1.133v.036h2.194v.508zm5.469.063q-.521 0-.888-.283-.365-.284-.56-.826-.193-.543-.193-1.313 0-.763.194-1.305.195-.544.562-.829.368-.288.885-.288.516 0 .882.288.37.285.563.829.195.541.195 1.305 0 .77-.193 1.313-.195.542-.56.826t-.887.283m0-.506q.516 0 .802-.497.285-.496.285-1.419 0-.612-.131-1.043-.129-.43-.373-.656a.83.83 0 0 0-.583-.226q-.512 0-.8.505-.288.502-.288 1.42 0 .613.129 1.041.13.429.371.652a.84.84 0 0 0 .588.223m4.055.506q-.52 0-.887-.283-.365-.284-.56-.826-.193-.543-.193-1.313 0-.763.193-1.305.195-.544.563-.829.368-.288.885-.288.516 0 .882.288.369.285.562.829.195.541.196 1.305 0 .77-.193 1.313-.195.542-.56.826-.367.283-.888.283m0-.506q.517 0 .802-.497.286-.496.286-1.419 0-.612-.131-1.043-.129-.43-.374-.656a.83.83 0 0 0-.582-.226q-.513 0-.8.505-.288.502-.288 1.42 0 .613.129 1.041.13.429.37.652a.84.84 0 0 0 .588.223M82.966 219.374v4.715h-.572v-4.117h-.028l-1.152.765v-.58l1.18-.783zm2.896 4.78q-.52 0-.887-.283-.365-.287-.56-.827-.194-.544-.194-1.313 0-.763.194-1.306.195-.543.562-.828.369-.288.885-.288.517 0 .883.288.369.285.562.828.195.543.196 1.306 0 .769-.194 1.313-.193.54-.56.827-.366.283-.887.283m0-.507q.517 0 .802-.497.285-.498.286-1.419 0-.612-.131-1.043-.13-.43-.374-.656a.82.82 0 0 0-.583-.226q-.51 0-.8.504-.287.503-.287 1.421 0 .613.129 1.041.13.429.37.652a.84.84 0 0 0 .588.223m4.056.507q-.52 0-.887-.283-.367-.287-.56-.827-.194-.544-.194-1.313 0-.763.194-1.306.195-.543.562-.828.368-.288.885-.288.516 0 .883.288.368.285.562.828t.196 1.306q0 .769-.194 1.313-.194.54-.56.827-.366.283-.887.283m0-.507q.516 0 .802-.497.285-.498.286-1.419 0-.612-.132-1.043-.129-.43-.373-.656a.82.82 0 0 0-.583-.226q-.512 0-.8.504-.288.503-.288 1.421 0 .613.13 1.041.128.429.37.652a.84.84 0 0 0 .588.223M88.836 244.864q-.52 0-.887-.283-.366-.286-.56-.827-.193-.544-.193-1.312 0-.765.193-1.306.195-.543.563-.829.368-.288.884-.288.517 0 .883.288.369.286.562.829.195.541.196 1.306 0 .768-.193 1.312-.194.541-.56.827-.367.282-.888.283m0-.507q.517 0 .802-.497.285-.498.286-1.418 0-.613-.131-1.044-.129-.43-.374-.656a.82.82 0 0 0-.583-.226q-.51 0-.8.505-.287.501-.287 1.421 0 .612.129 1.04.13.428.37.652a.84.84 0 0 0 .588.223M103.072 256.324a.72.72 0 0 0-.337-.543q-.294-.195-.723-.194-.314 0-.549.101a.9.9 0 0 0-.364.279.67.67 0 0 0-.129.403q0 .189.09.325.092.133.235.223.142.087.3.145.156.056.288.09l.479.129q.185.048.41.134.228.084.436.232.21.145.345.373.136.228.136.56 0 .383-.2.69a1.37 1.37 0 0 1-.581.491q-.38.181-.924.181-.507.001-.878-.163a1.4 1.4 0 0 1-.581-.456 1.3 1.3 0 0 1-.237-.679h.59a.73.73 0 0 0 .18.442 1 1 0 0 0 .401.258q.244.083.525.083.327 0 .588-.106.26-.108.412-.299a.7.7 0 0 0 .152-.451.55.55 0 0 0-.131-.383 1 1 0 0 0-.346-.24 4 4 0 0 0-.463-.16l-.581-.166q-.552-.159-.875-.454-.323-.294-.323-.771 0-.397.214-.691.217-.297.581-.461a2 2 0 0 1 .818-.166q.457 0 .811.164.355.162.563.442.209.28.221.638zm2.525 3.619q-.337 0-.611-.126a1.05 1.05 0 0 1-.435-.371 1.04 1.04 0 0 1-.162-.589q0-.304.12-.493a.86.86 0 0 1 .321-.3q.2-.107.442-.16a6 6 0 0 1 .491-.088q.322-.04.523-.062a.8.8 0 0 0 .295-.076q.094-.053.094-.185v-.018q0-.34-.186-.529-.185-.189-.56-.189-.39 0-.611.17a1 1 0 0 0-.311.364l-.516-.184q.138-.322.369-.502a1.4 1.4 0 0 1 .506-.253q.277-.075.544-.074.17 0 .392.041.224.04.431.164a.96.96 0 0 1 .348.375q.138.252.138.673v2.33h-.544v-.479h-.027a1 1 0 0 1-.185.246q-.129.132-.343.224a1.3 1.3 0 0 1-.523.091m.083-.488q.323 0 .543-.126a.85.85 0 0 0 .452-.748v-.498q-.035.042-.152.076a3 3 0 0 1-.267.058 13 13 0 0 1-.521.069 2 2 0 0 0-.396.09q-.183.06-.295.182a.46.46 0 0 0-.111.326q0 .284.21.429.212.142.537.142m4.071-3.131v.46h-1.834v-.46zm-1.3-.848h.544v3.372q0 .23.067.345a.35.35 0 0 0 .175.152.7.7 0 0 0 .228.037 1 1 0 0 0 .24-.027l.111.488a1.16 1.16 0 0 1-.858-.035.9.9 0 0 1-.364-.301.87.87 0 0 1-.143-.512z"/><path fill="#615EFC" d="M103.425 146.375a2.197 2.197 0 0 0-2.198-2.196 2.197 2.197 0 0 0-2.198 2.196v96.647c0 1.213.984 2.196 2.198 2.196a2.197 2.197 0 0 0 2.198-2.196z"/><path fill="#FF5656" d="M110.962 196.581a2.198 2.198 0 0 0-4.396 0v46.441c0 1.213.984 2.196 2.198 2.196a2.197 2.197 0 0 0 2.198-2.196z"/><path fill="#8D8BA7" d="M125.219 256.324a.72.72 0 0 0-.336-.543 1.3 1.3 0 0 0-.723-.194q-.314 0-.549.101a.9.9 0 0 0-.364.279.67.67 0 0 0-.13.403q0 .189.091.325.092.133.235.223.143.087.299.145.157.056.288.09l.48.129q.184.048.41.134.228.084.435.232.21.145.346.373t.136.56q0 .383-.201.69a1.36 1.36 0 0 1-.581.491q-.379.181-.924.181-.507.001-.877-.163a1.4 1.4 0 0 1-.581-.456 1.3 1.3 0 0 1-.237-.679h.589a.75.75 0 0 0 .18.442q.159.173.402.258.244.083.524.083.328 0 .588-.106.26-.108.413-.299a.7.7 0 0 0 .152-.451.55.55 0 0 0-.132-.383 1 1 0 0 0-.345-.24 4 4 0 0 0-.464-.16l-.58-.166q-.553-.159-.876-.454-.322-.294-.322-.771 0-.397.214-.691a1.4 1.4 0 0 1 .581-.461 2 2 0 0 1 .818-.166q.456 0 .811.164.355.162.562.442.21.28.221.638zm3.715 2.091v-2.091h.544v3.537h-.544v-.599h-.037a1.16 1.16 0 0 1-.387.458q-.264.187-.664.187-.332 0-.59-.145a1 1 0 0 1-.405-.442q-.148-.297-.148-.748v-2.248h.544v2.211q0 .387.216.617.22.23.557.23a.9.9 0 0 0 .413-.104.9.9 0 0 0 .356-.317.95.95 0 0 0 .145-.546m2.083-.681v2.127h-.544v-3.537h.526v.552h.046a1 1 0 0 1 .378-.433q.253-.165.655-.165.359 0 .629.147a1 1 0 0 1 .418.442q.15.296.15.746v2.248h-.543v-2.211q0-.417-.217-.649-.217-.235-.595-.235a.95.95 0 0 0-.465.113.8.8 0 0 0-.32.329q-.118.216-.118.526"/><path fill="#615EFC" d="M126.663 175.871a2.197 2.197 0 0 0-4.396 0v67.151c0 1.213.984 2.196 2.198 2.196a2.197 2.197 0 0 0 2.198-2.196z"/><path fill="#FF5656" d="M134.2 222.312a2.198 2.198 0 0 0-4.396 0v20.71c0 1.213.984 2.196 2.198 2.196a2.197 2.197 0 0 0 2.198-2.196z"/><path fill="#8D8BA7" d="M146.578 255.145h.682l1.604 3.915h.056l1.603-3.915h.682v4.716h-.535v-3.583h-.045l-1.475 3.583h-.516l-1.475-3.583h-.046v3.583h-.535zm7.137 4.789q-.478 0-.841-.227a1.56 1.56 0 0 1-.562-.638 2.15 2.15 0 0 1-.2-.958q0-.552.2-.965.203-.411.562-.64.363-.228.841-.228.48 0 .839.228.363.229.562.64.203.413.203.965 0 .548-.203.958-.2.409-.562.638-.36.227-.839.227m0-.488q.365 0 .599-.186.235-.186.349-.491.113-.303.113-.658t-.113-.661a1.1 1.1 0 0 0-.349-.495.92.92 0 0 0-.599-.189.92.92 0 0 0-.598.189 1.1 1.1 0 0 0-.349.495 1.9 1.9 0 0 0-.113.661q0 .355.113.658.113.305.349.491a.93.93 0 0 0 .598.186m2.978-1.712v2.127h-.543v-3.537h.525v.553h.046q.125-.27.378-.434.254-.165.654-.165.36 0 .63.147a1 1 0 0 1 .419.443q.15.295.149.745v2.248h-.543v-2.211q0-.417-.217-.649-.216-.235-.594-.235a.95.95 0 0 0-.466.113.8.8 0 0 0-.32.33 1.1 1.1 0 0 0-.118.525"/><path fill="#615EFC" d="M151.157 177.127a2.197 2.197 0 0 0-4.396 0v65.895c0 1.213.984 2.196 2.198 2.196a2.197 2.197 0 0 0 2.198-2.196z"/><path fill="#FF5656" d="M158.693 191.561a2.198 2.198 0 0 0-4.396 0v51.461c0 1.213.984 2.196 2.198 2.196a2.197 2.197 0 0 0 2.198-2.196z"/><path fill="#8D8BA7" d="M171.919 255.651v-.506h3.541v.506h-1.485v4.21h-.571v-4.21zm6.098 2.764v-2.091h.544v3.537h-.544v-.599h-.037a1.17 1.17 0 0 1-.387.459q-.264.186-.664.186-.333 0-.59-.145a1 1 0 0 1-.405-.442q-.148-.297-.148-.748v-2.248h.544v2.211q0 .387.216.617.219.23.558.23a.9.9 0 0 0 .412-.104.9.9 0 0 0 .355-.317.95.95 0 0 0 .146-.546m3.024 1.519q-.513 0-.883-.225a1.5 1.5 0 0 1-.569-.635 2.2 2.2 0 0 1-.198-.954q0-.543.198-.958.2-.417.557-.649a1.5 1.5 0 0 1 .84-.235q.275 0 .546.092.269.092.49.299.221.205.353.544.13.339.131.833v.231h-2.728v-.47h2.175q0-.298-.119-.535a.91.91 0 0 0-.848-.506 1 1 0 0 0-.563.161 1.07 1.07 0 0 0-.362.415q-.126.255-.127.548v.313q0 .4.139.68a1 1 0 0 0 .389.421q.249.142.579.142.214 0 .387-.059a.84.84 0 0 0 .302-.184.8.8 0 0 0 .195-.31l.526.148a1.16 1.16 0 0 1-.279.47q-.196.2-.484.313-.288.11-.647.11"/><path fill="#615EFC" d="M175.651 146.375a2.197 2.197 0 0 0-2.199-2.196 2.197 2.197 0 0 0-2.198 2.196v96.647c0 1.213.985 2.196 2.198 2.196a2.197 2.197 0 0 0 2.199-2.196z"/><path fill="#FF5656" d="M183.187 168.34a2.196 2.196 0 0 0-2.198-2.196 2.197 2.197 0 0 0-2.198 2.196v74.682c0 1.213.984 2.196 2.198 2.196a2.196 2.196 0 0 0 2.198-2.196z"/><path fill="#8D8BA7" d="m196.639 259.861-1.291-4.716h.581l.987 3.841h.045l1.005-3.841h.645l1.005 3.841h.047l.986-3.841h.58l-1.29 4.716h-.59l-1.042-3.758h-.037l-1.041 3.758zm6.383.073q-.512 0-.882-.225a1.5 1.5 0 0 1-.57-.635 2.2 2.2 0 0 1-.198-.954q0-.543.198-.958.201-.417.558-.649.36-.235.839-.235.276 0 .546.092t.491.299q.221.205.353.544.13.339.131.833v.231h-2.728v-.47h2.175q0-.298-.12-.535a.9.9 0 0 0-.848-.506 1 1 0 0 0-.562.161 1.07 1.07 0 0 0-.362.415q-.127.255-.127.548v.313q0 .4.138.68.141.275.39.421.249.142.578.142.215 0 .388-.059a.8.8 0 0 0 .301-.184.8.8 0 0 0 .196-.31l.526.148a1.2 1.2 0 0 1-.279.47q-.196.2-.484.313a1.8 1.8 0 0 1-.648.11m3.629 0q-.442 0-.781-.222a1.5 1.5 0 0 1-.529-.636 2.3 2.3 0 0 1-.192-.975q0-.556.192-.966.19-.41.532-.634.34-.223.788-.223.346 0 .546.115a.95.95 0 0 1 .309.258q.109.143.168.235h.046v-1.741h.544v4.716h-.525v-.543h-.065a3 3 0 0 1-.171.244 1 1 0 0 1-.315.26q-.205.112-.547.112m.074-.488a.9.9 0 0 0 .553-.169 1.07 1.07 0 0 0 .344-.478q.118-.306.118-.707a1.9 1.9 0 0 0-.116-.693 1 1 0 0 0-.341-.465.9.9 0 0 0-.558-.168.92.92 0 0 0-.576.177 1.1 1.1 0 0 0-.344.477 1.9 1.9 0 0 0-.112.672q0 .379.115.686.118.307.346.489a.9.9 0 0 0 .571.179"/><path fill="#615EFC" d="M200.773 214.781a2.198 2.198 0 0 0-4.396 0v28.241c0 1.213.984 2.196 2.198 2.196a2.197 2.197 0 0 0 2.198-2.196z"/><path fill="#FF5656" d="M208.309 199.092a2.197 2.197 0 0 0-4.396 0v43.93c0 1.213.984 2.196 2.198 2.196a2.197 2.197 0 0 0 2.198-2.196z"/><path fill="#8D8BA7" d="M221.581 255.651v-.506h3.539v.506h-1.484v4.21h-.572v-4.21zm4.891 2.083v2.127h-.544v-4.716h.544v1.732h.046a1 1 0 0 1 .374-.435q.25-.164.668-.164.362 0 .633.145a.98.98 0 0 1 .423.44q.15.294.151.75v2.248h-.543v-2.211q0-.422-.219-.651-.217-.234-.602-.233-.267 0-.479.113a.8.8 0 0 0-.332.33q-.12.216-.12.525m5.521.681v-2.091h.544v3.537h-.544v-.599h-.037q-.125.27-.387.459-.262.186-.664.186-.332 0-.589-.145a1 1 0 0 1-.406-.442q-.148-.297-.147-.748v-2.248h.544v2.211q0 .387.216.617.22.23.557.23a.9.9 0 0 0 .413-.104.9.9 0 0 0 .355-.317.95.95 0 0 0 .145-.546"/><path fill="#615EFC" d="M225.895 162.692a2.198 2.198 0 0 0-4.396 0v80.329c0 1.213.984 2.196 2.198 2.196a2.197 2.197 0 0 0 2.198-2.196z"/><path fill="#FF5656" d="M233.431 194.698a2.197 2.197 0 0 0-4.396 0v48.324c0 1.213.984 2.196 2.198 2.196a2.197 2.197 0 0 0 2.198-2.196z"/><path fill="#8D8BA7" d="M246.784 259.861v-4.716h2.83v.506h-2.259v1.594h2.047v.507h-2.047v2.109zm3.697 0v-3.537h.526v.534h.036a.84.84 0 0 1 .35-.425q.253-.164.571-.164l.15.002q.091.002.137.007v.553a1 1 0 0 0-.128-.021 1 1 0 0 0-.204-.016.97.97 0 0 0-.461.108.79.79 0 0 0-.433.721v2.238zm2.414 0v-3.537h.544v3.537zm.277-4.126a.38.38 0 0 1-.274-.109.35.35 0 0 1-.114-.26q0-.152.114-.26a.39.39 0 0 1 .274-.108q.16 0 .271.108a.34.34 0 0 1 .116.26.34.34 0 0 1-.116.26.37.37 0 0 1-.271.109"/><path fill="#615EFC" d="M248.505 165.202a2.197 2.197 0 0 0-2.198-2.196 2.197 2.197 0 0 0-2.199 2.196v77.82c0 1.213.984 2.196 2.199 2.196a2.197 2.197 0 0 0 2.198-2.196z"/><path fill="#FF5656" d="M256.042 179.637a2.198 2.198 0 0 0-4.397 0v63.385a2.198 2.198 0 0 0 4.397 0z"/><path fill="#615EFC" d="M158.066 133.51a3.767 3.767 0 1 0 0-7.531 3.766 3.766 0 1 0 0 7.531"/><path fill="#8D8BA7" d="M168.686 131.208v-4.716h.571v4.21h2.194v.506zm5.06.074q-.511 0-.882-.226a1.5 1.5 0 0 1-.569-.636 2.2 2.2 0 0 1-.199-.953q0-.543.199-.957.2-.417.557-.65.36-.235.839-.235.276 0 .546.092t.491.3q.22.204.353.543.13.34.131.833v.231h-2.728v-.47h2.175q0-.299-.12-.534a.9.9 0 0 0-.336-.371.94.94 0 0 0-.512-.136.98.98 0 0 0-.562.161 1.06 1.06 0 0 0-.362.415 1.2 1.2 0 0 0-.127.548v.313q0 .4.138.68.141.276.389.421.25.142.579.142.214 0 .388-.059a.84.84 0 0 0 .302-.184.85.85 0 0 0 .195-.309l.526.147a1.16 1.16 0 0 1-.279.47q-.196.2-.484.313a1.8 1.8 0 0 1-.648.111m3.335.009q-.336 0-.611-.127a1.04 1.04 0 0 1-.435-.371 1.04 1.04 0 0 1-.162-.589q0-.304.12-.493a.85.85 0 0 1 .32-.299 1.7 1.7 0 0 1 .443-.161q.245-.055.491-.088.322-.04.523-.062a.8.8 0 0 0 .295-.076q.095-.052.095-.184v-.018q0-.341-.188-.53-.184-.189-.559-.189-.39 0-.611.17a1 1 0 0 0-.311.365l-.516-.185q.138-.322.368-.502.233-.182.508-.253.276-.075.544-.074.17 0 .391.041a1.3 1.3 0 0 1 .431.164.96.96 0 0 1 .348.375q.138.252.138.673v2.33h-.543v-.479h-.029a.9.9 0 0 1-.183.246 1.1 1.1 0 0 1-.344.224 1.3 1.3 0 0 1-.523.092m.083-.489q.322 0 .543-.125a.87.87 0 0 0 .453-.749v-.497a.34.34 0 0 1-.153.076 3 3 0 0 1-.267.057q-.15.023-.292.041l-.229.028a2 2 0 0 0-.396.09.7.7 0 0 0-.295.182.46.46 0 0 0-.111.327q0 .282.21.428.212.142.537.142m2.532.406v-3.537h.525v.534h.037a.85.85 0 0 1 .35-.425q.254-.165.572-.164l.15.002q.09.003.136.007v.553a2 2 0 0 0-.332-.037.97.97 0 0 0-.461.108.79.79 0 0 0-.433.721v2.238zm2.958-2.127v2.127h-.544v-3.537h.526v.553h.046q.124-.27.378-.433.253-.165.654-.166.36 0 .629.147.27.145.42.443.15.294.15.746v2.247h-.544v-2.21q0-.416-.217-.65-.216-.235-.595-.235a.94.94 0 0 0-.465.114.8.8 0 0 0-.32.328q-.118.216-.118.526m4.736 2.201q-.511 0-.883-.226a1.5 1.5 0 0 1-.568-.636 2.2 2.2 0 0 1-.199-.953q0-.543.199-.957.2-.417.557-.65.36-.235.839-.235.276 0 .546.092t.491.3q.221.204.353.543.13.34.131.833v.231h-2.729v-.47h2.176q0-.299-.12-.534a.9.9 0 0 0-.337-.371.94.94 0 0 0-.511-.136 1 1 0 0 0-.562.161 1.07 1.07 0 0 0-.362.415 1.2 1.2 0 0 0-.127.548v.313q0 .4.138.68.141.276.39.421.248.142.578.142.214 0 .387-.059a.85.85 0 0 0 .303-.184.85.85 0 0 0 .195-.309l.526.147a1.2 1.2 0 0 1-.279.47 1.35 1.35 0 0 1-.484.313 1.8 1.8 0 0 1-.648.111m3.629 0q-.442 0-.78-.224a1.5 1.5 0 0 1-.531-.635 2.3 2.3 0 0 1-.191-.974q0-.558.191-.967.191-.41.533-.633.34-.225.788-.224.346 0 .546.115a.95.95 0 0 1 .309.258q.108.143.168.235h.046v-1.741h.544v4.716h-.525v-.543h-.065q-.06.097-.171.243a1 1 0 0 1-.315.261q-.205.113-.547.113m.074-.489a.9.9 0 0 0 .553-.169q.226-.174.344-.478.118-.306.118-.706 0-.396-.116-.694a1 1 0 0 0-.341-.465.9.9 0 0 0-.558-.168.92.92 0 0 0-.576.177 1.07 1.07 0 0 0-.343.477q-.113.3-.113.673 0 .377.116.686.115.306.345.488a.9.9 0 0 0 .571.179"/><path fill="#FF5656" d="M214.59 133.51a3.767 3.767 0 1 0 0-7.531 3.767 3.767 0 1 0 0 7.531"/><path fill="#8D8BA7" d="M224.969 126.629h.682l1.604 3.914h.055l1.604-3.914h.683v4.716h-.535v-3.583h-.046l-1.474 3.583h-.517l-1.475-3.583h-.046v3.583h-.535zm7.184 4.789q-.513 0-.883-.225a1.5 1.5 0 0 1-.569-.636 2.2 2.2 0 0 1-.199-.953q0-.544.199-.957.2-.418.557-.65.36-.235.839-.235.278 0 .546.092.271.092.491.299.221.205.353.544a2.3 2.3 0 0 1 .132.833v.23h-2.729v-.469h2.175q0-.299-.119-.535a.91.91 0 0 0-.849-.506.97.97 0 0 0-.561.161 1.06 1.06 0 0 0-.362.414 1.2 1.2 0 0 0-.128.549v.313q0 .4.139.679a1 1 0 0 0 .389.421q.249.143.579.143a1.2 1.2 0 0 0 .387-.059.85.85 0 0 0 .302-.185.8.8 0 0 0 .195-.309l.526.148a1.2 1.2 0 0 1-.279.47q-.195.2-.484.313-.288.11-.647.11m2.836-2.201v2.128h-.543v-3.537h.525v.552h.046a1 1 0 0 1 .378-.433q.253-.164.655-.165.359 0 .629.147a1 1 0 0 1 .419.442q.15.296.15.746v2.248h-.544v-2.211q0-.417-.217-.65-.216-.234-.594-.234a.94.94 0 0 0-.466.113.8.8 0 0 0-.32.329q-.118.217-.118.525m4.792-1.409v.461h-1.834v-.461zm-1.3-.848h.544v3.371q0 .23.067.346a.34.34 0 0 0 .175.151.7.7 0 0 0 .228.038 1 1 0 0 0 .148-.009l.092-.019.11.489a1.161 1.161 0 0 1-.405.063q-.23 0-.452-.098a.9.9 0 0 1-.364-.302.86.86 0 0 1-.143-.511zm3.518 4.458q-.48 0-.841-.228a1.55 1.55 0 0 1-.563-.637 2.2 2.2 0 0 1-.2-.958q0-.553.2-.965a1.55 1.55 0 0 1 .563-.64q.361-.228.841-.228.479 0 .838.228.363.228.563.64.202.412.202.965 0 .547-.202.958a1.5 1.5 0 0 1-.563.637 1.5 1.5 0 0 1-.838.228m0-.488q.365 0 .599-.186.236-.187.348-.491.113-.304.113-.658t-.113-.661a1.1 1.1 0 0 0-.348-.495.92.92 0 0 0-.599-.189.93.93 0 0 0-.6.189 1.1 1.1 0 0 0-.347.495 1.9 1.9 0 0 0-.113.661q0 .354.113.658t.347.491a.94.94 0 0 0 .6.186m2.434.415v-3.537h.525v.534h.037a.85.85 0 0 1 .351-.426q.252-.163.571-.163l.15.002q.09.002.135.007v.553a1 1 0 0 0-.126-.021 1 1 0 0 0-.205-.016.97.97 0 0 0-.461.108.79.79 0 0 0-.433.721v2.238zm2.414 0v-3.537h.544v3.537zm.277-4.126a.38.38 0 0 1-.274-.109.35.35 0 0 1-.113-.26q0-.153.113-.26a.4.4 0 0 1 .274-.109q.159 0 .272.109a.34.34 0 0 1 .115.26.34.34 0 0 1-.115.26.38.38 0 0 1-.272.109m1.807 1.998v2.128h-.544v-3.537h.526v.552h.046q.124-.268.378-.433.253-.164.654-.165.36 0 .629.147.27.145.42.442.15.296.15.746v2.248h-.544v-2.211q0-.417-.217-.65t-.595-.234a.94.94 0 0 0-.465.113.8.8 0 0 0-.32.329 1.1 1.1 0 0 0-.118.525m4.68 3.528q-.394 0-.676-.102a1.43 1.43 0 0 1-.771-.608l.434-.304q.073.098.187.222a1 1 0 0 0 .308.219q.199.094.518.094.43 0 .708-.207.279-.208.279-.65v-.718h-.046q-.06.096-.17.239a1 1 0 0 1-.314.251q-.203.11-.548.109-.43 0-.77-.203a1.42 1.42 0 0 1-.537-.589q-.196-.388-.196-.94 0-.543.191-.946.191-.406.533-.627.34-.223.788-.223.345 0 .548.115a1 1 0 0 1 .314.258q.11.143.17.234h.055v-.561h.526v3.639q0 .455-.207.74a1.18 1.18 0 0 1-.553.422 2.1 2.1 0 0 1-.771.136m-.018-1.944q.328 0 .553-.15a.9.9 0 0 0 .344-.43q.117-.28.117-.673 0-.381-.115-.674a1 1 0 0 0-.341-.458.92.92 0 0 0-.558-.166.93.93 0 0 0-.576.175 1.07 1.07 0 0 0-.343.47 1.8 1.8 0 0 0-.113.653q0 .37.115.652a1 1 0 0 0 .346.442 1 1 0 0 0 .571.159m5.052-2.201-.489.138a1 1 0 0 0-.136-.237.66.66 0 0 0-.239-.194.9.9 0 0 0-.39-.075.93.93 0 0 0-.541.149q-.215.147-.215.375 0 .203.148.321t.46.195l.526.129q.475.116.708.352a.83.83 0 0 1 .233.606.9.9 0 0 1-.176.544 1.17 1.17 0 0 1-.484.377 1.8 1.8 0 0 1-.723.138q-.542 0-.897-.234a1.05 1.05 0 0 1-.449-.686l.516-.13a.71.71 0 0 0 .279.429q.207.142.541.142.38 0 .604-.161.226-.163.226-.391a.41.41 0 0 0-.129-.309q-.129-.126-.396-.189l-.591-.138q-.484-.115-.714-.356a.87.87 0 0 1-.225-.611q0-.3.168-.53.17-.23.463-.361t.668-.131q.526 0 .825.23.302.23.429.608"/><path fill="#fff" d="M156.128 309.464H74.605c-4.48 0-8.111 3.629-8.111 8.105v37.351c0 4.477 3.631 8.106 8.111 8.106h81.523c4.48 0 8.112-3.629 8.112-8.106v-37.351c0-4.476-3.632-8.105-8.112-8.105"/><path fill="#8D8BA7" d="M108.427 326.862v-.507h3.539v.507h-1.484v4.209h-.572v-4.209zm5.272 4.283q-.479 0-.841-.228a1.55 1.55 0 0 1-.563-.638 2.15 2.15 0 0 1-.2-.958q0-.552.2-.965.203-.411.563-.64.362-.227.841-.227.48 0 .839.227.361.228.562.64.203.413.203.965 0 .549-.203.958a1.53 1.53 0 0 1-.562.638q-.36.228-.839.228m0-.488q.364 0 .599-.187.234-.186.348-.49.113-.305.113-.659a1.9 1.9 0 0 0-.113-.661 1.1 1.1 0 0 0-.348-.494.93.93 0 0 0-.599-.189.92.92 0 0 0-.599.189q-.236.189-.348.494a1.9 1.9 0 0 0-.113.661q0 .354.113.659.112.304.348.49.234.187.599.187m3.973-3.123v.461h-1.834v-.461zm-1.3-.847h.544v3.371q0 .23.067.346a.34.34 0 0 0 .175.151.7.7 0 0 0 .229.037 1 1 0 0 0 .239-.027l.111.487a1.11 1.11 0 0 1-.406.065q-.23 0-.451-.099a.9.9 0 0 1-.365-.302.87.87 0 0 1-.143-.511zm3.16 4.467a1.4 1.4 0 0 1-.611-.127 1.04 1.04 0 0 1-.435-.37 1.04 1.04 0 0 1-.162-.59q0-.304.12-.492a.85.85 0 0 1 .32-.3 1.7 1.7 0 0 1 .443-.161q.243-.055.491-.087.323-.042.522-.063a.8.8 0 0 0 .296-.075q.094-.053.094-.185v-.018q0-.341-.186-.53-.185-.188-.56-.188-.39 0-.611.169a1 1 0 0 0-.311.365l-.516-.184q.136-.323.369-.503.232-.181.506-.253.277-.073.544-.073.17 0 .392.041.224.039.431.163.21.124.348.376.138.25.138.672v2.33h-.544v-.479h-.027a1 1 0 0 1-.185.247q-.129.131-.343.223a1.3 1.3 0 0 1-.523.092m.083-.488q.323 0 .543-.127a.85.85 0 0 0 .452-.748v-.497q-.034.041-.152.075a3 3 0 0 1-.267.058q-.15.024-.293.041l-.228.028a2 2 0 0 0-.396.09.7.7 0 0 0-.296.182.47.47 0 0 0-.11.327q0 .284.21.428.212.143.537.143m3.075-4.311v4.716h-.543v-4.716zm3.467 0v4.716h-.571v-4.716zm1.072 4.716v-3.537h.526v.553h.046a.9.9 0 0 1 .357-.44q.246-.158.592-.158.35 0 .583.158.235.157.366.44h.038q.135-.274.407-.435.272-.163.652-.163.476 0 .777.296.302.295.302.919v2.367h-.544v-2.367q0-.391-.214-.559a.8.8 0 0 0-.505-.168q-.374 0-.579.225a.8.8 0 0 0-.205.567v2.302h-.553v-2.422a.64.64 0 0 0-.195-.486.7.7 0 0 0-.505-.186.75.75 0 0 0-.397.112.86.86 0 0 0-.295.313.93.93 0 0 0-.11.458v2.211zm5.64 1.327v-4.864h.526v.562h.064q.06-.091.166-.235a1 1 0 0 1 .309-.257q.203-.115.549-.115.446 0 .787.222.342.225.533.634.19.41.191.967 0 .562-.191.974a1.5 1.5 0 0 1-.53.635 1.4 1.4 0 0 1-.781.224q-.342 0-.547-.113a1 1 0 0 1-.315-.26 4 4 0 0 1-.171-.244h-.046v1.87zm.535-3.095q0 .4.117.707.118.304.344.476t.553.171a.9.9 0 0 0 .569-.18q.23-.182.346-.488.117-.309.117-.686a1.9 1.9 0 0 0-.115-.673 1.04 1.04 0 0 0-.343-.476.9.9 0 0 0-.574-.177.9.9 0 0 0-.558.168q-.225.165-.341.465a1.9 1.9 0 0 0-.115.693m4.461 1.851q-.336 0-.611-.127a1.05 1.05 0 0 1-.435-.37 1.04 1.04 0 0 1-.161-.59q0-.304.119-.492a.84.84 0 0 1 .321-.3 1.7 1.7 0 0 1 .442-.161 5 5 0 0 1 .491-.087q.322-.042.523-.063a.8.8 0 0 0 .295-.075q.094-.053.094-.185v-.018q0-.341-.186-.53-.185-.188-.56-.188-.39 0-.611.169a1 1 0 0 0-.311.365l-.516-.184q.138-.323.369-.503.233-.181.506-.253.278-.073.544-.073.171 0 .392.041.224.039.431.163.21.124.348.376.139.25.139.672v2.33h-.545v-.479h-.027a1 1 0 0 1-.184.247 1.1 1.1 0 0 1-.343.223 1.3 1.3 0 0 1-.524.092m.083-.488q.323 0 .544-.127a.86.86 0 0 0 .451-.748v-.497q-.035.041-.151.075a3 3 0 0 1-.268.058q-.149.024-.293.041l-.228.028a2 2 0 0 0-.396.09.7.7 0 0 0-.295.182.46.46 0 0 0-.111.327q0 .284.21.428.212.143.537.143m3.97.479q-.498 0-.857-.235a1.53 1.53 0 0 1-.553-.647 2.2 2.2 0 0 1-.194-.942q0-.539.199-.95.2-.416.557-.648.36-.234.838-.234.374 0 .673.137.3.139.491.387.192.249.238.58h-.544a.84.84 0 0 0-.276-.427q-.213-.189-.572-.189a.95.95 0 0 0-.558.165 1.1 1.1 0 0 0-.371.463 1.7 1.7 0 0 0-.131.698q0 .41.129.714.132.303.368.472a.96.96 0 0 0 .563.168q.213 0 .385-.074a.79.79 0 0 0 .463-.544h.544a1.25 1.25 0 0 1-.705.96 1.54 1.54 0 0 1-.687.146m3.727-3.611v.461h-1.835v-.461zm-1.3-.847h.544v3.371q0 .23.066.346a.34.34 0 0 0 .176.151.7.7 0 0 0 .227.037 1 1 0 0 0 .24-.027l.11.487a1.11 1.11 0 0 1-.405.065 1.1 1.1 0 0 1-.451-.099.9.9 0 0 1-.365-.302.87.87 0 0 1-.142-.511z"/><path fill="#494953" d="m108.902 344.665 2.676-5.293v-.043h-3.106v-.952h4.286v.974l-2.672 5.314zm4.228-1.167v-.905l2.67-4.216h.755v1.289h-.46l-1.798 2.847v.048h3.727v.937zm3.001 1.167v-1.443l.013-.405v-4.44h1.075v6.288zm3.395.067a.66.66 0 0 1-.48-.196.64.64 0 0 1-.196-.479.63.63 0 0 1 .196-.473.67.67 0 0 1 .48-.196q.27 0 .47.196a.65.65 0 0 1 .206.473.712.712 0 0 1-.344.587.65.65 0 0 1-.332.088m1.812-.067v-.823l2.184-2.14q.313-.315.523-.562.208-.245.313-.476.105-.229.105-.491a.888.888 0 0 0-.508-.841 1.2 1.2 0 0 0-.537-.117q-.31 0-.544.13a.9.9 0 0 0-.363.359 1.16 1.16 0 0 0-.125.555h-1.085q0-.599.274-1.04.273-.444.752-.685.483-.242 1.106-.242.633 0 1.113.236.479.236.743.647.267.412.268.94 0 .353-.136.694-.135.34-.476.755-.337.414-.949 1.004l-1.085 1.102v.043h2.74v.952zm7.561.086a2.5 2.5 0 0 1-1.1-.231 1.96 1.96 0 0 1-.771-.638 1.7 1.7 0 0 1-.301-.927h1.106a.87.87 0 0 0 .335.632q.304.243.731.243.335 0 .596-.154.262-.153.412-.427.15-.273.147-.623a1.25 1.25 0 0 0-.15-.632 1.1 1.1 0 0 0-.421-.433 1.2 1.2 0 0 0-.614-.159 1.4 1.4 0 0 0-.556.104 1.1 1.1 0 0 0-.433.282l-1.03-.169.329-3.242h3.65v.952h-2.707l-.182 1.667h.037q.175-.205.495-.341a1.75 1.75 0 0 1 .701-.138q.572 0 1.02.27.449.268.706.737.26.47.259 1.074 0 .624-.289 1.112a2.05 2.05 0 0 1-.796.765 2.4 2.4 0 0 1-1.174.276m6.652-1.265v-.332q0-.365.154-.671.156-.308.455-.495.297-.187.721-.187.436 0 .732.187.295.183.445.491.155.307.155.675v.332q0 .365-.155.672-.153.308-.451.495-.295.187-.726.187-.43 0-.727-.187a1.2 1.2 0 0 1-.452-.495 1.5 1.5 0 0 1-.151-.672m.802-.332v.332q0 .243.117.445.118.203.411.203.3 0 .409-.2a.9.9 0 0 0 .114-.448v-.332a.94.94 0 0 0-.108-.448q-.106-.205-.415-.205-.288 0-.408.205a.86.86 0 0 0-.12.448m-4.001-3.267v-.331q0-.368.158-.675.156-.308.454-.491.299-.188.722-.188.434 0 .728.188.299.183.449.491.15.307.151.675v.331q0 .369-.154.676-.15.305-.449.488a1.35 1.35 0 0 1-.725.185q-.432 0-.731-.185a1.2 1.2 0 0 1-.449-.491 1.5 1.5 0 0 1-.154-.673m.809-.331v.331a.9.9 0 0 0 .114.449q.116.2.411.2t.406-.2a.9.9 0 0 0 .113-.449v-.331a.94.94 0 0 0-.107-.448q-.107-.207-.412-.206-.291 0-.408.206a.9.9 0 0 0-.117.448m-.458 5.109 4.327-6.288h.768l-4.326 6.288z"/><path fill="#EDF2F6" d="M91.403 350.422c7.836 0 14.189-6.347 14.189-14.177 0-7.831-6.353-14.179-14.189-14.179s-14.189 6.348-14.189 14.179c0 7.83 6.353 14.177 14.19 14.177"/><path stroke="#FF5656" stroke-linecap="round" d="M91.403 322.066c7.836 0 14.189 6.348 14.189 14.179 0 7.83-6.353 14.178-14.189 14.178-2.913 0-5.622-.878-7.875-2.382"/><path fill="#fff" d="M263.333 309.464H181.81c-4.48 0-8.111 3.629-8.111 8.105v37.351a8.11 8.11 0 0 0 8.111 8.106h81.523c4.48 0 8.112-3.629 8.112-8.106v-37.351c0-4.476-3.632-8.105-8.112-8.105"/><path fill="#8D8BA7" d="M219.021 331.278v-4.716h.572v4.209h2.193v.507zm5.06.073q-.512 0-.882-.226a1.5 1.5 0 0 1-.569-.635 2.2 2.2 0 0 1-.198-.954q0-.543.198-.957.2-.418.557-.649.36-.235.839-.235.276 0 .546.092t.491.299q.221.206.353.543.13.339.131.834v.23h-2.728v-.469h2.175q0-.3-.12-.535a.9.9 0 0 0-.848-.506.97.97 0 0 0-.562.161 1.06 1.06 0 0 0-.362.415 1.2 1.2 0 0 0-.127.547v.314q0 .4.139.679a1 1 0 0 0 .389.422q.25.142.578.142.215 0 .388-.06a.8.8 0 0 0 .301-.184.8.8 0 0 0 .196-.309l.526.148a1.2 1.2 0 0 1-.279.469q-.196.201-.484.314a1.8 1.8 0 0 1-.648.11m3.335.009q-.336 0-.611-.126a1.06 1.06 0 0 1-.436-.371 1.05 1.05 0 0 1-.161-.589q0-.304.12-.493a.85.85 0 0 1 .321-.3 1.7 1.7 0 0 1 .442-.16q.244-.056.491-.088.322-.041.523-.062a.8.8 0 0 0 .295-.076q.094-.053.094-.185v-.018q0-.34-.186-.53-.185-.188-.56-.188-.39 0-.611.17a1 1 0 0 0-.311.363l-.516-.183q.138-.323.368-.503.234-.181.508-.253.276-.073.544-.073.17 0 .391.041.224.039.431.163a.97.97 0 0 1 .348.376q.138.25.138.673v2.33h-.544v-.479h-.027a1.045 1.045 0 0 1-.528.469 1.3 1.3 0 0 1-.523.092m.083-.488q.322 0 .544-.126a.87.87 0 0 0 .451-.748v-.499q-.034.042-.152.077a2 2 0 0 1-.267.057q-.15.023-.292.042l-.229.027a2 2 0 0 0-.396.09.7.7 0 0 0-.295.182.46.46 0 0 0-.111.327q0 .284.209.429a.95.95 0 0 0 .538.142m2.532.406v-3.537h.525v.534h.037a.85.85 0 0 1 .35-.426q.255-.164.572-.164a5 5 0 0 1 .286.01v.552a2 2 0 0 0-.332-.037.95.95 0 0 0-.461.109.795.795 0 0 0-.433.72v2.239zm2.958-2.129v2.129h-.544v-3.537h.525v.552h.047q.125-.269.378-.433.254-.165.654-.165.36 0 .629.147.27.145.42.442.15.295.15.746v2.248h-.544v-2.211q0-.418-.217-.649-.217-.235-.594-.235a.94.94 0 0 0-.466.113.8.8 0 0 0-.32.329 1.1 1.1 0 0 0-.118.524m3.252 2.129v-3.537h.545v3.537zm.276-4.127a.39.39 0 0 1-.274-.108.35.35 0 0 1-.113-.26.35.35 0 0 1 .113-.261.4.4 0 0 1 .274-.107q.16 0 .273.107a.35.35 0 0 1 .115.261.35.35 0 0 1-.115.26.38.38 0 0 1-.273.108m1.808 1.998v2.129h-.544v-3.537h.526v.552h.045q.125-.269.378-.433.253-.165.655-.165.36 0 .629.147.27.145.419.442.15.295.15.746v2.248h-.543v-2.211q0-.418-.217-.649-.217-.235-.595-.235a.94.94 0 0 0-.465.113.8.8 0 0 0-.32.329 1.1 1.1 0 0 0-.118.524m4.68 3.529q-.393 0-.677-.102a1.5 1.5 0 0 1-.472-.262 1.5 1.5 0 0 1-.298-.346l.434-.303q.074.096.186.221a1 1 0 0 0 .309.218q.199.095.518.095.43 0 .708-.208.279-.207.279-.649v-.718h-.046q-.06.096-.171.239a1 1 0 0 1-.313.251q-.203.108-.548.108-.43 0-.77-.202a1.43 1.43 0 0 1-.537-.59q-.196-.387-.196-.94 0-.543.191-.945.192-.406.532-.627a1.4 1.4 0 0 1 .789-.223q.346 0 .548.115a.9.9 0 0 1 .313.258q.111.143.171.234h.055v-.561h.526v3.638q0 .456-.208.742a1.2 1.2 0 0 1-.553.421q-.344.135-.77.136m-.018-1.944q.328 0 .553-.15a.93.93 0 0 0 .344-.43 1.8 1.8 0 0 0 .117-.673q0-.382-.115-.674a1 1 0 0 0-.341-.458.9.9 0 0 0-.558-.166.92.92 0 0 0-.576.175 1.06 1.06 0 0 0-.343.47 1.8 1.8 0 0 0-.113.653q0 .37.115.652a1 1 0 0 0 .346.442 1 1 0 0 0 .571.159m7.024-2.993a.72.72 0 0 0-.336-.544 1.3 1.3 0 0 0-.724-.193q-.313 0-.549.101a.9.9 0 0 0-.363.279.66.66 0 0 0-.129.403q0 .189.089.325.093.132.235.223.144.087.3.145.157.055.288.09l.479.128q.185.049.411.134.227.085.435.233.21.145.346.372.136.229.136.561 0 .381-.201.69a1.36 1.36 0 0 1-.58.49q-.381.182-.924.182-.507 0-.878-.163a1.4 1.4 0 0 1-.581-.456 1.3 1.3 0 0 1-.237-.679h.589a.75.75 0 0 0 .18.442 1 1 0 0 0 .401.258q.244.083.526.083.327 0 .587-.106.26-.109.413-.3a.7.7 0 0 0 .152-.451.55.55 0 0 0-.131-.382 1 1 0 0 0-.346-.24 4 4 0 0 0-.463-.16l-.581-.167q-.553-.159-.876-.453a1 1 0 0 1-.322-.771q0-.397.214-.692.216-.297.581-.46.366-.166.818-.166.456 0 .811.164.354.161.562.441.21.281.221.639zm1.484 4.863v-4.863h.525v.561h.065a5 5 0 0 1 .166-.234 1 1 0 0 1 .309-.258q.203-.115.548-.115.447 0 .788.223.342.224.532.633t.191.967q0 .563-.191.974a1.5 1.5 0 0 1-.53.636 1.4 1.4 0 0 1-.781.223q-.34 0-.546-.112a1 1 0 0 1-.316-.261 3 3 0 0 1-.17-.244h-.046v1.87zm.535-3.095q0 .401.117.707t.343.477.553.17q.34 0 .569-.179.23-.183.346-.489.117-.309.118-.686 0-.374-.115-.672a1.05 1.05 0 0 0-.344-.477.9.9 0 0 0-.574-.177.9.9 0 0 0-.557.168q-.226.165-.341.465a1.9 1.9 0 0 0-.115.693m4.903 1.842q-.511 0-.882-.226a1.5 1.5 0 0 1-.57-.635 2.2 2.2 0 0 1-.198-.954q0-.543.198-.957.201-.418.558-.649.36-.235.839-.235.276 0 .545.092.271.092.491.299.222.206.353.543.132.339.132.834v.23h-2.729v-.469h2.175q0-.3-.119-.535a.9.9 0 0 0-.848-.506.97.97 0 0 0-.562.161 1.05 1.05 0 0 0-.362.415 1.2 1.2 0 0 0-.127.547v.314q0 .4.138.679.141.276.39.422.249.142.578.142.214 0 .387-.06a.8.8 0 0 0 .302-.184.8.8 0 0 0 .196-.309l.525.148a1.15 1.15 0 0 1-.279.469q-.196.201-.483.314a1.8 1.8 0 0 1-.648.11m3.777 0q-.511 0-.883-.226a1.5 1.5 0 0 1-.569-.635 2.2 2.2 0 0 1-.198-.954q0-.543.198-.957.201-.418.558-.649.359-.235.839-.235.276 0 .546.092t.491.299q.221.206.352.543.13.339.131.834v.23h-2.728v-.469h2.176q0-.3-.121-.535a.9.9 0 0 0-.336-.37.94.94 0 0 0-.511-.136.98.98 0 0 0-.563.161 1.06 1.06 0 0 0-.361.415 1.2 1.2 0 0 0-.127.547v.314q0 .4.138.679.141.276.39.422.248.142.578.142.214 0 .387-.06a.8.8 0 0 0 .302-.184.8.8 0 0 0 .196-.309l.525.148a1.15 1.15 0 0 1-.279.469q-.196.201-.483.314-.29.11-.648.11m3.63 0q-.444 0-.782-.223a1.5 1.5 0 0 1-.53-.636 2.3 2.3 0 0 1-.191-.974q0-.557.191-.967.192-.41.532-.633a1.4 1.4 0 0 1 .789-.223q.345 0 .546.115a.9.9 0 0 1 .309.258q.107.143.168.234h.046v-1.74h.544v4.716h-.526v-.544h-.064a3 3 0 0 1-.171.244 1 1 0 0 1-.315.261q-.205.112-.546.112m.073-.488a.9.9 0 0 0 .553-.17q.226-.173.344-.477a2 2 0 0 0 .117-.707q0-.396-.115-.693a1 1 0 0 0-.342-.465.9.9 0 0 0-.557-.168.92.92 0 0 0-.576.177 1.06 1.06 0 0 0-.343.477 1.9 1.9 0 0 0-.113.672q0 .378.115.686.117.306.346.489a.9.9 0 0 0 .571.179"/><path fill="#494953" d="M221.59 338.377v6.288h-1.14v-5.179h-.037l-1.472.939v-1.044l1.564-1.004zm1.598 6.288v-.823l2.184-2.14q.314-.315.522-.562a2 2 0 0 0 .314-.476q.105-.229.104-.491a.93.93 0 0 0-.135-.509.9.9 0 0 0-.372-.332 1.2 1.2 0 0 0-.538-.117q-.31 0-.543.13a.9.9 0 0 0-.363.359q-.126.233-.126.555h-1.084q0-.599.273-1.04.273-.444.753-.685.482-.242 1.106-.242.633 0 1.112.236t.744.647q.267.412.267.94 0 .353-.135.694t-.476.755q-.338.414-.95 1.004l-1.084 1.102v.043h2.74v.952zm6.071.067a.66.66 0 0 1-.479-.196.63.63 0 0 1-.197-.479.63.63 0 0 1 .197-.473.66.66 0 0 1 .479-.196q.27 0 .47.196a.65.65 0 0 1 .107.814.654.654 0 0 1-.577.334m3.812.019q-.685 0-1.216-.231a2 2 0 0 1-.83-.628 1.48 1.48 0 0 1-.295-.913 1.5 1.5 0 0 1 .172-.727 1.6 1.6 0 0 1 .473-.553q.3-.224.67-.286v-.042a1.33 1.33 0 0 1-.787-.495 1.43 1.43 0 0 1-.295-.9 1.44 1.44 0 0 1 .271-.865q.273-.38.749-.599.476-.22 1.088-.22.606 0 1.078.22.477.219.75.599.277.382.277.865 0 .51-.304.9-.302.387-.777.495v.042q.367.062.663.286.298.221.473.553.178.331.178.727 0 .51-.301.913a2.03 2.03 0 0 1-.829.628 3 3 0 0 1-1.208.231m0-.878q.353 0 .615-.12a.95.95 0 0 0 .405-.344.93.93 0 0 0 .148-.51.96.96 0 0 0-.157-.531 1.04 1.04 0 0 0-.415-.365 1.3 1.3 0 0 0-.596-.132 1.3 1.3 0 0 0-.602.132 1.06 1.06 0 0 0-.418.365.94.94 0 0 0-.147.531.9.9 0 0 0 .141.51q.144.218.406.341.263.123.62.123m0-2.865q.29 0 .51-.116a.89.89 0 0 0 .486-.808.9.9 0 0 0-.13-.473.83.83 0 0 0-.35-.316 1.1 1.1 0 0 0-.516-.113q-.299 0-.525.113a.84.84 0 0 0-.351.316.87.87 0 0 0-.119.473.9.9 0 0 0 .122.482.9.9 0 0 0 .354.326q.228.116.519.116m5.586 3.743q-.686 0-1.217-.231a2 2 0 0 1-.83-.628 1.48 1.48 0 0 1-.295-.913 1.5 1.5 0 0 1 .172-.727 1.6 1.6 0 0 1 .473-.553q.301-.224.67-.286v-.042a1.34 1.34 0 0 1-.787-.495 1.43 1.43 0 0 1-.295-.9 1.44 1.44 0 0 1 .271-.865q.273-.38.749-.599.477-.22 1.089-.22.605 0 1.077.22.477.219.75.599.277.382.277.865 0 .51-.304.9-.301.387-.777.495v.042q.368.062.663.286.298.221.473.553.179.331.179.727 0 .51-.302.913-.3.398-.829.628a3 3 0 0 1-1.207.231m0-.878q.352 0 .613-.12a.96.96 0 0 0 .407-.344.94.94 0 0 0 .147-.51.96.96 0 0 0-.157-.531 1.04 1.04 0 0 0-.415-.365 1.3 1.3 0 0 0-.595-.132 1.3 1.3 0 0 0-.603.132 1.06 1.06 0 0 0-.418.365.94.94 0 0 0-.147.531.9.9 0 0 0 .141.51q.144.218.406.341.264.123.621.123m0-2.865q.288 0 .509-.116a.89.89 0 0 0 .486-.808.9.9 0 0 0-.129-.473.83.83 0 0 0-.351-.316 1.1 1.1 0 0 0-.515-.113q-.3 0-.526.113a.83.83 0 0 0-.351.316.87.87 0 0 0-.119.473.9.9 0 0 0 .123.482.9.9 0 0 0 .353.326q.227.116.52.116m6.712 2.478v-.332q0-.365.153-.671.158-.308.455-.495.3-.187.722-.187.436 0 .732.187.294.183.445.491.154.307.154.675v.332q0 .365-.154.672t-.452.495q-.294.187-.725.187-.43 0-.728-.187a1.2 1.2 0 0 1-.451-.495 1.5 1.5 0 0 1-.151-.672m.802-.332v.332q0 .243.117.445.117.203.411.203.298 0 .409-.2a.9.9 0 0 0 .114-.448v-.332a.94.94 0 0 0-.108-.448q-.107-.205-.415-.205-.289 0-.408.205a.86.86 0 0 0-.12.448m-4.001-3.267v-.331q0-.368.157-.675.156-.308.455-.491.298-.188.722-.188.434 0 .728.188.299.183.449.491.15.307.15.675v.331q0 .369-.153.676-.151.305-.449.488a1.35 1.35 0 0 1-.725.185q-.434 0-.731-.185a1.2 1.2 0 0 1-.449-.491 1.5 1.5 0 0 1-.154-.673m.809-.331v.331a.9.9 0 0 0 .113.449q.117.2.412.2t.406-.2a.9.9 0 0 0 .113-.449v-.331a.95.95 0 0 0-.107-.448q-.108-.207-.412-.206-.292 0-.408.206a.9.9 0 0 0-.117.448m-.459 5.109 4.327-6.288h.768l-4.326 6.288z"/><path fill="#EDF2F6" d="M201.761 350.422c7.837 0 14.189-6.347 14.189-14.177 0-7.831-6.352-14.179-14.189-14.179s-14.189 6.348-14.189 14.179c0 7.83 6.353 14.177 14.189 14.177"/><path fill="#fff" d="M156.128 372.478H74.605c-4.48 0-8.111 3.629-8.111 8.105v37.351c0 4.477 3.631 8.106 8.111 8.106h81.523c4.48 0 8.112-3.629 8.112-8.106v-37.351c0-4.476-3.632-8.105-8.112-8.105"/><path fill="#8D8BA7" d="M114.53 390.422a.72.72 0 0 0-.337-.543q-.294-.194-.723-.194a1.4 1.4 0 0 0-.549.101.9.9 0 0 0-.364.279.68.68 0 0 0-.129.403q0 .189.09.325.093.133.235.223.142.088.3.145.157.055.288.09l.479.129q.185.048.411.133.227.086.435.233.21.145.345.373.137.228.137.56 0 .383-.201.69a1.36 1.36 0 0 1-.581.491q-.38.181-.924.181-.507.001-.878-.163a1.4 1.4 0 0 1-.58-.456 1.3 1.3 0 0 1-.238-.679h.59a.73.73 0 0 0 .18.442 1 1 0 0 0 .401.258q.244.083.525.083.328 0 .588-.106.26-.108.413-.299a.72.72 0 0 0 .152-.451.55.55 0 0 0-.132-.383 1 1 0 0 0-.346-.239 3.4 3.4 0 0 0-.463-.161l-.581-.166q-.552-.159-.875-.454-.323-.294-.323-.771 0-.397.215-.691.216-.296.58-.461a2 2 0 0 1 .818-.166q.457 0 .811.164.355.162.562.442.21.281.222.638zm3.022 0v.46h-1.834v-.46zm-1.299-.847h.544v3.371q0 .23.066.345a.35.35 0 0 0 .176.152.7.7 0 0 0 .228.037q.09 0 .147-.009l.093-.019.11.489a1.2 1.2 0 0 1-.405.064q-.231 0-.452-.099a.9.9 0 0 1-.364-.301.87.87 0 0 1-.143-.512zm3.159 4.466q-.336 0-.61-.126a1.05 1.05 0 0 1-.436-.371 1.04 1.04 0 0 1-.161-.589q0-.304.12-.493a.84.84 0 0 1 .32-.299 1.7 1.7 0 0 1 .442-.161 6 6 0 0 1 .491-.088q.322-.04.523-.062a.8.8 0 0 0 .295-.076q.095-.053.095-.185v-.018q0-.34-.187-.529-.184-.189-.56-.189-.39 0-.61.17a1 1 0 0 0-.312.364l-.516-.184q.139-.322.369-.502.232-.182.507-.253a2 2 0 0 1 .544-.074q.17 0 .391.041.225.04.431.164a.95.95 0 0 1 .348.375q.139.251.138.673v2.33h-.543v-.479h-.028a1 1 0 0 1-.184.246 1.1 1.1 0 0 1-.343.224 1.3 1.3 0 0 1-.524.091m.083-.487q.323 0 .544-.127a.848.848 0 0 0 .452-.748v-.498q-.035.042-.152.076a2 2 0 0 1-.268.057 13 13 0 0 1-.52.07 2 2 0 0 0-.397.089.7.7 0 0 0-.294.182.46.46 0 0 0-.111.327q0 .284.209.429.212.143.537.143m2.532.405v-3.537h.525v.534h.038a.84.84 0 0 1 .35-.425q.253-.164.571-.164l.15.002q.09.002.136.007v.553a2 2 0 0 0-.332-.037 1 1 0 0 0-.461.108.791.791 0 0 0-.433.721v2.238zm8.112-3.242h-.572a1.2 1.2 0 0 0-.482-.747 1.3 1.3 0 0 0-.394-.193 1.6 1.6 0 0 0-.452-.064q-.428 0-.776.216a1.5 1.5 0 0 0-.551.638q-.203.422-.203 1.034t.203 1.034q.205.421.551.638.348.216.776.217.236 0 .452-.065t.394-.191a1.2 1.2 0 0 0 .482-.749h.572a1.9 1.9 0 0 1-.236.647 1.77 1.77 0 0 1-.993.788 2.2 2.2 0 0 1-.671.103 2 2 0 0 1-1.073-.294 2 2 0 0 1-.74-.838q-.27-.544-.27-1.29t.27-1.29.74-.838a2 2 0 0 1 1.073-.295q.358 0 .671.104a1.83 1.83 0 0 1 .993.788q.17.282.236.647m2.287 3.315q-.48 0-.841-.228a1.55 1.55 0 0 1-.563-.637 2.2 2.2 0 0 1-.2-.958q0-.552.2-.965a1.55 1.55 0 0 1 .563-.64q.361-.228.841-.228.479 0 .838.228.362.228.563.64.203.413.203.965 0 .547-.203.958a1.53 1.53 0 0 1-.563.637 1.5 1.5 0 0 1-.838.228m0-.488a.94.94 0 0 0 .599-.186q.236-.186.348-.491.113-.303.113-.658 0-.354-.113-.661a1.1 1.1 0 0 0-.348-.495.93.93 0 0 0-.599-.189.92.92 0 0 0-.599.189 1.1 1.1 0 0 0-.348.495 1.9 1.9 0 0 0-.113.661q0 .355.113.658.112.305.348.491.234.186.599.186m2.434.415v-3.537h.526v.553h.045a.9.9 0 0 1 .358-.44q.246-.159.592-.159.35 0 .583.159.235.157.367.44h.036a1.03 1.03 0 0 1 .408-.435 1.24 1.24 0 0 1 .652-.164q.474 0 .777.297.301.296.301.918v2.368h-.543v-2.368q0-.39-.214-.559a.8.8 0 0 0-.505-.168q-.374 0-.579.226a.8.8 0 0 0-.205.567v2.302h-.553v-2.422a.64.64 0 0 0-.196-.487.7.7 0 0 0-.505-.186.75.75 0 0 0-.396.113.86.86 0 0 0-.295.313.9.9 0 0 0-.11.458v2.211zm5.64 1.326v-4.863h.525v.562h.065q.06-.092.166-.235a1 1 0 0 1 .308-.258q.204-.115.549-.115.447 0 .788.223.34.224.533.634.19.41.191.966 0 .563-.191.975a1.5 1.5 0 0 1-.53.636 1.4 1.4 0 0 1-.782.222q-.34 0-.546-.112a1 1 0 0 1-.316-.26 4 4 0 0 1-.17-.244h-.046v1.869zm.535-3.095q0 .401.117.708.118.304.344.477.225.17.553.169a.9.9 0 0 0 .568-.179 1.1 1.1 0 0 0 .346-.489q.118-.308.118-.686 0-.373-.115-.672a1.04 1.04 0 0 0-.344-.477.9.9 0 0 0-.573-.177.9.9 0 0 0-.559.168q-.225.166-.34.465a1.9 1.9 0 0 0-.115.693m3.963-2.947v4.716h-.543v-4.716zm2.48 4.789q-.511 0-.883-.225a1.5 1.5 0 0 1-.568-.635 2.2 2.2 0 0 1-.199-.954q0-.543.199-.958.2-.417.557-.649.359-.235.839-.235.277 0 .546.092.27.092.491.299.221.205.353.544.13.339.131.833v.231h-2.729v-.47h2.176q0-.298-.121-.535a.9.9 0 0 0-.336-.37.94.94 0 0 0-.511-.136 1 1 0 0 0-.563.161 1.1 1.1 0 0 0-.361.415q-.127.255-.127.548v.313q0 .4.139.68a1 1 0 0 0 .389.421q.249.142.578.142.214 0 .387-.06a.8.8 0 0 0 .302-.184.8.8 0 0 0 .196-.309l.526.148a1.2 1.2 0 0 1-.279.47 1.4 1.4 0 0 1-.484.313 1.8 1.8 0 0 1-.648.11m3.832-3.61v.46h-1.834v-.46zm-1.299-.847h.543v3.371q0 .23.068.345a.34.34 0 0 0 .175.152.7.7 0 0 0 .228.037q.09 0 .147-.009l.092-.019.111.489a1.3 1.3 0 0 1-.406.064q-.23 0-.452-.099a.9.9 0 0 1-.363-.301.86.86 0 0 1-.143-.512zm3.564 4.457q-.513 0-.883-.225a1.5 1.5 0 0 1-.569-.635 2.2 2.2 0 0 1-.198-.954q0-.543.198-.958a1.55 1.55 0 0 1 .558-.649q.359-.235.838-.235.277 0 .547.092.269.092.49.299.222.205.352.544.132.339.132.833v.231h-2.728v-.47h2.175q0-.298-.12-.535a.9.9 0 0 0-.848-.506 1 1 0 0 0-.562.161 1.07 1.07 0 0 0-.362.415q-.126.255-.126.548v.313q0 .4.138.68.14.275.389.421.249.142.579.142.213 0 .387-.06a.8.8 0 0 0 .301-.184.8.8 0 0 0 .196-.309l.526.148a1.16 1.16 0 0 1-.279.47 1.4 1.4 0 0 1-.484.313q-.288.11-.647.11m3.629 0q-.442 0-.781-.222a1.5 1.5 0 0 1-.53-.636 2.3 2.3 0 0 1-.192-.975q0-.556.192-.966.191-.41.532-.634.341-.223.788-.223.346 0 .547.115a.95.95 0 0 1 .309.258q.107.143.168.235h.046v-1.741h.544v4.716h-.526v-.543h-.064a4 4 0 0 1-.171.244 1 1 0 0 1-.315.26q-.206.112-.547.112m.074-.488a.9.9 0 0 0 .553-.169q.225-.173.343-.477.118-.307.118-.708a1.9 1.9 0 0 0-.115-.693 1 1 0 0 0-.341-.465.9.9 0 0 0-.558-.168.92.92 0 0 0-.576.177 1.07 1.07 0 0 0-.344.477 1.9 1.9 0 0 0-.113.672q0 .378.116.686.117.307.345.489a.9.9 0 0 0 .572.179"/><path fill="#494953" d="M114.384 401.391v6.288h-1.139V402.5h-.037l-1.472.939v-1.044l1.564-1.004zm3.924 6.408q-.759 0-1.303-.384-.54-.387-.832-1.114-.29-.731-.289-1.76.003-1.029.292-1.75.291-.724.832-1.105.544-.381 1.3-.381.757 0 1.3.381.543.38.833 1.105.292.725.292 1.75 0 1.032-.292 1.763-.29.727-.833 1.111-.541.384-1.3.384m0-.961q.59 0 .931-.58.344-.583.345-1.717 0-.749-.157-1.259t-.443-.767a.97.97 0 0 0-.676-.261q-.587 0-.927.584-.342.58-.345 1.703-.003.752.151 1.266.156.512.443.773a.97.97 0 0 0 .678.258m5.771.961q-.759 0-1.302-.384-.542-.387-.833-1.114-.29-.731-.289-1.76.003-1.029.292-1.75.292-.724.833-1.105.543-.381 1.299-.381t1.3.381.833 1.105q.291.725.291 1.75 0 1.032-.291 1.763-.289.727-.833 1.111-.541.384-1.3.384m0-.961q.59 0 .931-.58.344-.583.344-1.717 0-.749-.156-1.259-.157-.509-.443-.767a.97.97 0 0 0-.676-.261q-.587 0-.927.584-.342.58-.345 1.703-.003.752.151 1.266.156.512.442.773.285.258.679.258m6.81-.338v-.331q0-.366.153-.673.157-.308.455-.494.298-.187.722-.187.437 0 .731.187.296.184.446.491.154.306.153.676v.331q0 .365-.153.672-.154.308-.451.495a1.34 1.34 0 0 1-.726.187q-.43 0-.728-.187a1.2 1.2 0 0 1-.452-.495q-.15-.307-.15-.672m.802-.331v.331q0 .242.117.446.116.202.411.202.298 0 .409-.2a.9.9 0 0 0 .114-.448v-.331a.94.94 0 0 0-.108-.449q-.108-.206-.415-.206-.288 0-.409.206a.9.9 0 0 0-.119.449m-4.001-3.267v-.332q0-.368.157-.675.156-.308.455-.491.297-.187.722-.187.433 0 .728.187.298.183.449.491.15.307.15.675v.332q0 .369-.154.676-.15.303-.448.488a1.36 1.36 0 0 1-.725.183 1.37 1.37 0 0 1-.731-.183 1.2 1.2 0 0 1-.449-.492 1.5 1.5 0 0 1-.154-.672m.808-.332v.332q0 .246.114.448.117.2.412.2.294 0 .406-.2a.9.9 0 0 0 .113-.448v-.332a.95.95 0 0 0-.107-.448q-.108-.206-.412-.206-.292 0-.409.206a.9.9 0 0 0-.117.448m-.458 5.109 4.327-6.288h.768l-4.327 6.288z"/><path fill="#EDF2F6" d="M94.556 413.437c7.837 0 14.189-6.348 14.189-14.178s-6.352-14.178-14.189-14.178-14.189 6.347-14.189 14.178c0 7.83 6.353 14.178 14.19 14.178"/><path fill="#EDF2F6" stroke="#FF5656" d="M94.556 412.897c7.538 0 13.648-6.106 13.648-13.638s-6.11-13.638-13.648-13.638-13.648 6.106-13.648 13.638 6.11 13.638 13.648 13.638Z"/><path fill="#fff" d="M263.333 372.478H181.81c-4.48 0-8.111 3.629-8.111 8.105v37.351a8.11 8.11 0 0 0 8.111 8.106h81.523c4.48 0 8.112-3.629 8.112-8.106v-37.351c0-4.476-3.632-8.105-8.112-8.105"/><path fill="#8D8BA7" d="M217.276 390.422a.72.72 0 0 0-.337-.543q-.294-.194-.723-.194a1.4 1.4 0 0 0-.549.101.9.9 0 0 0-.364.279.67.67 0 0 0-.129.403q0 .189.09.325.092.133.235.223.142.088.3.145.156.055.288.09l.479.129q.184.048.41.133.228.086.435.233.21.145.346.373t.136.56q0 .383-.2.69a1.37 1.37 0 0 1-.581.491q-.38.181-.924.181-.507.001-.878-.163a1.4 1.4 0 0 1-.58-.456 1.3 1.3 0 0 1-.238-.679h.59a.73.73 0 0 0 .179.442q.159.173.402.258a1.6 1.6 0 0 0 .525.083q.328 0 .588-.106a1 1 0 0 0 .413-.299.7.7 0 0 0 .151-.451.56.56 0 0 0-.131-.383 1 1 0 0 0-.346-.239 3.4 3.4 0 0 0-.463-.161l-.581-.166q-.552-.159-.876-.454-.323-.294-.323-.771 0-.397.216-.691.216-.296.58-.461a2 2 0 0 1 .818-.166q.457 0 .811.164.355.162.562.442.211.281.221.638zm2.967 3.61q-.512 0-.882-.225a1.5 1.5 0 0 1-.57-.635 2.2 2.2 0 0 1-.198-.954q0-.543.198-.958.201-.417.558-.649.36-.235.839-.235.276 0 .546.092t.491.299q.221.205.352.544.132.339.131.833v.231h-2.727v-.47h2.175q0-.298-.12-.535a.9.9 0 0 0-.848-.506 1 1 0 0 0-.563.161 1.07 1.07 0 0 0-.361.415q-.127.255-.127.548v.313q0 .4.138.68.141.275.39.421.249.142.578.142.214 0 .387-.06a.8.8 0 0 0 .302-.184.8.8 0 0 0 .196-.309l.526.148a1.2 1.2 0 0 1-.279.47 1.4 1.4 0 0 1-.484.313q-.289.11-.648.11m3.335.009q-.336 0-.611-.126a1.04 1.04 0 0 1-.435-.371 1.04 1.04 0 0 1-.162-.589q0-.304.12-.493a.85.85 0 0 1 .32-.299q.202-.108.442-.161a6 6 0 0 1 .491-.088q.324-.04.523-.062a.8.8 0 0 0 .295-.076q.096-.053.096-.185v-.018q0-.34-.188-.529-.184-.189-.559-.189-.39 0-.611.17a1 1 0 0 0-.312.364l-.515-.184q.138-.322.368-.502.233-.182.507-.253a2 2 0 0 1 .544-.074q.171 0 .392.041.223.04.431.164.21.125.348.375.138.251.138.673v2.33h-.543v-.479h-.029a1 1 0 0 1-.183.246 1.1 1.1 0 0 1-.344.224 1.3 1.3 0 0 1-.523.091m.083-.487q.322 0 .543-.127a.85.85 0 0 0 .453-.748v-.498q-.035.042-.153.076a2 2 0 0 1-.267.057 13 13 0 0 1-.521.07 2 2 0 0 0-.397.089.7.7 0 0 0-.294.182.46.46 0 0 0-.111.327q0 .284.21.429.211.143.537.143m2.532.405v-3.537h.524v.534h.038a.84.84 0 0 1 .35-.425q.253-.164.572-.164l.15.002q.089.002.136.007v.553a2 2 0 0 0-.332-.037.96.96 0 0 0-.461.108.79.79 0 0 0-.433.721v2.238zm3.744.073q-.498 0-.857-.234a1.53 1.53 0 0 1-.553-.647 2.2 2.2 0 0 1-.193-.942q0-.54.197-.951.201-.414.558-.647.36-.235.839-.235.373 0 .673.138t.491.387.237.58h-.543a.84.84 0 0 0-.278-.428q-.211-.189-.571-.189a.95.95 0 0 0-.557.166 1.1 1.1 0 0 0-.372.463 1.7 1.7 0 0 0-.131.697q0 .411.129.714.132.304.369.472a.95.95 0 0 0 .562.168q.212 0 .385-.073a.8.8 0 0 0 .292-.212.8.8 0 0 0 .172-.331h.543a1.25 1.25 0 0 1-.706.96 1.54 1.54 0 0 1-.686.144m2.731-2.201v2.128h-.544v-4.716h.544v1.732h.046a1 1 0 0 1 .373-.435q.251-.164.669-.164.361 0 .634.145.27.143.421.44.153.294.152.75v2.248h-.544v-2.211q0-.422-.218-.651-.218-.234-.602-.233-.268 0-.479.113a.8.8 0 0 0-.332.33q-.12.216-.12.524m5.383 2.128h-.6l1.733-4.716h.59l1.733 4.716h-.599l-1.41-3.97h-.037zm.221-1.842h2.415v.506h-2.415zm3.897 3.168v-4.863h.524v.562h.065q.061-.092.167-.235a1 1 0 0 1 .308-.258q.203-.115.549-.115.447 0 .787.223.342.224.533.634t.191.966q0 .563-.191.975a1.5 1.5 0 0 1-.53.636 1.4 1.4 0 0 1-.781.222q-.342 0-.546-.112a1 1 0 0 1-.316-.26 4 4 0 0 1-.171-.244h-.045v1.869zm.534-3.095q0 .401.117.708.118.304.344.477.226.17.553.169.342 0 .569-.179a1.1 1.1 0 0 0 .346-.489q.117-.308.117-.686 0-.373-.115-.672a1.04 1.04 0 0 0-.343-.477.9.9 0 0 0-.574-.177.9.9 0 0 0-.558.168q-.226.166-.34.465a1.9 1.9 0 0 0-.116.693m3.42 3.095v-4.863h.525v.562h.065q.059-.092.166-.235a1 1 0 0 1 .308-.258q.203-.115.549-.115.446 0 .788.223.341.224.532.634.192.41.192.966 0 .563-.192.975a1.5 1.5 0 0 1-.529.636 1.4 1.4 0 0 1-.782.222q-.34 0-.546-.112a1 1 0 0 1-.315-.26 3 3 0 0 1-.171-.244h-.046v1.869zm.534-3.095q0 .401.118.708.117.304.343.477a.9.9 0 0 0 .554.169q.34 0 .569-.179a1.1 1.1 0 0 0 .345-.489q.118-.308.118-.686 0-.373-.115-.672a1.05 1.05 0 0 0-.344-.477.9.9 0 0 0-.573-.177.9.9 0 0 0-.558.168 1 1 0 0 0-.341.465 1.9 1.9 0 0 0-.116.693m4.904 1.842q-.512 0-.882-.225a1.5 1.5 0 0 1-.569-.635 2.16 2.16 0 0 1-.199-.954q0-.543.199-.958.2-.417.557-.649.36-.235.839-.235.276 0 .546.092t.491.299q.22.205.353.544.13.339.131.833v.231h-2.729v-.47h2.176q0-.298-.12-.535a.9.9 0 0 0-.848-.506 1 1 0 0 0-.563.161 1.07 1.07 0 0 0-.361.415q-.127.255-.127.548v.313q0 .4.138.68.141.275.39.421.25.142.578.142.215 0 .387-.06a.8.8 0 0 0 .302-.184.8.8 0 0 0 .196-.309l.526.148a1.2 1.2 0 0 1-.279.47 1.4 1.4 0 0 1-.484.313 1.8 1.8 0 0 1-.648.11m3.335.009q-.336 0-.611-.126a1.05 1.05 0 0 1-.436-.371 1.05 1.05 0 0 1-.161-.589q0-.304.12-.493a.85.85 0 0 1 .32-.299 1.7 1.7 0 0 1 .443-.161q.244-.055.49-.088.323-.04.524-.062a.8.8 0 0 0 .295-.076q.094-.053.094-.185v-.018q0-.34-.186-.529-.185-.189-.56-.189-.39 0-.611.17a1 1 0 0 0-.312.364l-.515-.184q.138-.322.368-.502a1.4 1.4 0 0 1 .507-.253 2 2 0 0 1 .544-.074q.171 0 .392.041.224.04.431.164.21.125.348.375.138.251.138.673v2.33h-.544v-.479h-.027a1 1 0 0 1-.184.246 1.1 1.1 0 0 1-.344.224 1.3 1.3 0 0 1-.523.091m.083-.487q.322 0 .543-.127a.85.85 0 0 0 .452-.748v-.498q-.035.042-.152.076a2 2 0 0 1-.267.057 13 13 0 0 1-.521.07 2 2 0 0 0-.397.089.7.7 0 0 0-.294.182.46.46 0 0 0-.111.327q0 .284.21.429.212.143.537.143m2.532.405v-3.537h.525v.534h.037a.84.84 0 0 1 .35-.425q.254-.164.572-.164l.15.002q.089.002.136.007v.553a2 2 0 0 0-.332-.037.97.97 0 0 0-.461.108.79.79 0 0 0-.433.721v2.238z"/><path fill="#494953" d="M214.502 406.513v-.906l2.67-4.216h.756v1.29h-.461l-1.797 2.846v.049h3.727v.937zm3.002 1.166v-1.443l.013-.405v-4.44h1.075v6.288zm5.179.086a2.7 2.7 0 0 1-.882-.157 2.1 2.1 0 0 1-.774-.506q-.344-.353-.547-.936-.203-.587-.2-1.453 0-.807.172-1.44.173-.632.495-1.068.322-.44.777-.67.458-.23 1.024-.23.593 0 1.05.233.461.234.744.639.283.403.35.909h-1.122a1 1 0 0 0-.353-.577q-.264-.218-.669-.218-.656 0-1.008.568-.35.567-.354 1.56h.043q.152-.271.39-.464.24-.194.541-.298.304-.108.643-.107a1.89 1.89 0 0 1 1.692.991q.259.461.256 1.057a2.16 2.16 0 0 1-.284 1.114q-.285.491-.795.774-.51.282-1.189.279m-.006-.921q.334 0 .599-.163a1.2 1.2 0 0 0 .418-.438q.153-.278.15-.621a1.2 1.2 0 0 0-.147-.611 1.11 1.11 0 0 0-1.005-.592 1.13 1.13 0 0 0-.838.359q-.16.165-.252.386-.09.22-.093.467.004.329.154.605t.415.442q.263.165.599.166m3.739.903a.66.66 0 0 1-.479-.197.64.64 0 0 1-.197-.478.63.63 0 0 1 .197-.473.66.66 0 0 1 .479-.197q.27 0 .47.197a.644.644 0 0 1 .107.813.7.7 0 0 1-.245.246.64.64 0 0 1-.332.089m3.594-6.356v6.288h-1.14V402.5h-.037l-1.471.939v-1.044l1.564-1.004zm4.157 0v6.288h-1.139V402.5h-.037l-1.472.939v-1.044l1.564-1.004zm4.963 5.109v-.331q0-.366.153-.673.156-.308.455-.494.297-.187.722-.187.437 0 .731.187.295.184.446.491.153.306.153.676v.331q0 .365-.153.672-.154.308-.452.495a1.34 1.34 0 0 1-.725.187q-.43 0-.728-.187a1.2 1.2 0 0 1-.452-.495q-.15-.307-.15-.672m.801-.331v.331q0 .242.117.446.117.202.412.202.298 0 .409-.2a.9.9 0 0 0 .113-.448v-.331a.95.95 0 0 0-.107-.449q-.109-.206-.415-.206-.29 0-.409.206a.9.9 0 0 0-.12.449m-4-3.267v-.332q0-.368.157-.675.156-.308.454-.491.298-.187.722-.187.433 0 .729.187.298.183.448.491.151.307.151.675v.332q0 .369-.153.676a1.2 1.2 0 0 1-.449.488 1.36 1.36 0 0 1-.726.183q-.433 0-.731-.183a1.2 1.2 0 0 1-.449-.492 1.5 1.5 0 0 1-.153-.672m.808-.332v.332q0 .246.114.448.116.2.411.2t.406-.2a.9.9 0 0 0 .114-.448v-.332a.94.94 0 0 0-.108-.448q-.108-.206-.412-.206-.291 0-.409.206a.9.9 0 0 0-.116.448m-.458 5.109 4.326-6.288h.768l-4.326 6.288z"/><path fill="#EDF2F6" d="M197.347 413.437c7.836 0 14.189-6.348 14.189-14.178s-6.353-14.178-14.189-14.178-14.189 6.347-14.189 14.178c0 7.83 6.353 14.178 14.189 14.178"/><path stroke="#615EFC" stroke-linecap="round" stroke-linejoin="round" d="m86.908 336.951 5.678-6.079-1.217 4.458h4.461l-5.678 6.079 1.217-4.458zM196.819 334.352c0-.467.504-.76.91-.528l3.844 2.194a.61.61 0 0 1 .307.528.61.61 0 0 1-.307.528l-3.844 2.194a.6.6 0 0 1-.607-.002.6.6 0 0 1-.303-.526zm5.273 0c0-.467.504-.76.909-.528l3.844 2.194a.613.613 0 0 1 .225.833.6.6 0 0 1-.225.223l-3.844 2.194a.613.613 0 0 1-.829-.225.6.6 0 0 1-.08-.303z"/><path stroke="#FF5656" stroke-linecap="round" d="M201.449 322.092c2.885 0 5.568.859 7.807 2.336"/><path fill="#615EFC" stroke="#615EFC" stroke-linecap="round" stroke-linejoin="round" d="M94.332 394.769a.304.304 0 0 1 .563 0l1.149 2.762a.31.31 0 0 0 .257.187l2.984.238c.27.022.379.359.173.534l-2.273 1.946a.3.3 0 0 0-.099.301l.695 2.91a.302.302 0 0 1-.283.374.3.3 0 0 1-.17-.044l-2.556-1.559a.3.3 0 0 0-.317 0l-2.555 1.559a.302.302 0 0 1-.444-.153.3.3 0 0 1-.01-.176l.695-2.911a.3.3 0 0 0-.099-.301l-2.273-1.946a.3.3 0 0 1-.092-.325.3.3 0 0 1 .101-.144.3.3 0 0 1 .164-.065l2.984-.238a.31.31 0 0 0 .257-.187z"/><path stroke="#615EFC" stroke-linecap="round" stroke-linejoin="round" d="M197.36 398.147v3.647m0 0-1.623-1.621m1.623 1.621 1.622-1.621m-4.462 3.242a2.434 2.434 0 0 1-.762-4.742 2.835 2.835 0 0 1 2.156-3.309 2.84 2.84 0 0 1 2.105.341c.63.384 1.086.996 1.273 1.709a1.63 1.63 0 0 1 1.662.409 1.63 1.63 0 0 1 .37 1.671 2.03 2.03 0 0 1 1.272 2.26 2.03 2.03 0 0 1-1.992 1.661z"/><path stroke="#FF5656" stroke-linecap="round" d="M197.123 385.313c7.837 0 14.19 6.348 14.19 14.178 0 4.214-1.84 7.998-4.761 10.595"/></g></g></g><path fill="#030303" d="M192.494 30.458h-47.59a9.338 9.338 0 1 0 0 18.675h47.59a9.337 9.337 0 0 0 9.337-9.338 9.337 9.337 0 0 0-9.337-9.337"/><path fill="#0E0B0F" d="M191.964 45.663a5.795 5.795 0 1 0 0-11.59 5.795 5.795 0 0 0 0 11.59"/><path fill="#161424" d="M191.964 43.087a3.22 3.22 0 1 0 0-6.438 3.22 3.22 0 0 0 0 6.438"/><path fill="#0F0F2A" d="M191.964 41.8a1.932 1.932 0 1 0 0-3.864 1.932 1.932 0 0 0 0 3.863"/><path fill="#393752" d="M191.964 39.867a.644.644 0 1 0 0-1.288.644.644 0 0 0 0 1.288"/><path stroke="#0D0D0E" stroke-width="1.055" d="M246.728 38.29c0-1.156.936-2.093 2.091-2.093h10.241c1.156 0 2.092.937 2.092 2.092v3.012a2.09 2.09 0 0 1-2.092 2.092h-10.241a2.09 2.09 0 0 1-2.091-2.092z" opacity=".35"/><path fill="#0D0D0E" d="M262.072 38.892v2.542a1.379 1.379 0 0 0 0-2.542" opacity=".4"/><path fill="#0D0D0E" d="M247.614 38.289c0-.665.54-1.205 1.205-1.205h10.241c.666 0 1.205.54 1.205 1.205v3.012c0 .666-.539 1.205-1.205 1.205h-10.241c-.665 0-1.205-.54-1.205-1.205z"/><path fill="#0D0D0E" fill-rule="evenodd" d="M237.675 37.438c1.486 0 2.915.583 3.992 1.628.081.08.211.08.29-.002l.776-.798a.22.22 0 0 0 .062-.157.22.22 0 0 0-.064-.156 7.2 7.2 0 0 0-10.112 0 .23.23 0 0 0-.065.156c0 .058.023.115.063.157l.775.798c.08.082.21.083.291.002a5.73 5.73 0 0 1 3.992-1.628m.021 2.461c.817 0 1.604.31 2.209.87.082.078.211.077.291-.005l.774-.798a.225.225 0 0 0-.003-.314 4.73 4.73 0 0 0-6.54 0 .23.23 0 0 0-.066.156c0 .06.023.116.064.158l.774.798a.204.204 0 0 0 .29.004 3.25 3.25 0 0 1 2.207-.869m1.575 1.609a.22.22 0 0 1-.063.157l-1.339 1.38a.207.207 0 0 1-.298 0l-1.339-1.38a.21.21 0 0 1-.063-.157.22.22 0 0 1 .069-.155 2.26 2.26 0 0 1 2.964 0c.043.04.068.096.069.155" clip-rule="evenodd"/><path fill="#0D0D0E" d="M223.518 37.687c0-.333.27-.603.602-.603h.603c.332 0 .602.27.602.603v4.819c0 .333-.27.602-.602.602h-.603a.603.603 0 0 1-.602-.602zM226.53 36.482c0-.333.27-.602.603-.602h.602c.332 0 .602.27.602.602v6.024c0 .333-.27.603-.602.603h-.602a.603.603 0 0 1-.603-.603zM220.506 39.795c0-.332.27-.602.602-.602h.603c.332 0 .602.27.602.602v2.711c0 .333-.27.602-.602.602h-.603a.603.603 0 0 1-.602-.602zM217.494 41.301c0-.333.27-.602.602-.602h.603c.332 0 .602.27.602.602v1.205c0 .333-.27.602-.602.602h-.603a.603.603 0 0 1-.602-.602zM90.365 36.315c1.54 0 2.88 1.095 2.88 3.696v.01c0 2.43-1.094 3.87-2.91 3.87-1.325 0-2.315-.785-2.545-1.89l-.01-.055h1.27l.015.05c.19.505.635.835 1.27.835 1.146 0 1.63-1.12 1.686-2.5 0-.055.005-.11.005-.166h-.1c-.266.57-.895 1.076-1.886 1.076-1.385 0-2.355-1.01-2.355-2.38v-.01c0-1.466 1.115-2.536 2.68-2.536m-.005 3.936c.816 0 1.44-.59 1.44-1.406v-.01c0-.825-.624-1.47-1.425-1.47-.795 0-1.43.635-1.43 1.44v.01c0 .836.595 1.436 1.415 1.436m4.674-1.215a.78.78 0 0 1-.795-.79c0-.446.34-.79.795-.79.46 0 .795.344.795.79 0 .44-.335.79-.795.79m0 3.71a.777.777 0 0 1-.795-.79c0-.445.34-.79.795-.79.46 0 .795.345.795.79s-.335.79-.795.79m5.289.965v-1.385h-3.53V41.27a96 96 0 0 1 2.94-4.776h1.825v4.766h.97v1.065h-.97v1.385zm-2.33-2.42h2.35v-3.766h-.075a74 74 0 0 0-2.276 3.69zm7.043 2.42v-5.946h-.085l-1.795 1.27V37.82l1.885-1.325h1.286v7.216z"/></g><defs><filter id="g" width="2.602" height="13.446" x="291.795" y="164.398" color-interpolation-filters="sRGB" filterUnits="userSpaceOnUse"><feFlood flood-opacity="0" result="BackgroundImageFix"/><feBlend in="SourceGraphic" in2="BackgroundImageFix" result="shape"/><feGaussianBlur result="effect1_foregroundBlur_171_1578" stdDeviation=".5"/></filter><filter id="h" width="2.602" height="56.819" x="291.795" y="164.398" color-interpolation-filters="sRGB" filterUnits="userSpaceOnUse"><feFlood flood-opacity="0" result="BackgroundImageFix"/><feBlend in="SourceGraphic" in2="BackgroundImageFix" result="shape"/><feGaussianBlur result="effect1_foregroundBlur_171_1578" stdDeviation=".5"/></filter><filter id="i" width="4.602" height="61.229" x="291.398" y="162.193" color-interpolation-filters="sRGB" filterUnits="userSpaceOnUse"><feFlood flood-opacity="0" result="BackgroundImageFix"/><feBlend in="SourceGraphic" in2="BackgroundImageFix" result="shape"/><feGaussianBlur result="effect1_foregroundBlur_171_1578" stdDeviation="1"/></filter><filter id="n" width="2.602" height="5.614" x="43.602" y="105.362" color-interpolation-filters="sRGB" filterUnits="userSpaceOnUse"><feFlood flood-opacity="0" result="BackgroundImageFix"/><feBlend in="SourceGraphic" in2="BackgroundImageFix" result="shape"/><feGaussianBlur result="effect1_foregroundBlur_171_1578" stdDeviation=".5"/></filter><filter id="o" width="2.602" height="17.663" x="43.602" y="106.566" color-interpolation-filters="sRGB" filterUnits="userSpaceOnUse"><feFlood flood-opacity="0" result="BackgroundImageFix"/><feBlend in="SourceGraphic" in2="BackgroundImageFix" result="shape"/><feGaussianBlur result="effect1_foregroundBlur_171_1578" stdDeviation=".5"/></filter><filter id="p" width="4.602" height="24.482" x="42" y="103.157" color-interpolation-filters="sRGB" filterUnits="userSpaceOnUse"><feFlood flood-opacity="0" result="BackgroundImageFix"/><feBlend in="SourceGraphic" in2="BackgroundImageFix" result="shape"/><feGaussianBlur result="effect1_foregroundBlur_171_1578" stdDeviation="1"/></filter><filter id="u" width="2.602" height="8.626" x="43.602" y="142.108" color-interpolation-filters="sRGB" filterUnits="userSpaceOnUse"><feFlood flood-opacity="0" result="BackgroundImageFix"/><feBlend in="SourceGraphic" in2="BackgroundImageFix" result="shape"/><feGaussianBlur result="effect1_foregroundBlur_171_1578" stdDeviation=".5"/></filter><filter id="v" width="2.602" height="33.325" x="43.602" y="142.711" color-interpolation-filters="sRGB" filterUnits="userSpaceOnUse"><feFlood flood-opacity="0" result="BackgroundImageFix"/><feBlend in="SourceGraphic" in2="BackgroundImageFix" result="shape"/><feGaussianBlur result="effect1_foregroundBlur_171_1578" stdDeviation=".5"/></filter><filter id="w" width="4.602" height="38.94" x="42" y="139.904" color-interpolation-filters="sRGB" filterUnits="userSpaceOnUse"><feFlood flood-opacity="0" result="BackgroundImageFix"/><feBlend in="SourceGraphic" in2="BackgroundImageFix" result="shape"/><feGaussianBlur result="effect1_foregroundBlur_171_1578" stdDeviation="1"/></filter><filter id="B" width="2.602" height="8.626" x="43.602" y="186.084" color-interpolation-filters="sRGB" filterUnits="userSpaceOnUse"><feFlood flood-opacity="0" result="BackgroundImageFix"/><feBlend in="SourceGraphic" in2="BackgroundImageFix" result="shape"/><feGaussianBlur result="effect1_foregroundBlur_171_1578" stdDeviation=".5"/></filter><filter id="C" width="2.602" height="33.325" x="43.602" y="186.687" color-interpolation-filters="sRGB" filterUnits="userSpaceOnUse"><feFlood flood-opacity="0" result="BackgroundImageFix"/><feBlend in="SourceGraphic" in2="BackgroundImageFix" result="shape"/><feGaussianBlur result="effect1_foregroundBlur_171_1578" stdDeviation=".5"/></filter><filter id="D" width="4.602" height="38.94" x="42" y="183.879" color-interpolation-filters="sRGB" filterUnits="userSpaceOnUse"><feFlood flood-opacity="0" result="BackgroundImageFix"/><feBlend in="SourceGraphic" in2="BackgroundImageFix" result="shape"/><feGaussianBlur result="effect1_foregroundBlur_171_1578" stdDeviation="1"/></filter><filter id="F" width="255.578" height="517.024" x="41.211" y="11.404" color-interpolation-filters="sRGB" filterUnits="userSpaceOnUse"><feFlood flood-opacity="0" result="BackgroundImageFix"/><feBlend in="SourceGraphic" in2="BackgroundImageFix" result="shape"/><feGaussianBlur result="effect1_foregroundBlur_171_1578" stdDeviation="2"/></filter><filter id="G" width="250.783" height="512.229" x="43.608" y="13.801" color-interpolation-filters="sRGB" filterUnits="userSpaceOnUse"><feFlood flood-opacity="0" result="BackgroundImageFix"/><feBlend in="SourceGraphic" in2="BackgroundImageFix" result="shape"/><feGaussianBlur result="effect1_foregroundBlur_171_1578" stdDeviation="1"/></filter><filter id="H" width="244.759" height="505.602" x="46.62" y="16.813" color-interpolation-filters="sRGB" filterUnits="userSpaceOnUse"><feFlood flood-opacity="0" result="BackgroundImageFix"/><feBlend in="SourceGraphic" in2="BackgroundImageFix" result="shape"/><feGaussianBlur result="effect1_foregroundBlur_171_1578" stdDeviation="1"/></filter><filter id="L" width="257.157" height="518.602" x="40.422" y="10.614" color-interpolation-filters="sRGB" filterUnits="userSpaceOnUse"><feFlood flood-opacity="0" result="BackgroundImageFix"/><feBlend in="SourceGraphic" in2="BackgroundImageFix" result="shape"/><feGaussianBlur result="effect1_foregroundBlur_171_1578" stdDeviation="3.5"/></filter><linearGradient id="d" x1="292.494" x2="292.494" y1="223.831" y2="221.121" gradientUnits="userSpaceOnUse"><stop/><stop offset="1" stop-opacity="0"/></linearGradient><linearGradient id="e" x1="290.988" x2="293.096" y1="223.831" y2="223.831" gradientUnits="userSpaceOnUse"><stop/><stop offset="1" stop-color="#AEAEAE" stop-opacity="0"/></linearGradient><linearGradient id="f" x1="292.494" x2="292.494" y1="166.904" y2="164.193" gradientUnits="userSpaceOnUse"><stop stop-opacity="0"/><stop offset="1"/></linearGradient><linearGradient id="k" x1="45.506" x2="45.506" y1="105.759" y2="107.566" gradientUnits="userSpaceOnUse"><stop/><stop offset="1" stop-opacity="0"/></linearGradient><linearGradient id="l" x1="47.012" x2="44.904" y1="105.759" y2="105.759" gradientUnits="userSpaceOnUse"><stop/><stop offset="1" stop-color="#AEAEAE" stop-opacity="0"/></linearGradient><linearGradient id="m" x1="45.506" x2="45.506" y1="121.239" y2="124.434" gradientUnits="userSpaceOnUse"><stop stop-opacity="0"/><stop offset="1"/></linearGradient><linearGradient id="r" x1="45.506" x2="45.506" y1="141.904" y2="144.313" gradientUnits="userSpaceOnUse"><stop/><stop offset="1" stop-opacity="0"/></linearGradient><linearGradient id="s" x1="47.012" x2="44.904" y1="141.904" y2="141.904" gradientUnits="userSpaceOnUse"><stop/><stop offset="1" stop-color="#AEAEAE" stop-opacity="0"/></linearGradient><linearGradient id="t" x1="45.506" x2="45.506" y1="173.229" y2="175.639" gradientUnits="userSpaceOnUse"><stop stop-opacity="0"/><stop offset="1"/></linearGradient><linearGradient id="y" x1="45.506" x2="45.506" y1="185.879" y2="188.289" gradientUnits="userSpaceOnUse"><stop/><stop offset="1" stop-opacity="0"/></linearGradient><linearGradient id="z" x1="47.012" x2="44.904" y1="185.879" y2="185.879" gradientUnits="userSpaceOnUse"><stop/><stop offset="1" stop-color="#AEAEAE" stop-opacity="0"/></linearGradient><linearGradient id="A" x1="45.506" x2="45.506" y1="217.205" y2="219.614" gradientUnits="userSpaceOnUse"><stop stop-opacity="0"/><stop offset="1"/></linearGradient><linearGradient id="I" x1="239.181" x2="239.181" y1="16" y2="18.41" gradientUnits="userSpaceOnUse"><stop stop-color="#817E73"/><stop offset="1" stop-color="#C3BEAC"/></linearGradient><linearGradient id="J" x1="45.807" x2="48.217" y1="66.602" y2="66.602" gradientUnits="userSpaceOnUse"><stop stop-color="#817E73"/><stop offset="1" stop-color="#C3BEAC"/></linearGradient><radialGradient id="M" cx="0" cy="0" r="1" gradientTransform="matrix(0 206.053 -230.809 0 169.304 134.466)" gradientUnits="userSpaceOnUse"><stop stop-color="#879194"/><stop offset="1"/></radialGradient><clipPath id="b"><path fill="#fff" d="M44 16h250v507.831H44z"/></clipPath></defs></svg>