<svg xmlns="http://www.w3.org/2000/svg" width="239" height="113" fill="none"><g filter="url(#a)"><rect width="179" height="53" x="29" y="29" fill="#fff" rx="26.5"/></g><circle cx="55.5" cy="55.5" r="17.5" fill="#EDF2F6"/><path stroke="#FF5656" stroke-linecap="round" stroke-linejoin="round" stroke-width="2" d="M60.637 59.228a2.75 2.75 0 0 1 4.292 2.493 8.3 8.3 0 0 1-3.429.439 5.495 5.495 0 0 0-5.5-5.472 5.5 5.5 0 0 0-4.636 2.54m10.135 2.931.001.029q0 .31-.034.61A10.95 10.95 0 0 1 56 64.25c-1.99 0-3.856-.528-5.466-1.452a6 6 0 0 1-.034-.639m0 0a8.2 8.2 0 0 1-3.427-.437 2.75 2.75 0 0 1 4.29-2.494M50.5 62.16a5.48 5.48 0 0 1 .864-2.93m7.386-8.041a2.75 2.75 0 1 1-5.5 0 2.75 2.75 0 0 1 5.5 0m5.5 2.75a2.063 2.063 0 1 1-4.126 0 2.063 2.063 0 0 1 4.126 0m-12.375 0a2.063 2.063 0 1 1-4.126 0 2.063 2.063 0 0 1 4.126 0"/><path fill="#494953" d="M86.915 55.872h3.516v1.565h-3.516v3.55h-1.564v-3.55h-3.507v-1.565h3.507v-3.586h1.564zM98.415 63h-2.074v-8.27q0-.413.009-.827l.018-.808q.017-.396.044-.756a6 6 0 0 1-.458.44 28 28 0 0 1-.562.491l-1.477 1.178-1.037-1.31 3.815-2.988h1.722zm7.212-2.092.123.202q-.158.633-.404 1.363-.247.729-.537 1.459-.29.738-.588 1.388h-1.512q.184-.711.351-1.494.176-.773.317-1.53.15-.764.237-1.388zm11.087-4.342q0 1.556-.246 2.786-.237 1.222-.756 2.075a3.5 3.5 0 0 1-1.353 1.3q-.835.45-2.022.449-1.485 0-2.452-.782-.966-.792-1.433-2.268-.465-1.485-.465-3.56 0-2.074.421-3.55.431-1.486 1.389-2.277.958-.79 2.54-.79 1.495 0 2.461.79.976.783 1.442 2.268.474 1.475.474 3.56m-6.644 0q0 1.627.211 2.716.219 1.09.72 1.635.501.536 1.336.536t1.336-.536q.5-.536.721-1.626.228-1.09.228-2.725 0-1.617-.219-2.707-.22-1.09-.721-1.634-.5-.555-1.345-.554-.843 0-1.345.554-.492.545-.711 1.634-.211 1.091-.211 2.707m17.178 0q0 1.556-.246 2.786-.239 1.222-.756 2.075a3.5 3.5 0 0 1-1.354 1.3q-.834.45-2.021.449-1.485 0-2.452-.782-.967-.792-1.433-2.268-.466-1.485-.466-3.56 0-2.074.422-3.55.43-1.486 1.389-2.277.957-.79 2.54-.79 1.494 0 2.461.79.976.783 1.441 2.268.475 1.475.475 3.56m-6.645 0q0 1.627.211 2.716.22 1.09.721 1.635.5.536 1.336.536.834 0 1.336-.536.501-.536.72-1.626.23-1.09.229-2.725 0-1.617-.22-2.707-.219-1.09-.72-1.634-.502-.555-1.345-.554-.844 0-1.345.554-.492.545-.712 1.634-.21 1.091-.211 2.707m17.178 0q0 1.556-.246 2.786-.237 1.222-.756 2.075a3.5 3.5 0 0 1-1.353 1.3q-.835.45-2.022.449-1.485 0-2.452-.782-.967-.792-1.432-2.268-.466-1.485-.466-3.56 0-2.074.422-3.55.43-1.486 1.388-2.277.959-.79 2.54-.79 1.495 0 2.461.79.976.783 1.442 2.268.474 1.475.474 3.56m-6.644 0q0 1.627.211 2.716.219 1.09.72 1.635.501.536 1.336.536t1.336-.536.721-1.626q.228-1.09.229-2.725 0-1.617-.22-2.707t-.721-1.634q-.5-.555-1.345-.554-.843 0-1.344.554-.493.545-.712 1.634-.211 1.091-.211 2.707m22.535-3.296V63h-1.626l-.281-1.31h-.115a2.8 2.8 0 0 1-.782.835 3.5 3.5 0 0 1-1.055.484 4.4 4.4 0 0 1-1.221.167q-1.1 0-1.881-.37a2.6 2.6 0 0 1-1.187-1.16q-.413-.782-.413-2.021V53.27h2.075v5.968q0 1.134.457 1.697.465.562 1.441.562.94 0 1.494-.387.554-.386.782-1.142.238-.756.238-1.855V53.27zm9.734 6.953q0 .957-.466 1.617t-1.362 1.002q-.888.334-2.18.334-1.02 0-1.758-.15a6 6 0 0 1-1.38-.44v-1.783q.695.325 1.556.562.87.237 1.643.237 1.02 0 1.468-.316.448-.325.448-.861a.9.9 0 0 0-.184-.563q-.176-.255-.668-.518-.483-.273-1.424-.65a12 12 0 0 1-1.556-.739q-.633-.369-.958-.888-.325-.527-.325-1.344 0-1.293 1.02-1.96 1.028-.677 2.715-.677.897 0 1.688.184a8 8 0 0 1 1.564.52l-.65 1.555a10 10 0 0 0-1.327-.475 4.8 4.8 0 0 0-1.345-.193q-.8 0-1.221.246-.414.246-.414.703 0 .343.203.58.202.237.694.475.501.237 1.389.589.87.334 1.503.703.64.36.984.887.343.528.343 1.363m6.341-7.137q1.3 0 2.232.536a3.6 3.6 0 0 1 1.433 1.52q.501.985.501 2.356v1.108h-6.495q.035 1.415.756 2.18.73.764 2.039.764.931 0 1.67-.176a9.3 9.3 0 0 0 1.538-.536v1.679a6.7 6.7 0 0 1-1.486.5q-.756.159-1.81.159-1.433 0-2.523-.554a4.05 4.05 0 0 1-1.696-1.67q-.606-1.107-.606-2.75 0-1.636.553-2.778.554-1.143 1.556-1.74 1.002-.598 2.338-.598m0 1.556q-.976 0-1.582.632-.598.633-.703 1.855h4.429a3.4 3.4 0 0 0-.246-1.292 1.87 1.87 0 0 0-.703-.879q-.466-.316-1.195-.316m11.659-1.556a6 6 0 0 1 1.037.097l-.194 1.933a2.6 2.6 0 0 0-.457-.079 5 5 0 0 0-.474-.026q-.554 0-1.055.184-.501.177-.888.545-.387.36-.606.905-.22.546-.22 1.266V63h-2.074v-9.73h1.617l.281 1.714h.097q.29-.518.721-.949.43-.43.984-.685a2.9 2.9 0 0 1 1.231-.264m9.61 7.137q0 .957-.466 1.617-.465.66-1.362 1.002-.888.334-2.18.334-1.019 0-1.757-.15a6 6 0 0 1-1.38-.44v-1.783q.694.325 1.555.562a6.3 6.3 0 0 0 1.644.237q1.02 0 1.468-.316.448-.325.448-.861a.9.9 0 0 0-.185-.563q-.175-.255-.668-.518-.483-.273-1.423-.65a12 12 0 0 1-1.556-.739q-.633-.369-.958-.888-.325-.527-.325-1.344 0-1.293 1.019-1.96 1.029-.677 2.716-.677.897 0 1.688.184.8.176 1.564.52l-.65 1.555a10 10 0 0 0-1.327-.475 4.8 4.8 0 0 0-1.345-.193q-.8 0-1.222.246-.413.246-.413.703 0 .343.202.58t.695.475q.5.237 1.388.589.87.334 1.503.703.642.36.985.887.342.528.342 1.363"/><defs><filter id="a" width="239" height="113" x="0" y="0" color-interpolation-filters="sRGB" filterUnits="userSpaceOnUse"><feFlood flood-opacity="0" result="BackgroundImageFix"/><feColorMatrix in="SourceAlpha" result="hardAlpha" values="0 0 0 0 0 0 0 0 0 0 0 0 0 0 0 0 0 0 127 0"/><feOffset dx="1" dy="1"/><feGaussianBlur stdDeviation="15"/><feComposite in2="hardAlpha" operator="out"/><feColorMatrix values="0 0 0 0 0 0 0 0 0 0 0 0 0 0 0 0 0 0 0.15 0"/><feBlend in2="BackgroundImageFix" result="effect1_dropShadow_27_395"/><feBlend in="SourceGraphic" in2="effect1_dropShadow_27_395" result="shape"/></filter></defs></svg>