<svg width="212" height="113" viewBox="0 0 212 113" fill="none" xmlns="http://www.w3.org/2000/svg">
<g filter="url(#filter0_d_173_137)">
<rect x="29" y="29" width="152" height="53" rx="26.5" fill="white"/>
</g>
<path d="M67.192 59.66C67.312 59.66 67.372 59.72 67.372 59.84V61.82C67.372 61.94 67.312 62 67.192 62H66.4C66.016 62 65.662 61.934 65.338 61.802C65.302 62.666 65.146 63.386 64.87 63.962C64.594 64.538 64.162 65.054 63.574 65.51C62.998 65.966 62.176 66.452 61.108 66.968L60.28 65.114C61.144 64.622 61.756 64.232 62.116 63.944C62.488 63.656 62.746 63.326 62.89 62.954C63.046 62.582 63.124 62.06 63.124 61.388V55.574H65.338V58.598C65.338 58.898 65.44 59.15 65.644 59.354C65.848 59.558 66.1 59.66 66.4 59.66H67.192ZM67.4203 62C67.3003 62 67.2403 61.94 67.2403 61.82V59.84C67.2403 59.72 67.3003 59.66 67.4203 59.66H68.3563C68.6443 59.66 68.8903 59.558 69.0943 59.354C69.2983 59.138 69.4003 58.88 69.4003 58.58V55.034H71.6143V58.724C71.6143 59.324 71.4703 59.876 71.1823 60.38C70.8943 60.872 70.4983 61.268 69.9943 61.568C69.5023 61.856 68.9563 62 68.3563 62H67.4203ZM67.4203 63.566H69.4903V65.636H67.4203V63.566ZM70.8004 65.114C71.6644 64.622 72.2764 64.232 72.6364 63.944C73.0084 63.656 73.2664 63.326 73.4104 62.954C73.5664 62.582 73.6444 62.06 73.6444 61.388V55.574H75.8584V61.388C75.8584 62.36 75.7264 63.158 75.4624 63.782C75.2104 64.406 74.7844 64.958 74.1844 65.438C73.5964 65.918 72.7444 66.428 71.6284 66.968L70.8004 65.114ZM81.0457 62C80.4457 62 79.8937 61.856 79.3897 61.568C78.8977 61.268 78.5077 60.872 78.2197 60.38C77.9317 59.876 77.7877 59.324 77.7877 58.724V49.958H80.0017V58.58C80.0017 58.88 80.1037 59.138 80.3077 59.354C80.5117 59.558 80.7637 59.66 81.0637 59.66H81.9817C82.1017 59.66 82.1617 59.72 82.1617 59.84V61.82C82.1617 61.94 82.1017 62 81.9817 62H81.0457ZM82.0365 59.84C82.0365 59.72 82.0965 59.66 82.2165 59.66H86.2305C86.6025 59.66 86.9205 59.534 87.1845 59.282C87.4605 59.018 87.5985 58.682 87.5985 58.274C87.5985 57.77 87.3585 57.374 86.8785 57.086L82.7385 54.35V52.622L86.2665 48.86L87.7965 50.3L85.0245 53.198L88.2645 55.34C88.7565 55.664 89.1405 56.084 89.4165 56.6C89.6925 57.116 89.8305 57.692 89.8305 58.328C89.8305 58.988 89.6685 59.6 89.3445 60.164C89.0205 60.728 88.5765 61.178 88.0125 61.514C87.4605 61.838 86.8545 62 86.1945 62H82.2165C82.0965 62 82.0365 61.94 82.0365 61.82V59.84ZM106.201 49.742V53.468C106.201 54.056 106.051 54.602 105.751 55.106C105.463 55.61 105.067 56.012 104.563 56.312C104.059 56.6 103.507 56.744 102.907 56.744C101.983 56.744 101.263 56.396 100.747 55.7C100.507 56.036 100.201 56.294 99.8286 56.474C99.4686 56.654 99.0546 56.744 98.5866 56.744C98.2146 56.744 97.8846 56.69 97.5966 56.582V62H95.3826V56.258V55.268C95.3826 54.2 95.3526 53.24 95.2926 52.388C95.2326 51.524 95.1066 50.714 94.9146 49.958L96.9306 49.616C97.2066 50.276 97.3986 51.518 97.5066 53.342H97.5246C97.5246 53.642 97.6266 53.894 97.8306 54.098C98.0346 54.302 98.2866 54.404 98.5866 54.404C98.8866 54.404 99.1386 54.302 99.3426 54.098C99.5466 53.894 99.6486 53.642 99.6486 53.342V50.282H101.863V53.342C101.863 53.642 101.959 53.894 102.151 54.098C102.355 54.302 102.607 54.404 102.907 54.404C103.207 54.404 103.459 54.302 103.663 54.098C103.879 53.894 103.987 53.642 103.987 53.342V49.742H106.201ZM111.119 62C110.483 62 109.901 61.844 109.373 61.532C108.845 61.22 108.425 60.8 108.113 60.272C107.813 59.744 107.663 59.168 107.663 58.544C107.663 57.92 107.813 57.344 108.113 56.816C108.425 56.288 108.845 55.868 109.373 55.556C109.901 55.244 110.483 55.088 111.119 55.088C111.743 55.088 112.319 55.244 112.847 55.556C113.375 55.868 113.795 56.288 114.107 56.816C114.419 57.344 114.575 57.92 114.575 58.544C114.575 59.168 114.419 59.744 114.107 60.272C113.795 60.8 113.375 61.22 112.847 61.532C112.319 61.844 111.743 62 111.119 62ZM111.119 59.786C111.467 59.786 111.761 59.666 112.001 59.426C112.241 59.186 112.361 58.892 112.361 58.544C112.361 58.196 112.241 57.902 112.001 57.662C111.761 57.422 111.467 57.302 111.119 57.302C110.759 57.302 110.459 57.422 110.219 57.662C109.991 57.902 109.877 58.196 109.877 58.544C109.877 58.892 109.991 59.186 110.219 59.426C110.459 59.666 110.759 59.786 111.119 59.786ZM120.01 57.392H116.752V55.322H120.01V52.064H122.188V55.322H125.446V57.392H122.188V60.686H120.01V57.392Z" fill="#494953"/>
<circle cx="154.5" cy="55.5" r="17.5" fill="#EDF2F6"/>
<path d="M159.637 59.2276C160.066 58.9348 160.569 58.7693 161.088 58.7504C161.607 58.7315 162.121 58.8599 162.57 59.1207C163.019 59.3816 163.385 59.7642 163.625 60.2243C163.866 60.6845 163.971 61.2034 163.929 61.7209C162.829 62.1053 161.661 62.2549 160.5 62.16C160.496 61.1211 160.197 60.1037 159.637 59.2285C159.14 58.4491 158.455 57.8077 157.644 57.3635C156.834 56.9194 155.924 56.6869 155 56.6875C154.076 56.687 153.166 56.9196 152.356 57.3638C151.546 57.8079 150.86 58.4493 150.363 59.2285M160.499 62.1591L160.5 62.1875C160.5 62.3938 160.489 62.5973 160.466 62.798C158.803 63.7524 156.918 64.2531 155 64.25C153.011 64.25 151.144 63.722 149.534 62.798C149.51 62.5859 149.499 62.3725 149.5 62.1591M149.5 62.1591C148.339 62.2574 147.172 62.1084 146.073 61.7218C146.031 61.2044 146.136 60.6857 146.377 60.2257C146.617 59.7657 146.983 59.3832 147.432 59.1224C147.881 58.8616 148.394 58.7332 148.913 58.752C149.432 58.7707 149.935 58.9359 150.363 59.2285M149.5 62.1591C149.503 61.1202 149.804 60.1038 150.363 59.2285M157.75 51.1875C157.75 51.9168 157.46 52.6163 156.945 53.132C156.429 53.6478 155.729 53.9375 155 53.9375C154.271 53.9375 153.571 53.6478 153.055 53.132C152.54 52.6163 152.25 51.9168 152.25 51.1875C152.25 50.4582 152.54 49.7587 153.055 49.243C153.571 48.7272 154.271 48.4375 155 48.4375C155.729 48.4375 156.429 48.7272 156.945 49.243C157.46 49.7587 157.75 50.4582 157.75 51.1875ZM163.25 53.9375C163.25 54.2084 163.197 54.4766 163.093 54.7268C162.989 54.977 162.837 55.2044 162.646 55.3959C162.454 55.5874 162.227 55.7394 161.977 55.843C161.727 55.9467 161.458 56 161.187 56C160.917 56 160.648 55.9467 160.398 55.843C160.148 55.7394 159.921 55.5874 159.729 55.3959C159.538 55.2044 159.386 54.977 159.282 54.7268C159.178 54.4766 159.125 54.2084 159.125 53.9375C159.125 53.3905 159.342 52.8659 159.729 52.4791C160.116 52.0923 160.64 51.875 161.187 51.875C161.734 51.875 162.259 52.0923 162.646 52.4791C163.033 52.8659 163.25 53.3905 163.25 53.9375ZM150.875 53.9375C150.875 54.2084 150.822 54.4766 150.718 54.7268C150.614 54.977 150.462 55.2044 150.271 55.3959C150.079 55.5874 149.852 55.7394 149.602 55.843C149.352 55.9467 149.083 56 148.812 56C148.542 56 148.273 55.9467 148.023 55.843C147.773 55.7394 147.546 55.5874 147.354 55.3959C147.163 55.2044 147.011 54.977 146.907 54.7268C146.803 54.4766 146.75 54.2084 146.75 53.9375C146.75 53.3905 146.967 52.8659 147.354 52.4791C147.741 52.0923 148.265 51.875 148.812 51.875C149.359 51.875 149.884 52.0923 150.271 52.4791C150.658 52.8659 150.875 53.3905 150.875 53.9375Z" stroke="#FF5656" stroke-width="2" stroke-linecap="round" stroke-linejoin="round"/>
<defs>
<filter id="filter0_d_173_137" x="0" y="0" width="212" height="113" filterUnits="userSpaceOnUse" color-interpolation-filters="sRGB">
<feFlood flood-opacity="0" result="BackgroundImageFix"/>
<feColorMatrix in="SourceAlpha" type="matrix" values="0 0 0 0 0 0 0 0 0 0 0 0 0 0 0 0 0 0 127 0" result="hardAlpha"/>
<feOffset dx="1" dy="1"/>
<feGaussianBlur stdDeviation="15"/>
<feComposite in2="hardAlpha" operator="out"/>
<feColorMatrix type="matrix" values="0 0 0 0 0 0 0 0 0 0 0 0 0 0 0 0 0 0 0.15 0"/>
<feBlend mode="normal" in2="BackgroundImageFix" result="effect1_dropShadow_173_137"/>
<feBlend mode="normal" in="SourceGraphic" in2="effect1_dropShadow_173_137" result="shape"/>
</filter>
</defs>
</svg>
