<svg width="20" height="24" viewBox="0 0 20 24" fill="none" xmlns="http://www.w3.org/2000/svg">
<path d="M10.7954 2.08854C12.3723 0.0101326 14.5645 0 14.5645 0C14.5645 0 14.8906 1.95405 13.3241 3.83643C11.6514 5.84639 9.75009 5.5175 9.75009 5.5175C9.75009 5.5175 9.39308 3.93673 10.7954 2.08854ZM9.95065 6.88631C10.7619 6.88631 12.2675 5.77117 14.2273 5.77117C17.6007 5.77117 18.9278 8.17157 18.9278 8.17157C18.9278 8.17157 16.3322 9.49863 16.3322 12.7187C16.3322 16.3511 19.5656 17.603 19.5656 17.603C19.5656 17.603 17.3053 23.9648 14.2524 23.9648C12.8502 23.9648 11.76 23.0198 10.2826 23.0198C8.777 23.0198 7.2829 24 6.30977 24C3.52197 24.0001 0 17.9653 0 13.1143C0 8.3417 2.98111 5.83804 5.77728 5.83804C7.59504 5.83804 9.00564 6.88631 9.95065 6.88631Z" fill="white"/>
</svg>
