<svg width="36" height="36" viewBox="0 0 36 36" fill="none" xmlns="http://www.w3.org/2000/svg">
<rect width="36" height="36" rx="8" fill="#6A7EFC"/>
<path d="M21.027 10.7015V10.6982H21.871L22.1794 10.7598C22.385 10.7998 22.5717 10.8522 22.7394 10.9171C22.9071 10.9819 23.0694 11.0575 23.2263 11.144C23.3832 11.2304 23.5255 11.3185 23.6532 11.4082C23.7798 11.4968 23.8934 11.5908 23.9941 11.6902C24.0936 11.7907 24.2489 11.8166 24.4599 11.768C24.6709 11.7194 24.8981 11.6518 25.1416 11.5654C25.385 11.479 25.6258 11.3817 25.8638 11.2736C26.1019 11.1656 26.2469 11.097 26.2988 11.0678C26.3497 11.0375 26.3767 11.0213 26.38 11.0192L26.3832 11.0143L26.3994 11.0062L26.4157 10.9981L26.4319 10.99L26.4481 10.9819L26.4514 10.977L26.4563 10.9738L26.4611 10.9705L26.4644 10.9657L26.4806 10.9608L26.4968 10.9576L26.4936 10.9819L26.4887 11.0062L26.4806 11.0305L26.4725 11.0548L26.4644 11.071L26.4563 11.0872L26.4481 11.1116C26.4427 11.1278 26.4373 11.1494 26.4319 11.1764C26.4265 11.2034 26.3751 11.3115 26.2777 11.5006C26.1803 11.6897 26.0586 11.8815 25.9125 12.076C25.7664 12.2705 25.6355 12.4174 25.5197 12.5168C25.4029 12.6173 25.3255 12.6875 25.2876 12.7275C25.2498 12.7686 25.2038 12.8064 25.1497 12.841L25.0685 12.8945L25.0523 12.9026L25.0361 12.9107L25.0328 12.9156L25.0279 12.9188L25.0231 12.922L25.0198 12.9269L25.0036 12.935L24.9874 12.9431L24.9841 12.948L24.9792 12.9512L24.9744 12.9545L24.9711 12.9593L24.9679 12.9642L24.963 12.9674L24.9581 12.9707L24.9549 12.9755H25.0361L25.4905 12.8783C25.7935 12.8134 26.0829 12.7351 26.3589 12.6433L26.7971 12.4974L26.8458 12.4812L26.8701 12.4731L26.8864 12.465L26.9026 12.4569L26.9188 12.4488L26.9351 12.4406L26.9675 12.4358L27 12.4325V12.465L26.9919 12.4682L26.9838 12.4731L26.9805 12.4779L26.9756 12.4812L26.9708 12.4844L26.9675 12.4893L26.9643 12.4941L26.9594 12.4974L26.9545 12.5006L26.9513 12.5055L26.9481 12.5103L26.9432 12.5136L26.9351 12.5298L26.9269 12.546L26.9221 12.5492C26.9199 12.5525 26.8512 12.6443 26.7159 12.8248C26.5807 13.0063 26.5077 13.0982 26.4968 13.1003C26.486 13.1036 26.4709 13.1198 26.4514 13.149C26.433 13.1792 26.3183 13.2997 26.1073 13.5104C25.8963 13.7211 25.6896 13.9086 25.4873 14.0728C25.2839 14.2382 25.1811 14.4413 25.1789 14.6823C25.1757 14.9222 25.1632 15.1934 25.1416 15.4959C25.1199 15.7985 25.0793 16.1254 25.0198 16.4765C24.9603 16.8277 24.8683 17.2248 24.7439 17.6679C24.6195 18.1109 24.468 18.5431 24.2894 18.9645C24.1109 19.3859 23.9242 19.7641 23.7295 20.0991C23.5347 20.4341 23.3562 20.7177 23.1939 20.9501C23.0315 21.1824 22.8665 21.4012 22.6988 21.6065C22.5311 21.8118 22.319 22.0431 22.0626 22.3002C21.805 22.5563 21.6644 22.6968 21.6406 22.7216C21.6157 22.7454 21.5097 22.834 21.3224 22.9875C21.1363 23.142 20.9361 23.2965 20.7219 23.451C20.5087 23.6045 20.3129 23.7325 20.1343 23.8352C19.9558 23.9378 19.7405 24.055 19.4884 24.1869C19.2373 24.3198 18.9657 24.443 18.6736 24.5564C18.3814 24.6699 18.073 24.7752 17.7484 24.8725C17.4238 24.9697 17.11 25.0454 16.807 25.0994C16.5041 25.1534 16.1605 25.1994 15.7764 25.2372L15.2002 25.2939V25.302H14.1452V25.2939L14.0072 25.2858C13.9152 25.2804 13.8395 25.275 13.78 25.2696C13.7205 25.2642 13.4959 25.2345 13.1064 25.1805C12.7168 25.1264 12.4112 25.0724 12.1893 25.0184C11.9675 24.9643 11.6375 24.8617 11.1993 24.7104C10.761 24.5591 10.3861 24.4062 10.0745 24.2517C9.76392 24.0983 9.56915 24.001 9.49016 23.96C9.41225 23.92 9.3246 23.8703 9.22722 23.8108L9.08114 23.7217L9.07791 23.7168L9.07302 23.7136L9.06815 23.7104L9.06491 23.7055L9.04868 23.6974L9.03245 23.6893L9.02922 23.6844L9.02433 23.6812L9.01946 23.6779L9.01622 23.6731L9.01299 23.6682L9.0081 23.665H8.99998V23.6326L9.01622 23.6358L9.03245 23.6407L9.10549 23.6488C9.15418 23.6542 9.28673 23.6623 9.50314 23.6731C9.71956 23.6839 9.94949 23.6839 10.193 23.6731C10.4364 23.6623 10.6853 23.6379 10.9396 23.6001C11.1939 23.5623 11.4941 23.4975 11.8404 23.4056C12.1867 23.3138 12.5048 23.2046 12.7948 23.0782C13.0837 22.9507 13.2893 22.8556 13.4115 22.793C13.5327 22.7314 13.7178 22.6168 13.9666 22.4493L14.3399 22.1981L14.3432 22.1932L14.348 22.19L14.3529 22.1868L14.3562 22.1819L14.3594 22.177L14.3643 22.1738L14.3692 22.1706L14.3724 22.1657L14.3886 22.1608L14.4049 22.1576L14.4081 22.1414L14.413 22.1252L14.4179 22.1219L14.4211 22.1171L14.2912 22.109C14.2047 22.1036 14.1208 22.0982 14.0397 22.0928C13.9585 22.0874 13.8314 22.063 13.6582 22.0198C13.4851 21.9766 13.2985 21.9118 13.0983 21.8253C12.8981 21.7389 12.7033 21.6362 12.514 21.5174C12.3246 21.3985 12.1877 21.2996 12.1033 21.2207C12.02 21.1429 11.9118 21.0327 11.7787 20.8901C11.6467 20.7464 11.532 20.5989 11.4346 20.4476C11.3372 20.2963 11.2442 20.1218 11.1555 19.9241L11.0207 19.6291L11.0126 19.6048L11.0045 19.5805L10.9996 19.5642L10.9964 19.548L11.0207 19.5513L11.0451 19.5561L11.2236 19.5805C11.3426 19.5967 11.5293 19.6021 11.7836 19.5967C12.0379 19.5913 12.2137 19.5805 12.3111 19.5642C12.4085 19.548 12.468 19.5372 12.4896 19.5318L12.5221 19.5237L12.5627 19.5156L12.6032 19.5075L12.6065 19.5027L12.6113 19.4994L12.6162 19.4962L12.6195 19.4913L12.587 19.4832L12.5545 19.4751L12.5221 19.467L12.4896 19.4589L12.4572 19.4508C12.4355 19.4454 12.3977 19.4346 12.3435 19.4184C12.2894 19.4022 12.1434 19.3427 11.9053 19.2401C11.6673 19.1374 11.4779 19.0375 11.3372 18.9402C11.1962 18.8427 11.0617 18.736 10.9347 18.6209C10.8081 18.5042 10.6691 18.354 10.5176 18.1703C10.3661 17.9866 10.2308 17.7732 10.1118 17.5301C9.99278 17.287 9.90351 17.0546 9.84399 16.8331C9.78471 16.6129 9.7456 16.3878 9.72714 16.1605L9.69791 15.8201L9.71414 15.8233L9.73037 15.8282L9.7466 15.8363L9.76283 15.8444L9.77907 15.8525L9.7953 15.8606L10.0469 15.9741C10.2146 16.0497 10.4229 16.1146 10.6718 16.1686C10.9206 16.2226 11.0694 16.2523 11.1181 16.2577L11.1911 16.2658H11.3372L11.334 16.261L11.3291 16.2577L11.3242 16.2545L11.321 16.2496L11.3178 16.2448L11.3129 16.2415L11.308 16.2383L11.3048 16.2334L11.2885 16.2253L11.2723 16.2172L11.2691 16.2123L11.2642 16.2091L11.2593 16.2059L11.2561 16.201L11.2398 16.1929L11.2236 16.1848L11.2204 16.1799C11.2171 16.1778 11.1706 16.1432 11.0808 16.0762C10.992 16.0081 10.899 15.9201 10.8016 15.812C10.7042 15.7039 10.6068 15.5905 10.5095 15.4716C10.4119 15.3525 10.325 15.225 10.2498 15.0907C10.174 14.9557 10.0939 14.7838 10.0095 14.5753C9.92623 14.3678 9.86293 14.1587 9.81964 13.948C9.77637 13.7373 9.75202 13.5293 9.7466 13.324C9.7412 13.1187 9.7466 12.9431 9.76283 12.7972C9.77906 12.6514 9.81153 12.4866 9.86022 12.3029C9.90891 12.1192 9.97926 11.9247 10.0712 11.7194L10.2092 11.4114L10.2173 11.3871L10.2254 11.3628L10.2303 11.3595L10.2335 11.3547L10.2368 11.3498L10.2416 11.3466L10.2465 11.3498L10.2498 11.3547L10.253 11.3595L10.2579 11.3628L10.2628 11.366L10.266 11.3709L10.2692 11.3758L10.2741 11.379L10.2822 11.3952L10.2903 11.4114L10.2952 11.4147L10.2985 11.4195L10.5176 11.6626C10.6636 11.8247 10.8368 12.0057 11.037 12.2056C11.2371 12.4055 11.3481 12.5093 11.3697 12.5168C11.3913 12.5255 11.4184 12.5503 11.4508 12.5914C11.4833 12.6314 11.5915 12.727 11.7755 12.8783C11.9594 13.0295 12.2002 13.2051 12.4977 13.405C12.7953 13.6049 13.1253 13.8022 13.4878 13.9967C13.8503 14.1912 14.2399 14.3667 14.6564 14.5234C15.073 14.6801 15.3652 14.7828 15.5329 14.8314C15.7006 14.88 15.9874 14.9421 16.3931 15.0178C16.7989 15.0934 17.1046 15.1421 17.3102 15.1637C17.5158 15.1853 17.6564 15.1977 17.7322 15.2009L17.8458 15.2042L17.8426 15.1799L17.8377 15.1556L17.8052 14.9529C17.7836 14.8179 17.7728 14.6288 17.7728 14.3857C17.7728 14.1425 17.7917 13.9183 17.8296 13.713C17.8674 13.5077 17.9243 13.2997 18 13.089C18.0757 12.8783 18.1499 12.7092 18.2223 12.5817C18.2959 12.4552 18.3922 12.311 18.5113 12.1489C18.6303 11.9868 18.7845 11.8193 18.9738 11.6464C19.1632 11.4735 19.3796 11.3196 19.6231 11.1845C19.8665 11.0494 20.0911 10.9468 20.2966 10.8765C20.5022 10.8063 20.6754 10.7604 20.816 10.7388C20.9567 10.7172 21.027 10.7047 21.027 10.7015Z" fill="#EDF2F6"/>
</svg>
