<svg width="36" height="36" viewBox="0 0 36 36" fill="none" xmlns="http://www.w3.org/2000/svg">
<rect width="36" height="36" rx="8" fill="#6A7EFC"/>
<path d="M18.4386 24.9797L14.3764 24.9038C13.0612 24.8773 11.7427 24.9301 10.4532 24.656C8.49165 24.2465 8.35268 22.2386 8.20727 20.5544C8.00691 18.1865 8.08448 15.7757 8.46258 13.4276C8.67604 12.1101 9.51607 11.324 10.8152 11.2384C15.2005 10.9279 19.615 10.9647 23.9906 11.1096C24.4528 11.1228 24.9181 11.1954 25.3737 11.278C27.6231 11.681 27.6779 13.9564 27.8237 15.8718C27.9691 17.807 27.9077 19.7522 27.6298 21.6742C27.4068 23.2656 26.9802 24.6002 25.1798 24.729C22.9241 24.8975 20.7201 25.0331 18.458 24.9899C18.4581 24.9797 18.4451 24.9797 18.4386 24.9797ZM16.0505 20.9507C17.7504 19.9533 19.4178 18.9725 21.108 17.9818C19.4049 16.9844 17.7406 16.0036 16.0505 15.0129V20.9507Z" fill="#EDF2F6"/>
</svg>
