<svg width="50" height="50" viewBox="0 0 50 50" fill="none" xmlns="http://www.w3.org/2000/svg">
<path fill-rule="evenodd" clip-rule="evenodd" d="M21.875 7.8125C20.1463 7.81235 18.4363 8.17076 16.8532 8.86511C15.2701 9.55945 13.8482 10.5746 12.6773 11.8465C11.5065 13.1183 10.6122 14.6192 10.051 16.2543C9.48974 17.8893 9.27375 19.623 9.41666 21.3458C7.16353 22.4016 5.33771 24.194 4.24057 26.4272C3.14343 28.6605 2.84054 31.2011 3.3819 33.6297C3.92326 36.0583 5.27651 38.2297 7.21828 39.7855C9.16006 41.3414 11.5743 42.1887 14.0625 42.1875H37.5C39.5733 42.1882 41.5884 41.5015 43.2299 40.235C44.8715 38.9684 46.0468 37.1934 46.5721 35.1877C47.0974 33.182 46.943 31.0588 46.1331 29.1502C45.3231 27.2416 43.9033 25.6553 42.0958 24.6396C42.2811 23.4509 42.1893 22.2355 41.8277 21.0881C41.4661 19.9407 40.8443 18.8923 40.011 18.0247C39.1776 17.157 38.1551 16.4936 37.0232 16.086C35.8913 15.6784 34.6806 15.5378 33.4854 15.675C32.5578 13.354 30.9558 11.3643 28.8863 9.96279C26.8167 8.56128 24.3745 7.81228 21.875 7.8125ZM26.5625 20.3125C26.5625 19.8981 26.3979 19.5007 26.1048 19.2076C25.8118 18.9146 25.4144 18.75 25 18.75C24.5856 18.75 24.1882 18.9146 23.8951 19.2076C23.6021 19.5007 23.4375 19.8981 23.4375 20.3125V30.6042L19.8542 27.0208C19.558 26.7448 19.1662 26.5946 18.7614 26.6017C18.3566 26.6089 17.9704 26.7728 17.6841 27.0591C17.3978 27.3454 17.2338 27.7316 17.2267 28.1364C17.2196 28.5412 17.3698 28.933 17.6458 29.2292L23.8958 35.4792C24.1888 35.7718 24.5859 35.9361 25 35.9361C25.4141 35.9361 25.8112 35.7718 26.1042 35.4792L32.3542 29.2292C32.5077 29.0861 32.6308 28.9136 32.7162 28.722C32.8016 28.5303 32.8475 28.3234 32.8512 28.1136C32.8549 27.9038 32.8163 27.6954 32.7377 27.5008C32.6592 27.3063 32.5422 27.1295 32.3938 26.9812C32.2454 26.8328 32.0687 26.7158 31.8741 26.6372C31.6796 26.5587 31.4712 26.5201 31.2614 26.5238C31.0516 26.5275 30.8447 26.5734 30.653 26.6588C30.4614 26.7442 30.2889 26.8673 30.1458 27.0208L26.5625 30.6042V20.3125Z" fill="#EDF2F6"/>
</svg>
