<svg width="218" height="62" viewBox="0 0 218 62" fill="none" xmlns="http://www.w3.org/2000/svg">
<path d="M217.778 55.2255C217.778 58.6125 214.977 61.356 211.513 61.356H6.49519C3.03272 61.356 0.222222 58.6125 0.222222 55.2255V6.33718C0.222222 2.95183 3.03272 0.19873 6.49519 0.19873H211.511C214.977 0.19873 217.776 2.95183 217.776 6.33718L217.778 55.2255Z" fill="black"/>
<path d="M48.0975 30.4344C48.0502 25.3134 52.3981 22.822 52.5969 22.706C50.1345 19.2057 46.3179 18.7275 44.9768 18.6893C41.7713 18.3604 38.6619 20.5594 37.0291 20.5594C35.3636 20.5594 32.849 18.7211 30.139 18.7751C26.6516 18.8276 23.389 20.7962 21.5997 23.8532C17.907 30.0864 20.661 39.2464 24.199 44.2847C25.9688 46.7523 28.0368 49.5074 30.7436 49.4105C33.3917 49.304 34.3809 47.7644 37.5766 47.7644C40.743 47.7644 41.6719 49.4105 44.4325 49.3485C47.2745 49.304 49.0639 46.8698 50.7717 44.3801C52.8169 41.5518 53.6382 38.7665 53.6708 38.6235C53.604 38.6013 48.1513 36.5723 48.0975 30.4344Z" fill="white"/>
<path d="M42.8827 15.3749C44.307 13.6382 45.2815 11.2756 45.011 8.87793C42.9495 8.96691 40.3714 10.2682 38.8868 11.9667C37.5733 13.4635 36.4 15.9167 36.7031 18.2238C39.0188 18.3922 41.3965 17.0845 42.8827 15.3749Z" fill="white"/>
<path d="M86.4215 49.0566H82.7206L80.6933 42.8456H73.6468L71.7157 49.0566H68.1126L75.0939 27.9116H79.4059L86.4215 49.0566ZM80.0822 40.2398L78.2489 34.7184C78.0549 34.1544 77.6915 32.8261 77.1554 30.7351H77.0902C76.8767 31.6344 76.5329 32.9627 76.0603 34.7184L74.2595 40.2398H80.0822Z" fill="white"/>
<path d="M104.375 41.2461C104.375 43.8391 103.656 45.8888 102.219 47.3935C100.932 48.7329 99.333 49.4018 97.4247 49.4018C95.3649 49.4018 93.8852 48.6805 92.984 47.2378H92.9188V55.2696H89.4444V38.8294C89.4444 37.1992 89.4004 35.5261 89.3157 33.8101H92.3712L92.5652 36.2268H92.6303C93.789 34.4059 95.5474 33.4971 97.9071 33.4971C99.7518 33.4971 101.292 34.2073 102.524 35.6294C103.759 37.053 104.375 38.9247 104.375 41.2461ZM100.836 41.37C100.836 39.886 100.493 38.6625 99.8056 37.6997C99.0543 36.6955 98.0456 36.1934 96.781 36.1934C95.9238 36.1934 95.1449 36.4731 94.449 37.0244C93.7515 37.5805 93.2952 38.3066 93.0818 39.2059C92.9742 39.6254 92.9204 39.9686 92.9204 40.2387V42.7809C92.9204 43.89 93.2692 44.8258 93.9666 45.5901C94.6641 46.3544 95.5702 46.7357 96.6849 46.7357C97.9935 46.7357 99.012 46.2431 99.7404 45.2612C100.47 44.2777 100.836 42.9811 100.836 41.37Z" fill="white"/>
<path d="M122.361 41.2461C122.361 43.8391 121.643 45.8888 120.204 47.3935C118.918 48.7329 117.319 49.4018 115.411 49.4018C113.351 49.4018 111.871 48.6805 110.972 47.2378H110.907V55.2696H107.432V38.8294C107.432 37.1992 107.388 35.5261 107.304 33.8101H110.359L110.553 36.2268H110.618C111.775 34.4059 113.534 33.4971 115.895 33.4971C117.738 33.4971 119.278 34.2073 120.513 35.6294C121.744 37.053 122.361 38.9247 122.361 41.2461ZM118.822 41.37C118.822 39.886 118.478 38.6625 117.79 37.6997C117.039 36.6955 116.033 36.1934 114.767 36.1934C113.908 36.1934 113.131 36.4731 112.434 37.0244C111.736 37.5805 111.281 38.3066 111.068 39.2059C110.962 39.6254 110.907 39.9686 110.907 40.2387V42.7809C110.907 43.89 111.255 44.8258 111.95 45.5901C112.647 46.3528 113.553 46.7357 114.671 46.7357C115.98 46.7357 116.998 46.2431 117.727 45.2612C118.457 44.2777 118.822 42.9811 118.822 41.37Z" fill="white"/>
<path d="M142.471 43.1266C142.471 44.9252 141.831 46.3886 140.545 47.5183C139.132 48.7529 137.165 49.3693 134.637 49.3693C132.304 49.3693 130.433 48.9308 129.017 48.0522L129.822 45.2287C131.347 46.128 133.021 46.5793 134.844 46.5793C136.153 46.5793 137.171 46.2901 137.903 45.7149C138.632 45.1397 138.995 44.3675 138.995 43.4047C138.995 42.5467 138.695 41.8237 138.094 41.2374C137.496 40.6511 136.497 40.1061 135.102 39.6024C131.305 38.2217 129.408 36.199 129.408 33.5392C129.408 31.801 130.073 30.3758 131.404 29.2667C132.731 28.1561 134.5 27.6016 136.713 27.6016C138.687 27.6016 140.326 27.9368 141.635 28.6057L140.766 31.3672C139.544 30.719 138.162 30.3948 136.616 30.3948C135.393 30.3948 134.439 30.6888 133.754 31.2735C133.176 31.7962 132.885 32.4334 132.885 33.1881C132.885 34.0239 133.216 34.715 133.881 35.2584C134.46 35.7605 135.511 36.3039 137.036 36.8902C138.902 37.6227 140.273 38.4791 141.154 39.461C142.033 40.4398 142.471 41.6648 142.471 43.1266Z" fill="white"/>
<path d="M153.958 36.352H150.129V43.7546C150.129 45.6375 150.803 46.5781 152.156 46.5781C152.777 46.5781 153.292 46.5257 153.699 46.4208L153.795 48.9932C153.111 49.2427 152.21 49.3682 151.093 49.3682C149.721 49.3682 148.649 48.9598 147.875 48.1447C147.104 47.328 146.716 45.9584 146.716 44.0343V36.3488H144.435V33.8066H146.716V31.0149L150.129 30.0107V33.8066H153.958V36.352Z" fill="white"/>
<path d="M171.237 41.3074C171.237 43.651 170.549 45.5752 169.177 47.0799C167.738 48.629 165.828 49.4012 163.448 49.4012C161.153 49.4012 159.326 48.6592 157.964 47.1752C156.601 45.6912 155.92 43.8179 155.92 41.5601C155.92 39.1974 156.621 37.2621 158.027 35.7574C159.43 34.2512 161.324 33.498 163.705 33.498C166 33.498 167.846 34.2401 169.239 35.7257C170.572 37.1668 171.237 39.0274 171.237 41.3074ZM167.632 41.4171C167.632 40.0109 167.324 38.8049 166.7 37.7992C165.972 36.5821 164.93 35.9751 163.581 35.9751C162.185 35.9751 161.124 36.5837 160.395 37.7992C159.771 38.8065 159.463 40.0316 159.463 41.4806C159.463 42.8868 159.771 44.0928 160.395 45.0969C161.146 46.314 162.196 46.921 163.55 46.921C164.877 46.921 165.918 46.3013 166.669 45.0652C167.31 44.0403 167.632 42.8216 167.632 41.4171Z" fill="white"/>
<path d="M182.531 36.7892C182.187 36.7273 181.82 36.6955 181.435 36.6955C180.213 36.6955 179.268 37.1452 178.603 38.0461C178.025 38.8405 177.735 39.8447 177.735 41.057V49.0571H174.262L174.294 38.6117C174.294 36.8544 174.25 35.2544 174.164 33.8117H177.19L177.317 36.7289H177.413C177.78 35.7263 178.359 34.9191 179.151 34.3138C179.925 33.7688 180.761 33.4971 181.662 33.4971C181.983 33.4971 182.273 33.5193 182.531 33.559V36.7892Z" fill="white"/>
<path d="M198.069 40.7115C198.069 41.3185 198.028 41.8301 197.942 42.248H187.519C187.56 43.7542 188.063 44.9062 189.031 45.7006C189.909 46.4109 191.045 46.7668 192.44 46.7668C193.984 46.7668 195.392 46.5268 196.658 46.0454L197.202 48.397C195.722 49.0262 193.975 49.3392 191.96 49.3392C189.535 49.3392 187.631 48.6432 186.246 47.253C184.864 45.8627 184.172 43.9957 184.172 41.6537C184.172 39.3546 184.815 37.44 186.104 35.9131C187.454 34.2829 189.277 33.4678 191.572 33.4678C193.825 33.4678 195.532 34.2829 196.69 35.9131C197.608 37.208 198.069 38.8096 198.069 40.7115ZM194.756 39.8329C194.779 38.8287 194.552 37.9611 194.081 37.2287C193.48 36.2865 192.556 35.8161 191.313 35.8161C190.177 35.8161 189.253 36.2753 188.547 37.1969C187.969 37.9294 187.625 38.808 187.519 39.8313H194.756V39.8329Z" fill="white"/>
<path d="M78.9333 14.9031C78.9333 16.7732 78.3581 18.181 77.2092 19.1264C76.145 19.9987 74.6327 20.4356 72.6739 20.4356C71.7027 20.4356 70.8716 20.3943 70.1757 20.3117V10.0935C71.0834 9.95053 72.0612 9.87744 73.1172 9.87744C74.9831 9.87744 76.3895 10.2731 77.3379 11.0643C78.4005 11.9589 78.9333 13.2379 78.9333 14.9031ZM77.1326 14.9492C77.1326 13.7369 76.8034 12.8074 76.145 12.1591C75.4867 11.5124 74.5252 11.1883 73.259 11.1883C72.7212 11.1883 72.2633 11.2232 71.8836 11.2963V19.0644C72.0938 19.0962 72.4784 19.1105 73.0373 19.1105C74.3443 19.1105 75.353 18.7562 76.0636 18.0475C76.7741 17.3389 77.1326 16.3061 77.1326 14.9492Z" fill="white"/>
<path d="M88.4813 16.5367C88.4813 17.6887 88.144 18.6325 87.4693 19.3729C86.7621 20.134 85.825 20.5137 84.655 20.5137C83.5273 20.5137 82.6293 20.1499 81.9596 19.419C81.2914 18.6897 80.9573 17.7697 80.9573 16.6607C80.9573 15.5008 81.3012 14.549 81.9921 13.8102C82.6831 13.0714 83.612 12.7012 84.7821 12.7012C85.9098 12.7012 86.8159 13.065 87.5019 13.7943C88.1538 14.503 88.4813 15.4182 88.4813 16.5367ZM86.7099 16.5908C86.7099 15.8996 86.5567 15.3069 86.252 14.8128C85.8935 14.2154 85.3834 13.9167 84.7201 13.9167C84.0341 13.9167 83.5126 14.2154 83.1541 14.8128C82.8477 15.3069 82.6961 15.9091 82.6961 16.621C82.6961 17.3121 82.8493 17.9048 83.1541 18.3989C83.524 18.9963 84.039 19.2951 84.7039 19.2951C85.3557 19.2951 85.8674 18.9916 86.2357 18.383C86.5518 17.8794 86.7099 17.2819 86.7099 16.5908Z" fill="white"/>
<path d="M101.284 12.8535L98.88 20.3435H97.3156L96.3199 17.0911C96.0673 16.2792 95.8619 15.472 95.7022 14.6712H95.6713C95.523 15.4942 95.3176 16.2998 95.0536 17.0911L93.996 20.3435H92.4136L90.1533 12.8535H91.9085L92.777 16.4142C92.9873 17.2563 93.16 18.0587 93.2985 18.8182H93.3295C93.4566 18.1922 93.6668 17.3946 93.9634 16.4301L95.0536 12.8551H96.4453L97.4899 16.3538C97.7425 17.2071 97.9479 18.0285 98.1059 18.8198H98.1532C98.2689 18.0492 98.4433 17.2277 98.6747 16.3538L99.6068 12.8551H101.284V12.8535Z" fill="white"/>
<path d="M110.137 20.3436H108.43V16.0536C108.43 14.7317 107.915 14.0707 106.881 14.0707C106.375 14.0707 105.966 14.2518 105.648 14.6157C105.333 14.9795 105.174 15.4085 105.174 15.8995V20.342H103.466V14.9938C103.466 14.336 103.445 13.6226 103.404 12.8504H104.905L104.985 14.0214H105.032C105.231 13.6576 105.527 13.3573 105.917 13.1173C106.38 12.8377 106.898 12.6963 107.465 12.6963C108.182 12.6963 108.778 12.9219 109.253 13.3747C109.843 13.9293 110.137 14.7571 110.137 15.8566V20.3436Z" fill="white"/>
<path d="M114.847 20.3433H113.141V9.4165H114.847V20.3433Z" fill="white"/>
<path d="M124.902 16.5367C124.902 17.6887 124.565 18.6325 123.89 19.3729C123.183 20.134 122.244 20.5137 121.076 20.5137C119.946 20.5137 119.048 20.1499 118.38 19.419C117.712 18.6897 117.378 17.7697 117.378 16.6607C117.378 15.5008 117.722 14.549 118.413 13.8102C119.104 13.0714 120.033 12.7012 121.201 12.7012C122.33 12.7012 123.235 13.065 123.923 13.7943C124.574 14.503 124.902 15.4182 124.902 16.5367ZM123.129 16.5908C123.129 15.8996 122.976 15.3069 122.671 14.8128C122.314 14.2154 121.802 13.9167 121.141 13.9167C120.453 13.9167 119.932 14.2154 119.575 14.8128C119.268 15.3069 119.117 15.9091 119.117 16.621C119.117 17.3121 119.27 17.9048 119.575 18.3989C119.945 18.9963 120.46 19.2951 121.124 19.2951C121.776 19.2951 122.286 18.9916 122.655 18.383C122.972 17.8794 123.129 17.2819 123.129 16.5908Z" fill="white"/>
<path d="M133.167 20.3437H131.634L131.507 19.481H131.46C130.935 20.1689 130.187 20.5137 129.216 20.5137C128.49 20.5137 127.904 20.2865 127.462 19.8353C127.061 19.4253 126.861 18.9153 126.861 18.3099C126.861 17.3947 127.252 16.6972 128.039 16.2142C128.824 15.7312 129.929 15.4944 131.352 15.5056V15.3657C131.352 14.379 130.821 13.8865 129.757 13.8865C128.999 13.8865 128.331 14.0724 127.754 14.441L127.407 13.3478C128.12 12.9173 129.002 12.7012 130.042 12.7012C132.049 12.7012 133.057 13.7339 133.057 15.7995V18.5578C133.057 19.3062 133.094 19.902 133.167 20.3437ZM131.394 17.7697V16.6146C129.511 16.5828 128.569 17.0865 128.569 18.124C128.569 18.5149 128.676 18.8073 128.896 19.0027C129.116 19.1981 129.396 19.2951 129.731 19.2951C130.105 19.2951 130.456 19.1791 130.775 18.9487C131.096 18.7167 131.293 18.4228 131.367 18.0621C131.385 17.981 131.394 17.8825 131.394 17.7697Z" fill="white"/>
<path d="M142.872 20.3433H141.356L141.276 19.1405H141.229C140.745 20.0557 139.921 20.5133 138.762 20.5133C137.836 20.5133 137.065 20.159 136.454 19.4503C135.843 18.7417 135.539 17.8217 135.539 16.692C135.539 15.4797 135.869 14.4978 136.534 13.7478C137.178 13.0487 137.967 12.6991 138.905 12.6991C139.937 12.6991 140.659 13.0376 141.069 13.716H141.102V9.4165H142.812V18.3254C142.812 19.0547 142.831 19.7268 142.872 20.3433ZM141.102 17.1846V15.9357C141.102 15.7196 141.086 15.5448 141.055 15.4114C140.959 15.011 140.752 14.6741 140.437 14.4024C140.119 14.1307 139.736 13.9941 139.295 13.9941C138.658 13.9941 138.159 14.2404 137.792 14.7345C137.429 15.2287 137.245 15.8594 137.245 16.6301C137.245 17.3705 137.419 17.9711 137.769 18.4334C138.139 18.926 138.638 19.1723 139.262 19.1723C139.823 19.1723 140.271 18.9673 140.612 18.5558C140.941 18.176 141.102 17.7184 141.102 17.1846Z" fill="white"/>
<path d="M157.478 16.5367C157.478 17.6887 157.141 18.6325 156.466 19.3729C155.759 20.134 154.824 20.5137 153.652 20.5137C152.526 20.5137 151.628 20.1499 150.956 19.419C150.288 18.6897 149.954 17.7697 149.954 16.6607C149.954 15.5008 150.298 14.549 150.989 13.8102C151.68 13.0714 152.609 12.7012 153.781 12.7012C154.907 12.7012 155.814 13.065 156.499 13.7943C157.151 14.503 157.478 15.4182 157.478 16.5367ZM155.708 16.5908C155.708 15.8996 155.555 15.3069 155.251 14.8128C154.89 14.2154 154.382 13.9167 153.717 13.9167C153.033 13.9167 152.511 14.2154 152.151 14.8128C151.845 15.3069 151.693 15.9091 151.693 16.621C151.693 17.3121 151.846 17.9048 152.151 18.3989C152.521 18.9963 153.036 19.2951 153.701 19.2951C154.353 19.2951 154.866 18.9916 155.234 18.383C155.549 17.8794 155.708 17.2819 155.708 16.5908Z" fill="white"/>
<path d="M166.661 20.3436H164.955V16.0536C164.955 14.7317 164.44 14.0707 163.405 14.0707C162.898 14.0707 162.489 14.2518 162.173 14.6157C161.857 14.9795 161.699 15.4085 161.699 15.8995V20.342H159.989V14.9938C159.989 14.336 159.97 13.6226 159.929 12.8504H161.428L161.508 14.0214H161.556C161.756 13.6576 162.053 13.3573 162.44 13.1173C162.905 12.8377 163.421 12.6963 163.99 12.6963C164.706 12.6963 165.302 12.9219 165.776 13.3747C166.368 13.9293 166.661 14.7571 166.661 15.8566V20.3436Z" fill="white"/>
<path d="M178.155 14.1009H176.274V17.7395C176.274 18.6642 176.608 19.1266 177.27 19.1266C177.576 19.1266 177.831 19.1011 178.031 19.0487L178.075 20.3119C177.738 20.4358 177.295 20.4978 176.749 20.4978C176.074 20.4978 175.549 20.2976 175.169 19.8972C174.788 19.4968 174.599 18.8231 174.599 17.8777V14.1009H173.476V12.8536H174.599V11.4808L176.273 10.9883V12.852H178.153V14.1009H178.155Z" fill="white"/>
<path d="M187.196 20.3433H185.487V16.0851C185.487 14.7425 184.972 14.0704 183.94 14.0704C183.148 14.0704 182.607 14.4596 182.311 15.2382C182.26 15.4018 182.231 15.602 182.231 15.8372V20.3417H180.524V9.4165H182.231V13.9305H182.263C182.801 13.1091 183.572 12.6991 184.571 12.6991C185.278 12.6991 185.863 12.9248 186.328 13.3776C186.906 13.9417 187.196 14.7806 187.196 15.8896V20.3433Z" fill="white"/>
<path d="M196.523 16.244C196.523 16.5428 196.5 16.7938 196.459 16.9988H191.337C191.36 17.7392 191.604 18.3032 192.079 18.6941C192.512 19.0437 193.071 19.2184 193.755 19.2184C194.513 19.2184 195.204 19.1009 195.827 18.8641L196.094 20.0208C195.365 20.3291 194.508 20.4832 193.516 20.4832C192.326 20.4832 191.389 20.1416 190.711 19.4584C190.03 18.7751 189.693 17.8584 189.693 16.708C189.693 15.5783 190.007 14.6377 190.641 13.8877C191.303 13.0869 192.197 12.6865 193.327 12.6865C194.432 12.6865 195.271 13.0869 195.838 13.8877C196.296 14.5233 196.523 15.3098 196.523 16.244ZM194.893 15.8135C194.906 15.3193 194.793 14.8935 194.562 14.5344C194.265 14.072 193.814 13.8401 193.203 13.8401C192.646 13.8401 192.191 14.0657 191.844 14.5185C191.56 14.8792 191.392 15.3098 191.337 15.8135H194.893Z" fill="white"/>
</svg>
