<svg width="294" height="235" viewBox="0 0 294 235" fill="none" xmlns="http://www.w3.org/2000/svg">
<g filter="url(#filter0_d_27_396)">
<rect x="27" y="47.2927" width="224" height="159" rx="25" transform="rotate(-5.19768 27 47.2927)" fill="white"/>
</g>
<path d="M59.2098 84.5278L57.713 84.664L56.6684 73.1801L52.642 73.5464L52.5226 72.2334L62.0545 71.3664L62.174 72.6793L58.1651 73.044L59.2098 84.5278ZM72.9996 78.4194C73.0713 79.2072 73.0331 79.9197 72.8852 80.5568C72.7372 81.1939 72.49 81.743 72.1437 82.204C71.7973 82.665 71.3602 83.0342 70.8324 83.3117C70.3099 83.5828 69.7043 83.7497 69.0158 83.8123C68.3739 83.8707 67.7744 83.8134 67.2174 83.6405C66.6657 83.4613 66.175 83.1764 65.7453 82.786C65.3214 82.3951 64.9734 81.9001 64.7012 81.3012C64.4349 80.7018 64.2659 80.0082 64.1942 79.2204C64.0987 78.1701 64.1954 77.2611 64.4845 76.4935C64.773 75.72 65.2295 75.1107 65.8538 74.6656C66.4835 74.2142 67.2564 73.9467 68.1725 73.8634C69.0478 73.7838 69.83 73.9097 70.5191 74.2412C71.2141 74.5722 71.7762 75.0918 72.2054 75.8C72.6399 76.5018 72.9046 77.3749 72.9996 78.4194ZM65.6997 79.0835C65.7698 79.8538 65.9327 80.5126 66.1884 81.06C66.4441 81.6075 66.799 82.0165 67.2531 82.287C67.7072 82.5575 68.2698 82.6623 68.9409 82.6012C69.6061 82.5407 70.1376 82.3364 70.5355 81.9884C70.9392 81.6399 71.2174 81.1733 71.3701 80.5887C71.5229 80.0041 71.5642 79.3267 71.4941 78.5564C71.4246 77.792 71.2625 77.1419 71.0078 76.6061C70.7526 76.0645 70.3983 75.6614 69.9447 75.3967C69.4911 75.132 68.9259 75.0304 68.249 75.092C67.2511 75.1828 66.5488 75.5791 66.142 76.2809C65.741 76.9823 65.5935 77.9164 65.6997 79.0835ZM79.1877 81.6867C79.4269 81.665 79.6702 81.6223 79.9174 81.5586C80.1646 81.4949 80.3643 81.4267 80.5165 81.3541L80.6193 82.4832C80.4569 82.5744 80.2264 82.6601 79.9278 82.7402C79.635 82.8198 79.3456 82.8726 79.0597 82.8986C78.552 82.9448 78.083 82.8992 77.6528 82.7619C77.2221 82.6187 76.8618 82.3455 76.5722 81.9423C76.2883 81.5386 76.1122 80.9604 76.0437 80.2077L75.5262 74.5183L74.1607 74.6425L74.0962 73.9335L75.4187 73.2396L75.8069 71.1038L76.6822 71.0242L76.8844 73.2474L79.6941 72.9918L79.7976 74.1297L76.9879 74.3853L77.5015 80.0309C77.5561 80.632 77.7341 81.0688 78.0355 81.3415C78.3426 81.6136 78.7267 81.7287 79.1877 81.6867ZM85.5048 72.3044C86.6485 72.2004 87.5209 72.3799 88.1219 72.843C88.723 73.306 89.0747 74.1007 89.1772 75.2269L89.7704 81.7478L88.7113 81.8442L88.3022 80.4517L88.2322 80.458C87.9956 80.8326 87.7423 81.1527 87.4723 81.4185C87.2018 81.6785 86.8795 81.8872 86.5055 82.0448C86.1369 82.196 85.6753 82.2968 85.121 82.3473C84.5375 82.4003 84.0088 82.3455 83.5351 82.1826C83.0672 82.0193 82.6831 81.7424 82.3828 81.352C82.0884 80.961 81.9123 80.4475 81.8544 79.8115C81.7673 78.8545 82.0798 78.0847 82.7916 77.5022C83.5035 76.9197 84.6334 76.5345 86.1813 76.3466L87.8293 76.1261L87.7759 75.5397C87.7006 74.7111 87.4698 74.1467 87.0836 73.8464C86.6973 73.5462 86.1804 73.4255 85.5327 73.4845C85.0308 73.5301 84.559 73.6466 84.1171 73.8339C83.6752 74.0212 83.2591 74.2326 82.8686 74.4681L82.3219 73.4059C82.7336 73.1448 83.2123 72.9101 83.7582 72.7016C84.304 72.4931 84.8862 72.3607 85.5048 72.3044ZM87.9049 77.1518L86.4488 77.3461C85.2568 77.5016 84.4314 77.7737 83.9725 78.1626C83.5137 78.5515 83.3129 79.061 83.3702 79.6912C83.4201 80.2398 83.6233 80.6302 83.9798 80.8625C84.3363 81.0948 84.7888 81.1861 85.3374 81.1362C86.1893 81.0587 86.8651 80.7589 87.3648 80.2369C87.8645 79.7149 88.0713 78.9812 87.9853 78.0359L87.9049 77.1518ZM94.4575 81.3215L92.9957 81.4544L91.7568 67.8349L93.2186 67.7019L94.4575 81.3215ZM103.23 70.8508L104.103 80.444L102.65 80.5762L101.777 70.983L103.23 70.8508ZM102.195 67.3266C102.434 67.3049 102.646 67.3651 102.829 67.5072C103.018 67.643 103.127 67.8743 103.157 68.2011C103.186 68.522 103.12 68.7692 102.96 68.9427C102.805 69.1156 102.608 69.213 102.369 69.2348C102.118 69.2576 101.9 69.1979 101.717 69.0558C101.539 68.9131 101.436 68.6813 101.406 68.3603C101.377 68.0335 101.437 67.7869 101.586 67.6203C101.741 67.4473 101.944 67.3494 102.195 67.3266ZM111.07 69.9612C112.208 69.8577 113.094 70.0595 113.729 70.5666C114.363 71.0678 114.736 71.9341 114.848 73.1653L115.416 79.4149L113.981 79.5455L113.421 73.3922C113.348 72.5928 113.11 72.0114 112.706 71.648C112.308 71.2841 111.733 71.1364 110.98 71.2049C109.918 71.3015 109.199 71.67 108.822 72.3103C108.444 72.9506 108.308 73.8426 108.412 74.9863L108.869 80.0105L107.416 80.1427L106.543 70.5495L107.716 70.4428L108.061 71.8058L108.14 71.7987C108.313 71.4416 108.547 71.135 108.841 70.8788C109.135 70.6167 109.472 70.4095 109.853 70.2572C110.233 70.0991 110.638 70.0004 111.07 69.9612ZM122.5 78.947C121.636 79.0256 120.859 78.9169 120.167 78.6209C119.475 78.325 118.912 77.829 118.478 77.133C118.044 76.437 117.777 75.5347 117.676 74.426C117.57 73.2648 117.677 72.299 117.995 71.5288C118.319 70.7521 118.805 70.1548 119.456 69.7367C120.106 69.3186 120.866 69.0701 121.736 68.991C122.214 68.9475 122.68 68.9551 123.132 69.014C123.59 69.0665 123.968 69.1526 124.268 69.2725L123.941 70.529C123.638 70.4388 123.29 70.3646 122.897 70.3062C122.509 70.2474 122.149 70.2331 121.816 70.2633C121.151 70.3238 120.609 70.5172 120.192 70.8435C119.78 71.1693 119.489 71.6194 119.317 72.1939C119.152 72.7679 119.106 73.4604 119.18 74.2715C119.251 75.0476 119.416 75.7004 119.676 76.2298C119.942 76.7587 120.298 77.1499 120.745 77.4034C121.197 77.6506 121.741 77.7453 122.377 77.6874C122.884 77.6412 123.338 77.547 123.736 77.4049C124.135 77.2568 124.494 77.0947 124.813 76.9186L124.931 78.214C124.625 78.4066 124.277 78.5647 123.888 78.6883C123.505 78.8114 123.043 78.8977 122.5 78.947ZM135.302 72.752C135.374 73.5398 135.336 74.2522 135.188 74.8893C135.04 75.5264 134.793 76.0755 134.446 76.5365C134.1 76.9975 133.663 77.3668 133.135 77.6442C132.613 77.9153 132.007 78.0822 131.318 78.1449C130.677 78.2032 130.077 78.146 129.52 77.9731C128.968 77.7938 128.478 77.509 128.048 77.1186C127.624 76.7276 127.276 76.2327 127.004 75.6338C126.738 75.0344 126.569 74.3408 126.497 73.553C126.401 72.5026 126.498 71.5937 126.787 70.826C127.076 70.0526 127.532 69.4433 128.157 68.9982C128.786 68.5467 129.559 68.2793 130.475 68.196C131.351 68.1163 132.133 68.2423 132.822 68.5738C133.517 68.9048 134.079 69.4244 134.508 70.1325C134.943 70.8343 135.207 71.7075 135.302 72.752ZM128.002 73.4161C128.072 74.1863 128.235 74.8452 128.491 75.3926C128.747 75.94 129.102 76.349 129.556 76.6195C130.01 76.8901 130.573 76.9948 131.244 76.9338C131.909 76.8733 132.44 76.669 132.838 76.321C133.242 75.9724 133.52 75.5058 133.673 74.9212C133.826 74.3366 133.867 73.6592 133.797 72.889C133.727 72.1245 133.565 71.4744 133.311 70.9387C133.055 70.3971 132.701 69.9939 132.247 69.7292C131.794 69.4645 131.229 69.363 130.552 69.4246C129.554 69.5153 128.852 69.9116 128.445 70.6135C128.044 71.3148 127.896 72.249 128.002 73.4161ZM148.012 66.6007C149.068 66.5047 149.89 66.7094 150.477 67.2149C151.064 67.7146 151.412 68.5742 151.523 69.7938L152.095 76.0784L150.66 76.209L150.094 69.9944C150.024 69.2183 149.802 68.6531 149.428 68.2987C149.06 67.938 148.546 67.7877 147.887 67.8476C146.959 67.932 146.309 68.2618 145.938 68.8368C145.567 69.4119 145.429 70.2217 145.524 71.2662L146.012 76.6318L144.568 76.7631L144.002 70.5486C143.955 70.0292 143.84 69.6043 143.657 69.2738C143.48 68.9428 143.234 68.7062 142.921 68.5641C142.614 68.4156 142.235 68.3617 141.786 68.4026C141.15 68.4605 140.651 68.6382 140.29 68.9358C139.929 69.2335 139.684 69.6499 139.556 70.1852C139.434 70.7141 139.407 71.3549 139.475 72.1076L139.937 77.1843L138.484 77.3165L137.612 67.7233L138.784 67.6166L139.127 68.9534L139.205 68.9462C139.368 68.5961 139.584 68.294 139.856 68.0399C140.127 67.7858 140.438 67.5839 140.789 67.4343C141.14 67.2847 141.52 67.1913 141.928 67.1541C142.658 67.0878 143.28 67.1694 143.795 67.3991C144.316 67.6224 144.712 68.0011 144.984 68.5353L145.063 68.5281C145.327 67.9451 145.722 67.4945 146.246 67.1761C146.77 66.852 147.358 66.6602 148.012 66.6007ZM158.117 65.6815C158.934 65.6072 159.65 65.7244 160.267 66.0331C160.883 66.3418 161.376 66.8089 161.745 67.4343C162.113 68.0539 162.336 68.7984 162.416 69.6678L162.498 70.5694L155.872 71.1721C155.992 72.2967 156.35 73.1291 156.946 73.6691C157.542 74.2091 158.333 74.4342 159.32 74.3445C159.927 74.2893 160.458 74.185 160.915 74.0317C161.372 73.8783 161.841 73.6709 162.323 73.4093L162.44 74.6873C161.975 74.9472 161.508 75.1486 161.038 75.2913C160.575 75.4335 160.019 75.5341 159.371 75.593C158.449 75.6768 157.627 75.5634 156.905 75.2525C156.187 74.9354 155.606 74.4293 155.16 73.7344C154.715 73.0395 154.444 72.164 154.348 71.1078C154.254 70.0749 154.345 69.1665 154.621 68.3824C154.902 67.592 155.339 66.9638 155.932 66.498C156.531 66.0317 157.259 65.7595 158.117 65.6815ZM158.208 66.8735C157.431 66.9441 156.836 67.2542 156.421 67.8038C156.006 68.3534 155.797 69.0873 155.792 70.0056L160.869 69.5438C160.811 68.9725 160.675 68.4789 160.46 68.063C160.251 67.6407 159.961 67.3259 159.589 67.1185C159.217 66.9053 158.756 66.8236 158.208 66.8735Z" fill="#494953"/>
<path d="M174.258 64.9171C175.242 63.8841 176.976 63.7264 178.13 64.5648C179.285 65.4032 179.423 66.9205 178.439 67.9535C178.268 68.1338 178.073 68.2868 177.864 68.4127C177.214 68.8041 176.623 69.4451 176.692 70.2009L176.754 70.8856M184.782 68.0843C184.881 69.1632 184.765 70.2509 184.443 71.2853C184.121 72.3197 183.598 73.2805 182.904 74.1128C182.211 74.9452 181.36 75.6327 180.401 76.1363C179.442 76.6399 178.393 76.9496 177.314 77.0477C176.235 77.1459 175.147 77.0306 174.113 76.7083C173.078 76.3861 172.117 75.8633 171.285 75.1698C170.453 74.4763 169.765 73.6256 169.262 72.6663C168.758 71.7071 168.448 70.658 168.35 69.5791C168.152 67.4 168.827 65.2315 170.228 63.5505C171.629 61.8695 173.64 60.8138 175.819 60.6156C177.998 60.4174 180.166 61.0929 181.847 62.4935C183.528 63.8942 184.584 65.9052 184.782 68.0843ZM177.002 73.6244L177.01 73.6237L177.01 73.631L177.003 73.6317L177.002 73.6244Z" stroke="#494953" stroke-width="1.5" stroke-linecap="round" stroke-linejoin="round"/>
<path d="M64.6535 123.706L64.4223 121.165C63.299 121.242 62.2864 121.228 61.3845 121.123C60.4903 121.009 59.6662 120.825 58.9122 120.57L58.6086 117.232C59.3564 117.513 60.2407 117.751 61.2614 117.947C62.2813 118.135 63.2448 118.217 64.1521 118.194L63.7955 114.275C62.4163 113.873 61.304 113.465 60.4588 113.049C59.6213 112.623 58.9983 112.128 58.5898 111.561C58.1891 110.986 57.9503 110.277 57.8737 109.434C57.7955 108.574 57.9556 107.812 58.354 107.147C58.7601 106.472 59.3546 105.908 60.1377 105.455C60.9208 105.001 61.8434 104.679 62.9054 104.489L62.7294 102.555L64.4615 102.397L64.6329 104.281C65.6137 104.226 66.5343 104.257 67.3948 104.374C68.263 104.482 69.1224 104.68 69.9729 104.968L69.0536 108.034C68.3364 107.811 67.6207 107.651 66.9065 107.554C66.2008 107.457 65.538 107.411 64.9181 107.416L65.2574 111.146C66.2244 111.407 67.1478 111.701 68.0274 112.029C68.9071 112.357 69.6408 112.808 70.2286 113.384C70.8163 113.959 71.1562 114.752 71.2482 115.764C71.3624 117.02 70.9989 118.115 70.1576 119.05C69.3248 119.984 67.9888 120.62 66.1499 120.957L66.3856 123.549L64.6535 123.706ZM65.8761 117.948C66.4569 117.793 66.8753 117.581 67.1312 117.311C67.3864 117.033 67.4959 116.696 67.4599 116.3C67.4384 116.064 67.356 115.859 67.2127 115.685C67.0694 115.511 66.8598 115.356 66.584 115.219C66.3158 115.074 65.9844 114.934 65.5898 114.8L65.8761 117.948ZM63.4609 110.596L63.1906 107.624C62.8496 107.706 62.5623 107.818 62.3286 107.958C62.0941 108.09 61.9217 108.25 61.8114 108.438C61.7011 108.627 61.657 108.843 61.6792 109.088C61.7015 109.332 61.7758 109.542 61.9023 109.718C62.0371 109.892 62.2298 110.049 62.4804 110.188C62.7394 110.326 63.0662 110.462 63.4609 110.596ZM79.7058 108.914C80.8353 108.811 81.8578 108.935 82.7735 109.285C83.6976 109.634 84.4505 110.203 85.0321 110.992C85.6138 111.78 85.9602 112.785 86.0714 114.008C86.1925 115.339 86.019 116.515 85.5509 117.535C85.0904 118.546 84.3357 119.358 83.2867 119.972C82.2462 120.585 80.9126 120.965 79.2858 121.113C78.3165 121.202 77.3943 121.2 76.5193 121.11C75.6534 121.027 74.8848 120.847 74.2136 120.568L73.9065 117.192C74.5778 117.471 75.3708 117.688 76.2858 117.842C77.2083 117.988 78.0658 118.025 78.8581 117.953C79.6335 117.882 80.2775 117.722 80.7902 117.471C81.302 117.212 81.6732 116.855 81.9038 116.401C82.1421 115.937 82.2306 115.368 82.1693 114.694C82.0872 113.792 81.7209 113.129 81.0703 112.703C80.4198 112.278 79.4665 112.123 78.2106 112.237C77.7302 112.281 77.2329 112.372 76.7188 112.513C76.2131 112.652 75.7916 112.784 75.4545 112.908L73.8235 112.215L73.662 102.733L83.688 101.821L83.9893 105.133L77.3896 105.734L77.3783 109.393C77.6595 109.308 77.966 109.221 78.2978 109.131C78.6296 109.042 79.0989 108.969 79.7058 108.914ZM88.2628 112.126C88.1662 111.063 88.1466 110.007 88.204 108.957C88.2691 107.897 88.4537 106.89 88.7579 105.936C89.0612 104.974 89.5305 104.107 90.1657 103.335C90.8001 102.555 91.6384 101.913 92.6804 101.411C93.7217 100.9 95.0094 100.574 96.5434 100.435C96.9059 100.402 97.3288 100.38 97.8124 100.37C98.3035 100.351 98.7123 100.361 99.0387 100.399L99.3228 103.522C98.9788 103.477 98.611 103.451 98.2194 103.444C97.8355 103.428 97.4539 103.437 97.0746 103.471C95.5406 103.611 94.3744 103.963 93.576 104.529C92.786 105.094 92.2577 105.826 91.9911 106.726C91.7322 107.616 91.6253 108.637 91.6706 109.789L91.835 109.774C92.0334 109.339 92.295 108.946 92.6199 108.593C92.9532 108.24 93.3685 107.947 93.8658 107.715C94.3623 107.474 94.9562 107.323 95.6473 107.26C96.7262 107.162 97.6829 107.308 98.5173 107.7C99.351 108.083 100.022 108.689 100.531 109.518C101.04 110.347 101.351 111.385 101.465 112.633C101.586 113.965 101.433 115.134 101.006 116.142C100.579 117.15 99.9175 117.953 99.0202 118.553C98.1306 119.144 97.0411 119.498 95.7515 119.616C94.8074 119.701 93.9121 119.621 93.0653 119.376C92.2179 119.121 91.4562 118.689 90.7803 118.079C90.1044 117.469 89.5477 116.674 89.1101 115.694C88.6718 114.706 88.3893 113.516 88.2628 112.126ZM95.3915 116.5C96.1585 116.43 96.7585 116.112 97.1914 115.546C97.6243 114.979 97.7901 114.14 97.6889 113.027C97.6069 112.125 97.3318 111.437 96.8636 110.961C96.403 110.476 95.7513 110.272 94.9084 110.348C94.3353 110.4 93.8414 110.577 93.4269 110.878C93.02 111.17 92.7166 111.525 92.5167 111.943C92.3159 112.352 92.2343 112.763 92.2719 113.176C92.311 113.606 92.4087 114.026 92.5651 114.437C92.7214 114.847 92.9333 115.215 93.2008 115.539C93.4682 115.863 93.7843 116.115 94.149 116.294C94.5222 116.472 94.9364 116.541 95.3915 116.5ZM105.986 118.43L111.545 102.601L102.429 103.43L102.13 100.143L115.393 98.9368L115.616 101.39L110.083 118.057L105.986 118.43ZM119.481 115.379C119.409 114.587 119.573 114.011 119.974 113.652C120.383 113.291 120.895 113.083 121.51 113.027C122.109 112.973 122.638 113.086 123.097 113.368C123.564 113.648 123.834 114.184 123.906 114.977C123.975 115.735 123.805 116.303 123.398 116.68C122.999 117.056 122.5 117.272 121.901 117.326C121.286 117.382 120.744 117.261 120.275 116.964C119.814 116.666 119.55 116.138 119.481 115.379ZM137.713 101.075C137.791 101.926 137.681 102.68 137.384 103.336C137.086 103.992 136.652 104.545 136.081 104.997C135.519 105.447 134.871 105.799 134.138 106.053L134.145 106.129C135.645 106.179 136.812 106.532 137.645 107.187C138.486 107.842 138.962 108.776 139.072 109.989C139.171 111.068 138.993 112.057 138.539 112.957C138.094 113.856 137.346 114.6 136.295 115.188C135.243 115.777 133.854 116.15 132.126 116.307C131.106 116.4 130.146 116.402 129.246 116.314C128.354 116.233 127.506 116.06 126.7 115.793L126.397 112.468C127.226 112.801 128.085 113.033 128.972 113.165C129.858 113.288 130.677 113.315 131.427 113.247C132.826 113.12 133.782 112.791 134.295 112.26C134.815 111.719 135.035 111.011 134.955 110.134C134.909 109.62 134.738 109.198 134.445 108.868C134.151 108.538 133.672 108.309 133.006 108.183C132.348 108.056 131.442 108.045 130.288 108.15L128.884 108.277L128.612 105.281L130.04 105.151C131.178 105.047 132.033 104.864 132.603 104.599C133.182 104.326 133.56 103.994 133.737 103.604C133.921 103.204 133.992 102.765 133.948 102.284C133.888 101.627 133.639 101.131 133.201 100.797C132.763 100.463 132.071 100.339 131.127 100.425C130.537 100.478 130.005 100.603 129.53 100.799C129.062 100.986 128.644 101.203 128.276 101.449C127.907 101.686 127.583 101.916 127.306 102.136L125.253 99.6078C125.93 99.0193 126.738 98.5081 127.676 98.0744C128.622 97.6399 129.769 97.3613 131.118 97.2386C133.023 97.0653 134.567 97.3116 135.749 97.9774C136.931 98.6432 137.586 99.6757 137.713 101.075ZM154.858 110.121L152.633 110.324L152.981 114.155L149.163 114.502L148.814 110.671L140.925 111.389L140.678 108.671L147.696 95.9982L151.3 95.6705L152.357 107.289L154.582 107.087L154.858 110.121ZM148.538 107.637L148.253 104.501C148.226 104.206 148.199 103.856 148.17 103.451C148.15 103.045 148.13 102.639 148.11 102.232C148.09 101.826 148.075 101.467 148.063 101.153C148.059 100.831 148.056 100.606 148.053 100.478L147.952 100.488C147.823 100.848 147.685 101.2 147.538 101.545C147.39 101.882 147.214 102.237 147.01 102.613L144.088 108.042L148.538 107.637ZM173.075 112.327L168.625 112.732L163.074 105.384L161.526 106.723L162.126 113.323L158.207 113.679L156.525 95.1951L160.445 94.8385L161.214 103.297C161.443 102.911 161.667 102.525 161.887 102.139C162.106 101.754 162.331 101.368 162.559 100.982L166.994 94.2428L171.343 93.8472L165.639 102.614L173.075 112.327Z" fill="#494953"/>
<circle cx="81.2127" cy="163.517" r="17.5" transform="rotate(-5.19768 81.2127 163.517)" fill="#EDF2F6"/>
<path d="M80.9434 160.642L81.5549 167.365M81.5549 167.365L78.2954 164.649M81.5549 167.365L84.2708 164.105M76.5982 170.828C75.5322 170.926 74.4661 170.641 73.5913 170.024C72.7166 169.407 72.0906 168.498 71.8257 167.46C71.5608 166.423 71.6743 165.325 72.146 164.364C72.6177 163.403 73.4165 162.642 74.3991 162.217C74.0176 160.907 74.1608 159.5 74.7984 158.295C75.436 157.089 76.5179 156.178 77.8151 155.756C79.1122 155.334 80.5227 155.433 81.7479 156.033C82.9731 156.633 83.9167 157.686 84.3789 158.969C84.8931 158.749 85.4587 158.676 86.0118 158.76C86.5649 158.844 87.0835 159.081 87.509 159.445C87.9345 159.808 88.25 160.283 88.4198 160.816C88.5897 161.349 88.6071 161.919 88.4701 162.461C89.3137 162.698 90.0477 163.223 90.5446 163.945C91.0416 164.667 91.2702 165.54 91.1909 166.413C91.1115 167.285 90.7292 168.103 90.1102 168.723C89.4912 169.344 88.6746 169.728 87.802 169.809L76.5982 170.828Z" stroke="#FF5656" stroke-width="2" stroke-linecap="round" stroke-linejoin="round"/>
<path d="M119.576 154.817C119.628 155.395 119.557 155.907 119.362 156.354C119.168 156.802 118.879 157.181 118.495 157.492C118.117 157.797 117.668 158.032 117.147 158.197L117.153 158.259C118.186 158.294 118.985 158.545 119.551 159.011C120.123 159.477 120.448 160.133 120.524 160.979C120.592 161.72 120.474 162.399 120.171 163.014C119.868 163.625 119.364 164.129 118.659 164.529C117.954 164.928 117.024 165.181 115.868 165.286C115.174 165.349 114.524 165.352 113.919 165.295C113.319 165.238 112.743 165.111 112.189 164.914L112.023 163.085C112.59 163.304 113.187 163.459 113.813 163.549C114.439 163.639 115.026 163.659 115.574 163.609C116.642 163.512 117.386 163.244 117.805 162.806C118.223 162.362 118.4 161.787 118.336 161.081C118.295 160.626 118.141 160.263 117.875 159.993C117.615 159.723 117.231 159.537 116.722 159.436C116.218 159.335 115.578 159.32 114.802 159.39L113.673 159.493L113.523 157.839L114.661 157.735C115.402 157.668 115.989 157.526 116.422 157.31C116.855 157.088 117.156 156.811 117.326 156.478C117.502 156.144 117.57 155.767 117.532 155.347C117.482 154.799 117.266 154.389 116.882 154.118C116.498 153.841 115.956 153.734 115.256 153.798C114.824 153.837 114.434 153.923 114.087 154.054C113.746 154.185 113.434 154.34 113.15 154.519C112.866 154.698 112.598 154.887 112.346 155.086L111.227 153.75C111.678 153.344 112.228 152.985 112.876 152.673C113.525 152.361 114.295 152.164 115.188 152.083C116.501 151.964 117.539 152.155 118.302 152.656C119.065 153.151 119.49 153.872 119.576 154.817ZM131.663 160.84L129.929 160.997L130.185 163.807L128.154 163.992L127.899 161.182L122.078 161.711L121.936 160.153L127.013 151.157L129.018 150.975L129.774 159.29L131.507 159.133L131.663 160.84ZM127.744 159.475L127.454 156.298C127.431 156.035 127.409 155.769 127.391 155.5C127.378 155.225 127.365 154.962 127.354 154.71C127.343 154.458 127.334 154.226 127.326 154.015C127.318 153.798 127.311 153.619 127.304 153.479L127.234 153.485C127.144 153.728 127.044 153.979 126.932 154.236C126.819 154.488 126.697 154.734 126.566 154.975L123.831 159.831L127.744 159.475ZM134.741 163.392L138.765 151.942L132.122 152.546L131.958 150.743L140.815 149.937L140.944 151.346L136.955 163.191L134.741 163.392ZM144.038 161.452C143.995 160.974 144.087 160.627 144.314 160.412C144.547 160.191 144.842 160.064 145.198 160.032C145.554 160 145.866 160.071 146.135 160.247C146.409 160.416 146.568 160.74 146.612 161.218C146.654 161.685 146.557 162.035 146.319 162.269C146.087 162.496 145.792 162.625 145.436 162.658C145.081 162.69 144.768 162.616 144.498 162.434C144.234 162.246 144.081 161.919 144.038 161.452ZM157.586 161.314L148.92 162.103L148.78 160.553L151.791 156.89C152.374 156.178 152.85 155.567 153.222 155.057C153.593 154.541 153.858 154.061 154.017 153.617C154.183 153.172 154.243 152.699 154.197 152.197C154.141 151.579 153.92 151.128 153.536 150.845C153.151 150.557 152.666 150.439 152.083 150.492C151.528 150.542 151.025 150.7 150.573 150.965C150.125 151.223 149.669 151.576 149.204 152.025L147.951 150.771C148.28 150.435 148.634 150.123 149.014 149.836C149.399 149.548 149.836 149.308 150.325 149.116C150.813 148.919 151.378 148.791 152.02 148.733C152.831 148.659 153.544 148.741 154.16 148.979C154.776 149.212 155.264 149.57 155.626 150.055C155.994 150.539 156.209 151.123 156.271 151.805C156.333 152.494 156.254 153.143 156.033 153.751C155.812 154.36 155.473 154.973 155.018 155.591C154.562 156.203 154.014 156.874 153.374 157.603L151.356 159.966L151.365 160.062L157.422 159.511L157.586 161.314ZM162.546 147.784C163.287 147.717 163.966 147.772 164.582 147.952C165.198 148.125 165.702 148.424 166.093 148.847C166.485 149.27 166.711 149.817 166.772 150.488C166.819 151.008 166.753 151.47 166.572 151.875C166.397 152.279 166.142 152.643 165.806 152.968C165.471 153.287 165.088 153.577 164.659 153.84C165.183 154.04 165.67 154.281 166.119 154.563C166.574 154.84 166.949 155.179 167.244 155.582C167.546 155.984 167.722 156.471 167.774 157.043C167.84 157.76 167.712 158.399 167.393 158.957C167.078 159.509 166.61 159.958 165.988 160.303C165.366 160.642 164.623 160.851 163.759 160.929C162.832 161.014 162.028 160.948 161.35 160.734C160.671 160.519 160.14 160.173 159.755 159.696C159.37 159.213 159.145 158.616 159.08 157.904C159.027 157.315 159.097 156.794 159.291 156.341C159.485 155.888 159.763 155.486 160.126 155.135C160.494 154.784 160.904 154.479 161.358 154.22C160.933 154.017 160.541 153.782 160.181 153.515C159.821 153.242 159.524 152.919 159.29 152.546C159.061 152.166 158.924 151.717 158.876 151.198C158.816 150.533 158.943 149.959 159.258 149.477C159.573 148.99 160.017 148.602 160.591 148.315C161.171 148.027 161.822 147.85 162.546 147.784ZM161.034 157.647C161.085 158.207 161.325 158.65 161.755 158.976C162.185 159.302 162.793 159.429 163.581 159.357C164.363 159.286 164.942 159.054 165.318 158.661C165.694 158.267 165.856 157.779 165.803 157.196C165.769 156.822 165.634 156.502 165.398 156.235C165.167 155.968 164.867 155.739 164.497 155.549C164.132 155.353 163.73 155.178 163.293 155.023L163.002 154.935C162.565 155.169 162.194 155.423 161.889 155.698C161.584 155.967 161.355 156.262 161.202 156.582C161.054 156.901 160.998 157.256 161.034 157.647ZM162.673 149.37C162.107 149.421 161.652 149.604 161.31 149.917C160.973 150.225 160.829 150.638 160.876 151.157C160.909 151.525 161.026 151.832 161.224 152.079C161.429 152.325 161.692 152.53 162.013 152.695C162.334 152.854 162.685 152.999 163.067 153.129C163.409 152.939 163.714 152.738 163.983 152.525C164.258 152.306 164.467 152.057 164.613 151.779C164.763 151.495 164.822 151.166 164.788 150.792C164.741 150.279 164.521 149.902 164.129 149.661C163.741 149.414 163.256 149.317 162.673 149.37ZM171.451 146.965C172.391 146.88 173.134 147.165 173.682 147.821C174.23 148.471 174.562 149.433 174.677 150.705C174.792 151.971 174.649 152.981 174.247 153.736C173.851 154.49 173.162 154.911 172.182 155C171.266 155.084 170.536 154.791 169.993 154.123C169.45 153.454 169.121 152.487 169.005 151.221C168.89 149.949 169.025 148.945 169.411 148.21C169.802 147.468 170.483 147.053 171.451 146.965ZM171.591 148.4C171.211 148.434 170.951 148.673 170.808 149.115C170.672 149.557 170.643 150.21 170.722 151.073C170.8 151.931 170.946 152.571 171.161 152.993C171.381 153.408 171.681 153.598 172.06 153.564C172.445 153.529 172.712 153.287 172.859 152.838C173.012 152.389 173.05 151.732 172.971 150.869C172.893 150.011 172.741 149.378 172.516 148.969C172.29 148.554 171.981 148.364 171.591 148.4ZM180.063 146.367L174.129 159.809L172.439 159.963L178.374 146.521L180.063 146.367ZM180.276 151.325C181.215 151.24 181.959 151.525 182.507 152.181C183.061 152.831 183.395 153.792 183.511 155.064C183.625 156.324 183.482 157.332 183.08 158.086C182.684 158.84 181.992 159.262 181.006 159.352C180.09 159.435 179.36 159.142 178.817 158.474C178.274 157.806 177.945 156.841 177.83 155.581C177.714 154.309 177.85 153.305 178.236 152.57C178.627 151.828 179.307 151.413 180.276 151.325ZM180.415 152.76C180.036 152.794 179.775 153.033 179.633 153.475C179.497 153.917 179.468 154.57 179.547 155.433C179.625 156.291 179.771 156.931 179.986 157.353C180.206 157.768 180.506 157.959 180.885 157.924C181.276 157.888 181.546 157.649 181.694 157.206C181.841 156.757 181.875 156.098 181.796 155.229C181.718 154.371 181.566 153.738 181.341 153.329C181.115 152.914 180.806 152.724 180.415 152.76Z" fill="#494953"/>
<defs>
<filter id="filter0_d_27_396" x="0.1604" y="0.1604" width="293.162" height="234.318" filterUnits="userSpaceOnUse" color-interpolation-filters="sRGB">
<feFlood flood-opacity="0" result="BackgroundImageFix"/>
<feColorMatrix in="SourceAlpha" type="matrix" values="0 0 0 0 0 0 0 0 0 0 0 0 0 0 0 0 0 0 127 0" result="hardAlpha"/>
<feOffset dx="1" dy="1"/>
<feGaussianBlur stdDeviation="15"/>
<feComposite in2="hardAlpha" operator="out"/>
<feColorMatrix type="matrix" values="0 0 0 0 0 0 0 0 0 0 0 0 0 0 0 0 0 0 0.15 0"/>
<feBlend mode="normal" in2="BackgroundImageFix" result="effect1_dropShadow_27_396"/>
<feBlend mode="normal" in="SourceGraphic" in2="effect1_dropShadow_27_396" result="shape"/>
</filter>
</defs>
</svg>
