<svg width="20" height="20" viewBox="0 0 20 20" fill="none" xmlns="http://www.w3.org/2000/svg">
<path d="M18.3332 5.9496V14.2829C18.3332 14.8355 18.1137 15.3654 17.723 15.7561C17.3323 16.1468 16.8024 16.3663 16.2498 16.3663H3.74984C3.1973 16.3663 2.6674 16.1468 2.2767 15.7561C1.886 15.3654 1.6665 14.8355 1.6665 14.2829V5.9496" stroke="#8D8BA7" stroke-width="1.4" stroke-linecap="round" stroke-linejoin="round"/>
<path d="M18.3332 5.94961C18.3332 5.39707 18.1137 4.86717 17.723 4.47647C17.3323 4.08577 16.8024 3.86627 16.2498 3.86627H3.74984C3.1973 3.86627 2.6674 4.08577 2.2767 4.47647C1.886 4.86717 1.6665 5.39707 1.6665 5.94961L8.89567 10.4635C9.22678 10.6704 9.60938 10.7802 9.99984 10.7802C10.3903 10.7802 10.7729 10.6704 11.104 10.4635L18.3332 5.94961Z" stroke="#8D8BA7" stroke-width="1.4" stroke-linecap="round" stroke-linejoin="round"/>
</svg>
