<svg width="47" height="47" viewBox="0 0 47 47" fill="none" xmlns="http://www.w3.org/2000/svg">
<circle cx="23.5" cy="23.5" r="23.5" fill="#EDF2F6"/>
<path d="M23 36.75C25.8262 36.7498 28.5724 35.811 30.8073 34.081C33.0422 32.351 34.6392 29.9278 35.3477 27.1918M23 36.75C20.1738 36.7498 17.4276 35.811 15.1927 34.081C12.9578 32.351 11.3608 29.9278 10.6523 27.1918M23 36.75C26.5204 36.75 29.375 31.0408 29.375 24C29.375 16.9592 26.5204 11.25 23 11.25M23 36.75C19.4796 36.75 16.625 31.0408 16.625 24C16.625 16.9592 19.4796 11.25 23 11.25M35.3477 27.1918C35.6098 26.1718 35.75 25.1022 35.75 24C35.7535 21.8072 35.1888 19.6508 34.1109 17.7412M35.3477 27.1918C31.5697 29.2861 27.3197 30.3818 23 30.375C18.5205 30.375 14.3116 29.2204 10.6523 27.1918M10.6523 27.1918C10.3842 26.149 10.249 25.0766 10.25 24C10.25 21.7263 10.845 19.5899 11.8891 17.7412M23 11.25C25.2613 11.2491 27.4822 11.8498 29.4348 12.9905C31.3873 14.1312 33.0012 15.7708 34.1109 17.7412M23 11.25C20.7387 11.2491 18.5178 11.8498 16.5652 12.9905C14.6127 14.1312 12.9988 15.7708 11.8891 17.7412M34.1109 17.7412C31.0264 20.4129 27.0808 21.8809 23 21.875C18.7528 21.875 14.8683 20.3167 11.8891 17.7412" stroke="#6A7EFC" stroke-width="2" stroke-linecap="round" stroke-linejoin="round"/>
</svg>
