<svg width="20" height="20" viewBox="0 0 20 20" fill="none" xmlns="http://www.w3.org/2000/svg">
<path d="M12.2514 17.3852L12.2605 17.3915C13.0476 17.8927 13.982 18.1103 14.9095 18.0084C15.837 17.9066 16.7019 17.4913 17.3615 16.8314L17.9344 16.2584C18.0614 16.1315 18.1621 15.9809 18.2308 15.815C18.2995 15.6492 18.3349 15.4715 18.3349 15.292C18.3349 15.1125 18.2995 14.9347 18.2308 14.7689C18.1621 14.6031 18.0614 14.4524 17.9344 14.3255L15.5178 11.9108C15.3909 11.7838 15.2403 11.6831 15.0745 11.6144C14.9086 11.5457 14.7309 11.5103 14.5514 11.5103C14.3719 11.5103 14.1941 11.5457 14.0283 11.6144C13.8625 11.6831 13.7118 11.7838 13.5849 11.9108C13.3287 12.1669 12.9813 12.3108 12.619 12.3108C12.2567 12.3108 11.9092 12.1669 11.653 11.9108L7.78901 8.04592C7.53287 7.7897 7.38897 7.44223 7.38897 7.07993C7.38897 6.71763 7.53287 6.37017 7.78901 6.11394C7.91598 5.98706 8.0167 5.8364 8.08542 5.67057C8.15414 5.50474 8.18951 5.327 8.18951 5.1475C8.18951 4.968 8.15414 4.79026 8.08542 4.62443C8.0167 4.4586 7.91598 4.30794 7.78901 4.18105L5.37336 1.76631C5.11714 1.51017 4.76967 1.36627 4.40737 1.36627C4.04507 1.36627 3.69761 1.51017 3.44138 1.76631L2.86753 2.33926C2.20768 2.9989 1.79262 3.86391 1.69093 4.79137C1.58924 5.71884 1.80701 6.65324 2.30825 7.44018L2.31371 7.44929C4.9609 11.3659 8.33434 14.7387 12.2514 17.3852V17.3852Z" stroke="#8D8BA7" stroke-width="1.4" stroke-linecap="round" stroke-linejoin="round"/>
</svg>
