<svg width="50" height="50" viewBox="0 0 50 50" fill="none" xmlns="http://www.w3.org/2000/svg">
<path d="M25 3.125C25.4144 3.125 25.8118 3.28962 26.1049 3.58265C26.3979 3.87567 26.5625 4.2731 26.5625 4.6875V15.625H23.4375V4.6875C23.4375 4.2731 23.6021 3.87567 23.8951 3.58265C24.1882 3.28962 24.5856 3.125 25 3.125ZM23.4375 15.625V27.4792L19.8542 23.8958C19.558 23.6198 19.1662 23.4696 18.7614 23.4767C18.3566 23.4839 17.9704 23.6478 17.6841 23.9341C17.3978 24.2204 17.2339 24.6066 17.2267 25.0114C17.2196 25.4162 17.3698 25.808 17.6458 26.1042L23.8958 32.3542C24.1888 32.6468 24.5859 32.8111 25 32.8111C25.4141 32.8111 25.8112 32.6468 26.1042 32.3542L32.3542 26.1042C32.5077 25.9611 32.6308 25.7886 32.7162 25.597C32.8016 25.4053 32.8475 25.1984 32.8512 24.9886C32.8549 24.7788 32.8163 24.5704 32.7378 24.3758C32.6592 24.1813 32.5422 24.0045 32.3938 23.8562C32.2455 23.7078 32.0687 23.5908 31.8742 23.5122C31.6796 23.4337 31.4712 23.3951 31.2614 23.3988C31.0516 23.4025 30.8447 23.4484 30.653 23.5338C30.4614 23.6192 30.2889 23.7423 30.1458 23.8958L26.5625 27.4792V15.625H34.375C36.0326 15.625 37.6223 16.2835 38.7944 17.4556C39.9665 18.6277 40.625 20.2174 40.625 21.875V40.625C40.625 42.2826 39.9665 43.8723 38.7944 45.0444C37.6223 46.2165 36.0326 46.875 34.375 46.875H15.625C13.9674 46.875 12.3777 46.2165 11.2056 45.0444C10.0335 43.8723 9.375 42.2826 9.375 40.625V21.875C9.375 20.2174 10.0335 18.6277 11.2056 17.4556C12.3777 16.2835 13.9674 15.625 15.625 15.625H23.4375Z" fill="#EDF2F6"/>
</svg>
