<svg width="257" height="165" viewBox="0 0 257 165" fill="none" xmlns="http://www.w3.org/2000/svg">
<g filter="url(#filter0_d_27_394)">
<rect x="29" y="29" width="197" height="105" rx="25" fill="white"/>
</g>
<path d="M61.0088 65.5811C61.0088 66.3428 60.8184 66.9932 60.4375 67.5322C60.0625 68.0654 59.5352 68.4727 58.8555 68.7539C58.1758 69.0352 57.376 69.1758 56.4561 69.1758C55.9697 69.1758 55.5098 69.1523 55.0762 69.1055C54.6426 69.0586 54.2441 68.9912 53.8809 68.9033C53.5176 68.8154 53.1982 68.707 52.9229 68.5781V67.1455C53.3623 67.3271 53.8984 67.4971 54.5312 67.6553C55.1641 67.8076 55.8262 67.8838 56.5176 67.8838C57.1621 67.8838 57.707 67.7988 58.1523 67.6289C58.5977 67.4531 58.9346 67.2041 59.1631 66.8818C59.3975 66.5537 59.5146 66.1611 59.5146 65.7041C59.5146 65.2646 59.418 64.8984 59.2246 64.6055C59.0312 64.3066 58.709 64.0371 58.2578 63.7969C57.8125 63.5508 57.2031 63.29 56.4297 63.0146C55.8848 62.8213 55.4043 62.6104 54.9883 62.3818C54.5723 62.1475 54.2236 61.8838 53.9424 61.5908C53.6611 61.2979 53.4473 60.958 53.3008 60.5713C53.1602 60.1846 53.0898 59.7422 53.0898 59.2441C53.0898 58.5586 53.2627 57.9727 53.6084 57.4863C53.96 56.9941 54.4434 56.6191 55.0586 56.3613C55.6797 56.0977 56.3916 55.9658 57.1943 55.9658C57.8799 55.9658 58.5127 56.0303 59.0928 56.1592C59.6787 56.2881 60.2148 56.4609 60.7012 56.6777L60.2354 57.9609C59.7725 57.7676 59.2803 57.6064 58.7588 57.4775C58.2432 57.3486 57.71 57.2842 57.1592 57.2842C56.6084 57.2842 56.1426 57.3662 55.7617 57.5303C55.3867 57.6885 55.0996 57.9141 54.9004 58.207C54.7012 58.5 54.6016 58.8486 54.6016 59.2529C54.6016 59.7041 54.6953 60.0791 54.8828 60.3779C55.0762 60.6768 55.3809 60.9434 55.7969 61.1777C56.2188 61.4062 56.7754 61.6465 57.4668 61.8984C58.2227 62.1738 58.8643 62.4668 59.3916 62.7773C59.9189 63.082 60.3203 63.457 60.5957 63.9023C60.8711 64.3418 61.0088 64.9014 61.0088 65.5811ZM71.4897 68.9824L69.7758 63.375C69.6996 63.1348 69.6264 62.9004 69.5561 62.6719C69.4916 62.4375 69.4301 62.2148 69.3715 62.0039C69.3188 61.7871 69.269 61.5879 69.2221 61.4062C69.1811 61.2188 69.1459 61.0576 69.1166 60.9229H69.0551C69.0317 61.0576 68.9994 61.2188 68.9584 61.4062C68.9174 61.5879 68.8676 61.7871 68.809 62.0039C68.7563 62.2207 68.6977 62.4492 68.6332 62.6895C68.5688 62.9238 68.4955 63.1611 68.4135 63.4014L66.6205 68.9824H64.977L62.3227 59.3496H63.8344L65.2231 64.667C65.3168 65.0186 65.4047 65.3672 65.4867 65.7129C65.5746 66.0527 65.6479 66.375 65.7065 66.6797C65.7709 66.9785 65.8178 67.2393 65.8471 67.4619H65.9174C65.9526 67.3154 65.9906 67.1396 66.0317 66.9346C66.0785 66.7295 66.1283 66.5127 66.1811 66.2842C66.2397 66.0498 66.3012 65.8184 66.3656 65.5898C66.4301 65.3555 66.4946 65.1357 66.559 64.9307L68.3344 59.3496H69.9076L71.6215 64.9219C71.7094 65.2031 71.7944 65.4961 71.8764 65.8008C71.9643 66.1055 72.0434 66.4014 72.1137 66.6885C72.184 66.9697 72.2338 67.2217 72.2631 67.4443H72.3334C72.3569 67.2451 72.4008 66.999 72.4653 66.7061C72.5297 66.4131 72.603 66.0908 72.685 65.7393C72.7729 65.3877 72.8637 65.0303 72.9574 64.667L74.3637 59.3496H75.849L73.186 68.9824H71.4897ZM81.4432 59.209C82.5916 59.209 83.4442 59.4668 84.0008 59.9824C84.5575 60.498 84.8358 61.3213 84.8358 62.4521V69H83.7723L83.4911 67.5762H83.4207C83.1512 67.9277 82.87 68.2236 82.577 68.4639C82.284 68.6982 81.9442 68.877 81.5575 69C81.1766 69.1172 80.7079 69.1758 80.1512 69.1758C79.5653 69.1758 79.0438 69.0732 78.5868 68.8682C78.1356 68.6631 77.7782 68.3525 77.5145 67.9365C77.2567 67.5205 77.1278 66.9932 77.1278 66.3545C77.1278 65.3936 77.5086 64.6553 78.2704 64.1396C79.0321 63.624 80.1922 63.3428 81.7508 63.2959L83.412 63.2256V62.6367C83.412 61.8047 83.2332 61.2217 82.8758 60.8877C82.5184 60.5537 82.0145 60.3867 81.3641 60.3867C80.8602 60.3867 80.3797 60.46 79.9227 60.6064C79.4657 60.7529 79.0321 60.9258 78.6219 61.125L78.1737 60.0176C78.6073 59.7949 79.1053 59.6045 79.6678 59.4463C80.2303 59.2881 80.8221 59.209 81.4432 59.209ZM83.3944 64.2539L81.9266 64.3154C80.7254 64.3623 79.8788 64.5586 79.3866 64.9043C78.8944 65.25 78.6483 65.7393 78.6483 66.3721C78.6483 66.9229 78.8153 67.3301 79.1493 67.5938C79.4832 67.8574 79.9256 67.9893 80.4764 67.9893C81.3319 67.9893 82.0321 67.752 82.577 67.2773C83.1219 66.8027 83.3944 66.0908 83.3944 65.1416V64.2539ZM92.6009 59.1914C93.802 59.1914 94.76 59.6045 95.4749 60.4307C96.1897 61.2568 96.5471 62.499 96.5471 64.1572C96.5471 65.2529 96.3831 66.1729 96.055 66.917C95.7268 67.6611 95.2639 68.2236 94.6663 68.6045C94.0745 68.9854 93.3743 69.1758 92.5657 69.1758C92.0559 69.1758 91.6077 69.1084 91.221 68.9736C90.8343 68.8389 90.5032 68.6572 90.2278 68.4287C89.9524 68.2002 89.7239 67.9512 89.5423 67.6816H89.4368C89.4544 67.9102 89.4749 68.1855 89.4983 68.5078C89.5276 68.8301 89.5423 69.1113 89.5423 69.3516V73.3066H88.0745V59.3672H89.2786L89.4719 60.791H89.5423C89.7298 60.498 89.9583 60.2314 90.2278 59.9912C90.4973 59.7451 90.8255 59.5518 91.2122 59.4111C91.6048 59.2646 92.0676 59.1914 92.6009 59.1914ZM92.346 60.4219C91.678 60.4219 91.1389 60.5508 90.7288 60.8086C90.3245 61.0664 90.0286 61.4531 89.8411 61.9688C89.6536 62.4785 89.554 63.1201 89.5423 63.8936V64.1748C89.5423 64.9893 89.6301 65.6777 89.8059 66.2402C89.9876 66.8027 90.2835 67.2305 90.6936 67.5234C91.1096 67.8164 91.6663 67.9629 92.3635 67.9629C92.9612 67.9629 93.4593 67.8018 93.8577 67.4795C94.2561 67.1572 94.552 66.709 94.7454 66.1348C94.9446 65.5547 95.0442 64.8896 95.0442 64.1396C95.0442 63.0029 94.8216 62.1006 94.3762 61.4326C93.9368 60.7588 93.26 60.4219 92.346 60.4219ZM103.855 59.1914C105.056 59.1914 106.014 59.6045 106.729 60.4307C107.444 61.2568 107.801 62.499 107.801 64.1572C107.801 65.2529 107.637 66.1729 107.309 66.917C106.981 67.6611 106.518 68.2236 105.921 68.6045C105.329 68.9854 104.629 69.1758 103.82 69.1758C103.31 69.1758 102.862 69.1084 102.475 68.9736C102.089 68.8389 101.758 68.6572 101.482 68.4287C101.207 68.2002 100.978 67.9512 100.797 67.6816H100.691C100.709 67.9102 100.729 68.1855 100.753 68.5078C100.782 68.8301 100.797 69.1113 100.797 69.3516V73.3066H99.3288V59.3672H100.533L100.726 60.791H100.797C100.984 60.498 101.213 60.2314 101.482 59.9912C101.752 59.7451 102.08 59.5518 102.466 59.4111C102.859 59.2646 103.322 59.1914 103.855 59.1914ZM103.6 60.4219C102.932 60.4219 102.393 60.5508 101.983 60.8086C101.579 61.0664 101.283 61.4531 101.095 61.9688C100.908 62.4785 100.808 63.1201 100.797 63.8936V64.1748C100.797 64.9893 100.884 65.6777 101.06 66.2402C101.242 66.8027 101.538 67.2305 101.948 67.5234C102.364 67.8164 102.921 67.9629 103.618 67.9629C104.216 67.9629 104.714 67.8018 105.112 67.4795C105.51 67.1572 105.806 66.709 106 66.1348C106.199 65.5547 106.299 64.8896 106.299 64.1396C106.299 63.0029 106.076 62.1006 105.631 61.4326C105.191 60.7588 104.514 60.4219 103.6 60.4219ZM114.292 59.1914C115.112 59.1914 115.816 59.373 116.401 59.7363C116.987 60.0996 117.436 60.6094 117.746 61.2656C118.057 61.916 118.212 62.6777 118.212 63.5508V64.4561H111.559C111.576 65.5869 111.858 66.4482 112.402 67.04C112.947 67.6318 113.715 67.9277 114.705 67.9277C115.315 67.9277 115.854 67.8721 116.322 67.7607C116.791 67.6494 117.277 67.4854 117.781 67.2686V68.5518C117.295 68.7686 116.812 68.9268 116.331 69.0264C115.857 69.126 115.294 69.1758 114.644 69.1758C113.718 69.1758 112.909 68.9883 112.218 68.6133C111.532 68.2324 110.999 67.6758 110.618 66.9434C110.237 66.2109 110.047 65.3145 110.047 64.2539C110.047 63.2168 110.22 62.3203 110.566 61.5645C110.917 60.8027 111.409 60.2168 112.042 59.8066C112.681 59.3965 113.431 59.1914 114.292 59.1914ZM114.275 60.3867C113.495 60.3867 112.874 60.6416 112.411 61.1514C111.948 61.6611 111.673 62.373 111.585 63.2871H116.683C116.677 62.7129 116.586 62.209 116.41 61.7754C116.24 61.3359 115.98 60.9961 115.628 60.7559C115.276 60.5098 114.825 60.3867 114.275 60.3867ZM124.351 69.1758C123.132 69.1758 122.166 68.7598 121.451 67.9277C120.742 67.0957 120.387 65.8594 120.387 64.2188C120.387 62.5605 120.751 61.3096 121.477 60.4658C122.204 59.6162 123.17 59.1914 124.377 59.1914C124.887 59.1914 125.333 59.2588 125.713 59.3936C126.094 59.5283 126.422 59.71 126.698 59.9385C126.973 60.1611 127.205 60.416 127.392 60.7031H127.498C127.474 60.5215 127.451 60.2725 127.427 59.9561C127.404 59.6396 127.392 59.3818 127.392 59.1826V55.3242H128.851V69H127.673L127.454 67.6289H127.392C127.21 67.916 126.979 68.1768 126.698 68.4111C126.422 68.6455 126.091 68.833 125.705 68.9736C125.324 69.1084 124.873 69.1758 124.351 69.1758ZM124.58 67.9629C125.611 67.9629 126.34 67.6699 126.768 67.084C127.196 66.498 127.41 65.6279 127.41 64.4736V64.21C127.41 62.9854 127.205 62.0449 126.794 61.3887C126.39 60.7324 125.652 60.4043 124.58 60.4043C123.683 60.4043 123.012 60.75 122.567 61.4414C122.122 62.127 121.899 63.0645 121.899 64.2539C121.899 65.4375 122.119 66.3516 122.558 66.9961C123.003 67.6406 123.677 67.9629 124.58 67.9629ZM144.557 65.5811C144.557 66.3428 144.367 66.9932 143.986 67.5322C143.611 68.0654 143.083 68.4727 142.404 68.7539C141.724 69.0352 140.924 69.1758 140.004 69.1758C139.518 69.1758 139.058 69.1523 138.624 69.1055C138.191 69.0586 137.792 68.9912 137.429 68.9033C137.066 68.8154 136.746 68.707 136.471 68.5781V67.1455C136.911 67.3271 137.447 67.4971 138.079 67.6553C138.712 67.8076 139.374 67.8838 140.066 67.8838C140.71 67.8838 141.255 67.7988 141.701 67.6289C142.146 67.4531 142.483 67.2041 142.711 66.8818C142.946 66.5537 143.063 66.1611 143.063 65.7041C143.063 65.2646 142.966 64.8984 142.773 64.6055C142.579 64.3066 142.257 64.0371 141.806 63.7969C141.361 63.5508 140.751 63.29 139.978 63.0146C139.433 62.8213 138.953 62.6104 138.537 62.3818C138.12 62.1475 137.772 61.8838 137.491 61.5908C137.209 61.2979 136.995 60.958 136.849 60.5713C136.708 60.1846 136.638 59.7422 136.638 59.2441C136.638 58.5586 136.811 57.9727 137.157 57.4863C137.508 56.9941 137.992 56.6191 138.607 56.3613C139.228 56.0977 139.94 55.9658 140.743 55.9658C141.428 55.9658 142.061 56.0303 142.641 56.1592C143.227 56.2881 143.763 56.4609 144.249 56.6777L143.784 57.9609C143.321 57.7676 142.829 57.6064 142.307 57.4775C141.791 57.3486 141.258 57.2842 140.707 57.2842C140.157 57.2842 139.691 57.3662 139.31 57.5303C138.935 57.6885 138.648 57.9141 138.449 58.207C138.249 58.5 138.15 58.8486 138.15 59.2529C138.15 59.7041 138.244 60.0791 138.431 60.3779C138.624 60.6768 138.929 60.9434 139.345 61.1777C139.767 61.4062 140.324 61.6465 141.015 61.8984C141.771 62.1738 142.412 62.4668 142.94 62.7773C143.467 63.082 143.869 63.457 144.144 63.9023C144.419 64.3418 144.557 64.9014 144.557 65.5811ZM148.648 55.3242V62.4258C148.648 62.6602 148.639 62.9473 148.622 63.2871C148.604 63.6211 148.59 63.917 148.578 64.1748H148.639C148.763 64.0225 148.941 63.7969 149.176 63.498C149.416 63.1992 149.618 62.959 149.782 62.7773L152.981 59.3672H154.695L150.819 63.4805L154.976 69H153.219L149.817 64.4385L148.648 65.5107V69H147.198V55.3242H148.648ZM158.347 59.3672V69H156.888V59.3672H158.347ZM157.635 55.7637C157.875 55.7637 158.08 55.8428 158.25 56.001C158.426 56.1533 158.514 56.3936 158.514 56.7217C158.514 57.0439 158.426 57.2842 158.25 57.4424C158.08 57.6006 157.875 57.6797 157.635 57.6797C157.383 57.6797 157.172 57.6006 157.002 57.4424C156.838 57.2842 156.756 57.0439 156.756 56.7217C156.756 56.3936 156.838 56.1533 157.002 56.001C157.172 55.8428 157.383 55.7637 157.635 55.7637ZM163.141 69H161.674V55.3242H163.141V69ZM167.927 69H166.459V55.3242H167.927V69ZM177.476 66.3633C177.476 66.9785 177.321 67.4971 177.01 67.9189C176.706 68.335 176.266 68.6484 175.692 68.8594C175.124 69.0703 174.444 69.1758 173.653 69.1758C172.979 69.1758 172.396 69.123 171.904 69.0176C171.412 68.9121 170.981 68.7627 170.612 68.5693V67.2246C171.004 67.418 171.473 67.5938 172.018 67.752C172.563 67.9102 173.12 67.9893 173.688 67.9893C174.52 67.9893 175.124 67.8545 175.499 67.585C175.874 67.3154 176.061 66.9492 176.061 66.4863C176.061 66.2227 175.985 65.9912 175.833 65.792C175.686 65.5869 175.437 65.3906 175.085 65.2031C174.734 65.0098 174.248 64.7988 173.626 64.5703C173.011 64.3359 172.478 64.1045 172.027 63.876C171.582 63.6416 171.236 63.3574 170.99 63.0234C170.75 62.6895 170.629 62.2559 170.629 61.7227C170.629 60.9082 170.958 60.2842 171.614 59.8506C172.276 59.4111 173.143 59.1914 174.215 59.1914C174.795 59.1914 175.337 59.25 175.841 59.3672C176.351 59.4785 176.826 59.6309 177.265 59.8242L176.773 60.9932C176.375 60.8232 175.95 60.6797 175.499 60.5625C175.047 60.4453 174.587 60.3867 174.119 60.3867C173.445 60.3867 172.926 60.498 172.563 60.7207C172.206 60.9434 172.027 61.248 172.027 61.6348C172.027 61.9336 172.109 62.1797 172.273 62.373C172.443 62.5664 172.712 62.748 173.082 62.918C173.451 63.0879 173.937 63.2871 174.541 63.5156C175.144 63.7383 175.666 63.9697 176.105 64.21C176.544 64.4443 176.881 64.7314 177.116 65.0713C177.356 65.4053 177.476 65.8359 177.476 66.3633Z" fill="#494953"/>
<path d="M192.056 59.8924C193.129 58.9528 194.871 58.9528 195.944 59.8924C197.019 60.832 197.019 62.3555 195.944 63.2951C195.758 63.4592 195.55 63.5939 195.33 63.7003C194.647 64.0312 194.001 64.616 194.001 65.375V66.0625M202.25 64C202.25 65.0834 202.037 66.1562 201.622 67.1571C201.207 68.1581 200.6 69.0675 199.834 69.8336C199.068 70.5997 198.158 71.2074 197.157 71.622C196.156 72.0366 195.083 72.25 194 72.25C192.917 72.25 191.844 72.0366 190.843 71.622C189.842 71.2074 188.932 70.5997 188.166 69.8336C187.4 69.0675 186.793 68.1581 186.378 67.1571C185.963 66.1562 185.75 65.0834 185.75 64C185.75 61.812 186.619 59.7135 188.166 58.1664C189.714 56.6192 191.812 55.75 194 55.75C196.188 55.75 198.286 56.6192 199.834 58.1664C201.381 59.7135 202.25 61.812 202.25 64ZM194 68.8125H194.007V68.8198H194V68.8125Z" stroke="#494953" stroke-width="1.5" stroke-linecap="round" stroke-linejoin="round"/>
<path d="M61.8105 96.4502H66.7236V99.2305H61.8105V104.118H59.0303V99.2305H54.1172V96.4502H59.0303V91.499H61.8105V96.4502ZM78.852 107H74.9291V96.2598C74.9291 95.9635 74.9334 95.5996 74.9418 95.168C74.9503 94.7279 74.963 94.2793 74.9799 93.8223C74.9968 93.3568 75.0138 92.9378 75.0307 92.5654C74.9376 92.6755 74.7472 92.8659 74.4594 93.1367C74.1801 93.3991 73.9177 93.6361 73.6723 93.8477L71.5395 95.5615L69.6479 93.2002L75.6274 88.4395H78.852V107ZM88.8602 103.979L89.0506 104.271C88.8983 104.88 88.6994 105.536 88.454 106.238C88.217 106.941 87.9546 107.643 87.6668 108.346C87.3875 109.048 87.104 109.717 86.8163 110.352H84.0233C84.1926 109.666 84.3576 108.947 84.5184 108.193C84.6792 107.44 84.8273 106.7 84.9627 105.972C85.1066 105.244 85.2209 104.579 85.3055 103.979H88.8602ZM104.886 107H91.9114V104.271L96.5706 99.5605C97.51 98.5957 98.2633 97.7917 98.8303 97.1484C99.4059 96.4967 99.8206 95.9043 100.074 95.3711C100.337 94.8379 100.468 94.2666 100.468 93.6572C100.468 92.9209 100.261 92.3708 99.846 92.0068C99.4397 91.6344 98.8938 91.4482 98.2083 91.4482C97.4889 91.4482 96.7906 91.6133 96.1135 91.9434C95.4365 92.2734 94.7298 92.7432 93.9934 93.3525L91.8606 90.8262C92.3938 90.3691 92.9566 89.9375 93.5491 89.5312C94.15 89.125 94.844 88.7992 95.6311 88.5537C96.4267 88.2998 97.3788 88.1729 98.4876 88.1729C99.7063 88.1729 100.752 88.3929 101.623 88.833C102.504 89.2731 103.181 89.874 103.655 90.6357C104.129 91.389 104.366 92.2438 104.366 93.2002C104.366 94.2243 104.162 95.1595 103.756 96.0059C103.35 96.8522 102.757 97.6901 101.979 98.5195C101.209 99.349 100.278 100.267 99.1858 101.274L96.7991 103.521V103.699H104.886V107ZM119.896 97.7197C119.896 99.2178 119.778 100.555 119.541 101.731C119.312 102.908 118.94 103.907 118.424 104.728C117.916 105.549 117.247 106.175 116.418 106.606C115.588 107.038 114.581 107.254 113.396 107.254C111.907 107.254 110.684 106.877 109.727 106.124C108.771 105.362 108.064 104.271 107.607 102.849C107.15 101.418 106.922 99.7087 106.922 97.7197C106.922 95.7139 107.129 94 107.544 92.5781C107.967 91.1478 108.652 90.0518 109.6 89.29C110.548 88.5283 111.814 88.1475 113.396 88.1475C114.877 88.1475 116.096 88.5283 117.052 89.29C118.017 90.0433 118.732 91.1351 119.198 92.5654C119.663 93.9873 119.896 95.7054 119.896 97.7197ZM110.819 97.7197C110.819 99.1331 110.895 100.314 111.048 101.262C111.208 102.201 111.475 102.908 111.847 103.382C112.22 103.856 112.736 104.093 113.396 104.093C114.048 104.093 114.56 103.86 114.932 103.395C115.313 102.921 115.584 102.214 115.745 101.274C115.906 100.326 115.986 99.1416 115.986 97.7197C115.986 96.3063 115.906 95.1257 115.745 94.1777C115.584 93.2298 115.313 92.5189 114.932 92.0449C114.56 91.5625 114.048 91.3213 113.396 91.3213C112.736 91.3213 112.22 91.5625 111.847 92.0449C111.475 92.5189 111.208 93.2298 111.048 94.1777C110.895 95.1257 110.819 96.3063 110.819 97.7197ZM135.008 97.7197C135.008 99.2178 134.889 100.555 134.652 101.731C134.424 102.908 134.052 103.907 133.535 104.728C133.027 105.549 132.359 106.175 131.529 106.606C130.7 107.038 129.693 107.254 128.508 107.254C127.018 107.254 125.795 106.877 124.839 106.124C123.883 105.362 123.176 104.271 122.719 102.849C122.262 101.418 122.033 99.7087 122.033 97.7197C122.033 95.7139 122.241 94 122.655 92.5781C123.079 91.1478 123.764 90.0518 124.712 89.29C125.66 88.5283 126.925 88.1475 128.508 88.1475C129.989 88.1475 131.208 88.5283 132.164 89.29C133.129 90.0433 133.844 91.1351 134.31 92.5654C134.775 93.9873 135.008 95.7054 135.008 97.7197ZM125.931 97.7197C125.931 99.1331 126.007 100.314 126.159 101.262C126.32 102.201 126.587 102.908 126.959 103.382C127.332 103.856 127.848 104.093 128.508 104.093C129.16 104.093 129.672 103.86 130.044 103.395C130.425 102.921 130.696 102.214 130.857 101.274C131.017 100.326 131.098 99.1416 131.098 97.7197C131.098 96.3063 131.017 95.1257 130.857 94.1777C130.696 93.2298 130.425 92.5189 130.044 92.0449C129.672 91.5625 129.16 91.3213 128.508 91.3213C127.848 91.3213 127.332 91.5625 126.959 92.0449C126.587 92.5189 126.32 93.2298 126.159 94.1777C126.007 95.1257 125.931 96.3063 125.931 97.7197Z" fill="#494953"/>
<defs>
<filter id="filter0_d_27_394" x="0" y="0" width="257" height="165" filterUnits="userSpaceOnUse" color-interpolation-filters="sRGB">
<feFlood flood-opacity="0" result="BackgroundImageFix"/>
<feColorMatrix in="SourceAlpha" type="matrix" values="0 0 0 0 0 0 0 0 0 0 0 0 0 0 0 0 0 0 127 0" result="hardAlpha"/>
<feOffset dx="1" dy="1"/>
<feGaussianBlur stdDeviation="15"/>
<feComposite in2="hardAlpha" operator="out"/>
<feColorMatrix type="matrix" values="0 0 0 0 0 0 0 0 0 0 0 0 0 0 0 0 0 0 0.15 0"/>
<feBlend mode="normal" in2="BackgroundImageFix" result="effect1_dropShadow_27_394"/>
<feBlend mode="normal" in="SourceGraphic" in2="effect1_dropShadow_27_394" result="shape"/>
</filter>
</defs>
</svg>
