<svg width="36" height="36" viewBox="0 0 36 36" fill="none" xmlns="http://www.w3.org/2000/svg">
<rect width="36" height="36" rx="8" fill="#6A7EFC"/>
<path d="M9.00002 11.4201C9.00002 10.8428 9.20273 10.3666 9.60813 9.99148C10.0135 9.6163 10.5406 9.42871 11.1892 9.42871C11.8263 9.42871 12.3417 9.6134 12.7355 9.98282C13.1409 10.3638 13.3436 10.8602 13.3436 11.472C13.3436 12.0261 13.1467 12.4879 12.7529 12.8573C12.3475 13.2382 11.8147 13.4287 11.1545 13.4287H11.1371C10.5 13.4287 9.98458 13.2382 9.59075 12.8573C9.19692 12.4763 9.00002 11.9972 9.00002 11.4201ZM9.22589 26.5716V15.0045H13.083V26.5716H9.22589ZM15.2201 26.5716H19.0772V20.1127C19.0772 19.7086 19.1236 19.3969 19.2162 19.1776C19.3784 18.7851 19.6245 18.4532 19.9547 18.182C20.2848 17.9107 20.6989 17.775 21.1969 17.775C22.4942 17.775 23.1429 18.6466 23.1429 20.3897V26.5716H27V19.9395C27 18.231 26.5946 16.9352 25.7838 16.0521C24.973 15.169 23.9016 14.7274 22.5695 14.7274C21.0753 14.7274 19.9112 15.3681 19.0772 16.6495V16.6841H19.0599L19.0772 16.6495V15.0045H15.2201C15.2433 15.3739 15.2548 16.5225 15.2548 18.4504C15.2548 20.3782 15.2433 23.0853 15.2201 26.5716Z" fill="#EDF2F6"/>
</svg>
