<svg width="50" height="50" viewBox="0 0 50 50" fill="none" xmlns="http://www.w3.org/2000/svg">
<path fill-rule="evenodd" clip-rule="evenodd" d="M19.4062 15.8C25.4062 8.08958 34.7812 3.125 45.3125 3.125C45.7269 3.125 46.1243 3.28962 46.4174 3.58265C46.7104 3.87567 46.875 4.2731 46.875 4.6875C46.875 15.2208 41.9104 24.5937 34.2 30.5958C34.5207 32.6047 34.4017 34.6592 33.8512 36.6175C33.3008 38.5759 32.332 40.3916 31.0118 41.9392C29.6915 43.4868 28.0512 44.7296 26.204 45.5817C24.3568 46.4339 22.3468 46.8751 20.3125 46.875C19.8981 46.875 19.5007 46.7104 19.2076 46.4174C18.9146 46.1243 18.75 45.7269 18.75 45.3125V36.7062C16.7248 35.107 14.8943 33.2758 13.2958 31.25H4.6875C4.2731 31.25 3.87567 31.0854 3.58265 30.7924C3.28962 30.4993 3.125 30.1019 3.125 29.6875C3.12484 27.653 3.56611 25.6427 4.41838 23.7954C5.27065 21.948 6.51361 20.3076 8.06148 18.9873C9.60935 17.667 11.4253 16.6983 13.3839 16.148C15.3425 15.5977 17.3973 15.479 19.4062 15.8ZM31.25 14.0625C30.0068 14.0625 28.8145 14.5564 27.9354 15.4354C27.0564 16.3145 26.5625 17.5068 26.5625 18.75C26.5625 19.9932 27.0564 21.1855 27.9354 22.0646C28.8145 22.9436 30.0068 23.4375 31.25 23.4375C32.4932 23.4375 33.6855 22.9436 34.5646 22.0646C35.4436 21.1855 35.9375 19.9932 35.9375 18.75C35.9375 17.5068 35.4436 16.3145 34.5646 15.4354C33.6855 14.5564 32.4932 14.0625 31.25 14.0625Z" fill="#EDF2F6"/>
<path d="M10.9583 35.9207C11.1229 35.798 11.2617 35.6441 11.3668 35.4678C11.4719 35.2915 11.5412 35.0961 11.5708 34.893C11.6004 34.6899 11.5897 34.4829 11.5393 34.2839C11.4889 34.0849 11.3998 33.8978 11.2771 33.7332C11.1544 33.5687 11.0005 33.4299 10.8241 33.3248C10.6478 33.2197 10.4525 33.1504 10.2494 33.1208C10.0462 33.0912 9.83927 33.1019 9.64027 33.1523C9.44128 33.2027 9.25416 33.2918 9.0896 33.4145C7.49145 34.6033 6.24878 36.2064 5.49602 38.0505C4.74326 39.8946 4.50906 41.9094 4.81876 43.877C4.86913 44.2047 5.02244 44.5079 5.25651 44.7427C5.49059 44.9776 5.7933 45.1318 6.12085 45.1832C8.08862 45.4927 10.1036 45.2582 11.9477 44.5051C13.7918 43.7519 15.3948 42.5089 16.5833 40.9103C16.71 40.7462 16.8027 40.5585 16.8561 40.3582C16.9095 40.1579 16.9225 39.9489 16.8944 39.7435C16.8662 39.5381 16.7975 39.3404 16.6922 39.1619C16.5868 38.9833 16.447 38.8275 16.2809 38.7035C16.1147 38.5795 15.9255 38.4898 15.7244 38.4396C15.5232 38.3895 15.3141 38.3799 15.1092 38.4113C14.9043 38.4428 14.7077 38.5147 14.5308 38.6229C14.354 38.7311 14.2005 38.8735 14.0792 39.0416C13.3527 40.0187 12.4075 40.8121 11.3193 41.3584C10.2311 41.9046 9.03012 42.1886 7.81252 42.1874C7.81252 39.6249 9.04585 37.3478 10.9583 35.9207Z" fill="#EDF2F6"/>
</svg>
