<svg width="34" height="34" viewBox="0 0 34 34" fill="none" xmlns="http://www.w3.org/2000/svg">
<path d="M17 29.75C19.8262 29.7498 22.5724 28.811 24.8073 27.081C27.0422 25.351 28.6392 22.9278 29.3477 20.1918M17 29.75C14.1738 29.7498 11.4276 28.811 9.19271 27.081C6.95783 25.351 5.36078 22.9278 4.65234 20.1918M17 29.75C20.5204 29.75 23.375 24.0408 23.375 17C23.375 9.95917 20.5204 4.25 17 4.25M17 29.75C13.4796 29.75 10.625 24.0408 10.625 17C10.625 9.95917 13.4796 4.25 17 4.25M29.3477 20.1918C29.6098 19.1718 29.75 18.1022 29.75 17C29.7535 14.8072 29.1888 12.6508 28.1109 10.7412M29.3477 20.1918C25.5697 22.2861 21.3197 23.3818 17 23.375C12.5205 23.375 8.31159 22.2204 4.65234 20.1918M4.65234 20.1918C4.38423 19.149 4.24905 18.0766 4.25001 17C4.25001 14.7263 4.84501 12.5899 5.88909 10.7412M17 4.25C19.2613 4.24906 21.4822 4.84976 23.4348 5.99047C25.3873 7.13118 27.0012 8.77082 28.1109 10.7412M17 4.25C14.7387 4.24906 12.5178 4.84976 10.5652 5.99047C8.61268 7.13118 6.99877 8.77082 5.88909 10.7412M28.1109 10.7412C25.0264 13.4129 21.0808 14.8809 17 14.875C12.7528 14.875 8.86834 13.3167 5.88909 10.7412" stroke="#6A7EFC" stroke-width="2" stroke-linecap="round" stroke-linejoin="round"/>
</svg>
