<svg width="18" height="18" viewBox="0 0 18 18" fill="none" xmlns="http://www.w3.org/2000/svg">
<path fill-rule="evenodd" clip-rule="evenodd" d="M1.01053 17.7496L9.19286 9.87474L12.078 12.6504L2.35005 17.8536C1.98004 18.0525 1.52573 18.048 1.16041 17.8446C1.16041 17.8491 1.01053 17.7496 1.01053 17.7496ZM8.36854 9.07911L0.565582 16.5878V1.57039L8.36854 9.07911ZM13.2442 5.97798L17.0567 8.01677C17.4314 8.21568 17.6656 8.59541 17.6656 9.00226C17.6656 9.40911 17.4314 9.78885 17.0567 9.98775L13.1412 12.0808L10.0219 9.07911C10.0172 9.07911 13.2442 5.97798 13.2442 5.97798ZM0.92154 0.327222C0.991794 0.263933 1.07142 0.205165 1.15572 0.155439C1.52105 -0.0479886 1.97536 -0.0525092 2.34537 0.146397L12.181 5.40838L9.19286 8.28348L0.92154 0.327222Z" fill="white"/>
</svg>
