<svg width="404" height="99" viewBox="0 0 404 99" fill="none" xmlns="http://www.w3.org/2000/svg">
<g filter="url(#filter0_d_10_82)">
<rect x="19" y="19" width="364" height="59" rx="29.5" fill="white"/>
</g>
<circle cx="48.5" cy="48.5" r="23.5" fill="#EDF2F6"/>
<path d="M44 49.9744L47 53.0753L52 45.8398M48 36.1429C44.981 39.1063 40.9604 40.7316 36.7973 40.6716C36.2678 42.3392 35.9986 44.0833 36 45.8384C36 53.5453 41.0987 60.02 48 61.8571C54.9013 60.0214 60 53.5466 60 45.8398C60 44.0344 59.72 42.2965 59.2027 40.6702H59C54.7387 40.6702 50.8667 38.9502 48 36.1429Z" stroke="#615EFC" stroke-width="2" stroke-linecap="round" stroke-linejoin="round"/>
<path d="M81.4 56L77.56 42H79.36L82.38 54L85.8 42H87.68L91.02 54.04L94.08 42H95.88L91.96 56H90.04L86.7 44.42L83.28 56H81.4ZM97.9745 56V45.48H99.6545V56H97.9745ZM98.8145 43.48C98.4812 43.48 98.2012 43.3733 97.9745 43.16C97.7612 42.9333 97.6545 42.6533 97.6545 42.32C97.6545 41.9867 97.7612 41.72 97.9745 41.52C98.2012 41.3067 98.4812 41.2 98.8145 41.2C99.1345 41.2 99.4079 41.3067 99.6345 41.52C99.8612 41.72 99.9745 41.9867 99.9745 42.32C99.9745 42.6533 99.8612 42.9333 99.6345 43.16C99.4079 43.3733 99.1345 43.48 98.8145 43.48ZM106.439 56.24C105.492 56.24 104.705 56.1 104.079 55.82C103.465 55.5267 102.999 55.1267 102.679 54.62C102.359 54.1 102.165 53.5 102.099 52.82H103.819C103.872 53.18 103.992 53.5133 104.179 53.82C104.379 54.1133 104.665 54.3533 105.039 54.54C105.412 54.7267 105.885 54.82 106.459 54.82C106.912 54.82 107.299 54.7533 107.619 54.62C107.939 54.4733 108.179 54.2733 108.339 54.02C108.512 53.7667 108.599 53.4733 108.599 53.14C108.599 52.7 108.499 52.36 108.299 52.12C108.112 51.8667 107.832 51.68 107.459 51.56C107.099 51.4267 106.645 51.3267 106.099 51.26C105.512 51.18 104.992 51.0667 104.539 50.92C104.085 50.7733 103.699 50.58 103.379 50.34C103.072 50.1 102.839 49.8 102.679 49.44C102.519 49.08 102.439 48.6533 102.439 48.16C102.439 47.5867 102.592 47.08 102.899 46.64C103.205 46.2 103.639 45.86 104.199 45.62C104.772 45.3667 105.445 45.24 106.219 45.24C107.352 45.24 108.245 45.5 108.899 46.02C109.565 46.54 109.959 47.28 110.079 48.24H108.419C108.352 47.7467 108.125 47.36 107.739 47.08C107.352 46.8 106.839 46.66 106.199 46.66C105.519 46.66 105.005 46.7867 104.659 47.04C104.312 47.2933 104.139 47.6267 104.139 48.04C104.139 48.3467 104.212 48.6267 104.359 48.88C104.519 49.12 104.785 49.3267 105.159 49.5C105.532 49.66 106.032 49.78 106.659 49.86C107.445 49.9533 108.112 50.1067 108.659 50.32C109.205 50.52 109.619 50.8333 109.899 51.26C110.192 51.6867 110.332 52.2667 110.319 53C110.319 53.6933 110.152 54.28 109.819 54.76C109.499 55.24 109.045 55.6067 108.459 55.86C107.885 56.1133 107.212 56.24 106.439 56.24ZM117.175 56.24C116.241 56.24 115.415 56.0133 114.695 55.56C113.975 55.1067 113.408 54.4667 112.995 53.64C112.595 52.8133 112.395 51.8467 112.395 50.74C112.395 49.6333 112.595 48.6667 112.995 47.84C113.408 47.0133 113.975 46.3733 114.695 45.92C115.428 45.4667 116.268 45.24 117.215 45.24C118.228 45.24 119.075 45.4667 119.755 45.92C120.435 46.3733 120.948 46.98 121.295 47.74C121.641 48.5 121.815 49.3333 121.815 50.24C121.815 50.3733 121.815 50.5067 121.815 50.64C121.815 50.7733 121.808 50.9333 121.795 51.12H113.655V49.82H120.175C120.148 48.7933 119.848 48.0133 119.275 47.48C118.715 46.9333 118.015 46.66 117.175 46.66C116.615 46.66 116.095 46.8 115.615 47.08C115.148 47.3467 114.768 47.7467 114.475 48.28C114.181 48.8133 114.035 49.48 114.035 50.28V50.84C114.035 51.72 114.181 52.46 114.475 53.06C114.768 53.6467 115.148 54.0867 115.615 54.38C116.095 54.6733 116.615 54.82 117.175 54.82C117.921 54.82 118.508 54.68 118.935 54.4C119.361 54.1067 119.675 53.6933 119.875 53.16H121.535C121.375 53.7467 121.095 54.2733 120.695 54.74C120.308 55.2067 119.815 55.5733 119.215 55.84C118.628 56.1067 117.948 56.24 117.175 56.24ZM134.114 56.24C133.087 56.24 132.194 56.0533 131.434 55.68C130.674 55.3067 130.087 54.7867 129.674 54.12C129.26 53.4533 129.054 52.68 129.054 51.8H130.814C130.814 52.3467 130.94 52.8533 131.194 53.32C131.447 53.7733 131.814 54.14 132.294 54.42C132.787 54.6867 133.394 54.82 134.114 54.82C134.74 54.82 135.274 54.72 135.714 54.52C136.167 54.3067 136.507 54.02 136.734 53.66C136.974 53.3 137.094 52.8933 137.094 52.44C137.094 51.9333 136.98 51.5133 136.754 51.18C136.54 50.8333 136.24 50.5533 135.854 50.34C135.467 50.1133 135.02 49.9133 134.514 49.74C134.007 49.5667 133.46 49.3867 132.874 49.2C131.7 48.8267 130.847 48.36 130.314 47.8C129.794 47.2267 129.534 46.4933 129.534 45.6C129.534 44.84 129.707 44.1733 130.054 43.6C130.414 43.0267 130.92 42.58 131.574 42.26C132.24 41.9267 133.027 41.76 133.934 41.76C134.827 41.76 135.6 41.9267 136.254 42.26C136.92 42.5933 137.44 43.0533 137.814 43.64C138.187 44.2133 138.374 44.88 138.374 45.64H136.614C136.614 45.2533 136.514 44.8733 136.314 44.5C136.114 44.1267 135.807 43.82 135.394 43.58C134.994 43.3267 134.487 43.2 133.874 43.2C133.367 43.1867 132.914 43.2733 132.514 43.46C132.127 43.6333 131.82 43.8867 131.594 44.22C131.38 44.5533 131.274 44.96 131.274 45.44C131.274 45.8933 131.367 46.26 131.554 46.54C131.754 46.82 132.034 47.06 132.394 47.26C132.767 47.4467 133.2 47.62 133.694 47.78C134.187 47.94 134.734 48.12 135.334 48.32C136.014 48.5467 136.614 48.8267 137.134 49.16C137.667 49.48 138.08 49.8933 138.374 50.4C138.68 50.9067 138.834 51.5533 138.834 52.34C138.834 53.0067 138.654 53.64 138.294 54.24C137.947 54.8267 137.427 55.3067 136.734 55.68C136.04 56.0533 135.167 56.24 134.114 56.24ZM147.413 56L142.633 50.32L147.133 45.48H149.193L144.053 50.92L144.073 49.72L149.553 56H147.413ZM141.233 56V41.6H142.913V56H141.233ZM151.49 56V45.48H153.17V56H151.49ZM152.33 43.48C151.997 43.48 151.717 43.3733 151.49 43.16C151.277 42.9333 151.17 42.6533 151.17 42.32C151.17 41.9867 151.277 41.72 151.49 41.52C151.717 41.3067 151.997 41.2 152.33 41.2C152.65 41.2 152.923 41.3067 153.15 41.52C153.377 41.72 153.49 41.9867 153.49 42.32C153.49 42.6533 153.377 42.9333 153.15 43.16C152.923 43.3733 152.65 43.48 152.33 43.48ZM156.154 56V41.6H157.834V56H156.154ZM160.666 56V41.6H162.346V56H160.666ZM168.978 56.24C168.031 56.24 167.244 56.1 166.618 55.82C166.004 55.5267 165.538 55.1267 165.218 54.62C164.898 54.1 164.704 53.5 164.638 52.82H166.358C166.411 53.18 166.531 53.5133 166.718 53.82C166.918 54.1133 167.204 54.3533 167.578 54.54C167.951 54.7267 168.424 54.82 168.998 54.82C169.451 54.82 169.838 54.7533 170.158 54.62C170.478 54.4733 170.718 54.2733 170.878 54.02C171.051 53.7667 171.138 53.4733 171.138 53.14C171.138 52.7 171.038 52.36 170.838 52.12C170.651 51.8667 170.371 51.68 169.998 51.56C169.638 51.4267 169.184 51.3267 168.638 51.26C168.051 51.18 167.531 51.0667 167.078 50.92C166.624 50.7733 166.238 50.58 165.918 50.34C165.611 50.1 165.378 49.8 165.218 49.44C165.058 49.08 164.978 48.6533 164.978 48.16C164.978 47.5867 165.131 47.08 165.438 46.64C165.744 46.2 166.178 45.86 166.738 45.62C167.311 45.3667 167.984 45.24 168.758 45.24C169.891 45.24 170.784 45.5 171.438 46.02C172.104 46.54 172.498 47.28 172.618 48.24H170.958C170.891 47.7467 170.664 47.36 170.278 47.08C169.891 46.8 169.378 46.66 168.738 46.66C168.058 46.66 167.544 46.7867 167.198 47.04C166.851 47.2933 166.678 47.6267 166.678 48.04C166.678 48.3467 166.751 48.6267 166.898 48.88C167.058 49.12 167.324 49.3267 167.698 49.5C168.071 49.66 168.571 49.78 169.198 49.86C169.984 49.9533 170.651 50.1067 171.198 50.32C171.744 50.52 172.158 50.8333 172.438 51.26C172.731 51.6867 172.871 52.2667 172.858 53C172.858 53.6933 172.691 54.28 172.358 54.76C172.038 55.24 171.584 55.6067 170.998 55.86C170.424 56.1133 169.751 56.24 168.978 56.24ZM174.154 58.46L175.314 54.04H177.054L175.314 58.46H174.154ZM189.211 56.24C188.185 56.24 187.291 56.0533 186.531 55.68C185.771 55.3067 185.185 54.7867 184.771 54.12C184.358 53.4533 184.151 52.68 184.151 51.8H185.911C185.911 52.3467 186.038 52.8533 186.291 53.32C186.545 53.7733 186.911 54.14 187.391 54.42C187.885 54.6867 188.491 54.82 189.211 54.82C189.838 54.82 190.371 54.72 190.811 54.52C191.265 54.3067 191.605 54.02 191.831 53.66C192.071 53.3 192.191 52.8933 192.191 52.44C192.191 51.9333 192.078 51.5133 191.851 51.18C191.638 50.8333 191.338 50.5533 190.951 50.34C190.565 50.1133 190.118 49.9133 189.611 49.74C189.105 49.5667 188.558 49.3867 187.971 49.2C186.798 48.8267 185.945 48.36 185.411 47.8C184.891 47.2267 184.631 46.4933 184.631 45.6C184.631 44.84 184.805 44.1733 185.151 43.6C185.511 43.0267 186.018 42.58 186.671 42.26C187.338 41.9267 188.125 41.76 189.031 41.76C189.925 41.76 190.698 41.9267 191.351 42.26C192.018 42.5933 192.538 43.0533 192.911 43.64C193.285 44.2133 193.471 44.88 193.471 45.64H191.711C191.711 45.2533 191.611 44.8733 191.411 44.5C191.211 44.1267 190.905 43.82 190.491 43.58C190.091 43.3267 189.585 43.2 188.971 43.2C188.465 43.1867 188.011 43.2733 187.611 43.46C187.225 43.6333 186.918 43.8867 186.691 44.22C186.478 44.5533 186.371 44.96 186.371 45.44C186.371 45.8933 186.465 46.26 186.651 46.54C186.851 46.82 187.131 47.06 187.491 47.26C187.865 47.4467 188.298 47.62 188.791 47.78C189.285 47.94 189.831 48.12 190.431 48.32C191.111 48.5467 191.711 48.8267 192.231 49.16C192.765 49.48 193.178 49.8933 193.471 50.4C193.778 50.9067 193.931 51.5533 193.931 52.34C193.931 53.0067 193.751 53.64 193.391 54.24C193.045 54.8267 192.525 55.3067 191.831 55.68C191.138 56.0533 190.265 56.24 189.211 56.24ZM200.41 56C199.81 56 199.29 55.9067 198.85 55.72C198.41 55.5333 198.07 55.22 197.83 54.78C197.603 54.3267 197.49 53.72 197.49 52.96V46.9H195.65V45.48H197.49L197.71 42.86H199.17V45.48H202.15V46.9H199.17V52.96C199.17 53.5867 199.297 54.0133 199.55 54.24C199.803 54.4533 200.25 54.56 200.89 54.56H202.11V56H200.41ZM204.455 56V45.48H205.975L206.095 47.4C206.335 46.92 206.648 46.52 207.035 46.2C207.422 45.88 207.888 45.64 208.435 45.48C208.995 45.32 209.622 45.24 210.315 45.24V47H209.275C208.875 47 208.488 47.0533 208.115 47.16C207.742 47.2667 207.402 47.44 207.095 47.68C206.802 47.92 206.568 48.2467 206.395 48.66C206.222 49.0733 206.135 49.5933 206.135 50.22V56H204.455ZM216.397 56.24C215.424 56.24 214.564 56.0133 213.817 55.56C213.07 55.1067 212.49 54.4667 212.077 53.64C211.664 52.8133 211.457 51.8467 211.457 50.74C211.457 49.62 211.664 48.6533 212.077 47.84C212.504 47.0133 213.09 46.3733 213.837 45.92C214.597 45.4667 215.464 45.24 216.437 45.24C217.424 45.24 218.284 45.4667 219.017 45.92C219.764 46.3733 220.344 47.0133 220.757 47.84C221.17 48.6533 221.377 49.62 221.377 50.74C221.377 51.8467 221.164 52.8133 220.737 53.64C220.324 54.4667 219.744 55.1067 218.997 55.56C218.25 56.0133 217.384 56.24 216.397 56.24ZM216.397 54.8C217.01 54.8 217.564 54.6533 218.057 54.36C218.55 54.0533 218.937 53.6 219.217 53C219.51 52.3867 219.657 51.6333 219.657 50.74C219.657 49.8333 219.517 49.08 219.237 48.48C218.957 47.88 218.57 47.4333 218.077 47.14C217.597 46.8333 217.05 46.68 216.437 46.68C215.837 46.68 215.29 46.8333 214.797 47.14C214.304 47.4333 213.91 47.88 213.617 48.48C213.324 49.08 213.177 49.8333 213.177 50.74C213.177 51.6333 213.317 52.3867 213.597 53C213.89 53.6 214.277 54.0533 214.757 54.36C215.25 54.6533 215.797 54.8 216.397 54.8ZM223.811 56V45.48H225.331L225.411 47.14C225.717 46.54 226.157 46.0733 226.731 45.74C227.317 45.4067 227.991 45.24 228.751 45.24C229.524 45.24 230.197 45.3867 230.771 45.68C231.344 45.9733 231.791 46.42 232.111 47.02C232.431 47.62 232.591 48.38 232.591 49.3V56H230.911V49.48C230.911 48.5467 230.677 47.8467 230.211 47.38C229.757 46.9133 229.144 46.68 228.371 46.68C227.851 46.68 227.371 46.8067 226.931 47.06C226.491 47.3 226.137 47.66 225.871 48.14C225.617 48.62 225.491 49.2067 225.491 49.9V56H223.811ZM239.493 60.64C238.546 60.64 237.713 60.52 236.993 60.28C236.286 60.0533 235.733 59.7 235.333 59.22C234.946 58.74 234.753 58.1467 234.753 57.44C234.753 57.1067 234.813 56.76 234.933 56.4C235.066 56.04 235.286 55.6933 235.593 55.36C235.913 55.0267 236.36 54.7267 236.933 54.46L238.213 55.14C237.453 55.4333 236.96 55.7733 236.733 56.16C236.506 56.5467 236.393 56.92 236.393 57.28C236.393 57.72 236.52 58.0867 236.773 58.38C237.04 58.6733 237.406 58.8933 237.873 59.04C238.34 59.1867 238.88 59.26 239.493 59.26C240.093 59.26 240.606 59.18 241.033 59.02C241.473 58.8733 241.806 58.6533 242.033 58.36C242.273 58.08 242.393 57.7467 242.393 57.36C242.393 56.8 242.213 56.36 241.853 56.04C241.493 55.7333 240.793 55.5533 239.753 55.5C238.94 55.4467 238.26 55.3733 237.713 55.28C237.166 55.1867 236.713 55.08 236.353 54.96C236.006 54.8267 235.713 54.68 235.473 54.52C235.246 54.36 235.04 54.1933 234.853 54.02V53.56L236.833 51.66L238.413 52.18L236.253 53.96L236.513 53.2C236.66 53.3067 236.8 53.4067 236.933 53.5C237.066 53.5933 237.246 53.68 237.473 53.76C237.713 53.8267 238.04 53.8933 238.453 53.96C238.88 54.0267 239.44 54.0867 240.133 54.14C241.093 54.2067 241.86 54.3667 242.433 54.62C243.006 54.8733 243.42 55.2267 243.673 55.68C243.926 56.12 244.053 56.66 244.053 57.3C244.053 57.86 243.893 58.3933 243.573 58.9C243.266 59.4067 242.773 59.82 242.093 60.14C241.426 60.4733 240.56 60.64 239.493 60.64ZM239.473 52.72C238.62 52.72 237.893 52.56 237.293 52.24C236.706 51.9067 236.26 51.46 235.953 50.9C235.646 50.3267 235.493 49.6867 235.493 48.98C235.493 48.2733 235.646 47.64 235.953 47.08C236.273 46.52 236.726 46.0733 237.313 45.74C237.913 45.4067 238.633 45.24 239.473 45.24C240.34 45.24 241.066 45.4067 241.653 45.74C242.24 46.0733 242.686 46.52 242.993 47.08C243.3 47.64 243.453 48.2733 243.453 48.98C243.453 49.6867 243.3 50.3267 242.993 50.9C242.686 51.46 242.24 51.9067 241.653 52.24C241.066 52.56 240.34 52.72 239.473 52.72ZM239.473 51.34C240.22 51.34 240.8 51.1467 241.213 50.76C241.626 50.36 241.833 49.7667 241.833 48.98C241.833 48.1933 241.626 47.6067 241.213 47.22C240.8 46.8333 240.22 46.64 239.473 46.64C238.766 46.64 238.186 46.8333 237.733 47.22C237.293 47.6067 237.073 48.1933 237.073 48.98C237.073 49.7667 237.286 50.36 237.713 50.76C238.153 51.1467 238.74 51.34 239.473 51.34ZM241.233 46.9L240.733 45.48H244.853V46.74L241.233 46.9ZM258.268 56.24C256.948 56.24 255.801 55.94 254.828 55.34C253.868 54.7267 253.121 53.88 252.588 52.8C252.068 51.7067 251.808 50.44 251.808 49C251.808 47.56 252.068 46.3 252.588 45.22C253.121 44.1267 253.868 43.28 254.828 42.68C255.801 42.0667 256.948 41.76 258.268 41.76C259.855 41.76 261.141 42.14 262.128 42.9C263.115 43.66 263.748 44.7333 264.028 46.12H262.208C261.981 45.2533 261.541 44.56 260.888 44.04C260.248 43.5067 259.375 43.24 258.268 43.24C257.308 43.24 256.468 43.4733 255.748 43.94C255.041 44.3933 254.495 45.0533 254.108 45.92C253.721 46.7733 253.528 47.8 253.528 49C253.528 50.2 253.721 51.2333 254.108 52.1C254.495 52.9533 255.041 53.6133 255.748 54.08C256.468 54.5333 257.308 54.76 258.268 54.76C259.375 54.76 260.248 54.5067 260.888 54C261.541 53.48 261.981 52.7933 262.208 51.94H264.028C263.748 53.2867 263.115 54.34 262.128 55.1C261.141 55.86 259.855 56.24 258.268 56.24ZM270.948 56.24C269.974 56.24 269.114 56.0133 268.368 55.56C267.621 55.1067 267.041 54.4667 266.628 53.64C266.214 52.8133 266.008 51.8467 266.008 50.74C266.008 49.62 266.214 48.6533 266.628 47.84C267.054 47.0133 267.641 46.3733 268.388 45.92C269.148 45.4667 270.014 45.24 270.988 45.24C271.974 45.24 272.834 45.4667 273.568 45.92C274.314 46.3733 274.894 47.0133 275.308 47.84C275.721 48.6533 275.928 49.62 275.928 50.74C275.928 51.8467 275.714 52.8133 275.288 53.64C274.874 54.4667 274.294 55.1067 273.548 55.56C272.801 56.0133 271.934 56.24 270.948 56.24ZM270.948 54.8C271.561 54.8 272.114 54.6533 272.608 54.36C273.101 54.0533 273.488 53.6 273.768 53C274.061 52.3867 274.208 51.6333 274.208 50.74C274.208 49.8333 274.068 49.08 273.788 48.48C273.508 47.88 273.121 47.4333 272.628 47.14C272.148 46.8333 271.601 46.68 270.988 46.68C270.388 46.68 269.841 46.8333 269.348 47.14C268.854 47.4333 268.461 47.88 268.168 48.48C267.874 49.08 267.728 49.8333 267.728 50.74C267.728 51.6333 267.868 52.3867 268.148 53C268.441 53.6 268.828 54.0533 269.308 54.36C269.801 54.6533 270.348 54.8 270.948 54.8ZM278.361 56V45.48H279.881L279.961 47.14C280.268 46.54 280.708 46.0733 281.281 45.74C281.868 45.4067 282.541 45.24 283.301 45.24C284.075 45.24 284.748 45.3867 285.321 45.68C285.895 45.9733 286.341 46.42 286.661 47.02C286.981 47.62 287.141 48.38 287.141 49.3V56H285.461V49.48C285.461 48.5467 285.228 47.8467 284.761 47.38C284.308 46.9133 283.695 46.68 282.921 46.68C282.401 46.68 281.921 46.8067 281.481 47.06C281.041 47.3 280.688 47.66 280.421 48.14C280.168 48.62 280.041 49.2067 280.041 49.9V56H278.361ZM289.924 56V45.48H291.444L291.524 47.14C291.831 46.54 292.271 46.0733 292.844 45.74C293.431 45.4067 294.104 45.24 294.864 45.24C295.637 45.24 296.311 45.3867 296.884 45.68C297.457 45.9733 297.904 46.42 298.224 47.02C298.544 47.62 298.704 48.38 298.704 49.3V56H297.024V49.48C297.024 48.5467 296.791 47.8467 296.324 47.38C295.871 46.9133 295.257 46.68 294.484 46.68C293.964 46.68 293.484 46.8067 293.044 47.06C292.604 47.3 292.251 47.66 291.984 48.14C291.731 48.62 291.604 49.2067 291.604 49.9V56H289.924ZM305.846 56.24C304.913 56.24 304.086 56.0133 303.366 55.56C302.646 55.1067 302.08 54.4667 301.666 53.64C301.266 52.8133 301.066 51.8467 301.066 50.74C301.066 49.6333 301.266 48.6667 301.666 47.84C302.08 47.0133 302.646 46.3733 303.366 45.92C304.1 45.4667 304.94 45.24 305.886 45.24C306.9 45.24 307.746 45.4667 308.426 45.92C309.106 46.3733 309.62 46.98 309.966 47.74C310.313 48.5 310.486 49.3333 310.486 50.24C310.486 50.3733 310.486 50.5067 310.486 50.64C310.486 50.7733 310.48 50.9333 310.466 51.12H302.326V49.82H308.846C308.82 48.7933 308.52 48.0133 307.946 47.48C307.386 46.9333 306.686 46.66 305.846 46.66C305.286 46.66 304.766 46.8 304.286 47.08C303.82 47.3467 303.44 47.7467 303.146 48.28C302.853 48.8133 302.706 49.48 302.706 50.28V50.84C302.706 51.72 302.853 52.46 303.146 53.06C303.44 53.6467 303.82 54.0867 304.286 54.38C304.766 54.6733 305.286 54.82 305.846 54.82C306.593 54.82 307.18 54.68 307.606 54.4C308.033 54.1067 308.346 53.6933 308.546 53.16H310.206C310.046 53.7467 309.766 54.2733 309.366 54.74C308.98 55.2067 308.486 55.5733 307.886 55.84C307.3 56.1067 306.62 56.24 305.846 56.24ZM317.355 56.24C316.395 56.24 315.541 56.0133 314.795 55.56C314.048 55.0933 313.461 54.4467 313.035 53.62C312.608 52.7933 312.395 51.8333 312.395 50.74C312.395 49.6333 312.608 48.6733 313.035 47.86C313.461 47.0333 314.048 46.3933 314.795 45.94C315.541 45.4733 316.395 45.24 317.355 45.24C318.555 45.24 319.555 45.56 320.355 46.2C321.168 46.84 321.688 47.7 321.915 48.78H320.195C320.048 48.1133 319.708 47.6 319.175 47.24C318.655 46.8667 318.041 46.68 317.335 46.68C316.721 46.68 316.168 46.8333 315.675 47.14C315.195 47.4467 314.815 47.9 314.535 48.5C314.255 49.1 314.115 49.8467 314.115 50.74C314.115 51.4067 314.195 52 314.355 52.52C314.515 53.0267 314.735 53.4533 315.015 53.8C315.308 54.1333 315.648 54.3867 316.035 54.56C316.435 54.7333 316.868 54.82 317.335 54.82C317.815 54.82 318.248 54.74 318.635 54.58C319.035 54.4067 319.368 54.16 319.635 53.84C319.915 53.52 320.101 53.14 320.195 52.7H321.915C321.701 53.7533 321.181 54.6067 320.355 55.26C319.541 55.9133 318.541 56.24 317.355 56.24ZM328.164 56C327.564 56 327.044 55.9067 326.604 55.72C326.164 55.5333 325.824 55.22 325.584 54.78C325.357 54.3267 325.244 53.72 325.244 52.96V46.9H323.404V45.48H325.244L325.464 42.86H326.924V45.48H329.904V46.9H326.924V52.96C326.924 53.5867 327.051 54.0133 327.304 54.24C327.557 54.4533 328.004 54.56 328.644 54.56H329.864V56H328.164ZM332.369 56V45.48H334.049V56H332.369ZM333.209 43.48C332.876 43.48 332.596 43.3733 332.369 43.16C332.156 42.9333 332.049 42.6533 332.049 42.32C332.049 41.9867 332.156 41.72 332.369 41.52C332.596 41.3067 332.876 41.2 333.209 41.2C333.529 41.2 333.802 41.3067 334.029 41.52C334.256 41.72 334.369 41.9867 334.369 42.32C334.369 42.6533 334.256 42.9333 334.029 43.16C333.802 43.3733 333.529 43.48 333.209 43.48ZM341.553 56.24C340.58 56.24 339.72 56.0133 338.973 55.56C338.227 55.1067 337.647 54.4667 337.233 53.64C336.82 52.8133 336.613 51.8467 336.613 50.74C336.613 49.62 336.82 48.6533 337.233 47.84C337.66 47.0133 338.247 46.3733 338.993 45.92C339.753 45.4667 340.62 45.24 341.593 45.24C342.58 45.24 343.44 45.4667 344.173 45.92C344.92 46.3733 345.5 47.0133 345.913 47.84C346.327 48.6533 346.533 49.62 346.533 50.74C346.533 51.8467 346.32 52.8133 345.893 53.64C345.48 54.4667 344.9 55.1067 344.153 55.56C343.407 56.0133 342.54 56.24 341.553 56.24ZM341.553 54.8C342.167 54.8 342.72 54.6533 343.213 54.36C343.707 54.0533 344.093 53.6 344.373 53C344.667 52.3867 344.813 51.6333 344.813 50.74C344.813 49.8333 344.673 49.08 344.393 48.48C344.113 47.88 343.727 47.4333 343.233 47.14C342.753 46.8333 342.207 46.68 341.593 46.68C340.993 46.68 340.447 46.8333 339.953 47.14C339.46 47.4333 339.067 47.88 338.773 48.48C338.48 49.08 338.333 49.8333 338.333 50.74C338.333 51.6333 338.473 52.3867 338.753 53C339.047 53.6 339.433 54.0533 339.913 54.36C340.407 54.6533 340.953 54.8 341.553 54.8ZM348.967 56V45.48H350.487L350.567 47.14C350.874 46.54 351.314 46.0733 351.887 45.74C352.474 45.4067 353.147 45.24 353.907 45.24C354.68 45.24 355.354 45.3867 355.927 45.68C356.5 45.9733 356.947 46.42 357.267 47.02C357.587 47.62 357.747 48.38 357.747 49.3V56H356.067V49.48C356.067 48.5467 355.834 47.8467 355.367 47.38C354.914 46.9133 354.3 46.68 353.527 46.68C353.007 46.68 352.527 46.8067 352.087 47.06C351.647 47.3 351.294 47.66 351.027 48.14C350.774 48.62 350.647 49.2067 350.647 49.9V56H348.967ZM364.329 56.24C363.383 56.24 362.596 56.1 361.969 55.82C361.356 55.5267 360.889 55.1267 360.569 54.62C360.249 54.1 360.056 53.5 359.989 52.82H361.709C361.763 53.18 361.883 53.5133 362.069 53.82C362.269 54.1133 362.556 54.3533 362.929 54.54C363.303 54.7267 363.776 54.82 364.349 54.82C364.803 54.82 365.189 54.7533 365.509 54.62C365.829 54.4733 366.069 54.2733 366.229 54.02C366.403 53.7667 366.489 53.4733 366.489 53.14C366.489 52.7 366.389 52.36 366.189 52.12C366.003 51.8667 365.723 51.68 365.349 51.56C364.989 51.4267 364.536 51.3267 363.989 51.26C363.403 51.18 362.883 51.0667 362.429 50.92C361.976 50.7733 361.589 50.58 361.269 50.34C360.963 50.1 360.729 49.8 360.569 49.44C360.409 49.08 360.329 48.6533 360.329 48.16C360.329 47.5867 360.483 47.08 360.789 46.64C361.096 46.2 361.529 45.86 362.089 45.62C362.663 45.3667 363.336 45.24 364.109 45.24C365.243 45.24 366.136 45.5 366.789 46.02C367.456 46.54 367.849 47.28 367.969 48.24H366.309C366.243 47.7467 366.016 47.36 365.629 47.08C365.243 46.8 364.729 46.66 364.089 46.66C363.409 46.66 362.896 46.7867 362.549 47.04C362.203 47.2933 362.029 47.6267 362.029 48.04C362.029 48.3467 362.103 48.6267 362.249 48.88C362.409 49.12 362.676 49.3267 363.049 49.5C363.423 49.66 363.923 49.78 364.549 49.86C365.336 49.9533 366.003 50.1067 366.549 50.32C367.096 50.52 367.509 50.8333 367.789 51.26C368.083 51.6867 368.223 52.2667 368.209 53C368.209 53.6933 368.043 54.28 367.709 54.76C367.389 55.24 366.936 55.6067 366.349 55.86C365.776 56.1133 365.103 56.24 364.329 56.24Z" fill="#494953"/>
<defs>
<filter id="filter0_d_10_82" x="0" y="0" width="404" height="99" filterUnits="userSpaceOnUse" color-interpolation-filters="sRGB">
<feFlood flood-opacity="0" result="BackgroundImageFix"/>
<feColorMatrix in="SourceAlpha" type="matrix" values="0 0 0 0 0 0 0 0 0 0 0 0 0 0 0 0 0 0 127 0" result="hardAlpha"/>
<feOffset dx="1" dy="1"/>
<feGaussianBlur stdDeviation="10"/>
<feComposite in2="hardAlpha" operator="out"/>
<feColorMatrix type="matrix" values="0 0 0 0 0 0 0 0 0 0 0 0 0 0 0 0 0 0 0.1 0"/>
<feBlend mode="normal" in2="BackgroundImageFix" result="effect1_dropShadow_10_82"/>
<feBlend mode="normal" in="SourceGraphic" in2="effect1_dropShadow_10_82" result="shape"/>
</filter>
</defs>
</svg>
